<svg id="behance" xmlns="http://www.w3.org/2000/svg" width="25.03" height="15.722" viewBox="0 0 25.03 15.722">
  <g id="Group_14" data-name="Group 14" transform="translate(0 0)">
    <path id="Path_23" data-name="Path 23" d="M7.281,36a7.72,7.72,0,0,1,2,.219,4.419,4.419,0,0,1,1.558.612,2.558,2.558,0,0,1,1,1.169,4.475,4.475,0,0,1,.338,1.779,3.089,3.089,0,0,1-.557,1.943A3.969,3.969,0,0,1,10.062,43a3.671,3.671,0,0,1,2.109,1.442,4.592,4.592,0,0,1,.275,4.444,3.625,3.625,0,0,1-1.223,1.388,5.675,5.675,0,0,1-1.779.776,8.336,8.336,0,0,1-2,.275L0,51.336V36Zm-.446,6.223a2.49,2.49,0,0,0,1.5-.446,1.634,1.634,0,0,0,.555-1.388,2.113,2.113,0,0,0-.164-.887,1.535,1.535,0,0,0-.5-.555,2.878,2.878,0,0,0-.721-.275,4.539,4.539,0,0,0-.887-.055H3.395v3.614c0-.008,3.442-.008,3.442-.008ZM7,48.783a5.007,5.007,0,0,0,.948-.11,1.86,1.86,0,0,0,.776-.338,2.127,2.127,0,0,0,.557-.61,2.68,2.68,0,0,0,.219-1A2.14,2.14,0,0,0,8.832,45a2.918,2.918,0,0,0-1.779-.5H3.395v4.277H7v.008Zm10.728-.055a2.716,2.716,0,0,0,2,.666,3.027,3.027,0,0,0,1.614-.447,2.2,2.2,0,0,0,.829-1h2.722a5.469,5.469,0,0,1-2,2.891,5.926,5.926,0,0,1-3.223.885,6.469,6.469,0,0,1-2.389-.446,5.133,5.133,0,0,1-2.893-3.057A6.609,6.609,0,0,1,14,45.829a6.373,6.373,0,0,1,.391-2.336,6.05,6.05,0,0,1,1.169-1.888,5.609,5.609,0,0,1,1.779-1.223,6.286,6.286,0,0,1,2.336-.446,5.145,5.145,0,0,1,2.5.555,4.562,4.562,0,0,1,1.724,1.5,6.788,6.788,0,0,1,1,2.109,11.831,11.831,0,0,1,.11,2.445H16.952A3.194,3.194,0,0,0,17.728,48.728Zm3.5-5.838a2.411,2.411,0,0,0-1.726-.612,2.665,2.665,0,0,0-1.222.275,2.827,2.827,0,0,0-.776.61,1.5,1.5,0,0,0-.391.778,3.717,3.717,0,0,0-.11.72h5a2.966,2.966,0,0,0-.777-1.771ZM16.34,37.058h6.223v1.5H16.34Z" transform="translate(0 -36)" fill="#fff"/>
  </g>
</svg>
