<?xml version="1.0" encoding="UTF-8"?><svg id="Camada_1" xmlns="http://www.w3.org/2000/svg" viewBox="0 0 163.46 163.46"><defs><style>.cls-1{fill:#002776;}.cls-2{fill:#fedf00;}.cls-3{fill:#fff;}.cls-4{fill:#009b3a;}</style></defs><g id="I4D1e4.tif"><path class="cls-4" d="m-.62,167.79V-2.21c.64.04,1.28.11,1.93.11,10.09,0,20.18,0,30.28,0,43.48,0,86.96,0,130.45,0,.68,0,1.36,0,2.05,0v169.78c-.87,0-1.62,0-2.37,0-53.52,0-107.04,0-160.56,0-.59,0-1.18.07-1.77.11Zm14.19-84.83c2.79,1.78,5.32,3.39,7.85,5,19.75,12.65,39.5,25.29,59.22,37.96.92.59,1.54.56,2.44-.02,21.94-14.1,43.9-28.16,65.85-42.24.38-.25.72-.56,1.21-.94-.96-.63-1.75-1.17-2.56-1.69-4.75-3.02-9.51-6.04-14.27-9.06-16.7-10.63-33.41-21.25-50.1-31.92-1-.64-1.71-.66-2.72-.01-20.59,13.22-41.2,26.41-61.81,39.61-1.62,1.04-3.24,2.09-5.12,3.3Z"/><path class="cls-2" d="m13.57,82.96c1.88-1.21,3.5-2.26,5.12-3.3,20.61-13.2,41.22-26.38,61.81-39.61,1.01-.65,1.72-.63,2.72.01,16.68,10.66,33.39,21.29,50.1,31.92,4.75,3.02,9.51,6.04,14.27,9.06.81.51,1.6,1.05,2.56,1.69-.48.38-.82.69-1.21.94-21.95,14.08-43.91,28.14-65.85,42.24-.9.58-1.52.61-2.44.02-19.73-12.68-39.48-25.32-59.22-37.96-2.52-1.62-5.06-3.22-7.85-5Zm39.17-.49c.18,1.83.23,3.4.49,4.93,2.74,16.21,17.61,26.01,31.82,24.14,11.55-1.52,19.44-7.84,23.92-18.55.43-1.02.24-1.6-.61-2.31-15.55-12.94-33.33-18.03-53.37-15.33-1.04.14-1.39.6-1.51,1.49-.26,1.96-.52,3.93-.74,5.63Zm2.86-11.51c5.97-.63,11.74-.76,17.51-.12,5.81.65,11.44,2.06,16.73,3.96.45-.58.75-1.02,1.12-1.38.04-.04.47.31.72.48-.3.38-.6.77-.98,1.26,7.11,2.73,13.63,6.65,19.7,11.49,2.19-11.81-5.18-27.83-21.59-31.96-15.21-3.83-29.01,5.52-33.21,16.28Z"/><ellipse class="cls-3" cx="81.48" cy="82.89" rx="28.74" ry="28.82"/><path class="cls-1" d="m52.74,82.46c.22-1.7.48-3.67.74-5.63.12-.88.46-1.35,1.51-1.49,20.04-2.7,37.82,2.4,53.37,15.33.85.71,1.03,1.28.61,2.31-4.48,10.71-12.37,17.03-23.92,18.55-14.21,1.87-29.08-7.93-31.82-24.14-.26-1.53-.31-3.09-.49-4.93Z"/><path class="cls-1" d="m55.6,70.95c4.19-10.76,18-20.11,33.21-16.28,16.41,4.13,23.79,20.16,21.59,31.96-2.58-2.09-5.73-4.36-9.46-6.54-4.02-2.35-7.81-4.05-11.1-5.31-1.44-.51-3.35-1.13-5.61-1.75-5.56-1.51-9.92-2.08-11.12-2.21-5.77-.64-11.54-.51-17.51.12Z"/></g></svg>