<?xml version="1.0" encoding="UTF-8"?><svg id="Camada_1" xmlns="http://www.w3.org/2000/svg" viewBox="0 0 163.46 163.46"><defs><style>.cls-1{fill:#fa0203;}.cls-2{fill:#fb0203;}.cls-3{fill:#fe0002;}.cls-4{fill:#fff;}.cls-5{fill:#ffecec;}.cls-6{fill:#ffe5dc;}.cls-7{fill:#fdfdfd;}.cls-8{fill:#d11313;}.cls-9{fill:#da171d;}</style></defs><g id="ejJhae"><path class="cls-4" d="m135.97,30.5c-.05-.06-.11-.13-.17-.2H27.65c-.06.07-.11.14-.17.2,0,.3-.03.6-.03.9v100.66c0,.3.02.61.03.91.06.06.11.13.17.2h108.15c.06-.07.12-.14.17-.2,0-.3.03-.61.03-.91.01-33.55.01-67.1,0-100.66,0-.3-.02-.6-.03-.9ZM51.1,96.54c0-.15.33-.33.52-.48.02,0,.15.12.22.19.43.43.86.87,1.34,1.37-.97.22-2.03-.36-2.08-1.08Zm38.23,10.86c-.31-.01-.59-.37-.89-.57.06-.12.13-.25.2-.38.55.09,1.11.18,1.66.27.04.08.07.17.11.25-.36.16-.73.44-1.08.43Zm22.67-10.29c-.36.48-.81.96-1.77.45.71-.49,1.31-.91,1.98-1.37-.05.23-.01.65-.21.92Zm12.68-12.23c-1.76-.23-2.63.81-2.39,2.35.16.97,0,1.18-1.06,1.05-.74-.09-1.48-.22-2.22-.33-.06,0-.12,0-.17.03.14.72.31,1.43.4,2.15.11.85-.41,1.28-1.31,1.21-.62-.04-1.28-.07-1.85.09-.26.08-.51.67-.48,1.01.17,1.73-.37,2.47-2.12,2.32-1.66-.14-2.28,1.05-3.2,1.87-.7.62-1.37,1.12-2.39,1.21-.4.04-.78.48-1.13.76-.2.16-.31.54-.48.56-.9.1-.78.66-.78,1.25.01,2.21.02,4.42-.06,6.63-.02.32-.52.63-.8.94-.07-.17-.15-.33-.22-.49-.5-.01-.99-.02-1.49-.03-.35-.06-.71-.12-1.06-.18-.42-.08-.84-.16-1.26-.25-.88.3-1.75.45-2.56-.16,0-.06-.01-.12,0-.18-.14-.02-.27-.05-.41-.07-.43.08-.85.15-1.28.22-.23.12-.47.34-.7.34-.8-.01-1.6-.12-2.4-.13-.61-.02-1.27.12-1.14-.8-.08-.13-.15-.25-.23-.38l.03-.05c-.29,0-.57.01-.85.02-.08.01-.15.01-.23.02-.06.1-.13.2-.19.3-.08-.16-.15-.31-.23-.47-.28-.02-.56-.04-.84-.06-.21.07-.43.14-.64.21-1.16.36-2.35.65-3.46,1.11-.44.19-.69.77-1.04,1.19-.36-.08-.79-.19-1.23-.29v2.81c.44.04.88.08,1.49.13,0,.48-.04,1,0,1.51.11,1.22.26,2.43.39,3.64.03.26.1.56.02.79-.74,2.01-.29,4.08-.42,6.12-.01.12-.06.24-.09.33-.35-.17-.66-.31-.96-.46,0,1.09.02,2.18-.03,3.27-.01.25-.28.49-.43.73-.91.07-1.83.19-2.75.2s-.51-.75-.65-1.18c-.12-.12-.24-.24-.35-.35.11-.09.23-.18.35-.26,0-.54.03-1.07.05-1.6.05-.21.1-.41.15-.61.02-.87.05-1.74.07-2.61-.26-1.08-.59-2.17.15-3.22.01-.87.03-1.73.05-2.6.04-.07.09-.14.14-.21.03-.2.06-.4.09-.6v-1.21c0-.67,0-1.33,0-2-.08-1.01-.15-2.01-.23-3.02-.22-.11-.58-.37-.64-.32-.59.48-1.03.39-1.53-.14-.16-.18-.59-.12-.89-.2-.75-.21-1.49-.43-2.23-.65-.17,1.2-.48,1.34-1.67.82.27-.37.54-.74.81-1.12-.21-.07-.42-.13-.64-.2-.27.02-.55.04-.83.06-.15.04-.29.09-.44.13-.21.02-.42.03-.63.05,0,.12,0,.24-.01.36v1.05c-.91.18-2.5-.44-2.75-1.01h-.42c-.54.84-.98.91-2.35.33-.2.03-.41.06-.62.1-.05.15-.09.43-.15.43-1.01.06-2.02.08-3.04.1-.14.02-.28.04-.42.05-.35.05-.71.1-1.06.16-.56.01-1.13.02-1.69.04-.17.12-.45.38-.49.35-.21-.16-.5-.38-.52-.6-.11-1.22-.19-2.45-.2-3.67-.01-1.25.1-2.5.12-3.75.01-.18-.2-.39-.35-.55-.3-.33-.62-.65-.97-.94-.26-.2-.58-.49-.87-.48-1.83.07-2.73-1.29-3.75-2.3-.53-.52-.98-.75-1.66-.76-2.31-.04-2.54-.3-2.43-2.49.03-.54-.14-.98-.89-.93-.58.04-1.17-.01-1.76,0-.84.02-1.15-.42-1.06-1.14.09-.75.27-1.5.41-2.25-.09-.07-.17-.14-.25-.22-.81.2-1.62.49-2.45.57-.63.07-.95-.24-.84-1,.1-.7-.17-1.45-.28-2.18-.87-.19-1.72-.71-2.62-.08-.17-.25-.49-.5-.48-.75,0-.24.32-.48.54-.77-.17-.21-.39-.39-.5-.61-.13-.28-.17-.6-.26-.89.28-.05.55-.11.83-.14.93-.09,1.86-.18,2.84-.27-.05-.52-.15-1.01-.12-1.49.03-.43.21-.85.39-1.52-.28-.4-.57-.98-.13-1.85.25-.5-.31-1.31-.33-1.99-.03-1.54.04-3.09.1-4.64,0-.09.24-.18.38-.27v-1.42c-.02-.13-.04-.25-.07-.38-.12-.27-.25-.54-.37-.81v-1.62c1.14,0,2.14,0,3.13.01.14,0,.34.01.4.09.81,1,1.57.58,2.45.07.23-.13.78.25,1.12.56.43-.08.88-.28,1.29-.24,1.54.16,1.8.61,1.59,2.53.07.12.14.24.22.36.13.03.27.06.4.09.15-.08.29-.16.44-.24.78-.07,1.56-.13,2.34-.2.11-.01.22-.01.33-.02.03-.13.06-.25.1-.38-.08-.14-.15-.27-.22-.41-.07-1.4-.2-2.81-.19-4.21.01-.72.44-1.24,1.35-1.22,1.24.03,2.47,0,3.71,0,1.09.01,1.94.77,1.89,1.81-.05.92.27,1.24,1.26,1.24.65,0,1.29.35,2.07.59.01-.15.02-.41.04-.67.04-.38.08-.76.13-1.13.06-.38.08-.77.22-1.12.13-.34.41-.63.61-.95.19-.31.58-.71.49-.93-.13-.32-.61-.52-.93-.77-.23-.18-.65-.38-.64-.55.1-2.06.27-4.11.44-6.16.01-.07.21-.14.32-.2v-.61c-.05-.08-.1-.16-.16-.24-.02-.45-.03-.91-.05-1.36-.06-.14-.12-.27-.18-.4,0-.07,0-.14,0-.21-.02-.41-.17-.89.01-1.19.11-.18.75-.06,1.15-.08,1.02-.03,2.04.5,3.09-.07.26-.14.94.01,1.15.24.55.62,1.14.32,1.71.21.65-.13,1.3-.32,1.94-.53.24-.07.59-.22.63-.4.2-.79.3-1.6.57-2.3.34-.51.64-1.06,1.04-1.53.26-.31.65-.72,1-.73.97-.03,1.07-.54,1.06-1.25-.02-1.02,0-2.03,0-3.23h6.84v4.37c.35.03.71-.03,1,.09.39.16.79.39,1.04.7.39.47.66,1.04,1.16,1.45.14.9.29,1.8.41,2.56,1.03.31,1.95.64,2.9.87.45.1.97.31,1.4-.28.17-.23.89-.38,1.15-.23,1.05.59,2.06.12,3.08.07.4-.02,1.05-.11,1.15.07.18.3.03.78.02,1.19-.07.67-.14,1.34-.21,2.02.21,2.15.44,4.31.62,6.47.06.64.14,1.37-1,1.28-.2-.01-.6.4-.64.65-.03.29.14.74.39.9.55.36.93.7.66,1.38-.03.08.02.19.05.29.2.76.41,1.53.58,2.17.76-.14,1.69-.27,2.57-.54.27-.08.53-.56.56-.87.12-1.5.73-2.09,2.28-2.09,1.16,0,2.33,0,3.49,0,.85.01,1.19.52,1.2,1.24.02,1.34-.02,2.69-.03,4.03,0,.05-.09.1-.13.15.07.27.14.54.2.81.83,0,1.66-.02,2.48,0,.59.01.83-.14.86-.79.09-1.58.74-1.93,2.42-1.53.21.05.46-.03.69-.07,1.54-.26,3.07-.54,4.62-.77.33-.05.69.07,1.03.15.41.09,1.13.17,1.16.36.16.75.1,1.53.1,2.3,0,.05-.24.1-.37.14-.03.06-.04.12-.05.19v1.22c.14.12.4.25.4.37,0,2.02.59,4.06-.26,6.04-.07.17-.11.44-.02.56.67.85.16,1.47-.45,2.07,1.31.58.61,1.58.67,2.57.9.13,1.84.27,2.79.43.28.05.55.18.82.28-.12.28-.21.58-.38.83-.1.15-.33.23-.53.36.29.45.56.87.96,1.5-.61,0-.97.04-1.33-.01Z"/><rect class="cls-3" x="-2.1" y="-.74" width="29.33" height="165.59"/><rect class="cls-3" x="136.23" y="-.74" width="28.65" height="165.59"/><path class="cls-8" d="m136.23,30.3v102.86h-.21c-.01-.07-.03-.13-.04-.2.01-.3.03-.6.03-.9,0-33.55,0-67.11,0-100.66,0-.3-.02-.6-.03-.9.01-.07.03-.13.04-.2.07,0,.14,0,.21,0Z"/><path class="cls-8" d="m27.23,133.16V30.3c.07,0,.14,0,.21,0,.01.07.03.13.04.2-.01.3-.03.6-.03.9,0,33.55,0,67.11,0,100.66,0,.3.02.6.03.9l-.04.2h-.21Z"/><path class="cls-5" d="m135.98,132.96c.01.07.03.13.04.2h-.21c.06-.07.11-.13.17-.2Z"/><path class="cls-5" d="m136.02,30.3c-.01.07-.03.13-.04.2-.06-.07-.11-.13-.17-.2.07,0,.14,0,.21,0Z"/><path class="cls-5" d="m27.48,30.5c-.01-.07-.03-.13-.04-.2.07,0,.14,0,.21,0-.06.07-.11.13-.17.2Z"/><path class="cls-5" d="m27.44,133.16l.04-.2c.06.07.11.13.17.2h-.21Z"/><path class="cls-7" d="m64.98,50.79c-.01-.41-.16-.89.02-1.19.1-.17.75-.06,1.15-.07,1.02-.04,2.04.49,3.09-.07.27-.14.94,0,1.15.24.55.62,1.14.32,1.7.21.66-.13,1.31-.32,1.94-.53.24-.08.59-.23.63-.4.19-.79.29-1.61.57-2.3.34-.51.64-1.06,1.04-1.53.26-.31.65-.72,1-.73.97-.03,1.08-.54,1.06-1.25-.02-1.01,0-2.03,0-3.22h6.84v4.37c.35.02.72-.03,1.01.09.38.16.78.39,1.03.7.39.48.66,1.04,1.16,1.45.15.9.29,1.8.42,2.56,1.02.31,1.95.64,2.89.87.46.11.98.32,1.4-.27.17-.23.89-.38,1.15-.24,1.05.59,2.06.13,3.09.07.4-.02,1.05-.11,1.15.07.18.31.03.79.02,1.19-.76,0-1.56-.08-1.9.81-.21.13-.42.27-.63.4-.07.04-.15.09-.22.13-.14.02-.28.05-.42.07-.3.02-.64-.05-.88.07-.71.36-1.36.83-2.07,1.18-1.13.57-2.05.38-2.65-.55-.72-1.09-1.36-2.22-2.08-3.3-.2-.31-.54-.54-.82-.8-.05-.02-.11-.03-.17-.03h0c-.07-.06-.14-.14-.22-.21,0,0,.02.02.02.02-.08-.14-.15-.27-.23-.41h.01c-.22-.51-.45-1.04-.67-1.57-.07-.07-.14-.14-.21-.22-.07-.14-.13-.28-.2-.42-.15-.32-.31-.65-.46-.97-.07-.14-.15-.27-.22-.41.3-.75-.17-1.14-.77-1.45-.06-.05-.12-.11-.18-.16-.05-.04-.08-.1-.09-.16-.15-.27-.29-.55-.44-.82-.09-.06-.17-.12-.26-.18-.04-.07-.07-.15-.11-.23-.09-.13-.17-.26-.26-.38-.06-.02-.11-.04-.17-.04-.4-.75-.77-.82-1.19-.16-.52.83-1,1.69-1.44,2.56-.43.86-.79,1.75-1.18,2.63-.03.05-.05.11-.04.17-.64,1.01-1.28,2.03-1.93,3.04-.24.15-.57.25-.71.46-.87,1.31-1.69,2.65-2.48,3.9-.86-.07-1.55-.12-2.25-.18-1.01-.77-1.95-1.66-3.39-1.62-.71-.7-1.47-1.29-2.59-1.16Z"/><path class="cls-7" d="m54.59,67.87c-.07-1.4-.2-2.81-.18-4.21,0-.72.44-1.24,1.35-1.22,1.23.03,2.47,0,3.7,0,1.09,0,1.95.77,1.89,1.82-.05.92.27,1.23,1.26,1.23.65,0,1.29.35,2.07.59,0-.15.02-.41.04-.67.04-.38.08-.75.13-1.13.06-.38.08-.77.22-1.12.14-.34.41-.64.61-.96.19-.31.58-.71.49-.92-.13-.32-.61-.52-.93-.77-.23-.18-.65-.38-.64-.55.11-2.05.27-4.11.44-6.16,0-.08.21-.14.33-.21.23.86.46,1.72.68,2.58.12.48.24.96.36,1.44.03.13.05.26.08.39-.24,1.24-.21,2.43.77,3.43.03.33.05.66.08.99-.55,1.19.08,2.2.58,3.22.15.53.31,1.07.46,1.6.11,1.1.21,2.21.33,3.31,0,.05.18.08.27.12l.06-.02c-.02.14-.05.27-.07.41-.06.25-.15.5-.17.76-.13,1.66-.36,1.86-2.09,1.85-.65-.55-1.29-1.1-1.94-1.65,0-.06-.01-.11-.06-.15.03-.05.04-.11.03-.17-.12-.3-.17-.63-.36-.88-.65-.85-1.29-1.74-2.06-2.49-.48-.47-1.19-.73-1.79-1.09h0c-.07-.07-.15-.13-.22-.2-.09-.03-.18-.07-.26-.1,0,0-.05-.05-.05-.05-.04-.08-.07-.17-.11-.25-.28-1.39-1.02-2.15-2.14-2.2-.3-.26-.61-.51-1.04-.87-.16.38-.29.71-.43,1.04-.06.01-.13.02-.2.03-.07.07-.14.13-.21.2,0,.07-.02.13-.04.19-.19.61-.38,1.21-.57,1.82-.01.13-.03.26-.04.39-.21.2-.41.4-.62.61Z"/><path class="cls-7" d="m98.27,52.8c.21,2.16.44,4.31.63,6.47.06.65.14,1.37-1,1.28-.21-.02-.6.4-.64.65-.04.29.14.74.38.9.55.36.93.7.67,1.38-.03.08.02.19.04.29.2.76.41,1.53.59,2.17.75-.15,1.68-.27,2.56-.54.27-.08.54-.56.56-.88.12-1.49.73-2.09,2.28-2.09,1.16,0,2.33,0,3.49,0,.84,0,1.18.52,1.19,1.24.02,1.35-.01,2.69-.03,4.04,0,.05-.08.1-.13.15-.28-.81-.54-1.63-.86-2.42-.12-.29-.42-.53-.63-.79-.28-.28-.57-.56-.85-.84-.27.21-.53.43-.8.64,0,0-.06-.02-.06-.02-1.14,0-1.55.67-1.66,1.62-.3.33-.6.67-.91,1-.05.07-.1.13-.16.2h0c-1.65.28-2.13,1.62-2.79,2.78-.07.07-.14.13-.21.2-.65.32-1.27.65-1.22,1.48-.3.37-.61.75-.91,1.12-.07.07-.14.14-.21.21-.21.2-.42.41-.62.61-.13,0-.26.02-.39.03-1.66,0-1.94-.24-1.9-1.78.01-.59.22-1.17.26-1.77.03-.43-.07-.86-.12-1.29.04-.13.07-.26.11-.38l.16-1.01c0-.26.02-.53.03-.79.12-.35.24-.69.36-1.04.2-.22.55-.43.59-.67.16-1.17.23-2.35.33-3.52.21-.61.42-1.23.63-1.84.24-.71.57-1.41.66-2.14.08-.6-.13-1.23-.21-1.85.06-.53.13-1.06.19-1.59.12-.41.25-.83.37-1.24.08,0,.17.02.25.02Z"/><path class="cls-7" d="m118.84,87.98c.14.72.31,1.43.4,2.15.11.85-.41,1.27-1.31,1.21-.62-.04-1.28-.08-1.85.09-.25.07-.5.67-.47,1,.16,1.73-.37,2.47-2.12,2.32-1.66-.14-2.28,1.06-3.2,1.87-.7.62-1.37,1.12-2.39,1.22-.4.04-.78.47-1.14.76-.19.16-.3.54-.48.56-.9.1-.78.66-.78,1.25.01,2.21.02,4.42-.06,6.63-.01.32-.52.62-.79.94-.08-.16-.15-.33-.23-.49-.14-.55-.27-1.1-.41-1.65-.23-.87-.46-1.74-.69-2.6,0-.13.08-.3.01-.39-.88-1.21-.4-2.32.26-3.42,1.19-.95,2.39-1.9,3.58-2.85.27-.13.54-.26.81-.39,1.57-.32,2.6-1.24,3.2-2.63.23-.19.46-.38.68-.57.06-.05.12-.11.18-.16.06-.02.13-.04.19-.05.94.07,1.6-.22,1.71-1.21,0-.06.01-.12.02-.18,0,0,0,0,0,0,.07,0,.15,0,.22,0,1.13-.03,1.65-.79,2.1-1.61h0c.07-.05.14-.1.22-.15.78-.55,1.55-1.09,2.33-1.64Z"/><path class="cls-7" d="m59.04,107.48c-.17.13-.45.38-.49.35-.21-.16-.49-.38-.51-.6-.11-1.22-.2-2.45-.21-3.67,0-1.25.11-2.5.12-3.75,0-.19-.2-.4-.35-.56-.3-.33-.62-.65-.97-.93-.26-.21-.58-.5-.87-.49-1.84.08-2.73-1.28-3.76-2.3-.53-.52-.98-.75-1.66-.76-2.3-.04-2.54-.3-2.43-2.49.03-.54-.13-.98-.89-.93-.58.04-1.17,0-1.76,0-.84.02-1.16-.43-1.07-1.14.1-.75.27-1.5.41-2.25.78.55,1.55,1.09,2.33,1.64.07.05.14.1.22.15.07.07.14.14.21.21.07.06.14.13.22.19.07.06.14.13.22.19.09.85.72,1.01,1.46,1.02.07,0,.14,0,.21.01.01.06.02.11.03.17.08.86.61,1.23,1.49,1.21.49.36.98.71,1.47,1.07.07.05.14.1.21.15h0c.23,1,1.42,1.93,2.55,2,.35.19.7.39,1.05.58.19.16.37.32.56.48,1.03.86,2.05,1.71,3.08,2.57.47.98.91,1.96.29,3.05-.12.21-.06.51-.08.76-.29.87-.58,1.75-.88,2.62-.07.48-.14.96-.22,1.44Z"/><path class="cls-7" d="m122.02,69.88c.14.12.4.25.4.37,0,2.01.59,4.06-.26,6.04-.07.17-.11.44-.01.56.67.85.16,1.47-.45,2.08,1.31.58.61,1.58.67,2.56.89.14,1.84.27,2.78.43.28.05.55.18.83.28-.12.28-.22.58-.38.83-.1.15-.33.23-.52.36.29.45.56.87.96,1.5-.61,0-.97.04-1.33,0-1.76-.23-2.63.81-2.39,2.34.15.97-.01,1.18-1.07,1.06-.74-.09-1.48-.22-2.22-.33.17-.22.34-.44.52-.64.27-.32.56-.62.84-.93,1.13-.81,2.26-1.62,3.45-2.47-.42-.35-.68-.56-.93-.77-.78-.41-1.56-.82-2.34-1.24-.24-.31-.47-.63-.73-.93-.36-.41-.73-.81-1.1-1.22.05-.21.11-.42.16-.63.13-.09.33-.17.37-.29.44-1.65.86-3.3,1.29-4.96.09-.53.17-1.06.26-1.59.05-.07.11-.14.16-.22,0-.07.03-.13.07-.18.33-.67.67-1.34,1-2.01Z"/><path class="cls-2" d="m107.18,96.57c-1.19.95-2.39,1.9-3.58,2.85-1.13.17-1.16,1.11-1.15,1.82,0,.69-.09,1.6.87,1.99.23.87.46,1.74.69,2.6.1.88-.15,1.28-1.22,1.04-.7-.16-1.47-.02-2.21-.02l-2.1-.16c-.14,0-.29,0-.43,0-.14-.02-.27-.05-.41-.07-.85-.11-1.7-.23-2.56-.34-.28-.02-.56-.04-.84-.06-.78-.12-1.57-.23-2.35-.35,0,0,.02-.06.02-.06-.3-.18-.59-.49-.92-.53-1.6-.2-3.21-.32-4.81-.47.55-.16,1.11-.48,1.66-.47,2.02.04,4.03.25,6.05.27,1.82.02,3.65-.15,5.47-.17,2.72-.03,2.7,0,2.73-2.57.02-1.33.11-2.66.17-4.07.6,0,.98,0,1.37,0,1.63,0,1.69-.05,1.85-1.57.04-.42-.04-.85.07-1.25.05-.19.42-.45.63-.44.9.03,1.8.15,2.69.24-.56.59-1.13,1.19-1.69,1.78Z"/><path class="cls-7" d="m40.8,85.15c-.87-.19-1.72-.71-2.62-.08-.17-.25-.49-.5-.48-.75,0-.24.33-.48.55-.77-.17-.2-.39-.38-.5-.61-.13-.28-.18-.59-.26-.89.27-.04.55-.1.82-.13.93-.1,1.86-.18,2.84-.28-.05-.52-.15-1.01-.12-1.49.03-.43.21-.85.39-1.52-.28-.4-.56-.98-.13-1.85.25-.5-.31-1.31-.33-1.99-.03-1.55.04-3.09.09-4.64,0-.1.25-.18.38-.27.2.34.4.67.6,1.01.29.68.58,1.35.87,2.03,0,.32.02.64.02.96.31,1.45.6,2.9.93,4.34.03.13.32.21.49.31.03.06.05.13.08.19.06.26.12.53.18.79.04.14.09.27.13.41,0,.13.02.27.03.4-.76.59-1.53,1.18-2.29,1.77-.64.34-1.29.69-1.93,1.03q-1.06.58-.19,1.32c.2.18.38.38.57.57-.05.05-.09.09-.14.14Z"/><path class="cls-7" d="m109.08,68.67c.83,0,1.65-.01,2.48,0,.59.01.83-.14.86-.79.09-1.58.73-1.93,2.42-1.53.21.05.46-.03.68-.07,1.54-.26,3.08-.54,4.62-.77.33-.05.69.07,1.03.15.41.1,1.13.18,1.17.36.15.75.1,1.53.09,2.3,0,.05-.24.1-.37.14.05-.4.11-.79.16-1.19-.39-.69-.82-.6-1.27-.05-.14.02-.27.04-.41.06-.21-.04-.44-.14-.64-.12-1.61.22-3.23.42-4.83.73-.48.09-.89.48-1.33.73-1.34.22-2.68.45-4.02.67-.21-.02-.42-.04-.64-.05,0-.19,0-.38-.01-.57Z"/><path class="cls-7" d="m83.22,110.66c.44.04.88.07,1.48.13,0,.48-.04,1,0,1.51.11,1.21.26,2.42.39,3.64.03.26.1.56.01.79-.74,2.01-.28,4.08-.42,6.12,0,.12-.06.24-.09.33-.35-.17-.66-.32-.97-.46-.01-1.18.02-2.37-.06-3.55-.02-.37-.35-.72-.54-1.08-.02-1-.03-2-.05-3.01.07-.31.2-.62.21-.93.03-1.16.01-2.33.01-3.49Z"/><path class="cls-7" d="m41,67.26v-1.61c1.14,0,2.13,0,3.13,0,.14,0,.33.01.4.09.8.99,1.57.58,2.45.07.22-.13.77.25,1.11.56.43-.09.88-.28,1.29-.24,1.54.16,1.8.6,1.59,2.53-.15.08-.29.16-.44.23-.13-.03-.27-.06-.4-.09-.59-.31-1.15-.78-1.79-.91-1.96-.39-3.95-.69-5.94-.94-.45-.06-.94.2-1.41.31Z"/><path class="cls-7" d="m88.95,105.84c-1.16.36-2.35.65-3.46,1.11-.44.18-.68.77-1.04,1.19-.36-.09-.79-.19-1.23-.29-.13-.27-.26-.54-.39-.81.14-.6.28-1.2.43-1.79.7-.65,1.52-.29,2.3-.25.92.16,1.84.32,2.76.48.21.12.43.24.64.36Z"/><path class="cls-7" d="m80.25,107.45c-.22-.11-.58-.37-.65-.32-.59.48-1.02.39-1.52-.14-.17-.18-.6-.12-.89-.21-.75-.21-1.49-.43-2.23-.64-.17,1.2-.48,1.34-1.67.82.27-.37.54-.74.81-1.12.14-.12.29-.24.43-.36.34-.02.69-.03,1.03-.05.08-.05.15-.1.23-.14.14,0,.28,0,.42,0,.07.09.15.19.22.28.07-.1.14-.19.21-.29.14-.02.28-.03.42-.05.62.31,1.22.43,1.71-.21.42.13.85.27,1.27.4.19.48.39.95.58,1.43,0,.13,0,.27,0,.4-.13.07-.25.13-.38.2Z"/><path class="cls-9" d="m82.99,115.08c.02,1,.03,2,.05,3.01.05,2.87.1,5.75.15,8.62-.92.07-1.83.19-2.75.2-.92,0-.51-.75-.66-1.18v-.61c.02-.53.04-1.07.05-1.6.05-.2.1-.41.15-.61.02-.87.04-1.73.07-2.6.05-1.07.1-2.15.15-3.22.02-.87.03-1.73.05-2.6.05-.07.09-.14.14-.21.03-.2.06-.41.09-.61.07.07.13.13.2.2,0,.6,0,1.21,0,1.81,0,.07,0,.13,0,.2,0,.4,0,.8,0,1.21-.07,1.54-.14,3.08-.21,4.62v.4c0,.07,0,.13,0,.2-.07,1.09-.1,2.19-.23,3.28-.12,1,.51.97,1.23.94.69-.03,1.39.18,1.36-.94-.08-3.1-.04-6.21-.04-9.31,0-.33,0-.67,0-1,.01-.08.02-.15.03-.23.06.02.12.03.19.03Z"/><path class="cls-9" d="m77.06,105.22c-.14.02-.28.03-.42.05-.14,0-.29,0-.43,0-.14,0-.28,0-.42,0l-.23.14c-.34.02-.69.03-1.03.05-.36.05-.71.1-1.07.16-.28.02-.56.04-.84.06-.15.04-.29.09-.44.13-.21.01-.42.03-.63.04-.36.05-.71.11-1.07.16l-.63.05-.65.15c-.14.01-.28.03-.42.04-.14,0-.28,0-.42,0-.78.11-1.57.22-2.35.34-.21.03-.42.06-.62.09-.14.01-.29.03-.43.04l-.21.11c-.85.13-1.7.26-2.55.39-.14.02-.28.03-.42.05-.35.05-.71.1-1.06.15-.56.01-1.13.03-1.69.04.07-.48.14-.96.22-1.44.21.8.69,1.12,1.55.77.18-.07.4-.03.6-.05,1.4-.17,2.8-.34,4.21-.51.35-.07.71-.14,1.06-.21.5-.06.99-.13,1.49-.19.42-.07.84-.14,1.27-.21,1.13-.14,2.26-.27,3.39-.41l2.97-.41c.28,0,.56,0,.85-.01.21,0,.42,0,.63,0,.22-.01.44-.02.65-.03,0,0,0,.06,0,.06-.29.13-.57.25-.86.38Z"/><path class="cls-7" d="m44.38,87.76c-.82.2-1.62.48-2.46.57-.63.07-.94-.24-.84-1,.1-.7-.17-1.45-.28-2.18.05-.05.09-.09.14-.14.64.45,1.29.91,1.93,1.36.5.46,1,.93,1.5,1.39Z"/><path class="cls-6" d="m41,67.26c.47-.11.96-.36,1.41-.31,1.99.26,3.98.55,5.94.94.63.13,1.19.59,1.79.91-.5-.03-.99-.07-1.49-.1-.13-.02-.27-.03-.4-.05-.08-.05-.16-.1-.24-.16-.07,0-.15,0-.22,0-.56-.09-1.12-.18-1.68-.27-.15-.04-.29-.09-.44-.13-.14,0-.27,0-.41,0-.14-.03-.28-.05-.41-.08-1.09-.28-2.18-.55-3.31-.84-.07.38-.12.63-.16.88-.12-.27-.25-.54-.37-.81Z"/><path class="cls-5" d="m83.19,126.72c-.05-2.87-.1-5.75-.15-8.62.19.36.51.71.54,1.08.08,1.18.05,2.37.06,3.55,0,1.09.03,2.18-.02,3.27-.01.25-.28.49-.43.73Z"/><path class="cls-9" d="m44.38,87.76c-.5-.46-1-.93-1.5-1.39.31.11.68.15.93.34,1.78,1.28,3.53,2.58,5.28,3.89.22.17.31.48.47.73l-.07.07c-.07,0-.14,0-.21-.01-.49-.34-.98-.68-1.46-1.02-.07-.06-.14-.13-.22-.19-.07-.06-.14-.13-.22-.19-.07-.07-.14-.14-.21-.21-.07-.05-.14-.1-.22-.15-.78-.55-1.55-1.09-2.33-1.64-.08-.07-.16-.15-.24-.22Z"/><path class="cls-5" d="m82.99,115.08c-.07,0-.13,0-.19-.03,0-.06-.01-.12-.04-.18.02-2.61.04-5.22.06-7.83.13.27.26.54.39.81,0,.94,0,1.87,0,2.81,0,1.16.01,2.33-.01,3.49,0,.31-.14.62-.21.93Z"/><path class="cls-9" d="m80.62,107.25c0-.13,0-.27,0-.4,0-.4,0-.79.01-1.19.08,0,.16-.01.25-.02,0,0,.1,0,.1,0h.1c0,.06,0,.13.01.2l.02.4c0,.54,0,1.07-.01,1.61,0,.94,0,1.87-.01,2.81-.07.54-.14,1.07-.2,1.61,0,.06,0,.13,0,.19-.13,0-.26,0-.39.01,0-.67-.01-1.34-.02-2.01.05-1.07.1-2.14.15-3.22Z"/><path class="cls-9" d="m66.05,56.19c-.23-.86-.46-1.72-.68-2.58,0-.2,0-.4,0-.61-.05-.08-.11-.16-.16-.24-.02-.45-.04-.91-.05-1.36.03-.06.04-.12.05-.19.49.19.99.39,1.48.58-.28.12-.8.24-.81.38-.03.54.09,1.09.16,1.64.07.34.15.67.22,1.01,0,.47-.01.95-.02,1.42-.06-.01-.12-.03-.18-.05Z"/><path class="cls-9" d="m122.23,67.28c-.05.4-.11.79-.16,1.19-.03.06-.04.12-.05.18-.13.08-.27.16-.4.24-.04-.47-.07-.94-.13-1.66-.3.32-.36.36-.37.41-.08.26-.14.52-.21.78-.16-.15-.3-.37-.49-.42-.21-.05-.48.02-.7.1-.23.08-.44.23-.66.34-.15-.15-.3-.3-.45-.44.65-.24,1.29-.48,1.94-.72.14-.02.27-.04.41-.06.42.02.85.03,1.27.05Z"/><path class="cls-9" d="m88.3,105.47c-.92-.16-1.84-.32-2.76-.48.07-.06.14-.13.21-.19.14,0,.29,0,.43,0,1.61.15,3.21.28,4.81.47.32.04.61.35.92.53-.28,0-.56.01-.85.02-.08-.05-.15-.09-.23-.14-.14,0-.28,0-.42,0-.28-.02-.56-.04-.84-.06-.43-.05-.85-.1-1.28-.15Z"/><path class="cls-1" d="m41.38,68.07c.05-.25.09-.5.16-.88,1.13.29,2.22.56,3.31.84-.15.15-.3.29-.44.44-.4-.11-.8-.23-1.23-.35-.38.83-.8.12-1.27-.25-.03.37-.04.6-.06.82-.14-.08-.27-.16-.41-.23-.02-.13-.05-.26-.07-.39Z"/><path class="cls-9" d="m120.37,86.37c-.28.31-.57.62-.84.93-.18.21-.35.43-.52.64-.06,0-.12,0-.17.04-.78.55-1.55,1.09-2.33,1.64-.07.05-.14.1-.22.15h0c-.13,0-.26.02-.39.03.05-.15.05-.36.16-.44.84-.68,1.69-1.36,2.57-1.98.54-.38,1.16-.67,1.74-1Z"/><path class="cls-7" d="m94.25,106.22c.28.02.56.04.84.06.43.19.85.37,1.28.56-.23.12-.46.34-.69.34-.8,0-1.6-.12-2.41-.14-.61-.01-1.27.12-1.14-.8.71,0,1.42-.02,2.13-.02Z"/><path class="cls-7" d="m68.79,106.28c.14-.01.28-.03.42-.04.22-.05.43-.1.65-.15.21-.02.42-.03.63-.05.35.07.71.13,1.06.2v1.05c-.91.18-2.5-.44-2.75-1.01Z"/><path class="cls-6" d="m109.08,68.67c0,.19,0,.38.01.57l-.21.02c0-.06-.02-.12-.05-.17-.05-.08-.09-.17-.14-.25,0,0,0,0,0,0-.15-.26-.3-.52-.46-.78h0c-.21-.67-.43-1.34-.64-2.02,0-.06-.01-.12-.03-.17-.06-.21-.12-.42-.18-.63,0-.19-.01-.38-.02-.58.22.26.51.49.63.79.33.79.58,1.61.86,2.42.07.27.14.54.21.81Z"/><path class="cls-9" d="m100.58,106.86c.74,0,1.51-.13,2.21.02,1.07.24,1.32-.16,1.22-1.04.14.55.27,1.1.41,1.65-.5,0-.99-.02-1.49-.03-.35-.06-.71-.11-1.06-.17-.42-.08-.84-.17-1.26-.25,0-.06-.01-.12-.03-.17Z"/><path class="cls-7" d="m53.19,97.61c-.97.22-2.03-.36-2.09-1.08-.01-.15.33-.33.53-.48,0,0,.14.12.21.19.43.44.86.88,1.35,1.37Z"/><path class="cls-7" d="m110.24,97.56c.71-.49,1.31-.91,1.97-1.38-.05.23-.01.65-.21.92-.35.48-.81.96-1.77.46Z"/><path class="cls-9" d="m56.07,64.65c.07,0,.13-.01.2-.03-.06.34-.12.69-.19,1.03,0,.13,0,.27-.01.4-.14.47-.28.94-.42,1.41-.07.2-.14.4-.21.6-.08.27-.15.53-.23.8-.16,0-.32-.01-.48-.02.02-.06.01-.13-.02-.19.03-.13.06-.26.09-.39.13-.34.27-.67.4-1.01.01-.13.03-.26.04-.39.19-.61.38-1.21.57-1.82.02-.06.04-.13.04-.19.07-.07.14-.13.21-.2Z"/><path class="cls-6" d="m98.27,52.8c-.08,0-.17-.02-.25-.02,0-.27,0-.54,0-.81.01-.12.02-.24.03-.36-.07-.14-.17-.4-.2-.39-.43.1-.85.25-1.27.38.34-.89,1.14-.81,1.9-.81-.07.67-.14,1.34-.21,2.01Z"/><path class="cls-5" d="m80.62,107.25c-.05,1.07-.1,2.14-.15,3.22-.07-1.01-.15-2.01-.22-3.02.13-.07.25-.13.38-.2Z"/><path class="cls-7" d="m64.97,106.74c.14-.01.29-.03.43-.04-.05.15-.09.44-.15.44-1.01.05-2.02.07-3.03.1.85-.13,1.7-.26,2.55-.39.07-.04.14-.07.21-.11Z"/><path class="cls-7" d="m88.64,106.45c.56.09,1.11.17,1.67.26.04.09.07.17.11.26-.36.15-.73.44-1.08.42-.31-.01-.59-.37-.89-.57.07-.13.13-.25.2-.38Z"/><path class="cls-6" d="m121.61,68.89c.13-.08.27-.16.4-.24,0,.41,0,.82,0,1.22-.33.67-.67,1.34-1,2.01-.02-.2-.03-.4-.05-.6h0c.08-.33.16-.66.24-.99.13-.47.27-.94.4-1.4Z"/><path class="cls-5" d="m80.2,117.09c-.05,1.07-.1,2.15-.15,3.22-.26-1.09-.58-2.18.15-3.22Z"/><path class="cls-6" d="m96.36,106.84c-.43-.19-.85-.37-1.28-.56.85.11,1.7.23,2.56.34-.43.07-.85.15-1.28.22Z"/><path class="cls-8" d="m51.2,69.03c.13.03.27.06.4.09.15.04.29.08.44.12.56.02,1.12.04,1.68.06-.1.16-.24.48-.29.47-.9-.2-1.78-.44-2.67-.66.14-.03.29-.05.43-.08Z"/><path class="cls-6" d="m66.68,51.79c-.49-.19-.99-.39-1.48-.58-.08-.07-.15-.14-.23-.21,0-.07,0-.14,0-.21,1.12-.14,1.88.46,2.59,1.16,0,0-.06.07-.06.07-.14,0-.27-.02-.41-.02,0,0,0,0,0,0-.14-.07-.29-.14-.43-.21h0Z"/><path class="cls-7" d="m53.73,69.3c-.56-.02-1.12-.04-1.68-.06,0-.12,0-.24,0-.36.78-.07,1.56-.14,2.34-.21,0,.12,0,.25,0,.37-.21.09-.43.17-.64.26Z"/><path class="cls-6" d="m66.03,106.61c.78-.11,1.57-.22,2.35-.34-.54.84-.98.91-2.35.34Z"/><path class="cls-6" d="m41.45,68.46c.14.08.27.16.41.23.01.33.03.66.04.99.05.4.1.8.15,1.21-.2-.34-.4-.67-.6-1.01,0-.47,0-.95,0-1.42Z"/><path class="cls-6" d="m94.25,106.22c-.71,0-1.42.02-2.13.02-.08-.12-.15-.25-.23-.37.78.12,1.57.23,2.35.35Z"/><path class="cls-7" d="m100.58,106.86c.02.06.03.11.03.17-.88.3-1.74.45-2.56-.17.14-.06.28-.11.43-.17l2.1.16Z"/><path class="cls-1" d="m80.49,112.47c.13,0,.26,0,.39-.01-.07.47-.13.94-.2,1.41-.07-.07-.13-.13-.2-.2,0-.4,0-.8,0-1.2Z"/><path class="cls-6" d="m73.46,105.64c.36-.05.71-.1,1.07-.16-.14.12-.29.24-.43.36-.21-.07-.43-.13-.64-.2Z"/><path class="cls-7" d="m60.73,107.44c.35-.05.71-.1,1.06-.15-.35.05-.71.1-1.06.15Z"/><path class="cls-6" d="m71.55,106.23c-.35-.07-.71-.13-1.06-.2.36-.05.71-.11,1.07-.16,0,.12,0,.24-.01.36Z"/><path class="cls-7" d="m101.88,107.28c.35.06.71.11,1.06.17-.35-.06-.71-.11-1.06-.17Z"/><path class="cls-6" d="m88.3,105.47c.43.05.85.1,1.28.15-.21.07-.42.14-.64.21-.21-.12-.43-.24-.64-.36Z"/><path class="cls-6" d="m55.21,67.26c-.13.34-.27.67-.4,1.01-.07-.13-.15-.27-.22-.4.21-.2.41-.4.62-.61Z"/><path class="cls-6" d="m51.2,69.03c-.14.03-.29.05-.43.08-.06-.02-.13-.03-.19-.04-.02-.05-.03-.11-.03-.17.15-.08.29-.16.44-.23.07.12.15.24.22.36Z"/><path class="cls-7" d="m90.42,105.69c.14,0,.28,0,.42,0,0,.06,0,.11,0,.17-.07.1-.13.2-.2.3-.07-.16-.15-.31-.22-.47Z"/><path class="cls-5" d="m79.78,125.12v.61c-.12-.12-.23-.23-.35-.35.12-.09.23-.17.35-.26Z"/><path class="cls-5" d="m79.98,122.91c-.05.2-.1.41-.15.61.05-.2.1-.41.15-.61Z"/><path class="cls-6" d="m52.04,68.88c0,.12,0,.24,0,.36-.15-.04-.29-.08-.44-.12.14-.08.29-.16.43-.24Z"/><path class="cls-6" d="m72.18,105.83c.15-.04.29-.09.44-.13-.15.04-.29.09-.44.13Z"/><path class="cls-7" d="m64.97,50.99c.08.07.15.14.23.21,0,.06-.02.13-.05.19-.06-.13-.12-.27-.18-.4Z"/><path class="cls-6" d="m54.37,69.04c0-.12,0-.25,0-.37.11,0,.22,0,.34-.01.03.06.04.12.02.19-.05.07-.1.14-.15.22-.07,0-.14-.01-.21-.02Z"/><path class="cls-6" d="m98.48,106.7c-.14.06-.28.11-.43.17,0-.06,0-.12,0-.18.14,0,.29,0,.43,0Z"/><path class="cls-7" d="m65.21,52.76c.05.08.11.16.16.24-.05-.08-.11-.16-.16-.24Z"/><path class="cls-6" d="m90.85,105.86c0-.06,0-.11,0-.17.08.05.15.09.23.14l-.22.02Z"/><path class="cls-5" d="m80.39,114.28c-.05.07-.09.14-.14.21.05-.07.09-.14.14-.21Z"/><path class="cls-3" d="m119.52,83.16c-.12-.17-.31-.29-.46-.43v-.39c-.08-.2-.15-.4-.22-.61-.39,0-.78.03-1.16,0-.52-.04-1.29.24-1.37-.54-.07-.81-.15-1.79.25-2.42.2-.32,1.46-.05,2.24-.05.09-.4.19-.79.29-1.19.06-.2.12-.41.19-.61.05-.07.1-.13.15-.21.03-.19.06-.39.08-.59-.22-.38-.67-.79-.63-1.15.11-1.06.4-2.1.62-3.15.05-.22.24-.58.16-.64-.96-.77-.03-1.9-.6-2.72l-.45-.45c-.14.03-.28.06-.41.09-.28.12-.57.25-.85.37-.21.06-.43.13-.65.2-.42,0-.84.01-1.26.02-.21.12-.43.25-.65.38h-.83c-.1.26-.17.74-.29.74-.99.08-1.06.83-1.3,1.47-.29.79-2.54,1.42-3.22.88-.18-.14-.26-.46-.27-.7-.03-.73-.01-1.46,0-2.19-.01-.06-.03-.12-.05-.18-.05-.08-.09-.17-.14-.25-.15.01-.3.02-.45.03-.96-.1-1.93-.2-2.42-.25-1.53.1-2.63.18-3.73.26.05.64.08,1.28.15,1.91.07.6-.95,1.52-1.63,1.48-.57-.03-1.15.01-1.72.02-.14.13-.27.27-.41.4.09.89.17,1.77.25,2.6-.69.08-1.25.08-1.77.2-1.02.25-2-.7-3.02-.06-.07-.19-.21-.38-.19-.57.03-.29.17-.57.05-.96-.47.33-.94.67-1.46,1.05-.69-1.16.77-1.49.82-2.49-.44.15-.77.25-1.41.46.16-2.01.31-3.89.46-5.81,1.33.39,1.68.14,1.92-.97.05-.21.62-.32.96-.48.21-1.13.42-2.27.64-3.4-.18-.94-.39-1.88-.52-2.83-.05-.33.06-.69.11-1.04.07-.46.27-.93.2-1.37-.25-1.58-.27-1.5-1.91-1.2-1.09.2-2.23.14-3.35.2-.18.01-.35.02-.53,0-.45-.02-1.24.02-1.28-.11-.17-.64-.49-1.38.29-1.91.07-.34.14-.67.21-1.01-.21-.06-.43-.13-.63-.19h-1.5c-.81.1-1.16-.24-1.06-1-.82-.43-.36-.87.11-1.64.23.64.38,1.04.52,1.44.98-.66-.03-1.15-.08-1.78-.37.14-.65.26-1.19.47,0-1.07.01-1.99,0-2.92-.02-.77-.79-1.33-1.53-1.06-.94.35-1.67.19-2.16-.67-.34.19-.66.36-.97.53h-1.28c-.15.07-.29.13-.44.19-.13-.06-.26-.12-.38-.19-.03.05-.05.11-.04.17v2.95c-.68.42-1.25.62-1.56,1-.33.4-.42.98-.62,1.49q.56.25,1.74-1.1c0,.42.08.85-.01,1.25-.15.58-.49.99-1.27.89-.62-.08-1.25-.03-1.89-.04.1,1.04.19,2.09.28,3-1.43.09-2.64.21-3.85.21-.62-.01-1.22-.3-1.84-.37-.44-.06-.91.04-1.63.09.09-.39.25-.92.31-1.47.05-.47-.02-.96-.03-1.44-.15-.07-.29-.14-.43-.21-.1.64-.21,1.27-.31,1.88-.42-.24-.8-.45-1.18-.66.08.33.15.67.22,1,.28.35.56.71.84,1.06,1.42,2.35.73,4.88.68,7.38v.2c.2.26.51.51.57.79.1.48.03.99.03,1.43.56.15,1.02.28,1.33.36.49-.09,1.03-.34,1.25-.19.32.22.55.73.57,1.12.03.83-.16,1.66-.16,2.48,0,.69.16,1.38.22,2.08.03.42,0,.84,0,1.51-.4-.35-.55-.59-.74-.62-.22-.03-.47.13-.7.2.11.3.16.63.35.87.26.34.63.61.95.91-.13.12-.25.25-.38.37-.44-.35-.88-.7-1.55-1.23v1.74c-.54.26-.68-.35-.93-.78-.14.01-.28.01-.42.01-.1.73-.73,1.06-1.73.89-.5-.08-1-.15-1.68-.25.14-.71.29-1.48.44-2.25-.14-.28-.28-.56-.42-.84.01-.06-.01-.11-.06-.15-.13-.01-.25-.01-.37-.01-1.61.5-2.23.45-2.7-.52-.26-.53-.06-1.26-.06-1.89-.14-.2-.28-.4-.42-.6-.5-.14-.99-.27-1.49-.41-.14.07-.28.14-.42.21-.28-.14-.57-.27-.85-.41h-.85c-.05.17-.1.34-.16.51-.08-.1-.17-.21-.26-.31h-.85c-.36.14-.71.27-1.07.4-.16-.01-.32-.01-.48-.02-.05.07-.1.15-.15.22-.06.94-.12,1.89-.19,2.94-.39.07-.88.25-1.38.25-1,.01-1.63-.52-2.02-1.39-.18-.38-.57-.66-.86-.99-.77.13-.33-.6-.64-.81-.28-.12-.56-.24-.84-.36-.13-.01-.27-.03-.4-.05-.08-.05-.16-.1-.24-.15h-.22c-.6.13-1.25.56-1.68-.26-.15-.05-.29-.09-.44-.14h-.41c-.14-.02-.28-.05-.41-.07-.15.14-.3.29-.45.43-.06.62-.12,1.24-.18,1.84-.53-.13-1.14-.28-1.75-.42,0,.26.02.53.03.79h1.38c.18,1.54.39,2.98.5,4.43.02.32-.28.67-.44,1.01.03.2.05.39.08.59.63.15.77.48.41,1-.02.27-.05.54-.07.82.02.06.05.12.08.19.45-.07.89-.18,1.34-.19.57-.01,1.36-.21,1.4.64.04.8.14,1.81-.3,2.34-.33.39-1.49.17-2.27.22-.07.2-.14.41-.22.61,0,.13.01.26.01.39-.34.34-1.02.79-.94,1,.15.43.69.75,1.1,1.08.25.21.54.45.85.52,1.1.23,1.68.86,2.01,1.89.22.69.76,1.29,1.13,1.9.85-.38,1.63-.74,2.63-1.19-.06,1.15-.15,1.93-.1,2.7.01.25.37.67.61.69.81.08,1.63,0,2.44.02.2.01.55.24.56.38,0,.96-.07,1.92-.11,2.89-.01.06,0,.12,0,.18.89-.11,1.77-.26,2.66-.3.22-.02.64.26.67.46.11.54.1,1.1.06,1.65-.07.89.46,1.18,1.27,1.2.59.02,1.18.01,1.95.01-.42.8.82,1.54-.25,2.21,0,.13.01.27.02.4.06.14.13.27.2.4-.01.34-.01.67-.01,1,.09.19.27.39.25.57-.17,1.64.2,2.05,1.92,2.05h1.47c.32.7.57,1.26.82,1.81.35-.07.71-.13,1.06-.2-.23-.25-.46-.49-.85-.91.31-.03.58-.07.85-.1.85-.13,1.7-.27,2.55-.4.52-.14,1.06-.42,1.57-.37.83.08,1.64.37,2.45.57h.43c.35-.14.71-.27,1.06-.4.35.13.71.26,1.06.39.28,0,.56,0,.85-.01.2-.58.4-.31.62,0h.01c.22-.01.43-.02.65-.03.85-.11,1.69-.23,2.53-.34.15-.07.29-.14.43-.2h1.69c.76.01,1.53-.04,2.27.05.32.04.61.34.91.52h.44c.55-.16,1.1-.47,1.65-.46,2.02.03,4.03.24,6.05.27,1.82.02,3.65-.15,5.47-.18,2.72-.03,2.7,0,2.73-2.57.02-1.33.11-2.66.18-4.06h1.36c1.63-.01,1.7-.06,1.85-1.57.04-.41-.04-.85.06-1.25.06-.19.42-.45.63-.44.9.03,1.8.15,2.7.24,0-.06.01-.12.01-.18v-3.13c1.09-.08,2.46.19,3.06-.34.59-.52.4-1.83.58-2.91.79-.14,1.55.18,2.24,1.3.54-1.08.84-1.94,1.37-2.65.45-.6,1.1-1.3,1.79-1.47,1.06-.25,1.36-1.03,1.91-1.66.06-.07-.17-.41-.31-.59Zm-72.08,2.69c-.17-.22-.34-.44-.51-.66.13-.11.26-.21.39-.31.18.21.35.42.52.63-.14.12-.27.23-.4.34Zm68.48-.11c-.1-.08-.2-.16-.3-.24.17-.2.35-.41.53-.61.11.09.22.17.33.26-.19.2-.37.4-.56.59Zm-26.96-32.75h-.01s.01.01.02.01c-.01,0-.01-.01-.01-.01Z"/><path class="cls-2" d="m87.88,51.18c0-.06-.02-.12-.05-.18-.05-.07-.1-.14-.15-.21-.87-.09-.6-.73-.65-1.21-.06-.14-.14-.27-.21-.4h.01c-.07-.13-.13-.27-.2-.4t-.01-.02c-.08-.07-.13-.12-.19-.19-.08-.14-.16-.26-.22-.4-.01,0-.01-.01-.01-.01-.28-.54-.57-1.07-.85-1.61-.02-.06-.02-.11-.02-.17-.07-.14-.14-.28-.2-.43l-.21-.18c-.28-.46-.55-.94-.84-1.41,0-.01-.01-.01-.01-.02-.07-.13-.14-.25-.21-.38-.01,0-.01-.01-.01-.01-.13-.27-.27-.54-.41-.81h.01c-.16-.26-.31-.51-.46-.77h0c-.1-.2-.19-.39-.28-.58-.04-.07-.07-.15-.11-.22-.08,0-.16,0-.24.01-.21-.01-.42-.02-.63-.03-.43.54-.85,1.07-1.28,1.61.25.03.5.06.75.09-.02.1-.03.19-.05.28-.23-.06-.47-.12-.7-.18-.07,0-.14,0-.21.01.04.28.08.56.13.92-.26.03-.51.06-.76.09-.15.33-.29.66-.44,1,.01.26.01.53.01.8h1.28c.31-.17.63-.34.97-.53.49.86,1.22,1.02,2.16.67.74-.27,1.51.29,1.53,1.06.01.93,0,1.85,0,2.92.54-.21.82-.33,1.19-.47.05.63,1.06,1.12.08,1.78.14.4.28.8.43,1.2.5,0,1,0,1.5-.01v-.81c-.14-.27-.29-.53-.44-.8Zm-5.82-5.93c-.26-.08-.75-.14-.75-.23-.02-.35.11-.71.18-1.06.19.02.38.04.57.06v1.23Zm.36-1.76c-.06-.03-.15-.04-.17-.08s.04-.11.07-.16c.05.02.15.03.16.07.02.04-.04.11-.06.17Z"/><path class="cls-1" d="m78.32,46.34v2.95c-.68.42-1.25.62-1.56,1-.33.4-.42.98-.62,1.49q.57.25,1.75-1.1c0,.42.08.85-.02,1.25-.14.58-.49.99-1.26.89-.62-.08-1.26-.03-1.9-.04.56-1.13,1.13-2.26,1.69-3.4.64-1.01,1.28-2.03,1.93-3.04Z"/><path class="cls-6" d="m87.89,51.17c0-.06-.02-.12-.05-.18-.06-.07-.11-.15-.17-.22,0,0,0,0,0,0-.22-.4-.43-.81-.65-1.21,0,0,0,.01,0,.01-.07-.14-.15-.27-.22-.41,0,0,0,0,0,0-.01-.13-.03-.26-.04-.39.28.27.62.49.82.8.72,1.09,1.37,2.22,2.08,3.3.61.93,1.52,1.12,2.65.55.71-.36,1.36-.83,2.07-1.18.24-.12.59-.05.88-.07-.31.23-.63.46-.94.69h0c-.33.17-.66.34-.99.5-.7.28-1.4.57-2.1.85-.28-.01-.57-.03-.85-.04h0c-.21-.07-.42-.15-.63-.22h.02c-.29-.32-.57-.66-.86-1,0,0,.01.01.01.01-.22-.34-.43-.68-.65-1.02,0,0,0,0,0,0-.15-.27-.3-.54-.44-.81Z"/><path class="cls-6" d="m76.4,49.38c-.56,1.13-1.13,2.27-1.69,3.4,0,0,0,0,0,0-.69.86-1.38,1.7-2.73,1.42-.22-.05-.43-.11-.65-.16-.06-.02-.12-.03-.18-.03-.09-.12-.18-.24-.27-.36.03-.03.05-.05.08-.08.7.06,1.39.11,2.25.18.79-1.25,1.62-2.59,2.48-3.9.14-.21.47-.31.71-.46Z"/><path class="cls-9" d="m79.61,44.36c-.15.33-.29.67-.44,1-.14.33-.29.67-.43,1-.13-.06-.25-.13-.38-.19.39-.88.75-1.77,1.18-2.63.44-.87.92-1.73,1.44-2.56.42-.66.79-.59,1.19.16-.15.14-.3.27-.45.41-.42.54-.85,1.07-1.27,1.61,0,.06,0,.13,0,.19-.07,0-.14,0-.2.01-.21.34-.42.67-.63,1.01Z"/><path class="cls-6" d="m67.57,51.94c1.44-.04,2.38.85,3.39,1.62-.03.03-.05.05-.08.08-.28-.06-.55-.13-.83-.19-.06-.02-.12-.04-.18-.05-.26-.17-.52-.33-.77-.5h-.02c-.51-.25-1.02-.49-1.54-.73h0c0-.05-.02-.11-.04-.16l.06-.07Z"/><path class="cls-9" d="m96.58,51.6c.42-.13.84-.27,1.27-.38.03,0,.13.26.2.39-.69.21-1.38.42-2.07.63-.02-.03-.05-.05-.07-.08.02-.05.04-.11.04-.16.21-.13.42-.27.63-.4Z"/><path class="cls-6" d="m83.68,43.12c.61.32,1.07.71.77,1.45-.12-.08-.25-.15-.37-.23,0,0,0,.01,0,.01-.08-.13-.15-.27-.23-.4,0,0,0,0,0,0-.08-.26-.16-.53-.23-.79l.05-.05Z"/><path class="cls-9" d="m86.21,48.17c-.29-.54-.57-1.08-.86-1.62.06.01.13.03.19.04.22.53.45,1.05.67,1.58Z"/><path class="cls-9" d="m94.36,52.9c.31-.23.63-.46.94-.69.14-.02.28-.05.42-.07.06.02.12.03.18.03.02.03.05.05.07.08-.54.22-1.08.44-1.62.66Z"/><path class="cls-9" d="m84.08,44.34c.12.08.25.15.37.23.07.14.15.27.22.41.08.26.17.53.25.79-.28-.48-.56-.95-.84-1.43Z"/><path class="cls-1" d="m81.73,41.55c.15-.14.3-.27.45-.41.06,0,.12.02.17.04,0,.13.01.26.02.39-.21,0-.42-.02-.64-.03Z"/><path class="cls-6" d="m84.92,45.77c-.08-.26-.17-.53-.25-.79.15.32.31.65.46.97-.07-.06-.14-.12-.21-.18Z"/><path class="cls-6" d="m82.97,41.97c.15.27.29.55.44.82-.14-.14-.28-.28-.42-.43,0,0,0,0,0,0,0-.13-.01-.26-.02-.39Z"/><path class="cls-9" d="m82.99,42.36c.14.14.28.28.42.43,0,.06.04.12.09.16-.03.06-.04.12-.05.18-.15-.26-.3-.51-.46-.77Z"/><path class="cls-9" d="m82.97,41.97c0,.13.01.26.02.39-.09-.19-.18-.38-.28-.57.09.06.17.12.26.18Z"/><path class="cls-9" d="m82.36,41.57c0-.13-.01-.26-.02-.39.09.13.17.26.26.38-.08,0-.16,0-.24,0Z"/><path class="cls-9" d="m86.43,48.57c-.08-.14-.15-.27-.23-.41.08.14.15.27.23.41Z"/><path class="cls-9" d="m86.79,48.79c.01.13.03.26.04.39-.07-.14-.14-.28-.21-.42.06,0,.11.02.17.03Z"/><path class="cls-6" d="m95.91,52.16c-.06,0-.12-.01-.18-.03.07-.04.15-.09.22-.13,0,.06-.02.11-.04.16Z"/><path class="cls-9" d="m86.63,48.77c-.07-.07-.14-.15-.22-.22.07.07.14.15.22.22Z"/><path class="cls-6" d="m85.54,46.59c-.06-.01-.13-.03-.19-.04-.02-.06-.02-.11-.02-.17.07.07.14.14.21.22Z"/><path class="cls-6" d="m83.45,43.13c0-.06.02-.12.05-.18.06.05.12.11.18.16,0,0-.05.05-.05.05-.06-.02-.12-.03-.18-.03h0Z"/><path class="cls-1" d="m67.77,63.45c.2.26.52.5.57.79.1.48.03.99.03,1.42.57.16,1.03.28,1.33.37.49-.09,1.02-.34,1.25-.19.32.22.55.73.57,1.12.03.82-.16,1.65-.16,2.48,0,.69.16,1.38.21,2.07.03.42,0,.85,0,1.51-.4-.35-.55-.6-.74-.62-.22-.03-.47.13-.7.21.11.29.17.63.35.87.26.34.63.61.95.91-.12.12-.25.25-.37.37-.44-.35-.88-.7-1.56-1.24v1.74c-.54.26-.68-.35-.93-.78.25-.32.51-.63.73-.96.54-.8.4-2.17-.28-2.86l-.06.02c.02-.34.05-.68.07-1.02.61-.22,1.54-.27,1.78-.68.59-.99.1-1.81-1.07-2.2-.25.78.96,2.1-.92,2.28-.15-.6-.31-1.21-.46-1.81-.15-.53-.31-1.07-.46-1.6-.05-.74-.09-1.48-.14-2.21Z"/><path class="cls-1" d="m57.56,68.27c-.05.17-.1.33-.16.5-.09-.1-.18-.2-.27-.3-.17-.62-.34-1.23-.52-1.85.1-.03.21-.06.31-.09.3.16.6.33,1.01.55-.65-1.58-.68-1.8-1.85-1.42.06-.34.12-.69.19-1.03.14-.33.27-.65.43-1.04.43.36.74.62,1.04.87,0,.06.02.11.03.17.07.07.15.15.22.22,0,0,0,0,0,0-.06.59.22.86.85.81h0c-.03.45-.03.87.66.8.06.06.12.12.19.19.11.09.21.18.32.27,0,0,.05.05.05.05.16.17.32.33.48.5h0c.22.26.44.53.65.79h0c.07.07.14.14.21.21,0,0,0,0,0,0,0,.14,0,.27-.01.41-.07,0-.14,0-.21,0-.49-.13-.99-.27-1.48-.4.09-.75-.29-1.16-1.09-1.36-.33.37-.68.76-1.03,1.15Z"/><path class="cls-1" d="m66.25,54.81c.28.35.56.7.83,1.05,1.42,2.35.73,4.89.68,7.39-.15-.27-.29-.54-.44-.81-.03-.33-.05-.66-.08-.99-.26-1.14-.51-2.29-.77-3.43-.03-.13-.05-.26-.08-.39-.06-.46-.12-.93-.18-1.39,0-.47.01-.95.02-1.42Z"/><path class="cls-6" d="m60.53,67.26c.61.36,1.31.62,1.79,1.09.77.76,1.41,1.64,2.06,2.49.19.25.25.58.36.88-.2-.15-.41-.3-.61-.45h0c-.07-.07-.14-.15-.22-.22-.06-.06-.12-.12-.17-.18-.08-.08-.16-.17-.24-.25-.13-.12-.27-.23-.4-.35-.26-.3-.52-.59-.78-.89h-.09s.09,0,.09,0c-.1-.1-.2-.21-.31-.31,0,0,0,0,0,0-.1-.09-.2-.18-.3-.26l-.06-.06c-.1-.09-.19-.18-.29-.28,0,0,0,0,0,0-.07-.07-.14-.14-.21-.21,0,0,0,0,0,0-.22-.26-.44-.53-.65-.79h0c0-.07,0-.13,0-.2Z"/><path class="cls-9" d="m69.04,70.67c.68.69.82,2.06.28,2.86-.22.33-.49.64-.73.96-.14,0-.28,0-.42,0-.35-.14-.7-.27-1.06-.41.91.03,1.8-.04,1.93-1.13.07-.62-.03-1.25-.06-1.88.02-.14.05-.27.07-.41Z"/><path class="cls-6" d="m68.97,71.08c.03.63.13,1.26.06,1.88-.13,1.09-1.02,1.16-1.93,1.13,0,0,0,0,0,0-.14-.07-.29-.14-.43-.21h.01c-.02-.06,0-.13.02-.19,1.73.01,1.95-.19,2.09-1.85.02-.25.11-.5.17-.76Z"/><path class="cls-6" d="m67.33,62.44c.15.27.29.54.44.81,0,.07,0,.13,0,.2.05.74.09,1.48.14,2.21-.5-1.02-1.13-2.03-.58-3.22Z"/><path class="cls-6" d="m68.37,67.26c.15.6.31,1.21.46,1.81.07.2.14.4.21.6-.02.34-.05.68-.07,1.02-.09-.04-.27-.07-.27-.12-.12-1.1-.22-2.21-.33-3.31Z"/><path class="cls-6" d="m66.49,58.02c.26,1.14.51,2.29.77,3.43-.98-1-1-2.19-.77-3.43Z"/><path class="cls-6" d="m59.68,66.64c-.06-.06-.12-.12-.19-.19-.22-.27-.44-.54-.66-.8,0,0,0,0,0,0-.28-.27-.56-.54-.85-.81,0,0,0,0,0,0-.07-.07-.15-.15-.22-.22-.01-.06-.02-.11-.03-.17,1.12.05,1.86.81,2.14,2.2-.07,0-.14,0-.21-.02Z"/><path class="cls-9" d="m66.71,73.69c-.03.06-.04.13-.02.19-.5-.33-1-.66-1.5-.99-.14-.28-.28-.56-.42-.85.65.55,1.29,1.1,1.94,1.65Z"/><path class="cls-6" d="m55.82,65.05c-.19.61-.38,1.21-.57,1.82.19-.61.38-1.21.57-1.82Z"/><path class="cls-6" d="m66.23,56.23c.06.46.12.93.18,1.39-.12-.48-.24-.96-.36-1.44.06.02.12.03.18.05Z"/><path class="cls-9" d="m64.13,71.27c.2.15.41.3.61.45,0,.06,0,.12-.03.17-.12,0-.25,0-.37,0-.07-.2-.14-.41-.21-.61Z"/><path class="cls-9" d="m60.53,67.26c0,.07,0,.13,0,.2-.16-.17-.32-.33-.48-.5.09.03.18.07.26.1.07.06.15.13.22.19h0Z"/><path class="cls-9" d="m59.68,66.64c.07.01.14.02.21.02.04.08.07.17.11.25-.11-.09-.21-.18-.32-.27Z"/><path class="cls-6" d="m60.53,67.26c-.07-.06-.15-.13-.22-.19.07.06.15.13.22.19Z"/><path class="cls-6" d="m56.07,64.65c-.07.07-.14.13-.21.2.07-.07.14-.13.21-.2Z"/><path class="cls-2" d="m94.36,52.9c.54-.22,1.08-.44,1.62-.66.69-.21,1.38-.42,2.07-.63-.01.12-.02.24-.03.36-.12.68-.25,1.36-.37,2.04-.06.53-.13,1.06-.19,1.59-.42,1.94-.84,3.88-1.26,5.83-.1.27-.19.54-.29.8-.06,0-.12,0-.18.01-.18-.94-.38-1.88-.52-2.82-.05-.34.06-.7.11-1.05.07-.46.27-.93.2-1.37-.25-1.58-.27-1.5-1.91-1.2-1.09.2-2.23.14-3.35.2-.18,0-.35.02-.53,0-.45-.03-1.25.01-1.28-.12-.17-.63-.49-1.37.29-1.9.36,0,.71,0,1.07,0,0,0-.02-.01-.02-.01.21.08.42.15.63.23,0,0,0,0,0,0,.24.74.55.35.85.04.7-.28,1.4-.57,2.1-.85.33-.16.66-.33.99-.49,0,0,0,0,0,0Z"/><path class="cls-2" d="m108.25,68.87c-.96-.1-1.93-.2-2.42-.25-1.53.11-2.63.18-3.73.26.27-.3.63-.55.81-.9.44-.87,1.71-1.19,1.73-2.32h0c.78.06.95-.45,1.06-1.02.02-.07,0-.13-.03-.19,0,0,.06.02.06.02.27-.21.53-.43.8-.64.28.28.57.56.85.84,0,.19.01.38.02.58.06.21.12.42.18.63.02.06.03.11.03.17.21.68.43,1.35.64,2.03,0,0,0,0,0,0,0,.27,0,.54,0,.81Z"/><path class="cls-6" d="m94.82,68.86c.04.43.15.86.12,1.29-.04.59-.25,1.18-.26,1.77-.03,1.54.24,1.77,1.9,1.78-.57.12-1.13.25-1.7.37-.13-.13-.26-.25-.38-.38-.16-.53-.33-1.07-.49-1.6.08-.53.17-1.06.25-1.58.19-.55.38-1.09.56-1.64Z"/><path class="cls-5" d="m96.2,61.44c.42-1.94.84-3.88,1.26-5.83.08.62.29,1.25.21,1.85-.09.73-.43,1.43-.66,2.14-.2.62-.42,1.23-.63,1.84-.06,0-.12,0-.18,0Z"/><path class="cls-6" d="m96.2,61.44c.06,0,.12,0,.18,0-.1,1.17-.17,2.35-.33,3.52-.03.24-.38.45-.59.67.15-1.13.29-2.26.44-3.4.1-.27.19-.54.29-.8Z"/><path class="cls-9" d="m104.63,65.65c-.03,1.14-1.29,1.45-1.73,2.32-.17.34-.53.6-.81.9,0,0,0,0,0,0-.22.06-.44.12-.66.18.5-.6,1-1.2,1.5-1.8,0,0,0,0,0,0,.05-.07.1-.13.16-.2.3-.33.6-.67.91-1,.21-.14.42-.27.63-.41Z"/><path class="cls-6" d="m102.93,67.26c-.5.6-1,1.2-1.5,1.8,0,0,0,0,0,0-.1.11-.21.21-.31.32.02.01.05.02.07.04l-.07-.03c-.31.24-.63.47-.94.71l-.05-.04c.66-1.17,1.15-2.5,2.79-2.78Z"/><path class="cls-9" d="m95.91,62.24c-.15,1.13-.29,2.26-.44,3.4-.12.35-.24.69-.36,1.04,0,0-.06-.04-.06-.04.01-.32.03-.65.04-.97.21-1.13.43-2.27.64-3.4.06,0,.12,0,.18-.01Z"/><path class="cls-9" d="m94.82,68.86c-.19.55-.38,1.09-.56,1.64.26-1.29.53-2.58.79-3.87,0,0,.06.04.06.04,0,.26-.02.53-.03.79-.05.34-.11.68-.16,1.01-.04.13-.07.26-.11.38Z"/><path class="cls-6" d="m104.63,65.65c-.21.14-.42.27-.63.41.11-.95.53-1.62,1.66-1.62.04.06.05.12.03.19-.35.34-.71.68-1.06,1.03,0,0,0,0,0,0Z"/><path class="cls-9" d="m98.89,72.28c-.14.14-.27.27-.41.41-.2.08-.4.16-.6.24-.02-.03-.05-.06-.08-.08.3-.37.61-.75.91-1.12.2-.15.41-.3.61-.45-.14.34-.29.67-.43,1.01Z"/><path class="cls-6" d="m99.33,71.28c-.2.15-.41.3-.61.45-.05-.83.57-1.17,1.22-1.48l.05.05c0,.07,0,.14.01.21-.04.03-.06.07-.04.12-.08.08-.16.17-.24.25-.06.06-.11.12-.17.18-.07.08-.14.15-.22.23h0Z"/><path class="cls-9" d="m94.88,74.06c.57-.12,1.13-.25,1.7-.37.13,0,.26-.02.39-.03.03.03.05.05.08.08-.67.67-1.69.82-2.17.32Z"/><path class="cls-9" d="m97.64,54.02c.12-.68.25-1.36.37-2.04,0,.27,0,.54,0,.81-.12.41-.25.83-.37,1.24Z"/><path class="cls-6" d="m94.92,68.48c.05-.34.11-.68.16-1.01-.05.34-.11.68-.16,1.01Z"/><path class="cls-9" d="m106.52,63.82c-.27.21-.53.43-.8.64.27-.21.53-.43.8-.64Z"/><path class="cls-9" d="m96.97,73.67c.21-.2.42-.41.62-.61.03.02.06.05.09.07-.21.21-.42.41-.63.62-.03-.03-.05-.05-.08-.08Z"/><path class="cls-6" d="m103.09,67.06c-.05.07-.1.13-.16.2.05-.07.1-.13.16-.2Z"/><path class="cls-6" d="m99.93,70.24c.07-.07.14-.13.21-.2,0,0,.05.04.05.04-.07.07-.14.14-.21.21l-.05-.05Z"/><path class="cls-9" d="m97.6,73.06c.07-.07.14-.14.21-.21.03.03.05.05.08.08-.07.06-.13.13-.2.19-.03-.02-.06-.04-.09-.07Z"/><path class="cls-2" d="m119.06,82.34c-.07-.2-.15-.4-.22-.61,0,0,0,0,0,0,.28.13.55.29.85.39,1.06.35,2.13.68,3.19,1.01.26.21.52.43.93.77-1.19.85-2.32,1.66-3.45,2.47-.58.33-1.2.62-1.74,1-.89.62-1.73,1.3-2.57,1.98-.11.09-.11.29-.16.44h0c-.08.06-.16.13-.24.19h.01c-.76.25-1.65.37-1.71,1.4,0,0,0,0,0,0-.14.07-.29.14-.43.22h.01c-.08.06-.15.12-.23.19h0c-.1.09-.2.19-.3.29l-.05.04c-.06.05-.12.1-.17.15,0,0-.05.03-.05.03-.09.04-.18.08-.27.12-.08.12-.16.24-.25.36-.07,0-.13.03-.19.05-.06.05-.12.11-.18.16-.23.19-.46.38-.68.57-.28.14-.57.29-.85.43-.13.14-.27.28-.4.41,0,0,0,0,0,0-.35.07-.71.14-1.06.21v-3.12c1.09-.08,2.46.18,3.06-.34.59-.52.4-1.84.58-2.91.8-.14,1.56.18,2.24,1.29.54-1.08.84-1.94,1.37-2.65.45-.6,1.1-1.3,1.79-1.47,1.06-.25,1.36-1.04,1.91-1.66.06-.07-.17-.41-.31-.59-.12-.16-.31-.29-.47-.43.11-.05.22-.1.32-.14-.11-.08-.21-.16-.32-.24Z"/><path class="cls-6" d="m110.34,93.99c.28-.14.57-.29.85-.43-.6,1.39-1.62,2.31-3.2,2.63.65-.6,1.3-1.19,1.95-1.79,0,0,0,0,0,0,.13-.14.27-.28.4-.41Z"/><path class="cls-9" d="m103.32,103.23c-.96-.39-.86-1.29-.87-1.99,0-.71.02-1.65,1.15-1.82-.66,1.1-1.14,2.21-.26,3.42.06.09,0,.26-.01.39Z"/><path class="cls-9" d="m109.95,94.39c-.65.6-1.3,1.19-1.95,1.79-.27.13-.54.26-.81.39.56-.59,1.13-1.19,1.69-1.78,0-.06,0-.12,0-.19.35-.07.71-.14,1.06-.21Z"/><path class="cls-6" d="m115.9,89.79c.13,0,.26-.02.39-.03-.46.83-.97,1.58-2.1,1.61.5-.47.99-.93,1.49-1.4,0,0-.01,0-.01,0,.08-.07.16-.14.24-.2h0Z"/><path class="cls-6" d="m112.25,92.77c.08-.12.16-.24.25-.36.09-.04.18-.08.27-.12,0,0,.05-.03.05-.03.06-.05.12-.1.17-.15,0,0,.05-.04.05-.04.1-.1.2-.19.3-.29,0,0,0,0,0,0,.08-.07.15-.13.23-.2,0,0-.01.01-.01.01.14-.01.27-.02.41-.03-.11.99-.77,1.28-1.71,1.21Z"/><path class="cls-9" d="m115.68,89.98c-.5.47-.99.93-1.49,1.4-.07,0-.15,0-.22,0,.06-1.03.95-1.15,1.71-1.41Z"/><path class="cls-9" d="m113.96,91.56c-.14.01-.27.02-.41.03.14-.07.29-.14.43-.22,0,.06-.01.12-.02.18Z"/><path class="cls-6" d="m111.88,92.98c.06-.05.12-.11.18-.16-.06.05-.12.11-.18.16Z"/><path class="cls-6" d="m116.29,89.77c.07-.05.14-.1.22-.15-.07.05-.14.1-.22.15Z"/><path class="cls-2" d="m61.16,101.82c.09.19.26.39.25.57-.17,1.63.21,2.04,1.93,2.04.56,0,1.12,0,1.47,0,.32.7.57,1.26.82,1.82-1.4.17-2.8.34-4.21.51-.2.02-.43-.02-.6.05-.86.35-1.34.04-1.55-.77.29-.87.58-1.75.88-2.62.34-.53.68-1.07,1.02-1.6Z"/><path class="cls-2" d="m54.59,94.79c.88-.11,1.77-.26,2.65-.31.23-.01.64.27.67.46.1.53.09,1.1.05,1.65-.07.9.46,1.18,1.28,1.21.59.02,1.18,0,1.95,0-.42.81.82,1.55-.25,2.21-.34-.13-.68-.27-1.02-.4-1.03-.86-2.05-1.71-3.08-2.57-.19-.16-.37-.32-.56-.48-.56-.59-1.13-1.19-1.69-1.78Z"/><path class="cls-9" d="m54.59,94.79c.56.59,1.13,1.19,1.69,1.78-.35-.19-.7-.39-1.05-.58-.85-.67-1.7-1.33-2.55-2,0,0,0,0,0,0-.07-.05-.14-.1-.21-.15-.49-.36-.98-.71-1.47-1.07-.11-.16-.23-.32-.34-.48.04-.04.08-.08.12-.12.56.37,1.12.75,1.69,1.11.7.45,1.41.88,2.11,1.32,0,.06,0,.12,0,.19Z"/><path class="cls-9" d="m59.92,99.61c.34.13.68.27,1.02.4,0,.13.01.27.02.4.07.13.13.27.2.4,0,.33,0,.67,0,1-.34.53-.68,1.07-1.02,1.6.02-.26-.04-.55.08-.76.61-1.09.17-2.07-.29-3.05Z"/><path class="cls-6" d="m52.68,93.99c.85.67,1.7,1.33,2.55,2-1.13-.07-2.32-1-2.55-2Z"/><path class="cls-6" d="m50.65,92.3c.11.16.23.32.34.48-.88.02-1.4-.35-1.49-1.21.38.24.76.49,1.14.73Z"/><path class="cls-6" d="m47.81,90.36c.49.34.98.68,1.46,1.02-.74-.01-1.37-.17-1.46-1.02Z"/><path class="cls-9" d="m50.65,92.3c-.38-.24-.76-.49-1.14-.73,0-.06-.01-.12-.03-.17,0,0,.07-.07.07-.07.41.28.81.57,1.22.85-.04.04-.08.08-.12.12Z"/><path class="cls-6" d="m46.95,89.61c.07.05.14.1.22.15-.07-.05-.14-.1-.22-.15Z"/><path class="cls-6" d="m47.37,89.98c.07.06.14.13.22.19-.07-.06-.14-.13-.22-.19Z"/><path class="cls-6" d="m52.46,93.84c.07.05.14.1.21.15-.07-.05-.14-.1-.21-.15Z"/><path class="cls-2" d="m118.84,81.73c-.39,0-.77.02-1.16,0-.52-.04-1.29.24-1.36-.53-.08-.82-.15-1.79.25-2.43.2-.32,1.46-.05,2.23-.05.02.14.05.27.07.41-.05.21-.11.42-.16.63-.73.58,0,1.03.15,1.54,0,.15-.01.29-.02.44h0Z"/><path class="cls-6" d="m118.87,79.12c-.02-.14-.05-.27-.07-.41.1-.4.19-.79.29-1.19.06-.2.13-.41.19-.61,0,0,0,0,0,0,.05-.07.11-.14.16-.21.03-.2.05-.39.08-.59.06-.14.12-.27.18-.41.14-.47.28-.94.42-1.41h0c.14-.14.28-.28.41-.42-.43,1.65-.85,3.31-1.29,4.96-.03.12-.24.19-.37.29Z"/><path class="cls-6" d="m118.87,81.28c-.15-.5-.89-.95-.15-1.54.37.4.75.8,1.1,1.22.26.3.49.62.73.93-.56-.2-1.12-.4-1.68-.6Z"/><path class="cls-9" d="m118.87,81.28c.56.2,1.12.4,1.68.6.78.41,1.56.82,2.34,1.24-1.06-.34-2.13-.66-3.19-1.01-.29-.1-.56-.26-.85-.39,0-.15.01-.29.02-.44Z"/><path class="cls-9" d="m120.53,73.88c-.14.14-.28.28-.41.42.09-.66.18-1.32.27-1.98-.05,0-.22.04-.39.07-.07-.08-.13-.17-.2-.25l1.17-.85c.02.2.03.4.05.6-.04.06-.06.12-.07.18-.05.07-.11.14-.16.22-.09.53-.17,1.06-.26,1.59Z"/><path class="cls-6" d="m120.79,72.29c.05-.07.11-.14.16-.22-.05.07-.11.14-.16.22Z"/><path class="cls-2" d="m50.77,92.17c-.41-.28-.81-.57-1.22-.85-.15-.25-.25-.56-.47-.73-1.74-1.32-3.5-2.61-5.28-3.89-.25-.18-.62-.23-.93-.34-.64-.45-1.29-.91-1.93-1.36-.19-.19-.37-.4-.57-.57q-.87-.75.19-1.32c.59-.14,1.18-.27,1.77-.41.48-.12.96-.25,1.44-.38h0c.21.14.42.26.62.39-.34.34-1.02.79-.94,1,.15.43.69.75,1.1,1.08.25.21.54.45.85.51,1.11.24,1.68.86,2.01,1.89.22.69.76,1.3,1.14,1.91.85-.39,1.63-.74,2.63-1.19-.06,1.15-.15,1.93-.11,2.7.02.25.38.67.62.69.81.08,1.63-.02,2.44.01.2,0,.55.24.55.38,0,.96-.06,1.93-.11,2.89-.7-.44-1.41-.87-2.11-1.32-.57-.36-1.13-.74-1.69-1.11Z"/><path class="cls-2" d="m44.44,78.72c.45-.07.9-.18,1.35-.19.57-.01,1.35-.21,1.39.64.04.8.14,1.81-.3,2.33-.33.39-1.48.17-2.27.22,0-.21-.01-.41-.02-.62,0,0,0,0,0,0,.08-.07.16-.14.23-.2-.01-.2-.02-.39-.04-.59,0-.13-.02-.27-.03-.4-.04-.14-.09-.27-.13-.41-.06-.26-.12-.53-.18-.79Z"/><path class="cls-2" d="m42.5,70.68h1.38c.18,1.54.39,2.98.5,4.42.02.33-.28.68-.44,1.01-.13-.24-.29-.46-.4-.71-.22-.51-.41-1.02-.61-1.53,0-.32-.02-.64-.02-.96.12-.24.24-.49.43-.86-.2-.33-.52-.86-.83-1.38Z"/><path class="cls-6" d="m42.93,73.87c.2.51.39,1.03.61,1.53.11.25.26.48.4.71.03.2.05.39.08.59l.41,1c-.02.27-.05.54-.07.81-.17-.1-.46-.18-.49-.31-.33-1.44-.63-2.89-.93-4.34Z"/><path class="cls-9" d="m44.59,81.1c0,.21.01.41.02.62,0,0,0,0,0,0-.28.2-.56.4-.85.6-.48.13-.96.26-1.44.38-.59.14-1.18.27-1.77.41.64-.34,1.29-.69,1.93-1.03.7-.33,1.4-.66,2.1-.98Z"/><path class="cls-9" d="m42.5,70.68c.32.52.63,1.05.83,1.38-.18.37-.3.61-.43.86-.29-.68-.58-1.35-.87-2.03-.05-.4-.1-.8-.15-1.21.19.07.39.14.58.2,0,.27.02.53.02.8Z"/><path class="cls-6" d="m44.59,81.1c-.7.33-1.4.66-2.1.98.76-.59,1.53-1.18,2.29-1.77.01.2.02.39.04.59-.08.07-.16.14-.23.2h0Z"/><path class="cls-6" d="m44.62,79.51c.04.14.09.27.13.41-.04-.14-.09-.27-.13-.41Z"/><path class="cls-2" d="m113.96,69.07c-.1.26-.17.73-.29.74-.99.08-1.06.83-1.3,1.47-.29.78-2.53,1.42-3.22.88-.18-.14-.25-.46-.26-.7-.03-.73,0-1.46,0-2.19.07,0,.14-.01.21-.02.21.02.42.04.64.05.09.53.39.59.91.46,1.1-.27,2.22-.47,3.33-.69Z"/><path class="cls-5" d="m118.61,68.01c-.14.03-.27.06-.41.09-.44.03-.89.05-1.32.1-1.04.13-2.09.28-3.13.43.44-.25.85-.64,1.33-.73,1.6-.3,3.21-.51,4.83-.73.2-.03.43.07.64.12-.65.24-1.29.48-1.94.72Z"/><path class="cls-9" d="m113.75,68.63c1.04-.14,2.09-.3,3.13-.43.44-.06.88-.07,1.32-.1-.28.12-.56.24-.85.36-.22.07-.43.13-.65.2-.42,0-.84.01-1.26.02-.22.13-.44.25-.65.38-.28,0-.55,0-.83,0-1.11.23-2.23.42-3.33.69-.52.13-.82.07-.91-.46,1.34-.22,2.68-.45,4.02-.67Z"/><path class="cls-5" d="m122.23,67.28c-.42-.02-.85-.03-1.27-.05.45-.55.88-.64,1.27.05Z"/><path class="cls-8" d="m49.5,69.07c-.28-.12-.56-.24-.84-.36.5.03.99.07,1.49.1.13.03.27.06.4.09,0,.06,0,.11.03.17-.22,0-.43,0-.65,0-.14,0-.28,0-.42,0Z"/><path class="cls-1" d="m81.1,107.85c0-.54,0-1.07.01-1.61.24.1.48.2.86.37.05-.48.1-.88.13-1.15.41-.08.78-.14,1.15-.21-.14.6-.28,1.2-.43,1.79-.02,2.61-.04,5.22-.06,7.83-.13-1.4-.26-2.81-.4-4.21v-3.41c-.37.18-.82.39-1.27.6Z"/><path class="cls-2" d="m83.25,105.25c-.37.07-.74.14-1.15.21-.03.27-.07.67-.13,1.15-.38-.16-.62-.27-.86-.37,0-.13-.01-.27-.02-.4,0-.07,0-.13-.01-.2h-.1s-.1,0-.1,0c-.09-.75.37-1.02,1.03-.89.56.11.68-.07.66-.52.76.01,1.52-.03,2.27.05.32.04.61.34.91.52-.07.06-.14.13-.21.19-.78-.04-1.6-.4-2.3.25Z"/><path class="cls-1" d="m82.58,104.23c.02.45-.11.63-.66.52-.67-.13-1.13.13-1.03.89-.08,0-.16.01-.25.02-.2-.08-.39-.16-.59-.25-.42-.13-.85-.27-1.27-.4-.28-.06-.57-.11-.85-.17,0,0,0-.06,0-.06.84-.12,1.69-.23,2.53-.35l.42-.2c.57,0,1.13,0,1.7,0Z"/><path class="cls-5" d="m77.92,104.85c.28.06.57.11.85.17-.49.64-1.09.52-1.71.21.29-.13.57-.25.86-.38Z"/><path class="cls-5" d="m80.04,105.42c.2.08.39.16.59.25,0,.4,0,.79-.01,1.19-.19-.48-.39-.95-.58-1.43Z"/><path class="cls-5" d="m76.21,105.28c.14,0,.29,0,.43,0-.07.1-.14.19-.21.29-.07-.09-.15-.19-.22-.28Z"/><path class="cls-5" d="m75.56,105.43c.08-.05.15-.1.23-.14-.08.05-.15.1-.23.14Z"/><path class="cls-2" d="m82.37,110.66c.13,1.4.26,2.81.4,4.21.03.06.04.12.04.18-.01.08-.02.15-.03.23-.65.34-.65.67,0,1,0,3.11-.03,6.21.04,9.31.03,1.12-.67.91-1.36.94-.72.03-1.35.05-1.23-.94.13-1.09.16-2.19.23-3.28,0-.07,0-.13,0-.2,0-.13,0-.27,0-.4.23-.47.6-.91.67-1.4.14-.97.12-1.96.12-2.95,0-.09-.38-.18-.58-.28,0-.4,0-.8,0-1.21.03-.02.08-.05.08-.06-.02-.05-.05-.1-.08-.14,0-.6,0-1.21,0-1.81.07-.47.13-.94.2-1.41,0-.06,0-.13,0-.19.23-.61,1.31-.72,1.06-1.61h.42Z"/><path class="cls-1" d="m80.67,117.09c.2.09.58.18.58.28,0,.98.02,1.98-.12,2.95-.07.49-.44.93-.67,1.4.07-1.54.14-3.08.21-4.62Z"/><path class="cls-1" d="m82.78,116.29c-.66-.33-.65-.67,0-1,0,.33,0,.67,0,1Z"/><path class="cls-1" d="m80.67,115.68s.06.09.08.14c0,0-.05.04-.08.06,0-.07,0-.13,0-.2Z"/><path class="cls-1" d="m80.46,122.11c0,.07,0,.13,0,.2,0-.07,0-.13,0-.2Z"/><path class="cls-2" d="m69.22,104.63c.53-.13,1.07-.41,1.57-.37.83.08,1.64.37,2.46.57-.14.13-.28.27-.42.4-1.13.14-2.26.27-3.39.41-.07-.34-.14-.67-.21-1.01Z"/><path class="cls-1" d="m69.22,104.63c.07.34.14.67.21,1.01-.42.07-.84.14-1.27.21-.26-.14-.53-.27-.79-.42-.24-.13-.47-.27-.7-.4.85-.13,1.7-.27,2.54-.4Z"/><path class="cls-2" d="m66.67,105.04c.23.13.46.27.7.4.26.14.53.28.79.42-.5.06-.99.13-1.49.19-.23-.25-.46-.49-.85-.9.31-.04.58-.07.85-.1Z"/><path class="cls-1" d="m72.82,105.24c.14-.13.28-.27.42-.4.14,0,.28,0,.42,0,.35-.13.71-.27,1.06-.4.35.13.71.27,1.06.4-.99.14-1.98.27-2.97.41Z"/><path class="cls-6" d="m69.86,106.08c-.22.05-.43.1-.65.15.22-.05.43-.1.65-.15Z"/><path class="cls-1" d="m76.64,104.82c.2-.6.42-.3.63,0-.21,0-.42,0-.63,0Z"/><path class="cls-6" d="m64.97,106.74c-.07.04-.14.07-.21.11.07-.04.14-.07.21-.11Z"/><path class="cls-1" d="m47.8,68.51c-.6.12-1.25.56-1.68-.27.56.09,1.12.18,1.68.27Z"/><path class="cls-1" d="m45.67,68.11c-.14,0-.27,0-.41,0,.14,0,.27,0,.41,0Z"/><path class="cls-1" d="m48.26,68.66l-.24-.16c.08.05.16.1.24.16Z"/><path class="cls-3" d="m82.37,110.66h-.42c-.29,0-.57,0-.86,0,0-.94,0-1.87.01-2.81.45-.21.9-.42,1.27-.6v3.41Z"/><path class="cls-1" d="m81.08,110.66c.29,0,.57,0,.86,0,.24.89-.83,1-1.06,1.61.07-.54.14-1.07.2-1.61Z"/><path class="cls-1" d="m81.08,105.64c0,.07,0,.13.01.2,0-.07,0-.13-.01-.2Z"/><path class="cls-1" d="m67.53,52.59c-.1.64-.21,1.27-.31,1.88-.42-.24-.8-.45-1.18-.67-.07-.55-.19-1.1-.16-1.64,0-.14.52-.25.81-.38,0,0,0,0,0,0,.14.07.29.14.43.21,0,0,0,0,0,0,.15.06.3.13.45.19,0,0,0,0,0,0,0,.14,0,.28-.01.41Z"/><path class="cls-2" d="m120.97,71.29l-1.17.85c.07.08.13.17.2.25.17-.03.33-.06.39-.07-.09.66-.18,1.32-.27,1.98,0,0,0,0,0,0-.14.47-.28.94-.42,1.41-.06.14-.12.27-.18.41-.22-.38-.67-.79-.63-1.15.11-1.06.4-2.1.63-3.15.05-.22.24-.58.16-.65-.96-.77-.03-1.89-.6-2.72.22-.12.43-.26.66-.34.22-.08.49-.15.7-.1.19.05.33.27.49.42.07-.26.13-.52.21-.78.02-.05.08-.09.37-.41.05.72.09,1.19.13,1.66-.13.47-.27.94-.4,1.4-.08.33-.16.66-.24.99,0,0,0,0,0,0Z"/><path class="cls-2" d="m42.48,69.88c-.19-.07-.39-.14-.58-.2-.01-.33-.03-.66-.04-.99.02-.22.03-.45.06-.82.47.38.89,1.09,1.27.25.43.12.83.24,1.23.35-.06.62-.13,1.24-.19,1.83-.52-.13-1.13-.27-1.74-.42Z"/><path class="cls-9" d="m108.25,68.07c-.21-.68-.43-1.35-.64-2.03.21.68.43,1.35.64,2.03Z"/><path class="cls-9" d="m108.25,68.87c0-.27,0-.54,0-.81.15.26.3.52.46.78-.15,0-.3.02-.45.03Z"/><path class="cls-9" d="m107.57,65.87c-.06-.21-.12-.42-.18-.63.06.21.12.42.18.63Z"/><path class="cls-9" d="m108.83,69.09c-.05-.08-.09-.17-.14-.25.05.08.09.17.14.25Z"/><path class="cls-2" d="m56.08,65.66c1.17-.38,1.2-.16,1.85,1.42-.41-.23-.71-.39-1.01-.55-.1.03-.21.06-.31.09.17.62.34,1.23.52,1.85-.28,0-.57,0-.85,0-.28-.13-.56-.27-.84-.4.07-.2.14-.4.21-.6.14-.47.28-.94.42-1.41,0-.13,0-.27.01-.4Z"/><path class="cls-1" d="m55.44,68.07c.28.13.56.27.84.4-.36.13-.71.26-1.07.4.08-.27.15-.53.23-.8Z"/><path class="cls-1" d="m56.07,66.06c-.14.47-.28.94-.42,1.41.14-.47.28-.94.42-1.41Z"/><path class="cls-9" d="m120.97,71.29c.08-.33.16-.66.24-.99-.08.33-.16.66-.24.99Z"/><path class="cls-1" d="m49.92,69.08c.22,0,.43,0,.65,0,.07,0,.13.02.19.04.89.23,1.77.47,2.67.66.06.01.19-.3.29-.47.21-.09.43-.17.64-.26.07,0,.14.01.21.02-.06.95-.12,1.89-.19,2.94-.39.08-.88.25-1.38.25-1,0-1.62-.52-2.02-1.39-.17-.38-.56-.66-.86-.99-.07-.27-.14-.53-.21-.8Z"/><path class="cls-9" d="m67.1,51.99c-.14-.07-.29-.14-.43-.21.14.07.29.14.43.21Z"/><path class="cls-9" d="m67.55,52.18c-.15-.06-.3-.13-.45-.19.14,0,.27.02.41.02.02.05.03.11.04.17Z"/><path class="cls-2" d="m97.68,73.12c.07-.06.13-.13.2-.19.2-.08.4-.16.6-.24.09.88.17,1.77.26,2.6-.7.07-1.26.07-1.78.2-1.02.25-2-.7-3.01-.06-.07-.19-.21-.39-.19-.57.03-.29.17-.57.05-.97-.47.34-.94.68-1.46,1.05-.7-1.16.77-1.49.82-2.48-.45.14-.77.25-1.41.45.16-2,.31-3.88.46-5.81,1.33.39,1.68.14,1.92-.97.05-.21.62-.32.95-.48-.01.32-.03.65-.04.97-.26,1.29-.53,2.58-.79,3.87-.08.53-.17,1.06-.25,1.58-.28.66-.43,1.28.49,1.6.13.13.26.25.38.38.48.5,1.5.35,2.17-.32.21-.21.42-.41.63-.62Z"/><path class="cls-1" d="m69.87,53.4c.06,0,.12.02.18.05.37.18.73.37,1.1.55.06,0,.12.01.18.03.22.05.43.11.65.16,1.35.28,2.05-.56,2.73-1.42.1,1.04.19,2.09.28,3-1.43.08-2.64.21-3.85.2-.61,0-1.21-.3-1.83-.37-.45-.05-.91.05-1.63.09.08-.39.25-.92.3-1.47.05-.48-.02-.96-.03-1.45.38.03.75.07,1.13.1,0,0,.02,0,.02,0,.26.17.52.33.77.5Z"/><path class="cls-2" d="m99.95,70.62s0-.09.04-.12c.61-.16,1.16-.38,1.14-1.12.02.01.05.02.07.03-.02-.01-.05-.02-.07-.04.1-.11.21-.21.31-.32,0,0,0,0,0,0,.22-.06.44-.12.65-.18.05.64.08,1.28.16,1.91.07.6-.96,1.52-1.63,1.48-.57-.03-1.15,0-1.72.02.14-.34.29-.67.43-1.01,0,0,0,0,0,0,.07-.08.14-.15.22-.23.06-.06.11-.12.17-.18.08-.08.16-.17.24-.25Z"/><path class="cls-1" d="m64.13,71.27c.07.2.14.41.21.61-1.61.49-2.23.45-2.7-.52-.26-.53-.05-1.25-.06-1.89,0-.13,0-.27,0-.4.15,0,.29-.01.44-.02,0,0,0,0,0,0,.1.1.2.21.31.31l-.09.02s.09,0,.09,0c.26.3.52.59.78.89.13.12.27.23.4.35.08.08.16.17.24.25.06.06.12.12.17.18.07.08.14.15.22.23h0Z"/><path class="cls-1" d="m65.19,72.89c.5.33,1,.66,1.5.99,0,0-.01,0-.01,0,.14.07.29.14.43.21,0,0,0,0,0,0,.35.14.7.27,1.06.41-.1.74-.73,1.06-1.72.89-.5-.08-1-.15-1.68-.25.14-.71.28-1.48.43-2.25Z"/><path class="cls-2" d="m57.56,68.27c.35-.39.7-.78,1.03-1.15.8.2,1.19.61,1.09,1.36-.14.07-.28.13-.42.2-.19-.24-.38-.49-.57-.73-.09.11-.19.22-.28.33h-.85Z"/><path class="cls-2" d="m85.76,51.8c-.82-.43-.36-.87.11-1.64.23.64.38,1.04.52,1.44,0,0,0,0,0,0-.21.07-.42.13-.64.2Z"/><path class="cls-1" d="m85.76,51.8c.21-.07.42-.13.64-.2.14.4.28.8.42,1.21-.8.09-1.16-.24-1.06-1Z"/><path class="cls-8" d="m89.82,53.99c-.36,0-.71,0-1.07,0,.07-.34.14-.68.21-1.02.29.34.57.67.86,1.01Z"/><path class="cls-9" d="m69.08,52.9c-.38-.03-.75-.07-1.13-.1-.14-.07-.28-.14-.42-.21,0-.14,0-.28.01-.41.51.24,1.02.48,1.54.72Z"/><path class="cls-1" d="m58.4,68.27c.09-.11.19-.22.28-.33.19.24.38.49.57.73-.28-.13-.57-.27-.85-.4Z"/><path class="cls-2" d="m47.33,84.87c.17.21.34.42.51.64-.13.11-.27.23-.4.34-.17-.22-.34-.44-.51-.67.13-.1.26-.21.4-.31Z"/><path class="cls-2" d="m115.62,85.5l.53-.61c.11.09.22.18.33.26-.18.2-.37.39-.55.59-.1-.08-.2-.16-.31-.24Z"/><path class="cls-1" d="m78.74,46.36c.14-.33.29-.67.43-1,0,.27,0,.54.01.81-.15.06-.3.13-.44.19Z"/><path class="cls-2" d="m44.44,77.71l-.41-1c.63.15.78.48.41,1Z"/><path class="cls-2" d="m43.77,82.33c.28-.2.56-.4.85-.6-.07.2-.14.41-.22.61-.21,0-.41,0-.62,0,0,0,0,0,0,0Z"/><path class="cls-2" d="m74.73,104.43c-.35.13-.71.27-1.06.4.35-.13.71-.27,1.06-.4Z"/><path class="cls-8" d="m88.32,51.97c.22.34.43.68.65,1.02-.22-.07-.43-.13-.65-.2,0-.27,0-.55,0-.82Z"/><path class="cls-2" d="m49.92,69.08c.07.27.14.53.21.8-.77.13-.33-.6-.64-.81.14,0,.28,0,.42,0Z"/><path class="cls-2" d="m61.58,69.08c0,.13,0,.27,0,.4-.14-.2-.28-.4-.42-.6.07,0,.14,0,.21,0,.1-.05.2-.09.3-.14,0,0,.06.06.06.06-.05.09-.09.19-.14.28Z"/><path class="cls-1" d="m79.82,46.17c.21,0,.42,0,.64,0-.21,0-.42,0-.64,0Z"/><path class="cls-2" d="m119.28,76.92c-.06.2-.13.41-.19.61.06-.2.13-.41.19-.61Z"/><path class="cls-2" d="m114.79,69.06c.22-.13.44-.26.65-.38-.22.13-.44.25-.65.38Z"/><path class="cls-9" d="m43.78,82.34c.21,0,.41,0,.62,0,0,.13,0,.26,0,.38-.21-.13-.42-.26-.62-.39Z"/><path class="cls-9" d="m119.06,82.34c.11.08.21.16.32.24-.11.05-.22.1-.32.14,0-.13,0-.26,0-.39Z"/><path class="cls-2" d="m80.88,104.23l-.42.2.42-.2Z"/><path class="cls-2" d="m116.71,68.66c.22-.07.43-.13.65-.2-.22.07-.43.13-.65.2Z"/><path class="cls-2" d="m61.16,100.82c-.07-.13-.13-.27-.2-.4.07.13.13.27.2.4Z"/><path class="cls-2" d="m119.44,76.71c-.05.07-.11.14-.16.21.05-.07.11-.14.16-.21Z"/><path class="cls-1" d="m82.06,44.02v1.23c-.26-.08-.74-.14-.75-.23-.02-.35.11-.71.18-1.06.19.02.38.04.57.07Z"/><path class="cls-8" d="m87.04,49.57c.21.4.43.81.65,1.21-.87-.09-.59-.73-.65-1.21Z"/><path class="cls-1" d="m79.61,44.36c.21-.34.42-.67.63-1.01.04.28.08.56.13.92-.26.03-.51.06-.76.08Z"/><path class="cls-1" d="m80.45,43.34c0-.06,0-.13,0-.19.25.03.5.06.75.09-.01.09-.03.18-.04.27-.24-.06-.47-.12-.71-.18Z"/><path class="cls-8" d="m87.89,51.17c.15.27.3.54.44.81-.15-.27-.3-.54-.44-.81Z"/><path class="cls-9" d="m83.44,43.13c.06,0,.12.02.18.03.08.26.16.53.23.79-.14-.27-.28-.55-.42-.82Z"/><path class="cls-1" d="m82.42,43.49c-.06-.02-.15-.04-.17-.08-.02-.04.04-.11.07-.16.06.02.15.04.17.08.02.04-.04.11-.07.17Z"/><path class="cls-9" d="m83.86,43.95c.08.13.15.27.23.4-.08-.13-.15-.27-.23-.4Z"/><path class="cls-8" d="m86.82,49.17c.07.14.15.27.22.41-.07-.14-.15-.27-.22-.41Z"/><path class="cls-8" d="m87.67,50.78c.06.07.11.15.17.22-.06-.07-.11-.15-.17-.22Z"/><path class="cls-9" d="m94.36,52.9c-.33.16-.66.33-.99.49.33-.16.66-.33.99-.49Z"/><path class="cls-8" d="m91.27,54.24c-.3.31-.61.7-.85-.04.28.01.57.03.85.04Z"/><path class="cls-8" d="m90.43,54.21c-.21-.08-.42-.15-.63-.23.21.08.42.15.63.23Z"/><path class="cls-9" d="m71.15,54c-.37-.18-.73-.37-1.1-.55.28.06.55.13.83.19.09.12.18.24.27.36Z"/><path class="cls-9" d="m71.98,54.2c-.22-.05-.43-.11-.65-.16.22.05.43.11.65.16Z"/><path class="cls-9" d="m69.87,53.4c-.26-.17-.52-.33-.77-.5.26.17.52.33.77.5Z"/><path class="cls-3" d="m69.05,69.68c-.07-.2-.14-.4-.21-.6,1.88-.19.67-1.5.92-2.28,1.17.39,1.66,1.21,1.07,2.2-.24.41-1.17.46-1.78.68Z"/><path class="cls-9" d="m57.99,64.84c.28.27.56.54.85.81-.62.04-.9-.22-.85-.81Z"/><path class="cls-9" d="m58.83,65.65c.22.27.44.54.66.8-.68.07-.69-.35-.66-.8Z"/><path class="cls-9" d="m60.53,67.46c.22.26.44.53.65.79-.22-.26-.44-.53-.65-.79Z"/><path class="cls-9" d="m61.67,68.74c-.1.05-.2.09-.3.14,0-.14,0-.27.01-.41.1.09.19.18.29.28Z"/><path class="cls-9" d="m61.17,68.25c.07.07.14.14.21.21-.07-.07-.14-.14-.21-.21Z"/><path class="cls-9" d="m57.77,64.63c.07.07.15.15.22.22-.07-.07-.15-.15-.22-.22Z"/><path class="cls-9" d="m63.11,70.27c-.26-.3-.52-.59-.78-.89.26.3.52.59.78.89Z"/><path class="cls-9" d="m61.58,69.08c.05-.09.09-.19.14-.28.1.09.2.18.3.26-.15,0-.29.01-.44.02Z"/><path class="cls-9" d="m62.33,69.37c-.1-.1-.2-.21-.31-.31.1.1.2.21.31.31Z"/><path class="cls-9" d="m63.75,70.87c-.08-.08-.16-.17-.24-.25.08.08.16.17.24.25Z"/><path class="cls-9" d="m64.14,71.28c-.07-.08-.14-.15-.22-.23.07.08.14.15.22.23Z"/><path class="cls-9" d="m67.11,74.09c-.14-.07-.29-.14-.43-.21.14.07.29.14.43.21Z"/><path class="cls-9" d="m104.63,65.66c.35-.34.71-.68,1.06-1.03-.11.57-.28,1.08-1.06,1.03Z"/><path class="cls-9" d="m94.5,73.69c-.92-.32-.78-.94-.49-1.6.16.53.33,1.07.49,1.6Z"/><path class="cls-9" d="m101.13,69.38c.03.74-.53.95-1.14,1.12,0-.07,0-.14-.01-.21.07-.07.14-.14.21-.21.31-.24.63-.47.94-.71Z"/><path class="cls-9" d="m101.44,69.06c-.1.11-.2.21-.31.32.1-.11.2-.21.31-.32Z"/><path class="cls-9" d="m99.95,70.62c-.08.08-.16.17-.24.25.08-.08.16-.17.24-.25Z"/><path class="cls-9" d="m99.54,71.05c-.07.08-.14.15-.22.23.07-.08.14-.15.22-.23Z"/><path class="cls-9" d="m110.34,93.99c-.13.14-.27.28-.4.41.13-.14.27-.28.4-.41Z"/><path class="cls-9" d="m113.34,91.78c-.1.1-.2.19-.3.29.1-.1.2-.19.3-.29Z"/><path class="cls-9" d="m115.9,89.78c-.08.07-.16.14-.24.2.08-.07.16-.14.24-.2Z"/><path class="cls-9" d="m113.56,91.58c-.08.07-.15.13-.23.2.08-.07.15-.13.23-.2Z"/><path class="cls-9" d="m112.99,92.12c-.06.05-.12.1-.17.15.06-.05.12-.1.17-.15Z"/><path class="cls-9" d="m112.77,92.29c-.09.04-.18.08-.27.12.09-.04.18-.08.27-.12Z"/><path class="cls-9" d="m119.7,75.71c.14-.47.28-.94.42-1.41-.14.47-.28.94-.42,1.41Z"/><path class="cls-9" d="m44.59,81.11c.08-.07.16-.14.23-.2-.08.07-.16.14-.23.2Z"/></g></svg>