<?xml version="1.0" encoding="UTF-8"?><svg id="Camada_1" xmlns="http://www.w3.org/2000/svg" viewBox="0 0 163.46 163.46"><defs><style>.cls-1{fill:#fff;}</style></defs><g id="qwMIj8.tif"><path class="cls-1" d="m144.73,84.29c-.05.18-.12.36-.15.55-.22,1.34-.78,2.53-1.75,3.48-.99.97-2.04,1.87-3.08,2.78-3.26,2.86-6.52,5.71-9.79,8.57-4.44,3.89-8.88,7.78-13.32,11.67-1.08.95-2.26,1.69-3.7,1.95-3.68.67-7.24-1.71-7.96-5.38-.43-2.2.09-4.19,1.61-5.84.91-.99,1.97-1.86,2.98-2.75,3.74-3.29,7.5-6.56,11.25-9.84,2.14-1.87,4.27-3.75,6.4-5.62.06-.05.13-.09.29-.19-.16-.1-.25-.15-.33-.22-2.31-2.01-4.63-4.02-6.93-6.04-2.24-1.96-4.46-3.94-6.69-5.9-2.06-1.81-4.12-3.6-6.18-5.41-1.19-1.04-2.03-2.3-2.37-3.85-.96-4.37,2.44-8.44,6.91-8.3,1.82.05,3.31.82,4.64,1.98,4.22,3.7,8.45,7.4,12.68,11.1,3.39,2.97,6.79,5.94,10.18,8.91,1.03.9,2.1,1.78,3.09,2.72,1.13,1.08,1.89,2.38,2.07,3.98,0,.06.02.12.03.2.05-.04.08-.07.12-.1,0,.51,0,1.02,0,1.54Z"/><path class="cls-1" d="m93.03,40.95c-.55.11-1.11.14-1.66,0h1.66Z"/><path class="cls-1" d="m92.02,41.12c2.02-.1,3.67.61,5,2,1.61,1.67,2.27,3.69,1.82,5.98-.37,1.84-.86,3.66-1.31,5.49-1.22,4.95-2.46,9.9-3.69,14.85-1.45,5.84-2.91,11.68-4.37,17.53-1.63,6.56-3.26,13.12-4.9,19.67-.87,3.5-1.72,7.01-2.62,10.5-.71,2.74-2.45,4.56-5.23,5.18-2.72.61-5.03-.27-6.8-2.41-1.11-1.33-1.65-2.91-1.48-4.65.1-1.02.36-2.03.61-3.03,1.88-7.58,3.77-15.16,5.65-22.74,1.85-7.43,3.69-14.86,5.54-22.3,1.72-6.91,3.44-13.83,5.17-20.74.6-2.38,2.02-4.07,4.33-4.98.75-.3,1.54-.41,2.29-.35Z"/><path class="cls-1" d="m36,83.69c2.43,2.13,4.85,4.26,7.27,6.37,4.14,3.62,8.29,7.24,12.44,10.86,1.18,1.03,2.16,2.19,2.59,3.73.58,2.1.28,4.05-.98,5.84-1.07,1.52-2.54,2.46-4.36,2.8-2.29.42-4.27-.28-5.99-1.79-2.68-2.34-5.35-4.69-8.03-7.03-3.29-2.88-6.59-5.76-9.88-8.64-2.48-2.17-4.96-4.35-7.45-6.52-1.14-1-2.12-2.12-2.56-3.61-.6-2.02-.35-3.92.77-5.71.52-.83,1.22-1.49,1.95-2.12,3.27-2.86,6.55-5.72,9.82-8.58,5.12-4.48,10.25-8.96,15.37-13.44,1.1-.96,2.33-1.66,3.81-1.85,3.01-.4,5.8,1.14,7.1,3.75,1.42,2.85.67,6.23-1.93,8.47-4.83,4.17-9.62,8.4-14.43,12.61-1.81,1.59-3.62,3.18-5.43,4.76-.02.02-.04.05-.08.09Z"/></g></svg>