<svg id="github" xmlns="http://www.w3.org/2000/svg" width="23.252" height="22.678" viewBox="0 0 23.252 22.678">
  <path id="Path_234" data-name="Path 234" d="M27.626,16A11.627,11.627,0,0,0,23.95,38.657c.581.1.8-.248.8-.553,0-.276-.015-1.191-.015-2.165-2.92.538-3.676-.712-3.909-1.366a4.235,4.235,0,0,0-1.192-1.643c-.407-.217-.988-.756-.015-.77a2.326,2.326,0,0,1,1.788,1.192,2.486,2.486,0,0,0,3.386.959,2.444,2.444,0,0,1,.742-1.554c-2.587-.291-5.29-1.294-5.29-5.741a4.524,4.524,0,0,1,1.192-3.125,4.178,4.178,0,0,1,.116-3.081s.973-.3,3.2,1.193a10.961,10.961,0,0,1,5.813,0c2.223-1.511,3.2-1.191,3.2-1.191a4.178,4.178,0,0,1,.116,3.081,4.5,4.5,0,0,1,1.192,3.124c0,4.462-2.717,5.45-5.3,5.741a2.753,2.753,0,0,1,.785,2.151c0,1.554-.015,2.8-.015,3.2,0,.3.219.667.8.551A11.632,11.632,0,0,0,27.626,16Z" transform="translate(-16 -16)" fill="#fff" fill-rule="evenodd"/>
</svg>
