<?xml version="1.0" encoding="UTF-8"?>
<svg id="Layer_1" data-name="Layer 1" xmlns="http://www.w3.org/2000/svg" viewBox="0 0 1582.29 1800">
  <defs>
    <style>
      .cls-1 {
        fill: #2d4563;
      }

      .cls-2 {
        fill: #252740;
      }

      .cls-3 {
        fill: #4b404f;
      }

      .cls-4 {
        fill: #fff;
        opacity: .1;
      }

      .cls-5 {
        fill: #c27f77;
      }

      .cls-6 {
        fill: #ca9d91;
      }

      .cls-7 {
        fill: #af6865;
      }

      .cls-8 {
        fill: #283a55;
      }

      .cls-9 {
        fill: #282a45;
      }

      .cls-10 {
        fill: #daddd9;
      }

      .cls-11 {
        fill: #1e2d3f;
      }

      .cls-12 {
        fill: #272a44;
      }

      .cls-13 {
        fill: #d7ac9d;
      }

      .cls-14 {
        fill: #152234;
      }

      .cls-15 {
        fill: #d9e0dd;
      }

      .cls-16 {
        fill: #504352;
      }

      .cls-17 {
        fill: #d8ae9f;
      }
    </style>
  </defs>
  <path class="cls-4" d="M1372.82,919.93c0,129.55-39.96,249.77-108.25,349-1.37,2-2.77,4-4.17,5.98-83.01,117.68-206.19,204.98-349.6,241.97-49.37,12.75-101.14,19.52-154.48,19.52-134.81,0-259.52-43.27-360.99-116.7-2.96-2.14-5.9-4.3-8.81-6.49-27.71-20.8-53.6-43.88-77.4-68.97-104.91-110.53-169.27-259.9-169.27-424.32,0-148.22,52.31-284.22,139.47-390.56,1.1-1.35,2.21-2.69,3.32-4.02,2.82-3.38,5.67-6.73,8.57-10.05,113.02-129.81,279.49-211.86,465.12-211.86,16.42,0,32.68.64,48.77,1.9,317.68,24.87,567.72,290.53,567.72,614.59Z"/>
  <g>
    <g>
      <path class="cls-8" d="M1513.93,1309.57c-24.24,51.78-62.89,96.23-102.38,136.89-14.72,15.16-29.92,29.85-45.25,44.37-24.29,19.52-49.3,38.26-75.45,55.14-31.2,20.18-65.81,39.44-91.27,67.21-56.3,5.32-112.64,8.39-171.63,13.83-81.53,7.53-162.84,21.27-244.68,24.94-157.48,7.06-341.44-19.42-489.49-73.31-10.65-3.87-58.4-23.96-56.49-37.26,37.36-33.06,74.94-65.32,116.27-93.48,34.96-23.84,79.97-52.32,117.3-71.74,6.74-3.49,13.41-7.63,21.49-7.07-4.34,51.95,67.14,74.4,107.75,73.31,105.3-2.8,214.46-61.23,305.5-110.63,60.12-32.63,115.78-72.14,167.04-117.25,11.8-10.38,38.14-33.85,33.68-50.56,71.8,16.21,145.01,32.67,214.3,58.99,42.41,16.11,138.93,54.03,193.31,86.64Z"/>
      <path class="cls-8" d="M1306.17,1547.69c-4.81,4.68-9.61,9.34-14.37,14.05-3.97.66-7.82,1.62-11.56,2.89,2.16-1.37,4.31-2.72,6.43-4.09,6.57-4.19,13.07-8.48,19.5-12.85Z"/>
      <path class="cls-8" d="M1227.75,1600.65c-1.59,1.35-3.17,2.68-4.79,4,1.59-1.35,3.17-2.68,4.79-4Z"/>
      <path class="cls-3" d="M1190.59,501.62c6.87,32.25-3.48,37.38-6.57,62.43-.95,7.66,1.33,18.44-.24,28.95-2.95,20.02-12.97,49.08-12.98,68.33-10.48-9.18-15.77-18.76-32.25-16.12,2.79-1.3,2.8-2.13,3.06-4.98,2.62-30.79,3.19-75.47-4.95-105.21-6.99-25.63-6.67-12.68-25.93-8.51.49-33.66,10.52-105.28-43.96-92.3,16.12-38.34,2.23-18.3-21.98-13.19,8.54-15.16,14.77-32.4,11.38-50.21-.76-3.93-12.19-24.83-15.33-25.81-9.39-2.94-14.37,8.22-20.95,11.55,5.54-36.62,4.88-75.8-10.97-109.92-15.28-32.94-57.15-65.46-85.26-87.64-2.58-2.03-9.84-3.85-10.75-4.64-8.53-7.48-26.02-49.35-24.97-60.9.1-1.01,5.27-18.94,6.11-19.5,3.71-2.48,9.76,2.85,13,4.2,1.06.44,1.92.96,2.94,1.45l3.87,2.58.08.07c.14.08.29.19.44.29,19.82,11.9,26.91,26.03,44.13,40.13,18.59,15.23,41.11,25.14,60.39,39.25,61.56,45.03,97.43,127.65,132.56,192.72,18.84,34.88,43.09,46.97,31.47,93.9-1.06,4.29-7.7,14.96-7.68,17.19.03,1.96,13.62,27.86,15.35,35.89ZM1182.5,548.49c6.38-20.9,5.47-45.99-7.29-64.46l7.29,64.46ZM1172.29,453.27c13.24-19.26,6.13-42.95-4.42-61.56-.89-1.57-.79-4.64-2.9-4.39-1.33,2.7,1.22,5,1.44,5.86.24.84-.19,2.06,0,2.94.15.66.84,1.2,1.47,1.45,1.62,18.59,5.69,36.86,4.42,55.7Z"/>
      <path class="cls-15" d="M1170.8,661.33c-.02,19.72,8.64,37.67,7.39,60.88-2.38,44.15-15.52,49.04-33.56,82.2-9.61,17.68-12.83,36.74-21.95,54.24-7.19,13.81-18.1,22.62-25.16,34.19-9.98-1.1-17.32,7.19-28.73,8.63-6.03.76-18.45.88-24.01-1.3-4.78-1.86-10.47-11.36-14.65-14.65,2.01-12.17-1.47-21.26-1.47-30.03v-24.9c0-1.42,2.4-9.44,2.94-12.46,6.25,3.63,9.94,14.01,11.72,20.51.51,1.89-.39,5.17,0,7.33,1.54,8.53,2.62.1,2.92,0,1.54-.52,2.79-1.01,4.41-1.47.24-.07,1.69,4.14,1.47-1.47,25.8-15.14,76.28-27,76.19-61.54,2.16-1.6.2-2.18,0-2.92-.52-1.84-.78-4.29-1.47-5.88.88-9.52,9.61-6.7,12.49-10.26,1.38-1.69.25-4.85.69-5.84,5.72-13.02,5.34-23.01,5.86-36.64,4.85,1.59,4.34-10.89,0-8.8-.02-1.96.07-3.92,0-5.86-.05-1.72,2.8-6.45-2.92-5.86-1.71-3.43-3.58-5.82-5.86-8.8-.59-.76,1.76-4.15-4.41-2.94-4.27-4.2-8.59-7.6-14.65-8.78,1.99-15.95-1.44-30.19,20.51-33.72,16.48-2.63,21.76,6.94,32.25,16.12Z"/>
      <path class="cls-3" d="M1167.86,391.71l-1.47,1.47c-.22-.86-2.77-3.16-1.44-5.86,2.11-.25,2.01,2.82,2.9,4.39Z"/>
      <path class="cls-3" d="M1166.39,396.12c.62.2,1.42.84,1.47,1.45-.62-.25-1.32-.79-1.47-1.45Z"/>
      <path class="cls-10" d="M1145.88,711.16c4.34-2.09,4.85,10.38,0,8.8.12-2.92.03-5.88,0-8.8Z"/>
      <path class="cls-7" d="M1145.88,711.16c.03,2.92.12,5.88,0,8.8-.52,13.62-.14,23.62-5.86,36.64-5.86-18.22-11.77-37.8-26.37-51.29,3.58-12.17,2.92-14.57,4.39-26.37,6.06,1.18,10.38,4.58,14.65,8.78,1.27,1.25,1.44,3.28,4.41,2.94,2.28,2.97,4.15,5.37,5.86,8.8.84,1.69.35,4.59,2.92,5.86.07,1.94-.02,3.9,0,5.86Z"/>
      <path class="cls-10" d="M1142.96,699.44c5.72-.59,2.87,4.14,2.92,5.86-2.57-1.27-2.08-4.17-2.92-5.86Z"/>
      <path class="cls-2" d="M1136.66,535.02c8.14,29.75,7.56,74.42,4.95,105.21-.25,2.85-.27,3.68-3.06,4.98-21.95,3.53-18.52,17.76-20.51,33.72-1.47,11.8-.81,14.2-4.39,26.37-1.69,5.76-11.7,31.45-14.65,35.17-5.15,6.48-23.74,17.17-32.23,17.58-.96.05-1.98.05-2.94,0-6.96-.29-18.3-7.28-19.57-7.07-3.76.59-16.49,18-18.81,22.2-13.35,24.33-14.69,53.35-18.77,80.13-17.95-12.88-16.83,7.09-29.33,2.16-17.59,22.47-50.45,44.66-65.05,68.31-9.96,16.12.68,10.13,2.08,11.6,5.66,5.94-19.25,12.11-22.72,11.85-6.94-.52-5.3-6.57-8.8-6.08-4.29.62-4.85,7.88-8.64,7.34-1.13-.17-14.96-14.45-14.06-17.52.41-.17,1.05.17,1.47,0,1.18-.49,2.06-1.08,2.92-1.47,1.03-.44,2.31-.46,4.41-1.47,3.7-1.77,11.65-5.5,14.64-7.33,1.6-.96,2.89-1.89,4.41-2.92.54-.37.93-1.08,1.47-1.47,1.13-.81,1.79-1.71,2.35-2.36l.02-.02.56-.56c2.92-2.3,7.87-4.68,10.26-7.31,7.56-.32-4,10.33-1.45,13.17.64.73,11.28-6.47,12.31-7.45,5.2-4.93,34.86-42.78,35.76-47.78.47-2.75-1.69-6.23-1.2-9.23,23.92-25.21,38.07-51.7,40.82-87.4,2.26-29.17-12-54.43-8.44-80.24,3.92-28.46,8.34-24.5,2.79-58.01-.54-3.26.41-13.98-.02-14.57-4.05-5.66-118.21-33.23-133.32-39.66-7.23-.22-2.48-12.16-5.96-16.75-3.31-4.39-8.75-.57-12.41-3.71-4.02-3.44-1.33-21.14-12.8-17.37-11.19,3.68,9.02,21.19-4,24.65-5.86-9-49.37-18.22-60.76-19.09-29.63-2.3-53.81.76-81.38,10.3-.76.27-2.18-.27-2.92,0-.25.08-.49.41-.73.73l-.74.74c-43.2,17.39-51.59,45.35-43.96,90.85,2.57,15.23,4.76,22.66,11.72,36.64,20.7,41.53,66.77,70.22,114.3,60.09-5.98,10.65-32.89,1.2-41.75,2.77-3.88.69-3.39,4.68-3.68,7.48,6.33-2.13,13.59,5.45,16.95,5.93,4.36.59,25.73-9.83,24.09,2.87-.44-.05-1.05-.07-1.47,0-.84.14-1.57.42-1.47,1.47-7.43.81-14.35,2.26-21.98,1.47-.1-.07-.2-.15-.3-.24-.02-.03-.03-.07-.07-.08l-.03-.03c-.34-.42-.74-1.08-1.05-1.11-4.17-.49-9.22-.78-13.19-1.47-.49-.08-1,.08-1.47,0-.15-.03.14-2.89-.02-2.92-1.71-.3-2.7,1.38-2.9,1.45h-.02c-2.5-.47-4.85-.84-7.33-1.47,1.1-4.98-3.65-2.25-7.33-2.92-.47-.08-1,.08-1.47,0l-5.67-1.42c-.07-.02-.14-.03-.19-.05-2.82-.88-4.69-1.67-7.33-2.94-9.1-4.32-30.36-25.36-35.17-26.37-12.93-18.35-25.38-34.61-30.76-57.15-.05-.15,1.81-1.33,1.45-2.9-.03-.15-2.6.08-2.9,0l-.02-.02c-.19-.91.15-2.01,0-2.94-.51-3.07,2.46-19.55-4.41-20.51-.84-5.66-.79-10.91-1.45-16.12,4.96-7.61-1.16-6.94-1.47-7.33-1.08-1.3-1.81-1.86-2.94-2.92-.95-.91-1.91-1.05-2.53-1.28l-.39-.19c-.24-.17.22-1.32,0-1.47l-.08-.08c-.19-.22-.51-.84-1.38-1.38-.56-.34-2.35.34-2.94,0-1.15-.66-1.81-.91-2.92-1.45-.41-.2-1.08.19-1.47,0l-.34-.17c-.14-.07-.27-.14-.42-.2l-2.18-1.1c-.1-.22-.07-1.2,0-1.47.03-.12,2.48.17,2.58-.25,1.79-7.5-3.98-2.7-5.52-4.15-5.91-5.55,22.54-10.01,26.39-8.8,1-5.27-1.45-3.92-4.39-5.84,10.48,2.82,10.23-12.59,15.16-20.73,10.25-16.9,44.32-38.66,62.5-46.68.22-.1.44-.2.66-.32.08-.03.15-.08.22-.12l.12-.07,1.92-.96c.42-.15,1.05.17,1.47,0l9.76-2.79.51-.14c65.51-18.01,167.46-15.21,204.08,51.61l85.29,24.6c-5.28-22.84-28.31-43.32-36.96-62.69-2.28-5.12-.95-8.26-1.86-12.05.35-3.11.19-3.29-2.92-2.94-.27-1.62-.05-4.07,0-5.86.03-1.16,4.49-5.17-1.47-4.41-.29-6.96-1.03-13.62-1.47-20.51,2.57-2.46,1.96-3.39-1.47-2.92-.1-1.74-.37-6.11,0-7.33.83-2.7,2.08-2.95,4.71-2.68,3.22.34,7.21,2.03,11.62,4.07,7.34,3.43,15.87,7.85,24.14,8.71,20.56,2.13,56.14-9.78,70.84-24.09,8.04-7.82,7.19-20.92,20.58-24.11,54.48-12.98,44.45,58.63,43.96,92.3,19.26-4.17,18.94-17.12,25.93,8.51ZM895.32,929.49c1.77,1.96,7.85-5.1,5.84-7.31-1.76-1.98-7.83,5.08-5.84,7.31Z"/>
      <path class="cls-10" d="M1140.02,756.59c-.44,1,.69,4.15-.69,5.84-2.89,3.56-11.62.74-12.49,10.26-5.72-13.03-12.43-28.92-27.84-32.23,2.95-3.71,12.97-29.41,14.65-35.17,14.6,13.49,20.51,33.07,26.37,51.29Z"/>
      <path class="cls-10" d="M1132.7,687.71c6.16-1.22,3.82,2.18,4.41,2.94-2.97.34-3.14-1.69-4.41-2.94Z"/>
      <path class="cls-10" d="M1128.31,778.57c.2.74,2.16,1.32,0,2.92v-2.92Z"/>
      <path class="cls-7" d="M1128.31,781.49c.08,34.54-50.4,46.39-76.19,61.54-.56.34-.98,1.03-1.47,1.47-1.62.46-2.87.95-4.41,1.47h-2.92c-.39-2.16.51-5.44,0-7.33,7.87-3.16,8.51-16.34,12.39-23.5,11.01-20.28,29.9-30.27,11.06-57.1,8.49-.41,27.08-11.09,32.23-17.58,15.41,3.31,22.12,19.2,27.84,32.23.69,1.59.95,4.04,1.47,5.88v2.92Z"/>
      <path class="cls-11" d="M1106.32,1163.94c4.46,16.71-21.88,40.18-33.68,50.56-51.26,45.11-106.92,84.62-167.04,117.25-91.03,49.4-200.2,107.83-305.5,110.63-40.6,1.1-112.09-21.36-107.75-73.31.79-9.61,5.37-15.94,10.97-23.45l43.24-32.23c1.01,5.93,1.11,21.83-.32,26.79-2.25,7.83-16.68,10.16-15.8,29.55,2.09,46.93,105.54,39.24,136.31,32.35,62.79-14.06,232.44-98.14,288.5-135,17.81-11.72,88.23-65.15,99.78-78.98,17.66-21.17,4.66-25.61-5.86-44.69,15.89-10.77,52.13,1.71,57.15,20.51Z"/>
      <path class="cls-12" d="M1068.79,901.48c11.41-1.44,18.76-9.72,28.73-8.63-8.8,14.43-13.69,30.22-25.19,45.89-10.75,14.65-32.31,31.91-39.29,44.98l11.73-83.54c5.55,2.18,17.98,2.06,24.01,1.3Z"/>
      <path class="cls-16" d="M1044.79,421.02c24.21-5.12,38.1-25.16,21.98,13.19-13.39,3.19-12.54,16.29-20.58,24.11-14.71,14.32-50.28,26.22-70.84,24.09-8.27-.86-16.8-5.28-24.14-8.71l.83-1.81c1.1.47,2.19.88,3.31,1.2,40.33,11.5,71.47-20.19,89.45-52.07Z"/>
      <path class="cls-10" d="M1066.77,758.04c18.84,26.83-.05,36.82-11.06,57.1-3.88,7.16-4.52,20.34-12.39,23.5-1.77-6.5-5.47-16.88-11.72-20.51,4.52-25.78,12.49-42.83,32.23-60.09.96.05,1.98.05,2.94,0Z"/>
      <path class="cls-9" d="M1056.16,370.81c3.39,17.81-2.84,35.05-11.38,50.21-17.98,31.87-49.11,63.56-89.45,52.07-1.11-.32-2.21-.73-3.31-1.2-9.96-4.31-19.63-14.47-30.34-17.17-11.82-20.41-19.04-40.64-20.51-64.48,9.96-2.19.37-7.18,0-8.78-1-4.32-2.03-11.24-2.94-16.12-.89-4.85-2.87-6.94-2.92-7.33-.89-6.04,1.45-26.22,0-29.31-.03-.07-1-.02-1.47,0-1.22.03-14.87,13.34-18.59,15.84-17.31,11.63-36.42,19.85-57.6,20.8h-14.65c-13.25-6.2-27.4-14.92-35.17-27.84,30.91,15.8,77.76,14.59,101.15-13.89,2.77-3.39,14.15-17.51,4.36-18.35h-.34c-10.6.19-21.31-.25-31.91,0-5.34.14-10.77-.2-16.11,0-.98,0-1.96.02-2.94,0-2.25-5.69-6.3-9.42-3.09-14.54.51-.81,1.2-1.65,2.11-2.55,8.34-8.21,13.13,2.5,20.78,2.52,2.06.02,17.83-.39,18.81-.49,25.68-3.04,21.31-13.44,32.55-31.74,2.23-3.66,6.94-4.66,9.25-8.34,2.43-3.9,3.92-16.09,4.59-16.65,9.18-7.61-2.38,52.03,16.88,51.39,2.85-.1,6.13-1.99,7.23-4.54,1.16-2.68-1.44-47.8-2.31-53.28-1.49-9.22-9.67-21.07-10.03-25.14-.79-9.39,12.17-28.67-10.32-27.05,1.4-3.88.34-15.45,4.39-20.51.91.79,8.17,2.62,10.75,4.64,28.11,22.18,69.98,54.7,85.26,87.64,15.85,34.12,16.51,73.31,10.97,109.92,6.58-3.33,11.56-14.49,20.95-11.55,3.14.98,14.57,21.88,15.33,25.81Z"/>
      <path class="cls-17" d="M1049.18,1143.43c10.52,19.08,23.52,23.52,5.86,44.69-11.55,13.83-81.97,67.26-99.78,78.98-56.05,36.86-225.71,120.93-288.5,135-30.78,6.89-134.22,14.59-136.31-32.35-.88-19.38,13.56-21.71,15.8-29.55,1.44-4.96,1.33-20.87.32-26.79,5.67-7.38,3.02-28.8,4.59-38.65,2.94-18.5,8.83-36.57,11.53-55.14,98.11,34.04,255.44-33.24,335.55-90.85,21.81-15.68,29.43-24.23,45.43-45.43,15.85-20.99,35.4-51.1,45.67-75.21,8.61-20.19,37.58-103.29,40.79-122.6,4.19,3.29,9.88,12.8,14.65,14.65l-11.73,83.54c-17.58,32.97-2.03,126.81,16.12,159.71Z"/>
      <path class="cls-10" d="M1052.11,843.03c.22,5.61-1.23,1.4-1.47,1.47.49-.44.91-1.13,1.47-1.47Z"/>
      <path class="cls-10" d="M1043.32,845.97h2.92c-.3.1-1.38,8.53-2.92,0Z"/>
      <path class="cls-3" d="M1044.26,750.97c1.27-.2,12.61,6.79,19.57,7.07-19.74,17.25-27.7,34.31-32.23,60.09-.54,3.02-2.94,11.04-2.94,12.46v24.9c0,8.78,3.48,17.86,1.47,30.03-3.21,19.31-32.18,102.41-40.79,122.6-10.26,24.11-29.82,54.23-45.67,75.21l-45.43,45.43c-80.11,57.6-237.44,124.88-335.55,90.85-14.18-4.91-20.55-16.55-31.79-23.16-8.37-4.95-16.56-5.61-23.96-9.74-23.94-13.44-41.01-33.48-55.61-56.47,19.79,19.74,45.08,35.1,66.69,52.74,7.16,1.89-3.9-11.67-3.7-12.43.59-2.36,28.58,18.23,33.75,20.46,10.7,4.63,21.83,7.88,33.66,6.63-1.47,2.85-12.65,9.17-11.72,12.41,2.63,9.13,89.78,1.44,102.58-2.89,19.28-6.52,50.11-42.44,53.47-43.27,11.68-2.89-3.38,26.57-3.36,28.18.2,12.32,18.35,1.2,24.48-2.63,12-7.55,24.6-22.79,30.14-35.81,3.36-7.88,3.55-27.05,10.92-19.63,9.57,9.64-13.13,38.53,2.01,35.62,2.65-.51,36.15-31.64,40.42-35.91,16.58-16.6,30.39-33.28,37.83-55.93,3.8-11.55-1.05-27.81,13.64-17.17,4.51,3.26,9.4,16.61,10.25,16.16,13.1-7.02,34.66-74.44,38.81-73.98,1.49.15,5.91,11.56,6.65,13.83,2.14,6.43,1.06,22.13,9.94,16.65,1.74-1.08,16.75-32.08,18.55-36.4,20.39-48.89,32.4-91.72,40.32-143.57,4.09-26.78,5.42-55.8,18.77-80.13,2.31-4.2,15.04-21.61,18.81-22.2Z"/>
      <path class="cls-9" d="M977.36,855.45c12.49,4.93,11.38-15.04,29.33-2.16-7.92,51.85-19.92,94.68-40.32,143.57-1.81,4.32-16.82,35.32-18.55,36.4-8.88,5.49-7.8-10.21-9.94-16.65-.74-2.26-5.17-13.68-6.65-13.83-4.15-.46-25.71,66.96-38.81,73.98-.84.46-5.74-12.9-10.25-16.16-14.69-10.64-9.84,5.62-13.64,17.17-7.45,22.66-21.26,39.34-37.83,55.93-4.27,4.27-37.77,35.4-40.42,35.91-15.14,2.9,7.56-25.98-2.01-35.62-7.38-7.41-7.56,11.75-10.92,19.63-5.54,13.02-18.13,28.26-30.14,35.81-6.13,3.83-24.28,14.96-24.48,2.63-.02-1.6,15.04-31.06,3.36-28.18-3.36.83-34.19,36.75-53.47,43.27-12.8,4.32-99.95,12.02-102.58,2.89-.93-3.24,10.25-9.56,11.72-12.41-11.83,1.25-22.96-2.01-33.66-6.63-5.17-2.23-33.16-22.83-33.75-20.46-.2.76,10.86,14.32,3.7,12.43-21.61-17.64-46.9-33.01-66.69-52.74-40.42-40.3-95.79-159.85-97.58-216.39-.61-19.06,6.75-39.57,8.19-57.62l26.66,56.14c5.98,6.42,23.45,33.92,34.54,27.91,3.19-1.72,9.02-44.55,11.02-52.13,7.23-27.16,43.63-77.95,68.44-90.53,2.35-1.18,20.78-6.91,23.45-7.33,13.81-2.23,23.3,3.41,35.61,2.33,22.12-1.96,45.94-6.6,68.43-6.74h2.94c3.36.54,7.36.61,11.48.19,11.89.3,26.34,1,37.82,1.91,2.18.42,5.17.69,9.32.84,62.79,6.82,143.59,33.39,146.49,107.7.24,6.01-4.42,41.68-2.9,43.24,3.12,3.17,20.92-7.14,24.92-8.8-.89,3.07,12.93,17.36,14.06,17.52,3.8.54,4.36-6.72,8.64-7.34,3.49-.49,1.86,5.55,8.8,6.08,3.48.25,28.38-5.91,22.72-11.85-1.4-1.47-12.04,4.52-2.08-11.6,14.6-23.65,47.46-45.84,65.05-68.31ZM660.11,1014.51c54.4,49.26,126.3-25.7,123.82-85.71-.62-14.84-5.66-47.05-16.09-57.93-7.88-8.21-29.48-3.38-41.73-4.42-51.97-4.47-99.46-15.35-152.22-8.56-32.38,4.17-84.95,18.2-93.26,54.03-5.3,22.91-3.71,90.26,12.41,108.47,45.09,50.99,92.18-36.38,57.94-74.77-.71-4.66,1.86-2.72,4.66-2.5,35.35,2.79,63.06,2.53,97.9-4.83-19.42,15.57-11.45,59.92,6.57,76.23Z"/>
      <path class="cls-15" d="M980.44,687.11c-3.56,25.81,10.7,51.07,8.44,80.24-2.75,35.71-16.9,62.2-40.82,87.4-2.89,3.06-9.94,6.87-11.72,8.8,1.27-4.34-12.04-52.89-19.79-42.51-3.38,4.54-3.98,31.42-8.04,38.09-14.87-47.78-63.23-81.51-112.31-87.72-30.02-3.8-60.88,1.77-89.92-8.96,4.29.34,8.93-.49,13.19,0,.24.02.64.66,1.05,1.11l.03.03s.05.05.07.08c.12.14.22.22.3.24,7.63.79,14.55-.66,21.98-1.47.49-.05,1,.07,1.47,0,.22-.03.56.76,4.41,0,49.48-9.76,86.22-51.81,101.09-98.17,7.07-2.46,8.75-14.43,11.73-20.51.47-.98.95-1.98,1.45-2.94,5.15-9.78,16.21-30.76,28.73-32.2,21.75-2.5,67.28,20.46,91.42,20.48,5.55,33.51,1.13,29.55-2.79,58.01Z"/>
      <path class="cls-6" d="M983.21,614.53c.42.59-.52,11.31.02,14.57-24.14-.02-69.68-22.98-91.42-20.48-12.53,1.44-23.59,22.42-28.73,32.2l-9.88-9.69-3.31-56.25c15.11,6.43,129.27,34,133.32,39.66Z"/>
      <path class="cls-10" d="M981.02,591.02l-85.29-24.6c-36.62-66.82-138.58-69.63-204.08-51.61l-.51.14c-2.7.74-8.14,2.18-9.76,2.79-.42.17-1.05-.15-1.47,0-.76.3-1.37.66-1.92.96l-.12.07c-.07.03-.14.08-.22.12l-.66.32c-18.18,8.02-52.25,29.78-62.5,46.68-4.93,8.14-4.68,23.55-15.16,20.73-1.03-.68-1.79-1.05-2.94-1.47-12.34-4.63-29.51-3.8-42.49-1.47-.93-.12-2.03.17-2.92,0-1.96-.37-5.88.74-7.14-.19-.91-.68-9.94-18.91-10.15-20.02-.88-4.85,1.77-9.27,1.23-14.2-1.27-11.75-14.98-16.66-24.99-18.33-16.43-13.91-23.26-40.86-24.87-62.31-3.07-41.04,5.49-86.71,26.34-122.32v-1.47c1.08-.42,2.3-1.28,2.94-1.47,34.05-9.69,56.46,18.55,86.42,6.57,6.62-2.63,9.66-7.73,10.28-8.04,12.59-6.03,24.24-10.2,36.64-17.58,15.58-9.29,16.87-12.81,29.31-23.45,2.31-1.98,4.78-4.19,7.33-5.86,22.64-3.68,16.09,6.99,24.26,20.43,15.85,26.08,28.84,25.38,51.93,38.19,44.12,24.48,86.61,48.59,140.67,36.62,1.47,23.84,8.69,44.06,20.51,64.48,3.43,5.91,7.73,13.13,13.19,17.59-.37,1.22-.1,5.59,0,7.33.15,2.41,1.45,2.77,1.47,2.92.44,6.89,1.18,13.56,1.47,20.51.07,1.65-.39,3.56,1.47,4.41-.05,1.79-.27,4.24,0,5.86.84,5.23,2.79,2.33,2.92,2.94.91,3.8-.42,6.94,1.86,12.05,8.64,19.36,31.67,39.84,36.96,62.69Z"/>
      <path class="cls-16" d="M952.03,471.89l-.83,1.81c-4.41-2.04-8.39-3.73-11.62-4.07-2.63-.27-3.88-.02-4.71,2.68-5.45-4.46-9.76-11.68-13.19-17.59,10.7,2.7,20.38,12.86,30.34,17.17Z"/>
      <path class="cls-9" d="M948.06,854.76c-.49,3.01,1.67,6.48,1.2,9.23-.89,5-30.56,42.85-35.76,47.78-1.03.98-11.67,8.17-12.31,7.45-2.55-2.84,9.02-13.49,1.45-13.17,11.31-12.51,20.78-28.46,33.7-42.49,1.77-1.92,8.83-5.74,11.72-8.8Z"/>
      <path class="cls-8" d="M898.24,1128.77l45.43-45.43c-16.01,21.2-23.62,29.75-45.43,45.43Z"/>
      <path class="cls-2" d="M939.28,513.34c3.11-.35,3.28-.17,2.92,2.94-.14-.61-2.08,2.3-2.92-2.94Z"/>
      <path class="cls-2" d="M937.82,503.07c5.96-.76,1.5,3.24,1.47,4.41-1.86-.84-1.4-2.75-1.47-4.41Z"/>
      <path class="cls-2" d="M934.88,479.64c3.43-.47,4.04.46,1.47,2.92-.02-.15-1.32-.51-1.47-2.92Z"/>
      <path class="cls-13" d="M916.56,821.05c7.75-10.38,21.05,38.17,19.79,42.51-12.92,14.03-22.39,29.98-33.7,42.49-2.4,2.63-7.34,5.01-10.26,7.31-.19.15-.37.34-.56.56l-.02.02-2.35,2.36c-.54.39-.93,1.1-1.47,1.47l-4.41,2.92c-2.99,1.82-10.94,5.55-14.64,7.33-2.14-.71-3.26,1.01-4.41,1.47-.95.39-2.45-.08-2.92,1.47-.42.17-1.06-.17-1.47,0-4,1.65-21.8,11.97-24.92,8.8-1.52-1.55,3.14-37.23,2.9-43.24-2.9-74.3-83.71-100.88-146.49-107.7-2.74-.3-5.89-.59-9.32-.84-9.94-1.91-2.92-6.84-11.19-16.73,2.31-5.5,1.15-14.54,1.45-20.53,2.63,1.27,4.51,2.06,7.33,2.94.05.02.12.03.19.05,1.15.34,4.88,1.27,5.67,1.42.47.08,1-.08,1.47,0,1.96,2.18,4.74,2.3,7.33,2.92,2.48.62,4.83,1,7.33,1.47h.02l2.92,1.47c.47.08.98-.08,1.47,0v1.47c29.04,10.74,59.9,5.17,89.92,8.96,49.08,6.21,97.43,39.95,112.31,87.72,4.05-6.67,4.66-33.55,8.04-38.09Z"/>
      <path class="cls-12" d="M928.85,227.04c.88,5.49,3.48,50.6,2.31,53.28-1.1,2.55-4.37,4.44-7.23,4.54-19.26.64-7.7-59.01-16.88-51.39-.68.56-2.16,12.75-4.59,16.65-2.31,3.68-7.02,4.68-9.25,8.34-11.24,18.3-6.87,28.7-32.55,31.74-.98.1-16.75.51-18.81.49-7.65-.02-12.44-10.72-20.78-2.52-.91.89-1.6,1.74-2.11,2.55l-3.82-2.16c16.83-23.5,24.18-54.21,9.86-80.01-.17,12.21-10.59,19.74-13.2,30.78-5.99,5.62-23.84,29.46-10.26,32.23-8.56,11.58-29.73,28.97-43.86,31.6-20.34,3.82-12.9-.44-18.54-8.04-9.02-12.12-9.89-18.59-10.91-34.51-.66-10.16,2.6-30.54,1.27-37.78-.42-2.31-9.81-14.35-10.75-14.27-1.57.14-.39,4.27-.73,5.84-1.25,5.84-.73,10.5-1.79,15.06-.86,3.68-10.65,11.02-4.07,18.66-1.32,5.86-4.12,15.13-4.41,20.51-11.08,2.6-7.85,21.12-8.8,21.96-.83.74-8.31-.81-10.64.07-1.15.42-2.08,3.07-4,4.34-2.55,1.67-5.01,3.88-7.33,5.86-7.29-1.3,2.36-16.07,2.92-20.51,4.86-.46,3.43-1.65,4-4.71,1.62-8.53,8.96-24.83-5.47-24.6-.32-1.01-1.13-1.92-1.45-2.92,3.01-7.53,2.8-15.99-5.86-17.59-1.59-.29-3.21-2.89-5.18-.05-.95,32.75-27.59,56.44-38.78,82.1-.07.14-2.58-.29-2.75.22-.79,2.36,4.68,10.32-3.16,13.68-3.26,1.4-21,2.67-24.8,1.42-16.22-5.42-6.18-30.02-9.62-37.26-.73-1.55-23.25-22.83-24.8-23.55-3.95-1.82-39.03-6.21-49.16-8.71-20.46-5.03-27.42-14.89-51.31-8.07-2.08.59-11.77,4.2-11.67,5.88.12,1.99,31.66,13.2,36.65,16.06,9.1,5.2,48.89,40.82,46.95,49.67-.08.44-5.81,6.42-6.23,6.58-5.22,2.16-44.3-28.16-57.79-29.07-2.97-.2-45.97,12.95-45.99,15.36-.1,11.11,24.4,4.71,29.8,5.25,6.8.69,59.9,13.37,61.93,15.92,1.42,1.81-.42,5.37-.88,7.41-.64.19-1.86,1.05-2.94,1.47-1.15.44-1.92.98-2.92,1.47-14.57,6.91-23.86,20.7-35.18,30.76-.91.83-2.75,1.44-4.39,2.94-.27.14-.54.49-.83.83-.02.03-.05.05-.07.08-.19.19-.37.37-.57.56-17.39,16.19-24.23,17.56-36.62,41.03-2.68,1.08-3.22,3.63-4.41,5.86-13.42,25.16-12.44,51.05-21.98,77.66-4.42,12.36-22.79,41.5-23.43,51.29-5-1.18-6.72,4.68-9.84,5.55-3.71,1.03-9.88-.57-12.14.3l-2.94-5.86c-.68-6.8,2.58-13.59,1.47-20.51,4.12-3.39,17.59-28.55-2.94-11.73-4.88-4.91-10.33-8.05-16.11-11.72-.49-1.55-1.77-2.08-2.94-2.94-1.4-1.03-3.07-1.82-4.39-2.92-1.59-1.32-7.02-5.52-7.33-5.86-3.09-3.44-6.35-10.52-8.8-14.65l-2.94-5.86c-.19-.41.19-1.06,0-1.47-.02-.03-.03-.05-.07-.08l-.05-.03-1.33-1.35c-.17-.42.14-1.03,0-1.47l-1.47-2.92c-.14-.46.1-1.01,0-1.47l-1.47-2.94c-.08-.47.07-.98,0-1.47,0-.02-.02-.03-.07-.05l-1.4-1.4c-1.16-11.23.3-24.97,0-36.64l11.72-17.59c2.21-2.4,2.21-7.46,2.94-10.25,6.26-1.44,10.99-11.87,12.54-17.49,1.1-3.97,7.51-36.21,7.66-39.34.1-2.13-.2-2.9-1.16-4.73,2.79-8.29,9.18-16.04,14.71-22.66,6.48-7.8,22.15-11.62,4.36-18.37,4.61-7.16,7.18-16.19,11.72-23.43.51-.47.98-.98,1.47-1.47.42-.44,1.33-1.18,1.47-1.47,5.32,1.55,11.55-7.31,14.65-10.26,7.97-7.6,12.61-12.05,22.08-18.18,3.93-2.55,20.9-8.98,21.54-9.98.56-.81,2.36-13.81,3.26-17.25l29.31-49.82c22.42-7.75,14.92-5.79,33.21-17.34,34.31-21.63,78.67-22.17,117.81-33.12,7.87-2.21,16.48-9.03,23.35-11.08,3.31-1,8.12-2.04,11.72-2.94,11.65-2.92,24.7-5.25,36.64-5.86,2.9-.15,5.88.02,8.8,0h2.94c.96.07,1.96-.08,2.92,0,1.92.17,6.79,2.92,10.26,1.47,12.59,4.46,27.62,6.89,41.03,7.33,1.06.03,7.09,3.66,8.8.71,5.57-9.62-8.09-2.25-8.8-2.18-2.28.2-12.78-3.48-16.12-4.41v-10.25c.96-.1,1.98.05,2.94,0h4.39c13.46.1,17.51,1.49,29.31,5.86l2.9,2.9.03.03c1.98.73,3.88,2.16,5.86,2.92,4.14,6.42,15.36,9.93,19.87,14.55,5.54,5.67,5.18,11.18,8.78,16.14,2.23,3.04,10.21,6.74,12.19,11.26,2.57,5.91.51,10.32,1.89,14.22.39,1.08,12.24,12.7,15.03,17.22,2.58,4.19,14.6,27.81,15.62,31.39,2.79,9.79-9.71,42.97-5.96,47.61,1.57,1.96,4.71-2.85,5.47-4.04,8.22-12.65,8.86-70.6,7.72-87.54-.68-9.91-13.96-43.12,2.92-44.69,7.38-.69,12.43,7.8,14.98,13.59,3.95,9,9.72,48.89,11.41,50.89.86,1,14.27-2.25,16.11-7.33,22.49-1.62,9.52,17.66,10.32,27.05.35,4.07,8.54,15.92,10.03,25.14ZM755.41,144.06c6.85-.42,2.87-8.37.24-11.23-14.05-15.25-54.75-3.65-28.89,4.69,2.52.83,27.2,6.63,28.65,6.53Z"/>
      <path class="cls-16" d="M913.84,82.18l-3.87-2.58c2.31,1.15,2.94,1.91,3.87,2.58Z"/>
      <path class="cls-16" d="M912.9,154.34c-4.05,5.06-2.99,16.63-4.39,20.51-1.84,5.08-15.25,8.32-16.11,7.33-1.69-1.99-7.46-41.89-11.41-50.89-2.55-5.79-7.6-14.28-14.98-13.59,1.5-26.27-25.41-1.08-41.75-1.35-11.68-.19-17.79-7.97-26.81-11.41-3.53-1.35-10.77-1.72-14.96-3.36-1.98-.76-3.88-2.19-5.86-2.92l-.03-.03c0-.19,1.77-1.16-2.9-2.9-11.8-4.37-15.85-5.76-29.31-5.86h-4.39c-.96.05-1.98-.1-2.94,0-27.77,2.9-18.69,5.13,0,10.25,3.34.93,13.84,4.61,16.12,4.41v1.47c-13.41-.44-28.43-2.87-41.03-7.33-1.52-.54-5.03-6.4-10.26-1.47-.96-.08-1.96.07-2.92,0h-2.94c-2.92.02-5.89-.15-8.8,0-11.65-4.96-24.11-14.82-36.64-11.72-9.51,2.35-28.21,14.16-11.72,20.51-6.87,2.04-15.48,8.86-23.35,11.08-39.13,10.96-83.5,11.5-117.81,33.12-18.28,11.55-10.79,9.59-33.21,17.34-18.98,6.55-24.99,33.24-29.31,49.82-.89,3.44-2.7,16.44-3.26,17.25-.64,1-17.61,7.43-21.54,9.98-9.47,6.13-14.11,10.59-22.08,18.18-3.07-2.62-12.39,5.22-14.65,7.33-8.44,7.88-19.38,19.92-17.59,32.25l-14.65,19.04c12.48-36.87,13.81-51.21,47.88-75.94,6.4-4.66,33.72-16.28,34.93-17.83,2.09-2.7,6.87-27.33,10.3-35.12,7.7-17.44,41.75-48.96,57.96-59.26,9.74-6.2,20.66-7.24,29.04-11.99,7.02-3.98,12.51-12.68,22.56-17.02,12.31-5.28,21.09-3.19,30.69-5.94,8.12-2.35,18.79-12.22,28.57-13.93,10.53-1.84,23.25,2.38,31.49.74,6.28-1.25,20.5-13.78,30.12-16.8,20.24-6.36,116.93-26.78,134.2-25.14,13.86,1.3,25.83,9.3,38.65,11.18,11.82,1.72,21.24-.74,34.07,2.55,12.04,3.09,25.49,13.57,35.17,21.26-3.24-1.35-9.29-6.69-13-4.2-.84.56-6.01,18.49-6.11,19.5-1.05,11.55,16.44,53.42,24.97,60.9ZM534.87,120.64c11.78-1.65,21.98-4.42,29.29-14.64-9.66,1.64-24.33,4.95-29.29,14.64Z"/>
      <path class="cls-16" d="M901.18,381.47c.37,1.6,9.96,6.58,0,8.78-54.06,11.97-96.55-12.14-140.67-36.62-7.82-9-16.11-17.59-24.11-26.46-3.01-3.36-6.97-2.97-10.84-8.21-5.45-7.39-18.3-41.14-17.81-50.33.29-5.39,3.09-14.65,4.41-20.51,2.45-11.04,12.68-22.37,5.86-33.72.34-1.57-.84-5.71.73-5.84.95-.08,10.33,11.95,10.75,14.27,1.33,7.24-1.92,27.62-1.27,37.78,1.01,15.92,1.89,22.39,10.91,34.51,5.64,7.6-1.81,11.85,18.54,8.04,14.13-2.63,35.3-20.02,43.86-31.6,11.62-15.7,6.38-15.89,10.26-32.23,2.62-11.04,13.03-18.57,13.2-30.78,14.32,25.8,6.97,56.51-9.86,80.01-4.83,6.75-10.43,12.9-16.55,18.17-.86.76-5.3.81-5.86,4.41-7.19.96-12.92,7.11-22.71,7.41-5.12.15-24.56-5.39-25.63-4.47-2.84,2.38,20.55,21.96,23.43,23.43,7.77,12.92,21.91,21.64,35.17,27.84,1.99.93,3.44,4.14,8.48,5.45,24.18,6.35,60.51-5.08,83.84-12.78.05.39,2.03,2.48,2.92,7.33l-65.91,14.64c22.23,5.82,46.38,6.4,68.85,1.49Z"/>
      <path class="cls-9" d="M901.16,922.18c2.01,2.21-4.07,9.27-5.84,7.31-1.99-2.23,4.09-9.29,5.84-7.31Z"/>
      <path class="cls-10" d="M898.24,365.34c.91,4.88,1.94,11.8,2.94,16.12-22.47,4.91-46.61,4.34-68.85-1.49l65.91-14.64Z"/>
      <path class="cls-10" d="M895.32,328.71c1.45,3.09-.89,23.26,0,29.31-23.33,7.7-59.66,19.13-83.84,12.78-5.03-1.32-6.48-4.52-8.48-5.45h3.11c3.83,0,7.73.17,11.55,0,21.19-.95,40.3-9.17,57.6-20.8,3.71-2.5,17.37-15.8,18.59-15.84h1.47Z"/>
      <path class="cls-16" d="M895.32,328.71h-1.47c.47-.02,1.44-.07,1.47,0Z"/>
      <path class="cls-16" d="M892.38,913.36l-.56.56c.19-.22.37-.41.56-.56Z"/>
      <path class="cls-16" d="M889.46,916.3l2.35-2.36c-.56.66-1.22,1.55-2.35,2.36Z"/>
      <path class="cls-3" d="M883.59,920.69l4.41-2.92c-1.52,1.03-2.8,1.96-4.41,2.92Z"/>
      <path class="cls-10" d="M873.34,305.26c9.79.84-1.59,14.96-4.36,18.35-23.38,28.48-70.23,29.7-101.15,13.89-2.89-1.47-26.27-21.05-23.43-23.43,1.06-.91,20.51,4.63,25.63,4.47,9.79-.3,15.52-6.45,22.71-7.41,21.64-2.94,53.1,18.74,64.48-4.41,3.95-.03,13.37-1.44,15.79-1.47h.34Z"/>
      <path class="cls-10" d="M841.09,305.26c10.6-.25,21.31.19,31.91,0-2.41.03-11.83,1.44-15.79,1.47-4.96.03-11.85,1.22-16.12-1.47Z"/>
      <path class="cls-16" d="M864.54,929.49c1.15-.46,2.26-2.18,4.41-1.47-2.09,1.01-3.38,1.03-4.41,1.47Z"/>
      <path class="cls-9" d="M824.26,116.35c16.34.27,43.25-24.92,41.75,1.35-16.88,1.57-3.6,34.78-2.92,44.69,1.15,16.93.51,74.89-7.72,87.54-.76,1.18-3.9,5.99-5.47,4.04-3.75-4.64,8.75-37.82,5.96-47.61-1.01-3.58-13.03-27.2-15.62-31.39-2.79-4.52-14.64-16.14-15.03-17.22-1.38-3.9.68-8.31-1.89-14.22-1.98-4.52-9.96-8.22-12.19-11.26-3.6-4.96-3.24-10.47-8.78-16.14-4.51-4.63-15.73-8.14-19.87-14.55,4.19,1.64,11.43,2.01,14.96,3.36,9.02,3.44,15.13,11.23,26.81,11.41Z"/>
      <path class="cls-9" d="M861.62,930.95c.47-1.55,1.98-1.08,2.92-1.47-.86.39-1.74.98-2.92,1.47Z"/>
      <path class="cls-12" d="M853.2,631.13l9.88,9.69c-.51.96-.98,1.96-1.45,2.94-12.04-1.89-8.61,10.81-11.73,20.51-14.87,46.36-51.61,88.42-101.09,98.17-1.08.07-2.45-1.4-2.94-1.47,1.64-12.7-19.74-2.28-24.09-2.87-3.36-.47-10.62-8.05-16.95-5.93.29-2.8-.2-6.79,3.68-7.48,8.86-1.57,35.77,7.88,41.75-2.77,31.62-6.75,68.68-42.48,74.74-74.74,1.99-10.6,3.75-21.37-2.94-29.31,8.24-1.64,3.39-15.75,2.94-20.51-.73-7.34-8.07-52.32-10.26-55.68,13.02-3.46-7.19-20.97,4-24.65,11.46-3.76,8.78,13.93,12.8,17.37,3.66,3.14,9.1-.68,12.41,3.71,3.48,4.59-1.27,16.53,5.96,16.75l3.31,56.25Z"/>
      <path class="cls-6" d="M849.89,664.27c3.12-9.71-.3-22.4,11.73-20.51-2.99,6.08-4.66,18.05-11.73,20.51Z"/>
      <path class="cls-10" d="M841.09,305.26c4.27,2.68,11.16,1.5,16.12,1.47-11.38,23.15-42.83,1.47-64.48,4.41.56-3.6,5-3.65,5.86-4.41,4.88-.08,9.79.14,14.65,0,4.39-.12,8.93-1.35,11.73-1.47,5.34-.2,10.77.14,16.11,0Z"/>
      <path class="cls-6" d="M822.05,637.88c6.69,7.93,4.93,18.71,2.94,29.31-5.69,2.92-8.64,5.01-15.43,5.82-16.29,1.99-42.75,2.45-59.99,3.02-37.65,1.27-77.41-4.76-113.62,5.81-6.96-13.98-9.15-21.41-11.72-36.64,6.28,1.33,14.81-4.86,19.77-4.58,4.81.29,7.06,6.21,11.55,4.47,3.06-1.2,3.58-10.69,8.27-13.79,4.31-2.84,8.83-1.38,11.62-3.04,4.86-2.9,9.4-10.42,14.74-9.44-.79.73-13.3,15.79-13.15,16.85.46,3.49,15.63,2.08,19.01,2.19,13.59.49,27.42-.05,41.03,0,19.43.1,33.65.34,54.23-1.45,8.29-.73,16.46-2.43,24.9-1.47.76.68,4.31,1.08,5.86,2.92ZM768.53,668.63c15.01-2.16,45.26-6.62,20.63-24.95-24.23,4.74-49.99,8.91-74.54,3.49-6.16,4.66-37.43,4.78-31.44,16.78,3.51,7.07,33.53,4.41,41.46,4.68,15.26.51,27.57,2.36,43.88,0Z"/>
      <path class="cls-14" d="M824.99,617.37c.46,4.76,5.3,18.88-2.94,20.51-1.55-1.84-5.1-2.25-5.86-2.92-11.63-10.37-20.63-24.8-24.9,1.47-20.58,1.79-34.8,1.55-54.23,1.45-5.06-2.68-8.34-23.2-9.57-23.48-2.84-.62-29.44,18.28-31.45,23.48-3.38-.12-18.55,1.3-19.01-2.19-.15-1.06,12.36-16.12,13.15-16.85,36.05-32.7,88.18-29.78,127.48-7.33,1.62.93,4.44,5.18,7.33,5.86ZM773.46,624.48c4.2-2.48,1.11-15.89-10.75-14.55-15.14,1.71-.66,21.27,10.75,14.55Z"/>
      <path class="cls-16" d="M822.05,305.26c.98.02,1.96,0,2.94,0-2.8.12-7.34,1.35-11.73,1.47,1.87-2.43,6.08-1.5,8.8-1.47Z"/>
      <path class="cls-5" d="M824.99,617.37c-2.89-.68-5.71-4.93-7.33-5.86,1.86-11.4-12.24-16.6-20.83-19.45-30.3-10.1-86.37-6.77-114.33,9.57-6.77,3.95-16.55,18.22-18.72,19.36-13.03,6.85-5.03-13.1-5.82-13.88-1.55-1.49-8.19,4.42-5.55-7.75,3.61-16.76,31.76-25.36,20.19-46.48,27.57-9.54,51.75-12.59,81.38-10.3,11.4.88,54.9,10.1,60.76,19.09,2.19,3.36,9.54,48.34,10.26,55.68Z"/>
      <path class="cls-12" d="M822.05,305.26c-2.72-.03-6.92-.96-8.8,1.47-4.86.14-9.78-.08-14.65,0,6.11-5.27,11.72-11.41,16.55-18.17l3.82,2.16c-3.21,5.12.84,8.85,3.09,14.54Z"/>
      <path class="cls-15" d="M809.56,673.02c6.79-.81,9.74-2.9,15.43-5.82-6.06,32.26-43.12,67.99-74.74,74.74-47.53,10.13-93.6-18.55-114.3-60.09,36.21-10.57,75.97-4.54,113.62-5.81,17.24-.57,43.69-1.03,59.99-3.02Z"/>
      <path class="cls-5" d="M796.83,592.06c8.59,2.85,22.69,8.05,20.83,19.45-39.3-22.45-91.44-25.38-127.48,7.33-5.34-.98-9.88,6.53-14.74,9.44-2.79,1.65-7.31.2-11.62,3.04-4.69,3.11-5.22,12.59-8.27,13.79-4.49,1.74-6.74-4.19-11.55-4.47-4.96-.29-13.49,5.91-19.77,4.58-7.63-45.5.76-73.46,43.96-90.85.25-.1.51-.42.74-.74l.73-.73c.74-.27,2.16.27,2.92,0,11.56,21.12-16.58,29.71-20.19,46.48-2.63,12.17,4,6.26,5.55,7.75.79.78-7.21,20.73,5.82,13.88,2.18-1.15,11.95-15.41,18.72-19.36,27.96-16.34,84.03-19.67,114.33-9.57Z"/>
      <path class="cls-16" d="M806.11,365.34h11.55c-3.82.17-7.72,0-11.55,0Z"/>
      <path class="cls-15" d="M816.19,634.96c-8.44-.96-16.61.74-24.9,1.47,4.27-26.27,13.27-11.83,24.9-1.47Z"/>
      <path class="cls-9" d="M811.8,239.33c-3.88,16.34,1.35,16.53-10.26,32.23-13.57-2.77,4.27-26.61,10.26-32.23Z"/>
      <path class="cls-6" d="M789.16,643.67c24.63,18.33-5.62,22.79-20.63,24.95-16.31,2.36-28.62.51-43.88,0-7.93-.27-37.95,2.4-41.46-4.68-5.99-12,25.27-12.12,31.44-16.78,24.55,5.42,50.31,1.25,74.54-3.49Z"/>
      <path class="cls-13" d="M783.93,928.79c2.48,60.02-69.42,134.98-123.82,85.71-18.01-16.31-25.98-60.66-6.57-76.23,4.68-3.75,29.24-9.08,38.63-13.41,15.57-7.14,53.03-30.49,65.44-41.52,4.07-3.6,7.5-7.8,10.23-12.49,10.43,10.87,15.46,43.09,16.09,57.93Z"/>
      <path class="cls-9" d="M773.7,95.72c4.68,1.74,2.9,2.72,2.9,2.9l-2.9-2.9Z"/>
      <path class="cls-15" d="M762.71,609.93c11.87-1.33,14.96,12.07,10.75,14.55-11.41,6.72-25.9-12.85-10.75-14.55Z"/>
      <path class="cls-9" d="M753.18,104.52c.71-.07,14.37-7.45,8.8,2.18-1.71,2.95-7.73-.68-8.8-.71v-1.47Z"/>
      <path class="cls-5" d="M767.84,870.87c-2.74,4.69-6.16,8.9-10.23,12.49-12.41,11.02-49.87,34.37-65.44,41.52-9.39,4.32-33.95,9.66-38.63,13.41-34.85,7.36-62.55,7.61-97.9,4.83-2.8-.22-5.37-2.16-4.66,2.5-6.18-6.92-9.93-3.48-17.54-6.65-6.4-2.65-44.91-17.47-46.87-19.06-5.25-4.24-.59-11.63-5.94-7.99,8.31-35.83,60.88-49.86,93.26-54.03,52.76-6.79,100.25,4.09,152.22,8.56,12.26,1.05,33.85-3.78,41.73,4.42ZM756.12,873.81h-24.19c-2.08,0-6.94,1.4-10.99,1.47-42.44.74-79.37,7.41-120.83,10.32-37.99,2.65-58.97-5.35-96.03,10.2-2.99,1.25-7.87-3.22-13.56,7.68-7.06,13.56,7.34,14.45,18.72,15.72,5.64.62,34.09,3.29,32.94-5.82,59.6,10.06,108.29-3.51,162.65-26.37-6.84,7.56,22.49,4.27,24.99,3.75,5.42-1.13,24.41-11.13,26.3-16.93Z"/>
      <path class="cls-7" d="M731.93,873.81h24.19c-1.89,5.81-20.88,15.8-26.3,16.93-2.5.52-31.82,3.82-24.99-3.75,5.35-2.25,16.73-4.78,16.11-11.72,4.05-.07,8.91-1.47,10.99-1.47Z"/>
      <path class="cls-9" d="M755.65,132.83c2.63,2.85,6.62,10.81-.24,11.23-1.45.1-26.13-5.71-28.65-6.53-25.86-8.34,14.84-19.94,28.89-4.69Z"/>
      <path class="cls-12" d="M745.86,760.98c.49.07,1.86,1.54,2.94,1.47-3.85.76-4.19-.03-4.41,0v-1.47c.42-.07,1.03-.05,1.47,0Z"/>
      <path class="cls-12" d="M744.39,760.98v1.47c-.47.07-.98-.05-1.47,0-.1-1.05.62-1.33,1.47-1.47Z"/>
      <path class="cls-9" d="M736.4,327.17c8,8.86,16.29,17.46,24.11,26.46-23.1-12.81-36.08-12.11-51.93-38.19-8.17-13.44-1.62-24.11-24.26-20.43,1.92-1.27,2.85-3.92,4-4.34,2.33-.88,9.81.68,10.64-.07.95-.84-2.28-19.36,8.8-21.96-.49,9.18,12.36,42.93,17.81,50.33,3.87,5.23,7.83,4.85,10.84,8.21Z"/>
      <path class="cls-9" d="M737.06,89.86v10.25c-18.69-5.12-27.77-7.34,0-10.25Z"/>
      <path class="cls-10" d="M737.06,637.88c-13.61-.05-27.43.49-41.03,0,2.01-5.2,28.62-24.11,31.45-23.48,1.23.29,4.51,20.8,9.57,23.48Z"/>
      <path class="cls-15" d="M720.94,875.27c.62,6.94-10.75,9.47-16.11,11.72-54.36,22.86-103.05,36.43-162.65,26.37-6.91-1.15-13.59-5.52-21.98-7.31l-16.12-4.41c.1-1.94-.07-3.92,0-5.86,37.06-15.55,58.04-7.55,96.03-10.2,41.46-2.9,78.39-9.57,120.83-10.32Z"/>
      <path class="cls-16" d="M720.94,763.92c-.08-.02-.19-.1-.3-.24.1.08.2.17.3.24Z"/>
      <path class="cls-16" d="M719.49,762.45c.3.03.71.69,1.05,1.11-.41-.46-.81-1.1-1.05-1.11Z"/>
      <path class="cls-9" d="M718.02,214.41c6.82,11.35-3.41,22.67-5.86,33.72-6.58-7.63,3.21-14.98,4.07-18.66,1.06-4.56.54-9.22,1.79-15.06Z"/>
      <path class="cls-12" d="M719.49,762.45c-4.25-.49-8.9.34-13.19,0v-1.47c3.97.69,9.02.98,13.19,1.47Z"/>
      <path class="cls-9" d="M712.16,98.66c-3.48,1.45-8.34-1.3-10.26-1.47,5.23-4.93,8.75.93,10.26,1.47Z"/>
      <path class="cls-12" d="M704.81,758.06c.15.03-.14,2.89.02,2.92l-2.92-1.47c.2-.07,1.2-1.76,2.9-1.45Z"/>
      <path class="cls-12" d="M687.24,755.12c3.68.68,8.42-2.06,7.33,2.92-2.58-.62-5.37-.74-7.33-2.92Z"/>
      <path class="cls-3" d="M691.14,514.94l-9.76,2.79c1.62-.61,7.06-2.04,9.76-2.79Z"/>
      <path class="cls-12" d="M680.1,753.7l5.67,1.42c-.79-.15-4.52-1.08-5.67-1.42Z"/>
      <path class="cls-9" d="M678.44,251.05c14.43-.24,7.09,16.07,5.47,24.6-.57,3.06.86,4.25-4,4.71.73-5.67.24-24.11-1.47-29.31Z"/>
      <path class="cls-5" d="M682.33,787.97c3.43.25,6.58.54,9.32.84-4.15-.15-7.14-.42-9.32-.84Z"/>
      <path class="cls-3" d="M678.44,251.05c1.71,5.2,2.19,23.64,1.47,29.31-.56,4.44-10.21,19.21-2.92,20.51-12.44,10.64-13.73,14.16-29.31,23.45l-20.51-11.73c11.19-25.66,37.83-49.35,38.78-82.1,1.98-2.84,3.6-.24,5.18.05.57,4.02.44,11.8,1.72,15.18,1.05,2.75,4.05,2.18,4.14,2.41.32,1,1.13,1.91,1.45,2.92Z"/>
      <path class="cls-3" d="M679.91,517.73l-1.92.96c.56-.3,1.16-.66,1.92-.96Z"/>
      <path class="cls-3" d="M676.99,519.2l.66-.32c-.22.12-.44.22-.66.32Z"/>
      <path class="cls-9" d="M671.13,230.53c8.66,1.6,8.86,10.06,5.86,17.59-.08-.24-3.09.34-4.14-2.41-1.28-3.38-1.15-11.16-1.72-15.18Z"/>
      <path class="cls-5" d="M671.13,771.24c8.27,9.89,1.25,14.82,11.19,16.73-11.48-.91-25.93-1.6-37.82-1.91,10.92-1.11,22.81-5.74,26.62-14.82Z"/>
      <path class="cls-15" d="M672.58,750.71c-.3,5.99.86,15.03-1.45,20.53-3.82,9.08-15.7,13.71-26.62,14.82-4.24-.12-8.15-.19-11.48-.19h-2.94c-7.87-8.32-13.27-14.77-25.63-16.11-29.24-3.17-29.53,29.14-59.75,12.85-7.16-3.85-5.18-9.76-18.32-11.02-8.85-.84-10.52.98-17.91,4.04-.51.2-1.18.56-1.74.86l-.76.39-.44.22c-.78.22-2.03-.15-2.94,0-2.04-2.31-4.25-3.83-7.33-4.41.37-2.23-2.94-9.54-1.45-13.19,1.64-1.69,1.87-2.55,2.92-4.39,1.16-2.04,1.05-3.49,1.47-4.41,5.91-1.99,8.93,8.56,17.88-3.36,2.31-3.09,18.44-47.26,18.54-50.51.19-5.57-4.61-3.12-4.19-7.66,4.22-9.2,8.21-22.39,11.73-32.23.27-.76-.27-2.16,0-2.94,1.42-4.02.84-6.97,1.47-8.8.27-.83,2.33-6.92,3.26-9.18,2.53-6.2,10.42-16.12,17.25-17.19,5.1-.79,15.4,3.87,17.31,8.34,3.39,7.95,3.75,40.47,6.84,53.25,1.67,6.96,13.46,38.49,17.66,42.41,6.75,6.31,21.75-.52,31.45,1.5,4.81,1.01,26.07,22.05,35.17,26.37Z"/>
      <path class="cls-9" d="M687.24,97.19c-11.94.61-24.99,2.94-36.64,5.86-2.97-7.04-4.17-10.62,0-17.58,12.53-3.11,24.99,6.75,36.64,11.72Z"/>
      <path class="cls-7" d="M669.66,552.9l-.73.73c.24-.32.47-.64.73-.73Z"/>
      <path class="cls-7" d="M668.19,554.36l.74-.74c-.24.32-.49.64-.74.74Z"/>
      <path class="cls-3" d="M650.6,85.47c-4.17,6.96-2.97,10.53,0,17.58-3.6.89-8.41,1.94-11.72,2.94-16.49-6.35,2.21-18.17,11.72-20.51Z"/>
      <path class="cls-2" d="M627.17,312.58l20.51,11.73c-12.39,7.38-24.04,11.55-36.64,17.58-15.5,2.06-43.52-16.75-54.23-27.1-15.41-14.91-25.14-42.17-43.95-56.42,10.13,2.5,45.21,6.89,49.16,8.71,1.55.73,24.08,22,24.8,23.55,3.44,7.24-6.6,31.84,9.62,37.26,3.8,1.25,21.54-.02,24.8-1.42,7.83-3.36,2.36-11.31,3.16-13.68.17-.51,2.68-.08,2.75-.22Z"/>
      <path class="cls-5" d="M644.51,786.07c-4.12.42-8.12.35-11.48-.19,3.33,0,7.24.07,11.48.19Z"/>
      <path class="cls-13" d="M637.42,724.34c-9.71-2.03-24.7,4.81-31.45-1.5-4.2-3.92-15.99-35.45-17.66-42.41-3.09-12.78-3.44-45.3-6.84-53.25-1.91-4.47-12.21-9.13-17.31-8.34,2.85-7.02,10.59-6.11,4.41-14.64,3.43.73,6.62,1.82,10.25,1.45.47-.05.98.03,1.45,0-.07.27-.1,1.25,0,1.47.07.1,1.27.66,2.18,1.1.15.07.29.14.42.2l.34.17c.39.19,1.06-.2,1.47,0l2.92,1.45c.59.34,2.38-.34,2.94,0l1.38,1.38.08.08c.22.15-.24,1.3,0,1.47.1.08.24.14.39.19l2.53,1.28c1.13,1.06,1.86,1.62,2.94,2.92-1.44,2.68,1.37,6.53,1.47,7.33.66,5.22.61,10.47,1.45,16.12,1.01,6.7,1.49,14.33,4.41,20.51.15.93-.19,2.03,0,2.94l.02.02,1.45,2.9c5.39,22.54,17.83,38.8,30.76,57.15Z"/>
      <path class="cls-7" d="M604.46,769.77c12.36,1.33,17.76,7.78,25.63,16.11-22.49.14-46.31,4.78-68.43,6.74-12.31,1.08-21.8-4.56-35.61-2.33-1.71-6.75-20.95-6.57-24.94-10.28-.74-.71,1.6-2.79,1.49-2.9.91-.15,2.16.22,2.94,0,.07-.02.24-.1.44-.22l.76-.39,1.74-.86c7.39-3.06,9.07-4.88,17.91-4.04,13.13,1.27,11.16,7.18,18.32,11.02,30.22,16.29,30.51-16.02,59.75-12.85Z"/>
      <path class="cls-3" d="M556.82,314.8c10.7,10.35,38.73,29.16,54.23,27.1-.62.3-3.66,5.4-10.28,8.04-29.97,11.99-52.37-16.26-86.42-6.57.46-2.04,2.3-5.61.88-7.41-2.03-2.55-55.12-15.23-61.93-15.92-5.4-.54-29.9,5.86-29.8-5.25.02-2.41,43.02-15.57,45.99-15.36,13.49.91,52.57,31.23,57.79,29.07.42-.17,6.15-6.15,6.23-6.58,1.94-8.85-37.85-44.47-46.95-49.67-5-2.85-36.53-14.06-36.65-16.06-.1-1.67,9.59-5.28,11.67-5.88,23.89-6.82,30.85,3.04,51.31,8.07,18.81,14.25,28.53,41.52,43.95,56.42Z"/>
      <path class="cls-9" d="M608.11,664.29c.35,1.57-1.5,2.75-1.45,2.9l-1.45-2.9c.3.08,2.87-.15,2.9,0Z"/>
      <path class="cls-9" d="M600.78,640.82c6.87.96,3.9,17.44,4.41,20.51-2.92-6.18-3.39-13.81-4.41-20.51Z"/>
      <path class="cls-14" d="M599.33,586.61c2.94,1.92,5.39.57,4.39,5.84-3.85-1.22-32.3,3.24-26.39,8.8,1.54,1.45,7.31-3.34,5.52,4.15-.1.42-2.55.14-2.58.25.2-1.57-.84-1.2-1.45-1.47-11.36-5.08-37.16.96-38.27,15.36-.51,6.63,2.18,13.49,1.64,22.74-12.44-3.6-12.63-27.92-7.99-36.55,1.47-2.74,5.88-3.09,7.34-7.31,1.1-3.16.22-11.41.62-11.83,1.16-1.2,9.96,2.84,8.81-2.92.89.17,1.99-.12,2.92,0l42.49,1.47c1.15.42,1.91.79,2.94,1.47Z"/>
      <path class="cls-9" d="M597.86,617.37c.3.39,6.43-.29,1.47,7.33-.1-.79-2.9-4.64-1.47-7.33Z"/>
      <path class="cls-2" d="M596.39,585.14l-42.49-1.47c12.98-2.33,30.15-3.16,42.49,1.47Z"/>
      <path class="cls-5" d="M594.92,614.45l-2.53-1.28c.62.24,1.59.37,2.53,1.28Z"/>
      <path class="cls-5" d="M592,612.98l.39.19c-.15-.05-.29-.1-.39-.19Z"/>
      <path class="cls-5" d="M591.92,611.43l-1.38-1.38c.88.54,1.2,1.16,1.38,1.38Z"/>
      <path class="cls-5" d="M587.6,610.04l-2.92-1.45c1.11.54,1.77.79,2.92,1.45Z"/>
      <path class="cls-5" d="M580.27,607.12l2.18,1.1c-.91-.44-2.11-1-2.18-1.1Z"/>
      <path class="cls-9" d="M578.82,604.19c.61.27,1.65-.1,1.45,1.47-.47.03-.98-.05-1.45,0v-1.47Z"/>
      <path class="cls-5" d="M578.82,604.19v1.47c-3.63.37-6.82-.73-10.25-1.45,6.18,8.53-1.55,7.61-4.41,14.64-6.84,1.06-14.72,10.99-17.25,17.19-.93,2.26-2.99,8.36-3.26,9.18-.27-.84-1.5-2.31-1.47-2.92.54-9.25-2.14-16.11-1.64-22.74,1.11-14.4,26.91-20.45,38.27-15.36Z"/>
      <path class="cls-13" d="M550.98,945.61c34.24,38.39-12.85,125.76-57.94,74.77-16.12-18.22-17.71-85.56-12.41-108.47,5.35-3.65.69,3.75,5.94,7.99,1.96,1.59,40.47,16.41,46.87,19.06,7.61,3.17,11.36-.27,17.54,6.65Z"/>
      <path class="cls-16" d="M564.16,106c-7.31,10.21-17.51,12.98-29.29,14.64,4.96-9.69,19.63-13,29.29-14.64Z"/>
      <path class="cls-2" d="M550.98,583.67c1.15,5.76-7.65,1.72-8.81,2.92-.41.42.47,8.68-.62,11.83-1.47,4.22-5.88,4.58-7.34,7.31-4.64,8.63-4.46,32.96,7.99,36.55-.03.61,1.2,2.08,1.47,2.92-.62,1.82-.05,4.78-1.47,8.8l-4.39-2.92c-.15,5.08-1.3,6.65,4.39,5.86-3.53,9.84-7.51,23.03-11.73,32.23-9.29,20.33-22.08,40.11-32.23,61.54-1.05.35-1.6,3.17-1.47,4.41-1.05,1.84-1.28,2.7-2.92,4.39-27.65,28.43-100.64,25.16-133.36,5.86-28.4-16.75-44-47.96-54.28-78.32-2.65-7.85-3.73-26.13-6.55-31.55-4.86-9.4-25.41-9.72-26.74-28.6-2.82-40.18,18.15-15.95,35.27-25.92,3.6-2.09,10.59-12.63,15.8-16.44,5.59-4.07,28.55-19.33,33.58-21.37.42-.17,1.03.17,1.47,0,2.26-.88,8.42.73,12.14-.3,3.12-.88,4.85-6.74,9.84-5.55-.03.41-.12,1.11,0,1.47,1.3,3.87,2.79.02,2.92,0,13.57-3.01,29.55-18.06,45.43-23.45,1.2-.41,3.43-1.2,4.39-1.47,18.66-5.13,56.96-6.15,76.19-2.92,10.01,1.67,23.72,6.58,24.99,18.33.54,4.93-2.11,9.35-1.23,14.2.2,1.11,9.23,19.35,10.15,20.02,1.27.93,5.18-.19,7.14.19ZM524.59,623.23l-8.8-7.31c10.28-15.9,3.01-36.06-13.19-43.96,32.72,2.06.69-9.49-9.86-11.38-29.83-5.34-75.55,8.54-99.25,27.54-3.33,2.65-29.7,27.54-13.96,24.87-3.17,6.84-1.84,12.17-5.86,17.58-.49-5.44-6.35-37.63-8.81-39.56-4-3.11-39.37,18.17-36.77,31.5.91,4.69,39.07,12.8,45.58,16.85.12,6.28.27,12.8,0,19.06-10.38.81-45.97-14.89-52.76-11.01-9.71,5.55,3.82,46.75,7.53,55.48,7.18,16.78,20.09,34.22,34.96,44.91,36.42,26.15,100.01,28.77,126.3-12.17,4.63-7.24,6.6-15.9,9.98-22.99,1.33-2.84,5.3-6.09,6.89-9.96,3.43-8.22,15.84-34.44,1.91-36.94,2.25-.93,5.67-1.23,5.86-1.47.69-.91-1.5-8.66-2.92-9.64-2.43-1.65-11.26,2.85-17.59-3.53,19.58,1.55,12.59-5.71,14.65-13.2.03-.14,2.6.52,2.97-.81.27-1.01-2.35-3.49-.86-6.48.71-1.44,11.18-9.07,14-7.36Z"/>
      <path class="cls-14" d="M542.18,654.01c-.27.78.27,2.18,0,2.94-5.69.79-4.54-.78-4.39-5.86l4.39,2.92Z"/>
      <path class="cls-7" d="M542.18,913.36c1.15,9.12-27.3,6.45-32.94,5.82-11.38-1.27-25.78-2.16-18.72-15.72,5.69-10.91,10.57-6.43,13.56-7.68-.07,1.94.1,3.92,0,5.86,0,.17-2.57,2.18-1.45,2.92,1.52,1.03,14.67.86,17.58,1.49,8.39,1.79,15.08,6.16,21.98,7.31Z"/>
      <path class="cls-10" d="M530.45,689.17c-.42,4.54,4.37,2.09,4.19,7.66-.1,3.26-16.22,47.42-18.54,50.51-8.95,11.92-11.97,1.37-17.88,3.36,10.15-21.42,22.94-41.21,32.23-61.54Z"/>
      <path class="cls-14" d="M515.79,615.92l8.8,7.31c-2.82-1.71-13.29,5.93-14,7.36-1.49,2.99,1.13,5.47.86,6.48-.37,1.33-2.94.68-2.97.81-1.35-.57-3.24-2.68-4.41-2.92-.91-.19-3.46-.19-4.39,0-7.7,1.49-12.04,9.91-5.86,16.12,6.33,6.38,15.16,1.87,17.59,3.53,1.42.98,3.61,8.73,2.92,9.64-.19.24-3.61.54-5.86,1.47-10.94,4.51-23.65,2.52-35.18,2.94-.66-.02-2.14-1.49-2.92-1.47-7.48-3.68-5.12-28.87-6.58-29.29-2.74-.76-53.5,24.73-31.52,35.15-8.34,1.96-13.54,10.53-21.98,5.88-.22-.73-.2-4.98,0-5.88.22-.93,8.96-14.42,10.26-16.11,21.36-27.91,47.8-33.65,80.6-38.1,4.61-.32,8.83,1.3,13.19-1.47.3-.19,1.25-1.15,1.45-1.45Z"/>
      <path class="cls-5" d="M504.08,901.65l16.12,4.41c-2.9-.62-16.06-.46-17.58-1.49-1.11-.74,1.45-2.75,1.45-2.92Z"/>
      <path class="cls-5" d="M502.61,571.96c16.19,7.9,23.47,28.06,13.19,43.96-.2.3-1.15,1.27-1.45,1.45-4.81-1.23-9.29.95-13.19,1.47-32.8,4.46-59.24,10.2-80.6,38.1-.68-27.18,17.41-27.23,31.5-41.04,16.33-16.01-12.46-26.74-10.99-43.95,19.35-5.77,34.04-8.34,54.21-2.94l1.06,1.06c.15.2.29.37.41.41,1.79.59,4.41.76,5.86,1.47Z"/>
      <path class="cls-5" d="M501.12,780c3.98,3.71,23.23,3.53,24.94,10.28-2.67.42-21.1,6.15-23.45,7.33-.74-5.54-9.32-3.16-11.38-9.84-3.06-9.84,3.53-11.82,4.05-15.08,3.07.57,5.28,2.09,7.33,4.41.12.12-2.23,2.19-1.49,2.9Z"/>
      <path class="cls-2" d="M501.16,618.84c3.9-.52,8.37-2.7,13.19-1.47-4.36,2.77-8.58,1.15-13.19,1.47Z"/>
      <path class="cls-16" d="M511.4,344.83v1.47h-2.92c1-.49,1.77-1.03,2.92-1.47Z"/>
      <path class="cls-13" d="M508.48,346.3h2.92c-20.85,35.61-29.41,81.27-26.34,122.32,1.6,21.46,8.44,48.4,24.87,62.31-19.23-3.22-57.54-2.21-76.19,2.92-1.37-.2-3.17.29-4.39,0-13.17-3.16-11.58,3.85-19.77,4.51-18.66,1.49-2.16-23.08-5.15-32.35,9.54-26.61,8.56-52.51,21.98-77.66,2.67-1.1,3.22-3.63,4.41-5.86,12.39-23.47,19.23-24.83,36.62-41.03.2-.14.39-.34.57-.56.02-.03.05-.05.07-.08.27-.27.54-.56.83-.83,1.64-.74,3.61-.37,4.39-2.94,11.33-10.06,20.61-23.86,35.18-30.76Z"/>
      <path class="cls-14" d="M492.75,560.58c10.55,1.89,42.58,13.44,9.86,11.38-1.45-.71-4.07-.88-5.86-1.47l-.41-.41c-.29-.39-.64-.95-1.06-1.06-20.18-5.4-34.86-2.84-54.21,2.94-5.81,1.72-9.35,3.63-14.65,5.86-9.64,4.05-16.21,7.28-24.9,13.19-9.78,6.63-16.61,10.37-21.98,21.98-15.73,2.67,10.64-22.22,13.96-24.87,23.7-18.99,69.42-32.87,99.25-27.54Z"/>
      <path class="cls-6" d="M508.48,665.72c13.93,2.5,1.52,28.72-1.91,36.94-1.59,3.87-5.55,7.12-6.89,9.96h-1.47c-4.12,1.13-18.2-5.13-19.06-8.09-.37-1.27,10.5-11.99-2.36-18.12-3.17-1.5-30.36-.57-20.51-4.74,5.88-2.5,18.32-1.27,26.12-3.19,28.75-7.06,3.92-9.4-9.1-9.83,11.53-.42,24.24,1.57,35.18-2.94Z"/>
      <path class="cls-5" d="M508.48,775.63l-1.74.86c.56-.3,1.23-.66,1.74-.86Z"/>
      <path class="cls-10" d="M508.48,637.88c-2.06,7.5,4.93,14.76-14.65,13.2-6.18-6.21-1.84-14.64,5.86-16.12h4.39c1.16.24,3.06,2.35,4.41,2.92Z"/>
      <path class="cls-5" d="M505.54,777.1l.44-.22c-.2.12-.37.2-.44.22Z"/>
      <path class="cls-2" d="M504.08,634.96h-4.39c.93-.19,3.48-.19,4.39,0Z"/>
      <path class="cls-13" d="M498.22,712.62h1.47c-3.38,7.09-5.35,15.75-9.98,22.99-26.29,40.94-89.88,38.32-126.3,12.17,2.97-29.09,8.95-60.36,10.26-89.38.27-6.26.12-12.78,0-19.06-.07-2.82.34-4.95,0-8.8,4.02-5.4,2.68-10.74,5.86-17.58,5.37-11.62,12.21-15.35,21.98-21.98,8.46,9.32,6.11,20.99,4.1,32.67-.52,2.95-8.46,10.06.29,11.29-3.63,9.52-.56,13.17-.29,19.48.05.95-2.84,3.02-2.6,4.68.12.83,4.24,14.79,7.28,13.93-.2.89-.22,5.15,0,5.88,1.1,3.43,5.59,4.25,5.72,4.63.57,1.57-1.92,5.15-1.4,7.77,3.44,17.07,3.98,8.12,13.93,11.11,10.89,3.29,19.55,6.25,31.03,8.54,4.52.89,9.64-.62,14.15.51,7.6,1.91,7.83,9.59,8.44,9.93,1.54.83,15.7-4.58,16.06-8.78Z"/>
      <path class="cls-6" d="M498.22,712.62c-.35,4.2-14.52,9.61-16.06,8.78-.61-.34-.84-8.02-8.44-9.93-4.51-1.13-9.62.39-14.15-.51-11.48-2.3-20.14-5.25-31.03-8.54-9.94-2.99-10.48,5.96-13.93-11.11-.52-2.62,1.98-6.2,1.4-7.77-.14-.37-4.63-1.2-5.72-4.63,8.44,4.66,13.64-3.92,21.98-5.88,5.74-1.33,32.96-5.76,38.1-5.86.78-.02,2.26,1.45,2.92,1.47,13.02.42,37.85,2.77,9.1,9.83-7.8,1.92-20.24.69-26.12,3.19-9.84,4.17,17.34,3.24,20.51,4.74,12.86,6.13,1.99,16.85,2.36,18.12.86,2.95,14.94,9.22,19.06,8.09Z"/>
      <path class="cls-13" d="M491.23,787.77c2.06,6.69,10.64,4.31,11.38,9.84-24.82,12.58-61.22,63.36-68.44,90.53-2.01,7.58-7.83,50.41-11.02,52.13-11.09,6.01-28.57-21.49-34.54-27.91l-26.66-56.14c2.19-27.64-8.1-61.74-1.47-90.86,32.72,19.3,105.7,22.57,133.36-5.86-1.49,3.65,1.82,10.96,1.45,13.19-.52,3.26-7.11,5.23-4.05,15.08Z"/>
      <path class="cls-6" d="M498.22,750.71c-.42.91-.3,2.36-1.47,4.41-.14-1.23.42-4.05,1.47-4.41Z"/>
      <path class="cls-2" d="M496.34,570.08l.41.41c-.12-.03-.25-.2-.41-.41Z"/>
      <path class="cls-2" d="M496.34,570.08l-1.06-1.06c.42.12.78.68,1.06,1.06Z"/>
      <path class="cls-16" d="M473.3,377.06c-.78,2.57-2.75,2.19-4.39,2.94,1.64-1.5,3.48-2.11,4.39-2.94Z"/>
      <path class="cls-8" d="M468.08,380.82c.29-.34.56-.69.83-.83-.29.27-.56.56-.83.83Z"/>
      <path class="cls-8" d="M467.44,381.47c.2-.19.39-.37.57-.56-.19.22-.37.42-.57.56Z"/>
      <path class="cls-10" d="M463.79,637.9c1.47.42-.89,25.61,6.58,29.29-5.15.1-32.36,4.52-38.1,5.86-21.98-10.42,28.79-35.91,31.52-35.15Z"/>
      <path class="cls-12" d="M464.52,167.53l-29.31,49.82c4.32-16.58,10.33-43.27,29.31-49.82Z"/>
      <path class="cls-5" d="M441.07,571.96c-1.47,17.2,27.32,27.94,10.99,43.95-14.1,13.81-32.18,13.86-31.5,41.04-1.3,1.69-10.05,15.18-10.26,16.11-3.04.86-7.16-13.1-7.28-13.93-.24-1.65,2.65-3.73,2.6-4.68-.27-6.31-3.34-9.96.29-19.48,3.26-8.56,26.27-33.75,26.19-40.59-.03-3.8-14-7.65-5.67-16.56,5.3-2.23,8.85-4.14,14.65-5.86Z"/>
      <path class="cls-5" d="M429.35,533.85c1.22.29,3.02-.2,4.39,0-.96.27-3.19,1.06-4.39,1.47v-1.47Z"/>
      <path class="cls-13" d="M432.09,594.38c.08,6.84-22.93,32.03-26.19,40.59-8.75-1.23-.81-8.34-.29-11.29,2.01-11.68,4.36-23.35-4.1-32.67,8.69-5.91,15.26-9.13,24.9-13.19-8.32,8.91,5.64,12.76,5.67,16.56Z"/>
      <path class="cls-16" d="M430.82,422.49c-1.18,2.23-1.74,4.76-4.41,5.86,1.18-2.23,1.72-4.78,4.41-5.86Z"/>
      <path class="cls-13" d="M429.35,533.85v1.47c-15.89,5.39-31.86,20.45-45.43,23.45h-2.92c-.12-.35-.03-1.06,0-1.47.64-9.79,19.01-38.93,23.43-51.29,2.99,9.27-13.51,33.83,5.15,32.35,8.19-.66,6.6-7.66,19.77-4.51Z"/>
      <path class="cls-3" d="M373.67,270.09c2.26-2.11,11.58-9.94,14.65-7.33-3.11,2.95-9.34,11.82-14.65,10.26.27-.64-.19-2.04,0-2.94Z"/>
      <path class="cls-3" d="M381,558.77h2.92c-.14.02-1.62,3.87-2.92,0Z"/>
      <path class="cls-16" d="M373.67,270.09c-.19.89.27,2.3,0,2.94-.14.29-1.05,1.03-1.47,1.47-.46.49-1.11.91-1.47,1.47-4.54,7.24-7.11,16.28-11.72,23.43-.44.68-2.6,1.49-2.94,2.94-1.79-12.32,9.15-24.36,17.59-32.25Z"/>
      <path class="cls-3" d="M372.2,274.5c-.49.49-.96,1-1.47,1.47.35-.56,1.01-.98,1.47-1.47Z"/>
      <path class="cls-16" d="M354.61,525.06c20.53-16.82,7.06,8.34,2.94,11.73-19.79,16.24-45.58-16.38-33.7-35.17.3.34,5.74,4.54,7.33,5.86-6.89,10.74,5,28.45,17.98,24.6,4.47-1.33,4.78-6.47,5.45-7.02Z"/>
      <path class="cls-9" d="M359.02,299.4c17.79,6.75,2.13,10.57-4.36,18.37-5.52,6.62-11.92,14.37-14.71,22.66-.14-.27-4.15,1.35-2.92-2.92.2-.37-.2-1.06,0-1.47l.86-.86c.27-.22.52-.42.61-.61.29-.69-.29-2.18,0-2.92l2.31-4.64.02-.02c.3-.54.52-.96.59-1.2.37-1.11-.37-3.31,0-4.41l14.65-19.04c.34-1.45,2.5-2.26,2.94-2.94Z"/>
      <path class="cls-16" d="M356.08,557.3l2.94,5.86c-.44.17-1.05-.17-1.47,0,.54-2.08-1.33-4.47-1.47-5.86Z"/>
      <path class="cls-16" d="M340.83,326.98l.59-1.2c-.07.24-.29.66-.59,1.2Z"/>
      <path class="cls-16" d="M339.96,340.42c.96,1.82,1.27,2.6,1.16,4.73-.15,3.12-6.57,35.37-7.66,39.34-1.55,5.62-6.28,16.06-12.54,17.49,3.38-12.81,3.53-26.76,7.31-39.57-9.64,3.29-20.28,49.52-17.56,52.74.34.41,7.06-2.62,7.31-2.92l-11.72,17.59c-1.65-64.41,5.1-44.77,30.78-92.32-1.23,4.27,2.79,2.65,2.92,2.92Z"/>
      <path class="cls-16" d="M340.82,327l-2.31,4.64c.61-1.65,1.64-3.43,2.31-4.64Z"/>
      <path class="cls-16" d="M337.9,335.17l.61-.61c-.08.19-.34.39-.61.61Z"/>
      <path class="cls-16" d="M337.9,335.17l-.86.86c.17-.32.52-.61.86-.86Z"/>
      <path class="cls-16" d="M335.57,510.4c1.16.86,2.45,1.38,2.94,2.94-1.27-.79-2.41-1.38-2.94-2.94Z"/>
      <path class="cls-16" d="M312.12,481.11l2.94,5.86c-1.52-2.55-1.79-3.43-2.94-5.86Z"/>
      <path class="cls-16" d="M310.67,478.17l1.33,1.35c-.29-.22-1.06-.62-1.33-1.35Z"/>
      <path class="cls-16" d="M309.2,473.78l1.47,2.92c-.12-.32-.96-1.05-1.47-2.92Z"/>
      <path class="cls-16" d="M307.73,469.38l1.47,2.94c-.05-.17-1.13-.84-1.47-2.94Z"/>
      <path class="cls-16" d="M306.26,466.45l1.4,1.4c-.27-.17-1.32-.61-1.4-1.4Z"/>
    </g>
    <path class="cls-1" d="M1468.14,1374.25c-163.3,231.49-432.83,382.68-737.67,382.68-195.28,0-376.08-62.05-523.73-167.51-5.86-4.19-11.68-8.45-17.44-12.78,27.64-18.77,47.99-33.03,48-35.27,15.41-21.12,60.28-31.02,103.31-44.04,12.31-3.73,24.47-7.71,35.74-12.28,89.57-36.32,139.58,16.39,252.78,16.23,130.5-.2,240.38-70.51,354.75-143.7,108.45-69.4,120.67-104.06,181.87-105.53,28.75-.68,36.87,6.71,130.6,47.87,15.06,6.62,32.32,14.1,52.24,22.56,14.03,5.97,29.37,12.41,46.18,19.38,34.03,14.11,55.03,22.46,73.37,32.39Z"/>
  </g>
</svg>