<?xml version="1.0" encoding="UTF-8"?><svg id="Camada_1" xmlns="http://www.w3.org/2000/svg" xmlns:xlink="http://www.w3.org/1999/xlink" viewBox="0 0 1290.82 1290.82"><defs><style>.cls-1{fill:#00586a;}.cls-2{fill:url(#Gradiente_sem_nome_22);}.cls-3{opacity:.25;}</style><linearGradient id="Gradiente_sem_nome_22" x1="227.63" y1="1063.16" x2="1019.41" y2="271.38" gradientUnits="userSpaceOnUse"><stop offset="0" stop-color="#00a5be"/><stop offset="1" stop-color="#fcb01f"/></linearGradient></defs><path class="cls-2" d="m1268.6,202.86v442.5c0,114.67-30.91,222.09-85.01,314.38-4.84,8.32-9.9,16.57-15.2,24.6-11.08,17.1-22.98,33.6-35.68,49.52-6.1,7.57-12.33,15.06-18.79,22.34-4.63,5.34-9.36,10.54-14.24,15.67-1.97,2.15-3.98,4.3-6.06,6.42-101.87,105.59-240.73,175.19-395.67,188.13-17.32,1.43-34.85,2.19-52.56,2.19-12.76,0-25.39-.36-37.9-1.18-121.48-7.28-233.64-49.34-326.43-116.5-.9-.65-1.79-1.26-2.65-1.9-2.01-1.43-4.02-2.9-5.99-4.41-4.19-3.05-8.28-6.2-12.33-9.47-125.17-98.64-211.66-244.18-232.81-410.12-3.33-26.1-5.06-52.67-5.06-79.67,0-32.74,2.51-64.86,7.39-96.24,20.72-133.53,83.87-253.07,175.19-344.39C317.49,92,473.32,22.22,645.39,22.22h442.57c99.71,0,180.64,80.85,180.64,180.64Z"/><g class="cls-3"><path class="cls-1" d="m645.39,1271.98c-13.46,0-25.94-.39-38.13-1.19-118.63-7.11-232.12-47.62-328.18-117.13l-1.02-.72c-.58-.41-1.15-.81-1.7-1.23-1.94-1.38-3.99-2.88-6.01-4.42-3.95-2.87-8.05-6.01-12.41-9.52-130.06-102.49-213.19-248.93-234.02-412.3-3.37-26.39-5.08-53.34-5.08-80.09,0-32.49,2.5-65.04,7.43-96.75,20.45-131.74,81.35-251.48,176.14-346.26C320.7,84.01,478.02,18.85,645.39,18.85h440.61c102.55,0,185.97,83.42,185.97,185.97v440.54c0,111.4-29.56,220.7-85.48,316.1-5.22,8.97-10.23,17.08-15.31,24.77-10.95,16.9-23.02,33.65-35.84,49.74-6.86,8.51-13.04,15.86-18.91,22.49-4.56,5.26-9.26,10.43-14.32,15.76-1.93,2.11-3.98,4.31-6.11,6.47-105.45,109.32-246.73,176.49-397.77,189.11-17.62,1.46-35.4,2.2-52.84,2.2Zm0-1240.88c-164.1,0-318.34,63.89-434.32,179.91-92.94,92.94-152.65,210.33-172.7,339.49-4.83,31.09-7.28,63.01-7.28,94.87,0,26.24,1.68,52.67,4.98,78.54,20.42,160.17,101.92,303.74,229.5,404.28,4.25,3.42,8.19,6.45,12.09,9.28,2.03,1.55,3.98,2.97,5.92,4.36.58.43,1.06.77,1.54,1.11l1.14.81c94.16,68.15,205.43,107.86,321.76,114.83,11.96.79,24.18,1.16,37.37,1.16,17.11,0,34.55-.73,51.83-2.16,148.07-12.37,286.59-78.23,390.02-185.45,2.07-2.1,4.01-4.19,5.92-6.28,5.01-5.27,9.58-10.3,14.06-15.47,5.79-6.54,11.85-13.74,18.57-22.08,12.56-15.74,24.38-32.17,35.15-48.78,4.98-7.54,9.87-15.45,14.99-24.24,54.83-93.53,83.8-200.69,83.8-309.92V204.81c0-95.79-77.93-173.72-173.72-173.72h-440.61Z"/><path class="cls-1" d="m645.39,1290.82c-13.79,0-26.66-.4-39.35-1.22-122.13-7.33-239.04-49.05-338.01-120.68l-.85-.6c-.67-.47-1.42-1.01-2.15-1.55-1.71-1.21-3.94-2.85-6.13-4.52-3.81-2.75-8.16-6.09-12.78-9.82C112.3,1046.97,26.69,896.14,5.23,727.84c-3.47-27.19-5.23-54.94-5.23-82.48,0-33.45,2.57-66.97,7.65-99.65,21.06-135.72,83.8-259.06,181.44-356.69C310.94,67.13,472.99,0,645.39,0h440.62c112.93,0,204.81,91.88,204.81,204.81v440.54c0,114.75-30.45,227.35-88.07,325.63-5.35,9.2-10.54,17.59-15.84,25.62-11.21,17.31-23.63,34.55-36.83,51.1-7.06,8.75-13.42,16.33-19.54,23.23-4.63,5.34-9.5,10.71-14.77,16.25-1.86,2.02-4.06,4.39-6.34,6.71-108.51,112.48-254.04,181.67-409.63,194.67-18.12,1.5-36.42,2.26-54.42,2.26Zm0-1240.88c-159.07,0-308.58,61.93-420.99,174.38-90.09,90.09-147.97,203.88-167.4,329.05-4.68,30.15-7.06,61.09-7.06,91.98,0,25.44,1.63,51.06,4.83,76.16,19.79,155.24,98.8,294.4,222.47,391.86,4.14,3.33,7.83,6.17,11.49,8.82,2.23,1.69,4.02,3,5.8,4.28l2.68,1.92c91.36,66.12,199.19,104.59,311.95,111.36,11.64.76,23.46,1.13,36.24,1.13,16.55,0,33.47-.71,50.28-2.1,143.5-11.98,277.75-75.82,378.01-179.75,2.03-2.07,3.83-4,5.59-5.92,5-5.26,9.41-10.12,13.72-15.08,5.71-6.45,11.59-13.45,18.13-21.56,12.11-15.19,23.57-31.1,34-47.21,4.87-7.37,9.59-15,14.52-23.47,53.16-90.69,81.24-194.56,81.24-300.44V204.81c0-85.4-69.47-154.87-154.87-154.87h-440.62Z"/></g></svg>