<?xml version="1.0" encoding="UTF-8"?>
<svg id="Layer_1" data-name="Layer 1" xmlns="http://www.w3.org/2000/svg" viewBox="0 0 66 66">
  <defs>
    <style>
      .cls-1 {
        fill: #018ed3;
      }

      .cls-2 {
        fill: #24abf1;
      }

      .cls-3 {
        fill: #0179ba;
      }

      .cls-4 {
        fill: #0075b6;
      }

      .cls-5 {
        fill: #0076c2;
      }

      .cls-6 {
        fill: #0066a4;
      }

      .cls-7 {
        fill: #0087d1;
      }

      .cls-8 {
        fill: #0071ba;
      }

      .cls-9 {
        fill: #0080ce;
      }

      .cls-10 {
        fill: #006faf;
      }

      .cls-11 {
        fill: #fff;
      }

      .cls-12 {
        fill: #21a2f0;
      }

      .cls-13 {
        fill: #007dca;
      }

      .cls-14 {
        fill: #0067a6;
      }

      .cls-15 {
        fill: #26b1f2;
      }

      .cls-16 {
        fill: #017ac8;
      }

      .cls-17 {
        fill: #016cab;
      }

      .cls-18 {
        fill: #016daf;
      }

      .cls-19 {
        fill: #006fae;
      }
    </style>
  </defs>
  <rect class="cls-11" x="0" width="66" height="66"/>
  <g id="n6jcJT.tif">
    <g>
      <path class="cls-12" d="M56.94,34.54v15.02c-.19.32-.26.67-.45,1-.67,1.16-2.25,1.49-3.34,2.16-2.6.89-5.54,3.09-8.1,3.84-.88.26-1.39.2-2.2-.19.09,0,.19,0,.28,0,.62-.02,1.26-.3,1.59-.84.16-.26.27-.58.28-.88,0-3.63,0-7.25,0-10.88,0-2.74,0-5.48,0-8.21h11.34s.19-.09.19-.09c.11-.15.05-.94.42-.94Z"/>
      <path class="cls-2" d="M56.94,17.74v16.8c-.37,0-.31.78-.42.94l-.19.09h-11.34c0-4.48,0-8.96,0-13.44,0-.31,0-.62,0-.93h11.42c.29-.11.11-1.3.15-1.64.07-.55.17-.85.19-1.49,0-.18-.09-.37.19-.32Z"/>
      <path class="cls-15" d="M44.43,9.16c.52.16,1.03.35,1.53.57,3.42,1.52,6.8,3.29,10.09,5.03.45.48.67,1.07.89,1.68v1.31c-.28-.05-.18.14-.19.32-.02.65-.12.95-.19,1.49-.04.33.14,1.53-.15,1.62h-11.42c0-3.3,0-6.62,0-9.94.05-.13-.09-.26-.1-.32-.15-.6-.32-.84-.84-1.12-.46-.25-.85-.39-1.4-.19.11-.06.21-.21.37-.23l.75-.23h.65Z"/>
      <path class="cls-7" d="M30.71,32.86c3.33,2.53,6.71,5.27,10.08,7.84-.23.17-.5.29-.79.28h-14.14c-.85-.78-1.89-1.58-2.8-2.24-.05-.03-.54-.7-.75-.89-1.78-1.62-3.66-3.2-5.41-4.8-.6-.55-1.23-1.28-1.87-1.87.12-.19.32-.18.51-.19,3.86-.24,7.97.18,11.86,0l.32-.28c.97.74,2.04,1.43,2.99,2.15Z"/>
      <path class="cls-4" d="M44.9,10.93c-.23-.03-.28.04-.4.21-.68,1.04-.68,4.19-.82,5.53-.22,2.12-.52,4.24-.73,6.36-.02.15-.08.4.08.5-3.18,2.37-6.36,4.8-9.52,7.19-.38-.2-.7-.56-1.06-.76-2-1.12-3.98-2.17-5.91-3.42-.45-.29-1.09-.52-1.43-.95,1.24-1.14,2.48-2.31,3.73-3.45h11.72c.39-.3.11-.88.27-1.21.08-.16.39-.21.47-.37.53-1.08.43-1.64.63-2.73.06-.3.36-.7.42-.98.29-1.29.25-2.59.39-3.9.04-.33.21-1.52.3-1.75.16-.4.85-.93,1-1.38.52.28.69.52.84,1.12Z"/>
      <path class="cls-9" d="M42.57,42.01c-.22.07-.17.25-.19.42-.06.6-.02,1.3-.09,1.87-.04.35-.31.93-.36,1.32-.07.53.08,1.21-.25,1.71-.3.46-.49.58-.6,1.27-.04.28.05.67,0,.91-.03.13-.51.2-.52.43l-.08,1.04c-.13.19-2.54.05-2.99.09-.17.01-.32.03-.42.19-3.74-3.39-7.49-6.88-11.2-10.27h14.14c.29,0,.56-.11.79-.28.57.43,1.19.87,1.77,1.31Z"/>
      <path class="cls-1" d="M23.15,27.26c1.52,1.15,3.05,2.3,4.57,3.45l-.32.28c-3.89.17-8-.25-11.86,0-.19.01-.39,0-.51.19-1.61-1.48-3.46-2.94-4.99-4.48-.92-.92-1.31-2.04-.32-3.13.39-.43,2.79-2.58,3.2-2.77.58-.26,1.19-.23,1.77.03,2.85,2.1,5.64,4.29,8.46,6.42Z"/>
      <path class="cls-3" d="M44.06,9.81c-.15.45-.84.98-1,1.38-.09.23-.27,1.42-.3,1.75-.15,1.31-.11,2.61-.39,3.9-.06.28-.37.67-.42.98-.2,1.09-.1,1.65-.63,2.73-.08.16-.39.22-.47.37-.16.33.12.92-.27,1.22h-11.72c4.36-3.99,8.71-8.01,13.06-12,.24-.19.48-.36.75-.51.55-.21.94-.07,1.4.19Z"/>
      <path class="cls-18" d="M21.48,39.86c-2.1,1.48-4.33,3.71-6.5,5.02-.75.45-1.44.58-2.23.11-.55-.33-2.62-2.2-3.07-2.72-.66-.76-.7-1.79-.09-2.6,2.08-1.99,4.25-3.88,6.38-5.79.13.62.81.92,1.22,1.35,1.31,1.38,2.74,2.84,3.92,4.29.11.13.22.25.37.33Z"/>
      <path class="cls-13" d="M43.22,42.47c.05.29-.15.54-.18.8-.28,2.49-.32,5.33-.76,7.73-.04.23-.29.42-.35.68-.12.56-.28,1.12-.39,1.67-.04.2.04.46-.02.63-.07.21-.41.15-.53.27-.11.1-.02.42-.3.35-1.23-1.1-2.42-2.26-3.64-3.36.1-.16.25-.18.42-.19.45-.04,2.86.1,2.99-.09l.08-1.04c0-.24.49-.3.52-.43.06-.24-.04-.63,0-.91.1-.69.3-.82.6-1.27.33-.5.17-1.19.25-1.71.05-.39.32-.97.36-1.32.07-.56.03-1.26.09-1.87.02-.17-.03-.35.19-.42.21.16.44.31.65.47Z"/>
      <path class="cls-6" d="M23.06,38.74l-1.59,1.12c-.15-.08-.27-.2-.37-.33-1.18-1.45-2.61-2.91-3.92-4.29-.4-.43-1.09-.73-1.22-1.35.29-.26.52-.67.93-.84,1.75,1.61,3.64,3.18,5.41,4.8.21.19.7.85.75.89Z"/>
      <path class="cls-10" d="M25.11,25.58c.34.43.98.65,1.43.95,1.93,1.25,3.91,2.3,5.91,3.42.36.2.68.57,1.06.76-.42.32-.87.69-1.31,1.03l-7.93-5.41c.27-.24.59-.52.84-.75Z"/>
      <path class="cls-16" d="M43.22,42.47c.19.14.44.45.47.47-.13.15-.17.42-.19.61-.18,2.48-.16,4.98-.38,7.46-.11,1.34-.54,2.82-.36,4.19.05.41.34.76.37,1.17-.09,0-.19,0-.28,0-.89-.43-1.42-1.12-2.15-1.77.28.06.19-.25.3-.35.12-.11.46-.06.53-.27.06-.18-.02-.44.02-.63.11-.55.27-1.1.39-1.67.05-.25.31-.45.35-.68.44-2.41.47-5.24.76-7.73.03-.26.23-.51.18-.8Z"/>
      <path class="cls-14" d="M31.55,32.21c-.26.2-.46.59-.84.65-.95-.72-2.01-1.41-2.99-2.15-1.52-1.15-3.05-2.3-4.57-3.45.22-.17.44-.37.65-.56l7.75,5.51Z"/>
      <path class="cls-17" d="M32.21,31.74c-.23.17-.46.32-.65.47l-7.75-5.51c.17-.15.34-.26.47-.37l7.93,5.41Z"/>
      <path class="cls-5" d="M44.52,43.5c-.13.15-.17.42-.19.61-.21,2.95-.2,5.96-.55,8.87-.09.76.04,2.3.93,2.56-.33.54-.96.82-1.59.84-.03-.42-.31-.77-.37-1.17-.18-1.37.25-2.85.36-4.19.21-2.48.2-4.98.38-7.46.01-.19.06-.46.19-.61.24.18.58.38.84.56Z"/>
      <path class="cls-8" d="M44.99,43.78c0,3.62,0,7.25,0,10.88-.01.31-.13.63-.28.88-.89-.26-1.02-1.8-.93-2.56.35-2.91.34-5.92.55-8.87.01-.19.06-.46.19-.61.14.1.33.16.47.28Z"/>
      <path class="cls-19" d="M44.9,10.93c.01.06.15.18.1.32,0,3.32-.01,6.63,0,9.95,0,.31,0,.62,0,.93-.64.48-1.32.92-1.96,1.4-.16-.1-.1-.35-.08-.5.22-2.12.52-4.24.73-6.36.14-1.33.14-4.48.82-5.53.11-.18.17-.24.4-.21Z"/>
    </g>
  </g>
</svg>