<svg id="instagram" xmlns="http://www.w3.org/2000/svg" width="23.091" height="23.091" viewBox="0 0 23.091 23.091">
  <g id="Group_15" data-name="Group 15" transform="translate(0)">
    <path id="Path_25" data-name="Path 25" d="M11.545,0C8.412,0,8.018.014,6.787.069a8.507,8.507,0,0,0-2.8.537A5.653,5.653,0,0,0,1.938,1.938,5.667,5.667,0,0,0,.606,3.983a8.457,8.457,0,0,0-.537,2.8C.014,8.017,0,8.409,0,11.547S.014,15.074.069,16.3a8.505,8.505,0,0,0,.537,2.8,5.911,5.911,0,0,0,3.376,3.377,8.476,8.476,0,0,0,2.8.537c1.232.055,1.625.069,4.761.069s3.527-.014,4.76-.069a8.523,8.523,0,0,0,2.8-.537,5.911,5.911,0,0,0,3.376-3.377,8.543,8.543,0,0,0,.537-2.8c.055-1.231.069-1.624.069-4.76s-.014-3.529-.069-4.761a8.533,8.533,0,0,0-.537-2.8,5.666,5.666,0,0,0-1.332-2.045A5.644,5.644,0,0,0,19.108.606,8.494,8.494,0,0,0,16.3.069C15.071.014,14.68,0,11.542,0h0ZM10.511,2.081h1.036c3.083,0,3.448.01,4.664.066a6.4,6.4,0,0,1,2.145.4,3.582,3.582,0,0,1,1.328.864,3.567,3.567,0,0,1,.863,1.328,6.341,6.341,0,0,1,.4,2.143c.056,1.217.068,1.582.068,4.663S21,14.99,20.943,16.207a6.387,6.387,0,0,1-.4,2.143,3.827,3.827,0,0,1-2.192,2.189,6.352,6.352,0,0,1-2.143.4c-1.217.055-1.582.068-4.664.068s-3.449-.013-4.666-.068a6.377,6.377,0,0,1-2.143-.4,3.576,3.576,0,0,1-1.328-.863,3.579,3.579,0,0,1-.866-1.328,6.379,6.379,0,0,1-.4-2.143c-.055-1.217-.066-1.582-.066-4.666s.012-3.446.066-4.663a6.388,6.388,0,0,1,.4-2.145A3.582,3.582,0,0,1,3.41,3.4a3.567,3.567,0,0,1,1.328-.863,6.377,6.377,0,0,1,2.143-.4c1.065-.049,1.478-.063,3.63-.065v0ZM17.709,4a1.385,1.385,0,1,0,1.385,1.385A1.385,1.385,0,0,0,17.709,4ZM11.547,5.617a5.93,5.93,0,1,0,5.93,5.93,5.929,5.929,0,0,0-5.93-5.93Zm0,2.08A3.849,3.849,0,1,1,7.7,11.545,3.849,3.849,0,0,1,11.547,7.7Z" transform="translate(0)" fill="#fff"/>
  </g>
</svg>
