<svg id="linkedin" xmlns="http://www.w3.org/2000/svg" width="21.671" height="20.715" viewBox="0 0 21.671 20.715">
  <path id="Path_24" data-name="Path 24" d="M4.919,20.714V6.738H.274V20.714ZM2.6,4.829A2.422,2.422,0,1,0,2.628,0a2.421,2.421,0,1,0-.061,4.829H2.6ZM7.49,20.714h4.645v-7.8a3.184,3.184,0,0,1,.153-1.134,2.543,2.543,0,0,1,2.383-1.7c1.681,0,2.353,1.282,2.353,3.16v7.477H21.67V12.7c0-4.293-2.292-6.29-5.348-6.29A4.627,4.627,0,0,0,12.1,8.765h.031V6.738H7.49c.061,1.311,0,13.976,0,13.976Z" transform="translate(0 0)" fill="#fff"/>
</svg>
