<?xml version="1.0" encoding="UTF-8"?><svg xmlns="http://www.w3.org/2000/svg" viewBox="0 0 1874.89 522.9"><defs><style>.cls-1{fill:#fff;}.cls-2{opacity:.15;}.cls-2,.cls-3{mix-blend-mode:luminosity;}.cls-3{opacity:.25;}.cls-4{isolation:isolate;}</style></defs><g class="cls-4"><g id="Camada_1"><path class="cls-1" d="m729.27,20.55h43.92v195.11h-43.92v-82.78h-73.77v82.78h-43.92V20.55h43.92v74.61h73.77V20.55Z"/><path class="cls-1" d="m808.39,142.74c0-13.14,2.02-24.63,6.05-34.49,4.03-9.85,9.34-18.06,15.91-24.63,6.57-6.57,14.12-11.54,22.67-14.92,8.54-3.38,17.32-5.07,26.32-5.07,21.02,0,37.63,6.43,49.84,19.29,12.2,12.86,18.3,31.77,18.3,56.73,0,2.44-.1,5.12-.28,8.02-.19,2.91-.38,5.49-.56,7.74h-95.16c.94,8.64,4.97,15.49,12.11,20.55,7.13,5.07,16.7,7.6,28.72,7.6,7.69,0,15.25-.71,22.66-2.11,7.41-1.41,13.47-3.14,18.16-5.21l5.63,34.07c-2.25,1.13-5.26,2.25-9.01,3.38-3.76,1.13-7.93,2.11-12.53,2.96-4.6.84-9.53,1.55-14.78,2.11-5.26.56-10.51.85-15.77.85-13.33,0-24.92-1.97-34.77-5.92-9.85-3.94-18.02-9.34-24.5-16.19-6.48-6.85-11.26-14.97-14.36-24.36-3.1-9.38-4.65-19.52-4.65-30.41Zm98.54-16.04c-.19-3.57-.8-7.04-1.83-10.42-1.03-3.37-2.63-6.38-4.79-9.01-2.16-2.63-4.88-4.79-8.17-6.47-3.29-1.69-7.37-2.54-12.25-2.54s-8.73.8-12.11,2.39c-3.38,1.6-6.2,3.71-8.45,6.33-2.25,2.63-3.99,5.68-5.21,9.15-1.22,3.47-2.11,6.99-2.68,10.56h55.47Z"/><path class="cls-1" d="m979.85,72.64c7.13-2.06,16.33-3.99,27.59-5.77,11.26-1.78,23.09-2.67,35.48-2.67s23.04,1.65,31.39,4.93c8.35,3.29,14.96,7.93,19.85,13.94,4.88,6.01,8.35,13.14,10.42,21.4,2.06,8.26,3.1,17.46,3.1,27.59v83.62h-41.95v-78.55c0-13.52-1.79-23.09-5.35-28.72-3.57-5.63-10.23-8.45-19.99-8.45-3,0-6.19.14-9.57.42-3.38.28-6.38.61-9.01.99v114.31h-41.95V72.64Z"/><path class="cls-1" d="m1234.94,104.73c-3.76-.94-8.17-1.92-13.23-2.95-5.07-1.03-10.51-1.55-16.33-1.55-2.63,0-5.77.24-9.43.7-3.66.47-6.43.99-8.31,1.55v113.18h-41.95V75.46c7.51-2.63,16.38-5.11,26.61-7.46,10.23-2.34,21.63-3.52,34.21-3.52,2.25,0,4.97.14,8.16.42,3.19.28,6.38.66,9.57,1.13,3.19.47,6.38,1.03,9.57,1.69,3.19.66,5.91,1.45,8.16,2.39l-7.04,34.63Z"/><path class="cls-1" d="m1310.39,24.78c0,7.7-2.49,13.75-7.46,18.16-4.98,4.41-10.84,6.62-17.6,6.62s-12.63-2.2-17.6-6.62c-4.98-4.41-7.46-10.46-7.46-18.16s2.49-13.75,7.46-18.16c4.97-4.41,10.84-6.62,17.6-6.62s12.62,2.21,17.6,6.62c4.97,4.41,7.46,10.47,7.46,18.16Zm-3.94,190.89h-41.95V67.57h41.95v148.1Z"/><path class="cls-1" d="m1338.82,141.62c0-11.45,1.73-21.91,5.21-31.39,3.47-9.47,8.49-17.64,15.06-24.49,6.57-6.85,14.64-12.15,24.21-15.91,9.57-3.75,20.46-5.63,32.66-5.63,5.07,0,10.37.24,15.91.71,5.53.47,10.98,1.08,16.33,1.83,5.35.75,10.46,1.65,15.34,2.67,4.88,1.03,9.2,2.11,12.95,3.24v195.11h-41.95v-55.75c-4.69,2.07-9.57,3.66-14.64,4.79-5.07,1.13-10.51,1.69-16.33,1.69-21.02,0-37.07-6.9-48.14-20.7-11.08-13.8-16.61-32.52-16.61-56.17Zm42.8,1.13c0,26.85,9.95,40.26,29.85,40.26,4.31,0,8.59-.56,12.81-1.69s7.65-2.53,10.28-4.22v-75.74c-2.07-.38-4.69-.71-7.88-.99-3.19-.28-6.66-.42-10.42-.42-11.45,0-20.09,3.9-25.9,11.69-5.82,7.79-8.73,18.16-8.73,31.11Z"/><path class="cls-1" d="m1642.33,210.6c-7.14,2.07-16.33,3.99-27.59,5.77-11.26,1.78-23.09,2.68-35.48,2.68s-23.04-1.69-31.39-5.07c-8.36-3.38-14.97-8.12-19.85-14.22-4.88-6.1-8.35-13.38-10.42-21.82-2.07-8.44-3.1-17.73-3.1-27.87v-82.49h41.95v77.43c0,13.52,1.78,23.28,5.35,29.28,3.56,6.01,10.23,9.01,19.99,9.01,3,0,6.19-.14,9.57-.43,3.38-.28,6.38-.6,9.01-.98v-114.31h41.95v143.03Z"/><path class="cls-1" d="m1674.71,142.74c0-13.14,2.02-24.63,6.05-34.49,4.03-9.85,9.34-18.06,15.91-24.63,6.57-6.57,14.12-11.54,22.67-14.92,8.54-3.38,17.32-5.07,26.32-5.07,21.02,0,37.63,6.43,49.84,19.29,12.2,12.86,18.3,31.77,18.3,56.73,0,2.44-.1,5.12-.28,8.02-.19,2.91-.38,5.49-.56,7.74h-95.16c.94,8.64,4.97,15.49,12.11,20.55,7.13,5.07,16.7,7.6,28.72,7.6,7.69,0,15.25-.71,22.66-2.11,7.41-1.41,13.47-3.14,18.16-5.21l5.63,34.07c-2.25,1.13-5.26,2.25-9.01,3.38-3.76,1.13-7.93,2.11-12.53,2.96-4.6.84-9.53,1.55-14.78,2.11-5.26.56-10.51.85-15.77.85-13.33,0-24.92-1.97-34.77-5.92-9.85-3.94-18.02-9.34-24.5-16.19-6.48-6.85-11.26-14.97-14.36-24.36-3.1-9.38-4.65-19.52-4.65-30.41Zm98.54-16.04c-.19-3.57-.8-7.04-1.83-10.42-1.03-3.37-2.63-6.38-4.79-9.01-2.16-2.63-4.88-4.79-8.17-6.47-3.29-1.69-7.37-2.54-12.25-2.54s-8.73.8-12.11,2.39c-3.38,1.6-6.2,3.71-8.45,6.33-2.25,2.63-3.99,5.68-5.21,9.15-1.22,3.47-2.11,6.99-2.68,10.56h55.47Z"/><path class="cls-1" d="m706.75,308.64c-20.46,0-35.24,5.68-44.34,17.03-9.11,11.36-13.65,26.89-13.65,46.6,0,9.57,1.13,18.26,3.38,26.05,2.25,7.79,5.63,14.5,10.14,20.13,4.5,5.63,10.14,10,16.89,13.1,6.76,3.1,14.64,4.64,23.65,4.64,4.88,0,9.05-.09,12.53-.28,3.47-.19,6.52-.56,9.15-1.13v-67.86h43.92v96.57c-5.26,2.07-13.7,4.27-25.34,6.61-11.64,2.35-26,3.52-43.08,3.52-14.64,0-27.92-2.25-39.84-6.76-11.92-4.5-22.1-11.07-30.55-19.71-8.45-8.63-14.97-19.24-19.57-31.81-4.6-12.57-6.9-26.93-6.9-43.08s2.53-30.78,7.6-43.36c5.07-12.57,12.01-23.22,20.83-31.96,8.82-8.73,19.19-15.34,31.11-19.85,11.92-4.5,24.64-6.75,38.15-6.75,9.2,0,17.5.61,24.92,1.83,7.41,1.22,13.8,2.63,19.14,4.23,5.35,1.6,9.76,3.24,13.23,4.93,3.47,1.69,5.96,3,7.46,3.94l-12.67,35.19c-6.01-3.19-12.91-5.96-20.69-8.31-7.79-2.35-16.28-3.52-25.48-3.52Z"/><path class="cls-1" d="m859.63,317.93c12.39,0,22.71,1.41,30.97,4.23,8.26,2.81,14.87,6.85,19.85,12.11,4.97,5.26,8.49,11.64,10.56,19.14,2.06,7.51,3.1,15.86,3.1,25.06v87.28c-6.01,1.32-14.36,2.86-25.06,4.65-10.7,1.78-23.65,2.67-38.85,2.67-9.57,0-18.26-.84-26.05-2.53-7.79-1.69-14.5-4.46-20.13-8.31-5.63-3.84-9.95-8.87-12.95-15.06-3-6.2-4.51-13.8-4.51-22.8s1.73-15.95,5.21-21.96c3.47-6,8.12-10.79,13.94-14.36,5.81-3.57,12.48-6.15,19.99-7.74,7.51-1.59,15.3-2.39,23.37-2.39,5.44,0,10.28.24,14.5.71,4.22.47,7.65,1.08,10.28,1.83v-3.94c0-7.13-2.16-12.86-6.48-17.18-4.32-4.31-11.83-6.47-22.52-6.47-7.14,0-14.17.52-21.12,1.55-6.95,1.03-12.95,2.49-18.02,4.36l-5.35-33.79c2.44-.75,5.49-1.55,9.15-2.39,3.66-.85,7.65-1.59,11.96-2.25,4.31-.66,8.87-1.22,13.66-1.69,4.79-.47,9.62-.71,14.5-.71Zm3.38,122.76c4.13,0,8.07-.09,11.83-.28,3.75-.19,6.76-.47,9.01-.85v-31.81c-1.69-.37-4.22-.75-7.6-1.13-3.38-.37-6.47-.56-9.29-.56-3.94,0-7.65.24-11.12.71-3.48.47-6.53,1.36-9.15,2.67-2.63,1.31-4.69,3.1-6.2,5.35-1.5,2.25-2.25,5.07-2.25,8.45,0,6.57,2.2,11.12,6.62,13.65,4.41,2.53,10.46,3.8,18.16,3.8Z"/><path class="cls-1" d="m1043.48,391.42c0-13.52-1.74-23.09-5.21-28.72-3.47-5.63-9.43-8.45-17.88-8.45-2.63,0-5.35.14-8.16.42-2.82.28-5.54.61-8.16.99v114.31h-41.95v-143.03c3.56-.94,7.74-1.92,12.53-2.96,4.79-1.03,9.85-1.97,15.2-2.82,5.35-.84,10.84-1.5,16.47-1.97,5.63-.47,11.16-.71,16.61-.71,10.7,0,19.38,1.37,26.04,4.08,6.66,2.72,12.15,5.96,16.47,9.71,6-4.31,12.9-7.69,20.69-10.13,7.79-2.44,14.97-3.66,21.54-3.66,11.83,0,21.54,1.65,29.14,4.93,7.6,3.29,13.65,7.93,18.16,13.94,4.5,6.01,7.6,13.14,9.29,21.4,1.69,8.26,2.53,17.46,2.53,27.59v83.62h-41.95v-78.55c0-13.52-1.74-23.09-5.21-28.72-3.47-5.63-9.43-8.45-17.88-8.45-2.25,0-5.4.56-9.43,1.69-4.04,1.13-7.37,2.54-10,4.22,1.31,4.32,2.16,8.87,2.53,13.66.37,4.79.56,9.9.56,15.34v80.81h-41.95v-78.55Z"/><path class="cls-1" d="m1342.49,395.92c0,11.83-1.74,22.52-5.21,32.1-3.48,9.57-8.5,17.74-15.06,24.49-6.57,6.76-14.64,11.97-24.21,15.63-9.57,3.66-20.46,5.49-32.66,5.49-5.07,0-10.37-.24-15.91-.71-5.54-.47-10.98-1.08-16.33-1.83-5.35-.75-10.47-1.64-15.34-2.67-4.88-1.03-9.2-2.12-12.95-3.24v-206.94l41.95-6.76v73.77c4.69-2.06,9.57-3.66,14.64-4.79,5.07-1.13,10.51-1.69,16.33-1.69,10.51,0,19.8,1.83,27.87,5.49,8.07,3.66,14.83,8.87,20.27,15.62,5.44,6.76,9.57,14.88,12.39,24.36,2.82,9.48,4.22,20.04,4.22,31.67Zm-42.8-1.13c0-27.03-9.95-40.54-29.84-40.54-4.32,0-8.59.56-12.81,1.69-4.22,1.13-7.65,2.54-10.28,4.22v76.3c2.06.38,4.69.7,7.88.98,3.19.28,6.66.42,10.42.42,11.45,0,20.08-3.94,25.9-11.82,5.82-7.88,8.73-18.3,8.73-31.26Z"/><path class="cls-1" d="m1513.39,395.64c0,11.64-1.69,22.29-5.07,31.96-3.38,9.67-8.26,17.93-14.64,24.78-6.38,6.85-14.03,12.16-22.95,15.91-8.92,3.75-18.91,5.63-29.99,5.63s-20.79-1.88-29.7-5.63c-8.92-3.75-16.57-9.06-22.95-15.91-6.38-6.85-11.36-15.11-14.92-24.78-3.57-9.67-5.35-20.32-5.35-31.96s1.83-22.24,5.49-31.81c3.66-9.57,8.73-17.74,15.2-24.5,6.47-6.75,14.17-12.01,23.09-15.77,8.91-3.75,18.63-5.63,29.14-5.63s20.5,1.88,29.42,5.63c8.91,3.76,16.56,9.01,22.95,15.77,6.38,6.76,11.36,14.92,14.92,24.5,3.56,9.57,5.35,20.18,5.35,31.81Zm-42.8,0c0-12.95-2.58-23.13-7.74-30.55-5.16-7.41-12.53-11.12-22.1-11.12s-16.99,3.71-22.24,11.12c-5.26,7.42-7.88,17.6-7.88,30.55s2.63,23.23,7.88,30.83c5.25,7.6,12.67,11.4,22.24,11.4s16.94-3.8,22.1-11.4c5.16-7.6,7.74-17.88,7.74-30.83Z"/><path class="cls-1" d="m1635.02,359.04c-3.76-.94-8.17-1.92-13.23-2.95-5.07-1.03-10.51-1.55-16.33-1.55-2.63,0-5.77.24-9.43.7-3.66.47-6.43.99-8.31,1.55v113.18h-41.95v-140.21c7.51-2.63,16.38-5.11,26.61-7.46,10.23-2.34,21.63-3.52,34.21-3.52,2.25,0,4.97.14,8.16.42,3.19.28,6.38.66,9.57,1.13,3.19.47,6.38,1.03,9.57,1.69,3.19.66,5.91,1.45,8.16,2.39l-7.04,34.63Z"/><path class="cls-1" d="m1789.59,451.39c0,24.21-6.15,42.18-18.44,53.91-12.3,11.73-31.3,17.6-57.01,17.6-9.01,0-18.02-.8-27.03-2.39-9.01-1.6-17.36-3.71-25.06-6.34l7.32-35.19c6.57,2.63,13.47,4.69,20.69,6.2,7.22,1.5,15.44,2.25,24.64,2.25,12.01,0,20.5-2.63,25.48-7.88,4.97-5.26,7.46-12.01,7.46-20.27v-5.35c-4.51,2.07-9.15,3.61-13.94,4.64-4.79,1.04-10,1.55-15.63,1.55-20.46,0-36.14-6.05-47.02-18.16-10.89-12.11-16.33-29.04-16.33-50.82,0-10.88,1.69-20.79,5.07-29.7,3.38-8.91,8.31-16.56,14.78-22.95,6.47-6.38,14.4-11.31,23.79-14.78,9.38-3.47,19.99-5.21,31.81-5.21,5.07,0,10.28.24,15.63.71,5.35.47,10.65,1.08,15.91,1.83,5.25.75,10.28,1.65,15.06,2.67,4.79,1.03,9.05,2.11,12.81,3.24v124.45Zm-92.07-60.25c0,23.46,9.48,35.19,28.44,35.19,4.31,0,8.35-.56,12.11-1.69,3.75-1.13,6.94-2.43,9.57-3.94v-67.01c-2.07-.37-4.51-.71-7.32-.98-2.82-.28-6.1-.42-9.86-.42-11.08,0-19.33,3.66-24.77,10.98-5.45,7.32-8.17,16.61-8.17,27.87Z"/><path class="cls-1" d="m1874.89,279.08c0,7.7-2.49,13.75-7.46,18.16-4.98,4.41-10.84,6.62-17.6,6.62s-12.63-2.2-17.6-6.62c-4.98-4.41-7.46-10.46-7.46-18.16s2.49-13.75,7.46-18.16c4.97-4.41,10.84-6.62,17.6-6.62s12.62,2.21,17.6,6.62c4.97,4.41,7.46,10.47,7.46,18.16Zm-3.94,190.89h-41.95v-148.1h41.95v148.1Z"/><g class="cls-3"><path class="cls-1" d="m258,516.47C115.74,516.47,0,400.73,0,258.47S115.74.46,258,.46h209.86c26.55,0,48.15,21.6,48.15,48.15v209.86c0,142.26-115.74,258-258,258Zm0-490.06c-127.95,0-232.05,104.1-232.05,232.05s104.1,232.05,232.05,232.05,232.05-104.1,232.05-232.05V48.61c0-12.24-9.96-22.2-22.2-22.2h-209.86Z"/></g><g class="cls-2"><path class="cls-1" d="m260.42,10.81h212.11c19.62,0,35.55,15.93,35.55,35.55v212.11c0,136.68-110.97,247.66-247.66,247.66h0c-136.68,0-247.66-110.97-247.66-247.66h0C12.77,121.78,123.74,10.81,260.42,10.81Z"/></g><g class="cls-2"><ellipse class="cls-1" cx="134.5" cy="205.66" rx="62.54" ry="61.24" transform="translate(-109.1 173.29) rotate(-49.25)"/></g><g class="cls-2"><ellipse class="cls-1" cx="206.09" cy="135.17" rx="23.77" ry="23.28" transform="translate(-30.84 203.04) rotate(-49.25)"/></g></g></g></svg>