<?xml version="1.0" encoding="UTF-8"?><svg xmlns="http://www.w3.org/2000/svg" viewBox="0 0 1400.95 1400.95"><defs><style>.cls-1{fill:#fff;}.cls-2{opacity:.15;}.cls-2,.cls-3{mix-blend-mode:luminosity;}.cls-3{opacity:.25;}.cls-4{isolation:isolate;}</style></defs><g class="cls-4"><g id="Camada_1"><g class="cls-3"><path class="cls-1" d="m700.47,1400.95C314.23,1400.95,0,1086.71,0,700.47S314.23,0,700.47,0h569.76c72.08,0,130.72,58.64,130.72,130.72v569.76c0,386.24-314.24,700.48-700.48,700.48Zm0-1330.5c-347.39,0-630.02,282.63-630.02,630.02s282.63,630.03,630.02,630.03,630.03-282.63,630.03-630.03V130.72c0-33.23-27.03-60.26-60.26-60.26h-569.76Z"/></g><g class="cls-2"><path class="cls-1" d="m707.05,28.09h575.87c53.27,0,96.51,43.25,96.51,96.51v575.87c0,371.1-301.28,672.38-672.38,672.38h0c-371.1,0-672.38-301.28-672.38-672.38h0C34.67,329.37,335.95,28.09,707.05,28.09Z"/></g><g class="cls-2"><ellipse class="cls-1" cx="365.18" cy="557.11" rx="169.8" ry="166.27" transform="translate(-295.24 470.05) rotate(-49.25)"/></g><g class="cls-2"><ellipse class="cls-1" cx="559.52" cy="365.72" rx="64.54" ry="63.2" transform="translate(-82.78 550.82) rotate(-49.25)"/></g></g></g></svg>