<?xml version="1.0" encoding="UTF-8"?><svg xmlns="http://www.w3.org/2000/svg" viewBox="0 0 1638.45 182.42"><defs><style>.cls-1{fill:#fff;}.cls-2{opacity:.15;}.cls-2,.cls-3{mix-blend-mode:luminosity;}.cls-3{opacity:.25;}.cls-4{isolation:isolate;}</style></defs><g class="cls-4"><g id="Camada_1"><g class="cls-3"><path class="cls-1" d="m91.21,182.42C40.92,182.42,0,141.5,0,91.21S40.92,0,91.21,0h74.19c9.39,0,17.02,7.64,17.02,17.02v74.19c0,50.29-40.92,91.21-91.21,91.21Zm0-173.25C45.98,9.17,9.17,45.98,9.17,91.21s36.8,82.04,82.04,82.04,82.04-36.8,82.04-82.04V17.02c0-4.33-3.52-7.85-7.85-7.85h-74.19Z"/></g><g class="cls-2"><path class="cls-1" d="m92.07,3.66h74.99c6.94,0,12.57,5.63,12.57,12.57v74.99c0,48.32-39.23,87.55-87.55,87.55h0c-48.32,0-87.55-39.23-87.55-87.55h0C4.51,42.89,43.74,3.66,92.07,3.66Z"/></g><g class="cls-2"><ellipse class="cls-1" cx="47.55" cy="72.54" rx="22.11" ry="21.65" transform="translate(-38.44 61.21) rotate(-49.25)"/></g><g class="cls-2"><ellipse class="cls-1" cx="72.86" cy="47.62" rx="8.4" ry="8.23" transform="translate(-10.78 71.72) rotate(-49.25)"/></g><path class="cls-1" d="m315.55,32.8h23.68v105.18h-23.68v-44.63h-39.77v44.63h-23.68V32.8h23.68v40.22h39.77v-40.22Z"/><path class="cls-1" d="m358.2,98.67c0-7.08,1.09-13.28,3.26-18.59,2.17-5.31,5.03-9.74,8.58-13.28,3.54-3.54,7.61-6.22,12.22-8.04,4.6-1.82,9.33-2.73,14.19-2.73,11.33,0,20.29,3.47,26.87,10.4,6.58,6.93,9.87,17.13,9.87,30.58,0,1.32-.05,2.76-.15,4.32-.1,1.57-.2,2.96-.3,4.17h-51.3c.51,4.66,2.68,8.35,6.53,11.08,3.84,2.73,9,4.1,15.48,4.1,4.15,0,8.22-.38,12.22-1.14,4-.76,7.26-1.69,9.79-2.81l3.04,18.37c-1.21.61-2.83,1.21-4.86,1.82-2.03.61-4.28,1.14-6.75,1.59-2.48.45-5.14.83-7.97,1.14-2.83.3-5.67.46-8.5.46-7.19,0-13.43-1.06-18.74-3.19-5.31-2.12-9.71-5.03-13.21-8.73-3.49-3.69-6.07-8.07-7.74-13.13-1.67-5.06-2.5-10.52-2.5-16.39Zm53.12-8.65c-.1-1.92-.43-3.8-.99-5.62-.56-1.82-1.42-3.44-2.58-4.86-1.17-1.42-2.63-2.58-4.4-3.49-1.77-.91-3.97-1.37-6.6-1.37s-4.7.43-6.53,1.29c-1.82.86-3.34,2-4.55,3.41-1.21,1.42-2.15,3.06-2.81,4.93-.66,1.87-1.14,3.77-1.44,5.69h29.9Z"/><path class="cls-1" d="m450.63,60.88c3.84-1.11,8.8-2.15,14.88-3.11,6.07-.96,12.45-1.44,19.12-1.44s12.42.89,16.92,2.66c4.5,1.77,8.07,4.28,10.7,7.51,2.63,3.24,4.5,7.08,5.62,11.54,1.11,4.45,1.67,9.41,1.67,14.88v45.08h-22.61v-42.35c0-7.29-.96-12.45-2.88-15.48-1.92-3.04-5.52-4.55-10.78-4.55-1.62,0-3.34.08-5.16.23-1.82.15-3.44.33-4.86.53v61.62h-22.62V60.88Z"/><path class="cls-1" d="m588.14,78.18c-2.03-.5-4.4-1.04-7.13-1.59-2.73-.55-5.67-.83-8.8-.83-1.42,0-3.11.13-5.08.38-1.97.26-3.47.53-4.48.84v61.02h-22.62V62.4c4.05-1.42,8.83-2.76,14.34-4.02,5.51-1.26,11.66-1.9,18.44-1.9,1.21,0,2.68.07,4.4.23,1.72.15,3.44.36,5.16.61,1.72.25,3.44.56,5.16.91,1.72.36,3.19.78,4.4,1.29l-3.79,18.67Z"/><path class="cls-1" d="m628.82,35.07c0,4.15-1.34,7.41-4.02,9.79-2.68,2.38-5.84,3.57-9.49,3.57s-6.81-1.19-9.49-3.57c-2.68-2.38-4.02-5.64-4.02-9.79s1.34-7.41,4.02-9.79c2.68-2.38,5.84-3.57,9.49-3.57s6.8,1.19,9.49,3.57c2.68,2.38,4.02,5.64,4.02,9.79Zm-2.12,102.91h-22.62V58.15h22.62v79.84Z"/><path class="cls-1" d="m644.15,98.06c0-6.17.93-11.81,2.81-16.92,1.87-5.11,4.58-9.51,8.12-13.2,3.54-3.69,7.89-6.55,13.05-8.58,5.16-2.02,11.03-3.04,17.61-3.04,2.73,0,5.59.13,8.58.38,2.98.25,5.92.58,8.8.99,2.88.4,5.64.89,8.27,1.44,2.63.56,4.96,1.14,6.98,1.75v105.18h-22.61v-30.05c-2.53,1.12-5.16,1.97-7.89,2.58-2.73.61-5.67.91-8.8.91-11.33,0-19.99-3.72-25.95-11.16-5.97-7.44-8.96-17.53-8.96-30.28Zm23.07.61c0,14.47,5.36,21.71,16.09,21.71,2.33,0,4.63-.3,6.91-.91s4.12-1.37,5.54-2.28v-40.83c-1.12-.2-2.53-.38-4.25-.53-1.72-.15-3.59-.23-5.62-.23-6.17,0-10.83,2.1-13.96,6.3-3.14,4.2-4.71,9.79-4.71,16.77Z"/><path class="cls-1" d="m807.77,135.25c-3.85,1.11-8.8,2.15-14.88,3.11-6.07.96-12.45,1.44-19.12,1.44s-12.42-.91-16.92-2.73c-4.5-1.82-8.07-4.38-10.7-7.66-2.63-3.29-4.5-7.21-5.62-11.76-1.11-4.55-1.67-9.56-1.67-15.03v-44.47h22.62v41.74c0,7.29.96,12.55,2.88,15.79,1.92,3.24,5.51,4.86,10.78,4.86,1.62,0,3.34-.08,5.16-.23,1.82-.15,3.44-.33,4.86-.53v-61.62h22.62v77.11Z"/><path class="cls-1" d="m825.22,98.67c0-7.08,1.09-13.28,3.26-18.59,2.17-5.31,5.03-9.74,8.58-13.28,3.54-3.54,7.61-6.22,12.22-8.04,4.6-1.82,9.33-2.73,14.19-2.73,11.33,0,20.29,3.47,26.87,10.4,6.58,6.93,9.87,17.13,9.87,30.58,0,1.32-.05,2.76-.15,4.32-.1,1.57-.2,2.96-.3,4.17h-51.3c.51,4.66,2.68,8.35,6.53,11.08,3.84,2.73,9,4.1,15.48,4.1,4.15,0,8.22-.38,12.22-1.14,4-.76,7.26-1.69,9.79-2.81l3.04,18.37c-1.21.61-2.83,1.21-4.86,1.82-2.03.61-4.28,1.14-6.75,1.59-2.48.45-5.14.83-7.97,1.14-2.83.3-5.67.46-8.5.46-7.19,0-13.43-1.06-18.74-3.19-5.31-2.12-9.71-5.03-13.21-8.73-3.49-3.69-6.07-8.07-7.74-13.13-1.67-5.06-2.5-10.52-2.5-16.39Zm53.12-8.65c-.1-1.92-.43-3.8-.99-5.62-.56-1.82-1.42-3.44-2.58-4.86-1.17-1.42-2.63-2.58-4.4-3.49-1.77-.91-3.97-1.37-6.6-1.37s-4.7.43-6.53,1.29c-1.82.86-3.34,2-4.55,3.41-1.21,1.42-2.15,3.06-2.81,4.93-.66,1.87-1.14,3.77-1.44,5.69h29.9Z"/><path class="cls-1" d="m1008.71,51.16c-11.03,0-19,3.06-23.91,9.18-4.91,6.12-7.36,14.49-7.36,25.12,0,5.16.61,9.84,1.82,14.04,1.21,4.2,3.04,7.82,5.46,10.85,2.43,3.04,5.46,5.39,9.11,7.06,3.64,1.67,7.89,2.5,12.75,2.5,2.63,0,4.88-.05,6.75-.15,1.87-.1,3.51-.3,4.93-.61v-36.58h23.68v52.06c-2.83,1.11-7.39,2.3-13.66,3.56-6.28,1.26-14.02,1.9-23.22,1.9-7.89,0-15.05-1.21-21.48-3.64-6.43-2.43-11.91-5.97-16.47-10.62-4.55-4.65-8.07-10.37-10.55-17.15-2.48-6.78-3.72-14.52-3.72-23.22s1.37-16.59,4.1-23.37c2.73-6.78,6.47-12.52,11.23-17.23,4.76-4.7,10.35-8.27,16.77-10.7,6.43-2.43,13.28-3.64,20.57-3.64,4.96,0,9.43.33,13.43.98,4,.66,7.44,1.42,10.32,2.28,2.88.86,5.26,1.75,7.13,2.66,1.87.91,3.21,1.62,4.02,2.13l-6.83,18.97c-3.24-1.72-6.96-3.21-11.16-4.48-4.2-1.26-8.78-1.9-13.74-1.9Z"/><path class="cls-1" d="m1091.13,56.17c6.68,0,12.24.76,16.7,2.28,4.45,1.52,8.02,3.69,10.7,6.53,2.68,2.83,4.58,6.27,5.69,10.32,1.11,4.05,1.67,8.55,1.67,13.51v47.05c-3.24.71-7.74,1.54-13.51,2.51-5.77.96-12.75,1.44-20.95,1.44-5.16,0-9.84-.45-14.04-1.37-4.2-.91-7.82-2.4-10.85-4.48-3.04-2.07-5.36-4.78-6.98-8.12-1.62-3.34-2.43-7.44-2.43-12.29s.93-8.6,2.81-11.84c1.87-3.24,4.38-5.82,7.51-7.74,3.13-1.92,6.73-3.31,10.78-4.17,4.05-.86,8.25-1.29,12.6-1.29,2.93,0,5.54.13,7.82.38,2.28.25,4.12.58,5.54.99v-2.13c0-3.84-1.16-6.93-3.49-9.26-2.33-2.33-6.37-3.49-12.14-3.49-3.85,0-7.64.28-11.38.83-3.75.56-6.98,1.34-9.71,2.35l-2.88-18.21c1.31-.4,2.96-.83,4.93-1.29,1.97-.46,4.12-.86,6.45-1.21,2.33-.35,4.78-.66,7.36-.91,2.58-.25,5.18-.38,7.82-.38Zm1.82,66.18c2.22,0,4.35-.05,6.37-.15,2.02-.1,3.64-.25,4.86-.46v-17.15c-.91-.2-2.28-.4-4.1-.61-1.82-.2-3.49-.3-5.01-.3-2.13,0-4.12.13-5.99.38-1.87.25-3.52.73-4.93,1.44-1.42.71-2.53,1.67-3.34,2.88-.81,1.21-1.21,2.73-1.21,4.55,0,3.54,1.19,6,3.57,7.36,2.38,1.37,5.64,2.05,9.79,2.05Z"/><path class="cls-1" d="m1190.24,95.79c0-7.29-.94-12.45-2.81-15.48-1.87-3.04-5.08-4.55-9.64-4.55-1.42,0-2.88.08-4.4.23-1.52.15-2.99.33-4.4.53v61.62h-22.62V61.03c1.92-.5,4.17-1.04,6.75-1.59,2.58-.55,5.31-1.06,8.2-1.52,2.88-.45,5.84-.81,8.88-1.06,3.04-.25,6.02-.38,8.95-.38,5.77,0,10.45.74,14.04,2.2,3.59,1.47,6.55,3.21,8.88,5.24,3.24-2.33,6.96-4.15,11.16-5.46,4.2-1.31,8.07-1.97,11.61-1.97,6.37,0,11.61.89,15.71,2.66,4.1,1.77,7.36,4.28,9.79,7.51,2.43,3.24,4.1,7.08,5.01,11.54.91,4.45,1.37,9.41,1.37,14.88v45.08h-22.62v-42.35c0-7.29-.94-12.45-2.81-15.48-1.87-3.04-5.08-4.55-9.64-4.55-1.21,0-2.91.3-5.08.91-2.18.61-3.97,1.37-5.39,2.28.71,2.33,1.16,4.78,1.37,7.36.2,2.58.3,5.34.3,8.27v43.56h-22.62v-42.35Z"/><path class="cls-1" d="m1351.44,98.21c0,6.38-.94,12.14-2.81,17.3-1.87,5.16-4.58,9.56-8.12,13.2-3.54,3.64-7.89,6.45-13.05,8.42-5.16,1.97-11.03,2.96-17.61,2.96-2.73,0-5.59-.13-8.58-.38-2.99-.25-5.92-.58-8.8-.98-2.88-.41-5.64-.88-8.27-1.44-2.63-.56-4.96-1.14-6.98-1.75V23.99l22.62-3.64v39.77c2.53-1.11,5.16-1.97,7.89-2.58,2.73-.61,5.67-.91,8.8-.91,5.67,0,10.67.98,15.03,2.96,4.35,1.97,7.99,4.78,10.93,8.42,2.93,3.64,5.16,8.02,6.68,13.13,1.52,5.11,2.28,10.8,2.28,17.07Zm-23.07-.61c0-14.57-5.36-21.86-16.09-21.86-2.33,0-4.63.3-6.91.91-2.28.61-4.12,1.37-5.54,2.28v41.13c1.11.2,2.53.38,4.25.53,1.72.15,3.59.23,5.62.23,6.17,0,10.83-2.13,13.96-6.37,3.14-4.25,4.7-9.87,4.7-16.85Z"/><path class="cls-1" d="m1443.57,98.06c0,6.28-.91,12.02-2.73,17.23-1.82,5.21-4.45,9.66-7.89,13.36-3.44,3.69-7.57,6.55-12.37,8.58-4.81,2.02-10.2,3.04-16.16,3.04s-11.21-1.01-16.01-3.04c-4.81-2.02-8.93-4.88-12.37-8.58-3.44-3.69-6.12-8.15-8.04-13.36-1.92-5.21-2.88-10.95-2.88-17.23s.99-11.99,2.96-17.15c1.97-5.16,4.7-9.56,8.2-13.21,3.49-3.64,7.64-6.47,12.45-8.5,4.8-2.02,10.04-3.04,15.71-3.04s11.05,1.01,15.86,3.04c4.8,2.02,8.93,4.86,12.37,8.5,3.44,3.64,6.12,8.04,8.04,13.21,1.92,5.16,2.88,10.88,2.88,17.15Zm-23.07,0c0-6.98-1.39-12.47-4.17-16.47-2.78-3.99-6.75-5.99-11.91-5.99s-9.16,2-11.99,5.99c-2.83,4-4.25,9.49-4.25,16.47s1.42,12.52,4.25,16.62c2.83,4.1,6.83,6.15,11.99,6.15s9.13-2.05,11.91-6.15c2.78-4.1,4.17-9.64,4.17-16.62Z"/><path class="cls-1" d="m1509.13,78.33c-2.03-.5-4.4-1.04-7.13-1.59-2.73-.55-5.67-.83-8.8-.83-1.42,0-3.11.13-5.08.38-1.97.26-3.47.53-4.48.84v61.02h-22.62V62.55c4.05-1.42,8.83-2.76,14.34-4.02,5.51-1.26,11.66-1.9,18.44-1.9,1.21,0,2.68.07,4.4.23,1.72.15,3.44.36,5.16.61,1.72.25,3.44.56,5.16.91,1.72.36,3.19.78,4.4,1.29l-3.79,18.67Z"/><path class="cls-1" d="m1592.46,128.12c0,13.05-3.31,22.74-9.94,29.06-6.63,6.32-16.87,9.49-30.73,9.49-4.86,0-9.71-.43-14.57-1.29-4.86-.86-9.36-2-13.51-3.42l3.95-18.97c3.54,1.42,7.26,2.53,11.16,3.34,3.89.81,8.32,1.21,13.28,1.21,6.47,0,11.05-1.42,13.74-4.25,2.68-2.83,4.02-6.47,4.02-10.93v-2.88c-2.43,1.11-4.93,1.95-7.51,2.5-2.58.56-5.39.84-8.42.84-11.03,0-19.48-3.26-25.35-9.79-5.87-6.53-8.8-15.66-8.8-27.4,0-5.87.91-11.21,2.73-16.01,1.82-4.81,4.48-8.93,7.97-12.37,3.49-3.44,7.76-6.1,12.82-7.97,5.06-1.87,10.78-2.81,17.15-2.81,2.73,0,5.54.13,8.42.38,2.88.25,5.74.58,8.58.99,2.83.4,5.54.89,8.12,1.44,2.58.56,4.88,1.14,6.91,1.75v67.09Zm-49.63-32.48c0,12.65,5.11,18.97,15.33,18.97,2.33,0,4.5-.3,6.53-.91,2.02-.61,3.74-1.31,5.16-2.13v-36.12c-1.11-.2-2.43-.38-3.95-.53-1.52-.15-3.29-.23-5.31-.23-5.97,0-10.42,1.97-13.36,5.92-2.94,3.94-4.4,8.96-4.4,15.03Z"/><path class="cls-1" d="m1638.45,35.23c0,4.15-1.34,7.41-4.02,9.79-2.68,2.38-5.84,3.57-9.49,3.57s-6.81-1.19-9.49-3.57c-2.68-2.38-4.02-5.64-4.02-9.79s1.34-7.41,4.02-9.79c2.68-2.38,5.84-3.57,9.49-3.57s6.8,1.19,9.49,3.57c2.68,2.38,4.02,5.64,4.02,9.79Zm-2.12,102.91h-22.62V58.3h22.62v79.84Z"/></g></g></svg>