<?xml version="1.0" encoding="UTF-8"?>
<svg id="Layer_1" data-name="Layer 1" xmlns="http://www.w3.org/2000/svg" viewBox="0 0 55.03 60.99">
  <defs>
    <style>
      .cls-1 {
        fill: #39a3bc;
      }
    </style>
  </defs>
  <g id="ke0wH9">
    <g>
      <path class="cls-1" d="M8.46,40.89l-4.56-2.15c-.46-.36-.5-.89-.18-1.38l5.16-8.09,13.81-5.91c-1.52-3.56-4.02-6.46-2.77-10.6,2.19-7.29,13.06-7.27,15.18,0,1.12,3.86-.7,6.07-2.33,9.24-.11.21-.59,1.04-.49,1.21l13.9,6.1,5.08,8.01c.39.6.31,1.13-.28,1.54l-4.43,2.15-.09,11.16-.16.24-18.76,9.42-18.52-9.18-.51-.54-.07-11.22ZM29.43,25.85c.16-.73.28-1.48.49-2.2,1.16-3.81,5.28-7.32,2.79-11.56-2.17-3.69-7.6-3.97-10.09-.48-3,4.2.93,7.94,2.22,11.82.27.82.41,1.66.59,2.5l4-.08ZM43.1,30.11l-11.53-5.06c-.81,2.59.69,5.47-1.77,7.39-2.21,1.73-5.89.45-6.21-2.38-.18-1.57.18-3.34-.25-4.93l-11.41,4.98,15.61,6.73,15.56-6.73ZM29.28,27.86h-3.86v1.81c0,.07.19.55.24.65.7,1.3,2.7,1.32,3.39.01.04-.08.23-.46.23-.5v-1.97ZM26.15,38.39l-16.27-7.04-3.9,6.28,16.12,7.66,4.04-6.89ZM32.81,45.3l16.27-7.71-3.78-6.19-16.35,6.92,3.86,6.99ZM26.55,59.27v-17.59l-3.18,5.46c-.62.78-1.48.17-2.18-.14-3.63-1.61-7.13-3.53-10.79-5.07v9.28l16.15,8.07ZM44.62,41.92c-3.66,1.55-7.16,3.46-10.79,5.07-.67.3-1.48.88-2.1.22l-3.26-5.54v17.59l16.15-8.07v-9.28Z"/>
      <path class="cls-1" d="M38.1,14.15c.64-.09,3.12-.11,3.72.01,1.12.24,1.07,1.8-.13,1.97-.75.1-2.59.08-3.37,0-1.54-.13-1.52-1.8-.22-1.99Z"/>
      <path class="cls-1" d="M13.27,14.15c.64-.11,3.08-.1,3.72.02,1.19.21,1.17,1.77-.07,1.95-.67.1-3,.11-3.65,0-1.16-.19-1.16-1.77,0-1.97Z"/>
      <path class="cls-1" d="M27.41,0c.55-.06,1,.38,1.06.91.08.72.1,3.08,0,3.77-.16,1.05-1.79,1.07-1.92-.07-.08-.68-.09-3.2.02-3.84.07-.38.46-.72.85-.77Z"/>
      <path class="cls-1" d="M39.62,7.08c.93-.16,1.55,1,.75,1.71-.31.27-2.92,1.8-3.3,1.92-1.02.34-1.74-.81-1-1.57.35-.36,2.26-1.41,2.8-1.7.21-.11.54-.33.76-.37Z"/>
      <path class="cls-1" d="M14.96,7.16c.24-.05.42-.02.64.05.97.29,2.35,1.54,3.36,1.94.67.74.1,1.92-.93,1.65-.94-.24-2.43-1.59-3.41-1.97-.6-.43-.34-1.51.34-1.67Z"/>
      <path class="cls-1" d="M20.34,1.93c.3-.03.62.14.81.36.24.27,1.86,3.02,1.96,3.34.33,1.05-.84,1.67-1.62.98l-1.94-3.28c-.31-.59.16-1.33.8-1.41Z"/>
      <path class="cls-1" d="M36.57,19.53c.29-.04.49.06.75.18.46.22,2.84,1.58,3.12,1.86.77.75-.02,2.01-1.09,1.57s-2.23-1.44-3.28-1.94c-.59-.49-.24-1.56.5-1.67Z"/>
      <path class="cls-1" d="M18.01,19.53c.99-.21,1.67.85.95,1.59-.24.24-3.02,1.89-3.37,2.01-1.03.35-1.78-.89-.97-1.61l3.4-1.99Z"/>
      <path class="cls-1" d="M34.55,1.95c.7-.02,1.19.68.95,1.34-.71.91-1.25,2.5-1.97,3.33-.66.75-1.9,0-1.65-.93l1.98-3.4c.16-.19.44-.34.68-.35Z"/>
    </g>
  </g>
</svg>