<?xml version="1.0" encoding="UTF-8"?><svg id="Camada_1" xmlns="http://www.w3.org/2000/svg" viewBox="0 0 3180.07 889.38"><defs><style>.cls-1{opacity:.15;}</style></defs><path d="m418.78,825.36c-8.73,0-16.83-.25-24.74-.77-76.98-4.61-150.62-30.9-212.95-76.01l-.66-.47c-.38-.26-.75-.53-1.11-.8-1.26-.9-2.59-1.87-3.9-2.87-2.56-1.86-5.22-3.9-8.05-6.18C82.98,671.76,29.04,576.74,15.53,470.73c-2.19-17.12-3.3-34.61-3.3-51.97,0-21.08,1.62-42.2,4.82-62.78,13.27-85.48,52.79-163.18,114.29-224.68C208.1,54.52,310.18,12.23,418.78,12.23h285.9c66.54,0,120.67,54.13,120.67,120.67v285.86c0,72.28-19.18,143.21-55.46,205.11-3.39,5.82-6.64,11.08-9.93,16.07-7.1,10.97-14.94,21.83-23.26,32.27-4.45,5.52-8.46,10.29-12.27,14.59-2.96,3.41-6.01,6.77-9.29,10.22-1.25,1.37-2.58,2.8-3.96,4.2-68.43,70.93-160.1,114.52-258.11,122.71-11.43.95-22.97,1.43-34.29,1.43Zm0-805.18c-106.48,0-206.57,41.46-281.82,116.74-60.3,60.3-99.05,136.48-112.06,220.28-3.14,20.17-4.73,40.89-4.73,61.56,0,17.03,1.09,34.18,3.23,50.97,13.25,103.93,66.14,197.09,148.92,262.33,2.76,2.22,5.31,4.18,7.85,6.02,1.32,1,2.58,1.93,3.84,2.83.37.28.69.5,1,.72l.74.53c61.1,44.22,133.3,69.99,208.79,74.51,7.76.51,15.69.76,24.25.76,11.1,0,22.42-.47,33.63-1.4,96.08-8.03,185.96-50.76,253.08-120.34,1.34-1.36,2.6-2.72,3.84-4.07,3.25-3.42,6.22-6.68,9.12-10.04,3.76-4.24,7.69-8.92,12.05-14.33,8.15-10.22,15.82-20.87,22.81-31.65,3.23-4.89,6.4-10.02,9.72-15.73,35.57-60.69,54.38-130.23,54.38-201.1V132.9c0-62.15-50.57-112.72-112.72-112.72h-285.9Z"/><path d="m418.78,837.59c-8.95,0-17.3-.26-25.53-.79-79.25-4.75-155.11-31.83-219.33-78.31l-.55-.39c-.44-.3-.92-.65-1.39-1.01-1.11-.79-2.56-1.85-3.97-2.93-2.47-1.79-5.29-3.95-8.29-6.37C72.87,679.36,17.32,581.49,3.4,472.28c-2.25-17.64-3.4-35.65-3.4-53.52,0-21.7,1.67-43.46,4.96-64.66,13.67-88.06,54.38-168.1,117.73-231.45C201.76,43.56,306.91,0,418.78,0h285.91c73.28,0,132.9,59.62,132.9,132.9v285.86c0,74.46-19.76,147.53-57.14,211.29-3.47,5.97-6.84,11.42-10.28,16.62-7.27,11.23-15.34,22.42-23.9,33.16-4.58,5.68-8.71,10.59-12.68,15.07-3,3.47-6.16,6.95-9.58,10.55-1.2,1.31-2.63,2.85-4.11,4.35-70.41,72.99-164.84,117.88-265.8,126.32-11.76.98-23.63,1.47-35.31,1.47Zm0-805.18c-103.21,0-200.23,40.18-273.17,113.15-58.46,58.46-96.02,132.29-108.62,213.52-3.04,19.56-4.58,39.64-4.58,59.68,0,16.51,1.05,33.13,3.13,49.42,12.84,100.73,64.11,191.03,144.36,254.27,2.69,2.16,5.08,4,7.45,5.72,1.45,1.09,2.61,1.95,3.76,2.77l1.74,1.25c59.28,42.9,129.25,67.87,202.41,72.26,7.55.49,15.22.73,23.51.73,10.74,0,21.72-.46,32.62-1.36,93.11-7.77,180.23-49.2,245.28-116.64,1.32-1.34,2.48-2.6,3.63-3.84,3.24-3.42,6.11-6.56,8.9-9.78,3.7-4.18,7.52-8.73,11.77-13.99,7.86-9.86,15.29-20.18,22.06-30.63,3.16-4.78,6.22-9.73,9.42-15.23,34.5-58.85,52.72-126.25,52.72-194.95V132.9c0-55.41-45.08-100.49-100.49-100.49h-285.91Z"/><g class="cls-1"><path d="m714.31,562.45l1.81-1.81-1-.97c-.25.93-.53,1.85-.81,2.78Z"/><path d="m407.76,585.51c-.42,6.05-1.64,12.04-1.62,18.04.05,6.46-3.66,9.2-8.8,11.16-1.97.74-3.94,1.58-5.91,2.36-45.1,17.65-88.74,38.34-130.36,63.14-28.86,17.21-56.08,36.74-79.2,61.06-.07.97-.12,1.92-.16,2.85-1.3-.93-2.59-1.88-3.87-2.85-2.71-1.97-5.35-4.01-7.97-6.12-80.86-63.72-136.73-157.74-150.4-264.94-2.15-16.86-3.27-34.03-3.27-51.47,0-21.15,1.62-41.9,4.77-62.17l303.63-187.46,2.66,2.66c-6.49,5.47-11.98,12.35-16.84,20.04-3.98,6.32-4.29,13.09,3.22,18.44-33.91,33.17-45.31,138.15-14.48,184.64-10.49,17.21-12.07,35.93-6.93,54.97,5.28,19.3,17.37,33.49,36.04,41.76-4.89,8.83-4.01,16.24,2.62,23.02,1.23,1.27,1.81,3.2,2.57,4.84,7.34,16.05,26.06,30.99,45.54,27.63,8.08-1.41,12.11.97,15.15,7.78,4.59,10.19,14.52,18.02,13.6,30.6Z"/><polygon points="706.7 274.53 697.2 237.88 603.54 206.66 484.09 210.73 383.65 322.04 315.78 339.68 292.7 438.77 311.71 478.13 347 484.92 382.29 512.07 417.58 518.86 416.22 582.65 417.58 685.81 493.59 749.61 621.19 703.46 623.9 617.94 693.13 559.58 716.2 471.35 716.2 433.34 720.28 408.91 722.99 377.69 706.7 274.53"/></g><path d="m733.48,335.91c-11.81-8.62-13.32-18.74-13.85-30.88-.09-1.85-.12-3.78-.67-5.47-1.3-3.96-.6-6.3,3.73-7.85,8.43-2.96,13.13-9.59,12.67-18.21-.42-9.08-1.41-18.51-4.47-26.99-7.04-19.43-15.47-38.36-23.12-57.03,2.27.23,4.84-.23,7.62-.53-3.15-10.15-10.01-27.61-25.25-44.59-18.37-20.43-39.19-29.26-49.59-32.87-9.27-1.62-18.74-2.57-28.4-2.76-3.22-.09-6.51-3.17-9.61-5.12-3.47-2.13-6.46-5.93-10.1-6.6-32.22-5.7-64.7-6.93-96.87-1.11-18.55,3.36-36.81,9.06-54.67,15.22-18.58,6.35-35.67,16.01-50.84,28.68-3.27,2.73-4.84,6.37-6.58,9.03-2.69,4.12-4.84,8.01-6.58,11.47-3.66-2.22-8.85-2.85-13.37-3.54-2.8-.42-5.93,1.78-8.96,2.04-12.72,1.04-22.89,5.81-31.34,12.99-6.49,5.47-11.98,12.35-16.84,20.04-3.98,6.32-4.29,13.09,3.22,18.44-33.91,33.17-45.31,138.15-14.48,184.64-10.49,17.21-12.07,35.93-6.93,54.97,5.28,19.3,17.37,33.49,36.04,41.76-4.89,8.83-4.01,16.24,2.62,23.02,1.23,1.27,1.81,3.2,2.57,4.84,7.34,16.05,26.06,30.99,45.54,27.63,8.08-1.41,12.11.97,15.15,7.78,4.59,10.19,14.52,18.02,13.6,30.6-.42,6.05-1.64,12.05-1.62,18.04.05,6.46-3.66,9.2-8.8,11.16-1.97.74-3.94,1.58-5.91,2.36-45.1,17.65-88.74,38.34-130.36,63.14-28.86,17.21-56.08,36.74-79.2,61.06,1.83,1.39,3.68,2.73,5.58,4.08,59.95,43.39,132.4,70.56,210.88,75.26,8.08.53,16.24.76,24.48.76,11.44,0,22.77-.49,33.96-1.41,100.09-8.36,189.8-53.32,255.61-121.54,1.34-1.37,2.64-2.76,3.91-4.15-19.67-18.39-41.32-34.33-65.34-47.42-3.13-1.69-6.02-3.75-10.82-6.74,32.59-2.04,50.52-19.78,62.47-45.93,4.73-10.35,8.55-20.99,11.7-31.76.28-.93.56-1.85.81-2.78,0,0,.02,0,0-.02,4.29-15.08,7.32-30.48,9.84-46.07,4.12-25.62,7-51.31,4.08-77.37-.3-2.52,1.69-6.05,3.66-8.04,9.17-9.24,15.4-20.13,18.97-32.52,6.51-22.56,6.32-44.8-14.15-59.74Zm-29.07,162.28c-4.73-9.01-11.28-16.65-10.89-16.52-5.07-7.53-46.74-23.72-61.94-22.45-6.28.53-13.02.56-19.11-.51-.81-.14-1.69-.25-2.64-.32-13.5-1.16-40.1,3.64-45.22,5.37-3.22,1.09-6.39,2.27-9.5,3.52-1.95.86-3.82,1.74-5.67,2.66-2.11,1.07-3.64,2.02-7.71,4.75-2.73,1.83-11.33,7.32-9.82,7.09-4.05,6.95-21.66,18.14-24.46,24.11-1.81,3.87-.39,6.76,2.96,8.87-8.76,10.17-18.83,11.1-38.24,5.61-13.3-3.75-25.92-10.24-38.38-16.42-12.74-6.35-20.68-17.35-23.77-31.15-4.03-18.02-7.13-36.25-10.84-54.34-1.58-7.64,1.6-13.53,5.44-19.69,3.01-4.84,3.4-12.49,7.44-15.17,3.64-2.43,10.63.09,16.15.56,11.56,1,23.12,2.09,35.05,3.15,9.36,43.2,34.19,58.72,70.05,59.34,18.21.3,35.16-3.01,49.08-15.7,9.5-8.64,17.58-21.66,23.67-40.86,8.87,5.72,18.18,10.42,20.48,22.31.83,4.29,3.52,8.22,5.42,12.28,4.01,8.55-.32,16.15-9.8,16.63-3.34.16-6.76-.76-10.1-1.39-6.02-1.16-12.58,1.83-12.65,6.35,0,.65.02,1.27.12,1.83.51,3.57,2.8,5.47,6.09,6.09.97.19,2.02.26,3.15.23,9.08-.21,18.69,1.32,27.05-1.25,6.16-1.9,10.68-9.17,16.93-14.99,15.24,9.29,33.75,11.12,54.06,4.31.74,19.06.58,37.62-2.41,55.71Zm-29.81,52.09c-.95,10.31-11.07,12.67-21.56,10.12-11.16-2.71-18.99-7.23-24.39-16.63-4.17-7.27-10.68-10.35-17.97-7.95-4.63,1.53-9.61,5.93-11.74,10.35-8.83,18.25-34.98,23.74-55.99,14.38-7.46-3.31-8.69-11.3-8.89-18.37-.23-7.32.44-15.03,2.25-22.56,3.89.05,7.74-.07,11.23-.32,5.98-.44,11.72-2.62,17.58-3.98,6.32-1.48,12.44-3.43,18.65-4.79-1.64,1.11-3.43,2.78-3.47,4.19-.05,2.13,1.44,5.21,3.22,6.28,2.8,1.69,6.39,2.62,9.68,2.8,6.86.42,13.71.14,20.59.14v-.23c7.64,0,15.31.37,22.93-.14,5.56-.35,12.42-1.78,12.46-8.43.05-3.94-2.59-5.44-5.67-6.07.9-.28,1.81-.53,2.66-.76,7.11,1.34,16.14,7.39,25.73,12.14,1.39.7,2.78,1.34,4.19,1.97.02.74.02,1.51.02,2.25,0,8.55-.74,17.12-1.51,25.62Zm-72.83,129.34c-5.42,17.44-20.94,24.48-36.83,28.14-.16.05-.35.07-.51.12-28.84,6.53-56.12-.05-81.56-14.31-15.82-8.87-29.42-20.62-40.79-34.81-9.68-12.09-15.47-25.46-14.66-41.39.12-2.55-2.85-5.23-5.28-9.4.35-2.5,1.02-7.11,1.9-13.09,55.55,33.01,113.22,56.15,180.4,54.94-.53,6.67-.35,13.16-.81,19.27-.3,3.64-.81,7.18-1.85,10.54Zm-228.81-232.03c.83,9.13-.39,16.56-9.64,22.03-10.22,6.07-19.97,9.13-31.36,4.61-20.96-8.29-33.15-34.31-26.34-56.4,6.86-22.33,21.56-33.15,43.69-31.8,1.71.09,3.8,1.67,4.93,3.17,16.42,21.66,20.24,24.6,18.69,52.86,0,1.85-.14,3.71.02,5.54Zm80.79-146.93c6.97-9.06,16.19-13.97,23.53-16.77-.32-4.93,0-10.66,3.24-12.46,3.06-1.69,5.77,1.67,12.76,2.15,1.09.07,11.05.6,18.04-6.32,3.08-3.06,4.49-6.49,5.17-8.59,1.44-2.13,3.71-4.66,6.88-5.17,2.02-.35,2.64.6,5.98,1.11,6.95,1.04,13.41,1,18.99-4.84.76-.79,2.2-1.25,3.8-1.44.93-1.58,2.15-2.96,3.71-4.05,2.13-1.48,4.38-2.02,7.78-2.34,8.22-.79,10.33.83,16.63-.09,3.57-.51,2.8-1.02,7.71-2.08,7.53-1.64,12.93-2.83,17.12-.16,5.12,3.29,5.68,10.61,5.86,12.16.6,5.58-1.53,9.8-2.69,12.46-4.31.28-8.43-8.48-13.6-7.78-2.43.35-5.51,2.83-8.22,12.07-.25,3.47-.37,11.93,5.07,18.97,9.29,11.91,29.53,13.13,42.13,4.15,9.45-6.74,11.88-17.44,12.46-20.64.16-4.68-.23-12.25-3.2-20.82,5.74,6.51,10.72,8.25,14.41,8.5,6.97.51,12.11-4.08,19.46-1.6,4.24,1.44,7.02,4.45,8.57,6.51,3.78,4.22,8.38,10.42,11.95,18.74,6.79,15.87,5.81,30.32,4.84,37.43-5.4-.53-10.54-1.67-15.64-1.44-12.32.6-24.9.49-36.83,3.13-15.08,3.34-25.55,13.39-30.25,28.68-7.92,1.48-13.3.49-17.42-8.2-7.48-15.77-22.4-21.26-38.82-23.77-24.11-3.66-48.04-3.17-71.27,4.45-4.7,1.55-8.78,3.41-12.28,5.61-11.7,7.34-16.86,18.62-17.53,35.32-.07,1.53-.19,3.08-.35,5.47-7.13-.6-13.92-1.13-20.71-1.74,4.66-13.3-4.19-43.45,12-65.64.21-.32.44-.63.69-.95Zm251.72,111.14c1.09,9.45.23,11.51-8.87,14.41-19.23,6.14-40.63-2.04-50.33-19.83-8.15-14.92-11.37-31.09-9.45-48.04,1.09-9.68,6.81-15.96,15.94-18.67,14.45-4.26,29.19-4.45,43.87-1.48,1.71.35,4.17,2.64,4.33,4.22,1.04,9.71,1.53,19.46,2.2,29.19-.37.02.81,26.87,2.32,40.21Zm-136.55,5.68c-10.68,8.76-25.13,12.55-40.74,10.65-35.65-4.33-47.23-26.22-47.42-63.17-.07-11.91,3.82-19.34,12.11-23.53,3.27-1.67,7.25-2.83,11.93-3.57,10.68-1.67,21.5-2.57,33.96-4.01,9.73,1.51,21.08,2.55,32.08,5.14,11.72,2.78,17.88,11.51,18.62,23.63.9,14.11-2.27,27.38-8.57,39.86-3.03,5.98-7.11,11-11.98,14.99Z"/><path d="m351.86,446.54c.76-.92,2.9-.92,3.36-1.86,2.3-4.69,6.28-9.7,5.94-14.32-.88-12.16-24.09-25.63-35.26-20.72-3.26,1.43-4.95,6.43-7.37,9.79,2.48,2.71,6.12,5.92,9.39,5.09,3.03-.78,3.37-4.43,6.11-5.5,2.42-.95,6.77.08,15.28,9.47-1.19,1.04-4.58,4.28-5.8,9.78-1.27,5.68.58,10.2,1.22,11.61"/><path d="m1156.91,18.95v132.44h-130.92V18.95h-77.95v346.31h77.95v-146.93h130.92v146.93h77.95V18.95h-77.95Z"/><path d="m1492.89,113.64c-23.14-24.34-54.57-36.51-94.37-36.51-17.06,0-33.67,3.2-49.85,9.57-16.17,6.41-30.47,15.81-42.88,28.27-12.45,12.45-22.5,27.99-30.11,46.64-7.65,18.66-11.49,40.4-11.49,65.3,0,20.58,2.92,39.8,8.81,57.57,5.85,17.74,14.93,33.11,27.18,46.08,12.25,12.97,27.7,23.18,46.36,30.67,18.66,7.45,40.6,11.17,65.82,11.17,9.97,0,19.9-.52,29.87-1.6,9.93-1.04,19.26-2.4,27.99-4,8.69-1.56,16.61-3.44,23.7-5.56,7.13-2.16,12.81-4.28,17.06-6.41l-10.65-64.5c-8.89,3.92-20.34,7.21-34.39,9.85-14.01,2.68-28.35,4-42.88,4-22.74,0-40.88-4.8-54.37-14.37-13.53-9.61-21.18-22.58-22.94-38.92h180.16c.36-4.28.72-9.17,1.08-14.65.32-5.53.52-10.57.52-15.21,0-47.24-11.57-83.04-34.63-107.38Zm-147.13,82.88c1.08-6.77,2.76-13.41,5.08-19.98,2.28-6.57,5.57-12.37,9.85-17.34,4.24-4.96,9.61-8.97,15.97-12.01,6.41-3,14.05-4.52,22.94-4.52s16.98,1.6,23.18,4.8c6.21,3.2,11.37,7.29,15.45,12.25,4.08,5,7.09,10.69,9.05,17.06,1.96,6.41,3.12,12.97,3.48,19.74h-105.02Z"/><path d="m1803.66,154.4c-3.92-15.61-10.49-29.11-19.74-40.52-9.21-11.37-21.74-20.14-37.55-26.38-15.81-6.21-35.63-9.33-59.41-9.33s-45.84,1.72-67.18,5.08c-21.3,3.36-38.72,7.01-52.25,10.93v270.77h79.43v-216.4c4.96-.72,10.65-1.36,17.06-1.88,6.41-.52,12.45-.8,18.14-.8,18.46,0,31.07,5.32,37.83,16.01,6.73,10.65,10.13,28.79,10.13,54.33v148.74h79.43v-158.3c0-19.22-1.96-36.59-5.89-52.25Z"/><path d="m2018.49,84.85c-6.05-1.24-12.05-2.32-18.1-3.2-6.05-.88-12.09-1.6-18.14-2.12-6.05-.56-11.17-.8-15.45-.8-23.82,0-45.4,2.2-64.74,6.65-19.38,4.44-36.19,9.17-50.41,14.13v265.44h79.43v-214.27c3.56-1.08,8.81-2.04,15.73-2.92,6.93-.88,12.85-1.36,17.86-1.36,11.01,0,21.3,1,30.91,2.96,9.61,1.96,17.94,3.8,25.06,5.57l13.29-65.54c-4.24-1.76-9.41-3.28-15.45-4.52Z"/><path d="m2074.46,84.57v280.37l79.43-1.08V84.57h-79.43Z"/><path d="m2447.04,88.02c-9.29-1.92-18.9-3.6-29.03-5-10.09-1.48-20.46-2.64-30.91-3.52-10.53-.84-20.58-1.28-30.15-1.28-23.14,0-43.72,3.52-61.86,10.69-18.1,7.01-33.35,17.14-45.8,30.07-12.49,12.97-21.98,28.43-28.47,46.36-6.61,18.02-9.93,37.71-9.93,59.45,0,44.8,10.45,80.19,31.47,106.3,20.98,26.1,51.37,39.24,91.12,39.24,10.97,0,21.34-1.08,30.91-3.2,9.61-2.12,18.86-5.2,27.71-9.05v95.33h79.43V94.22c-7.13-2.12-15.25-4.16-24.5-6.21Zm-54.93,203.94c-5,3.2-11.37,5.85-19.38,8.01-8.01,2.12-16.09,3.2-24.3,3.2-37.63,0-56.49-25.5-56.49-76.23,0-24.54,5.52-44.24,16.49-58.97,11.01-14.69,27.42-22.06,49.04-22.06,7.17,0,13.65.2,19.74.76,6.05.52,10.97,1.16,14.89,1.92v143.37Z"/><path d="m2684.78,84.57v216.4c-4.96.72-10.65,1.36-17.06,1.88-6.37.52-12.41.8-18.1.8-18.5,0-31.11-5.69-37.87-17.06-6.73-11.37-10.09-29.87-10.09-55.45V84.57h-79.43v156.18c0,19.18,1.96,36.75,5.85,52.77,3.92,15.97,10.49,29.75,19.74,41.32,9.25,11.53,21.74,20.5,37.55,26.9,15.81,6.41,35.63,9.57,59.45,9.57s45.84-1.68,67.14-5.04c21.34-3.36,38.76-7.01,52.25-10.93V84.57h-79.43Z"/><path d="m3030.73,113.64c-23.1-24.34-54.53-36.51-94.33-36.51-17.06,0-33.67,3.2-49.85,9.57-16.17,6.41-30.47,15.81-42.88,28.27-12.45,12.45-22.5,27.99-30.15,46.64-7.65,18.66-11.45,40.4-11.45,65.3,0,20.58,2.92,39.8,8.81,57.57,5.85,17.74,14.93,33.11,27.18,46.08,12.25,12.97,27.71,23.18,46.36,30.67,18.66,7.45,40.6,11.17,65.82,11.17,9.97,0,19.9-.52,29.87-1.6,9.93-1.04,19.26-2.4,27.99-4,8.69-1.56,16.58-3.44,23.7-5.56,7.09-2.16,12.81-4.28,17.06-6.41l-10.65-64.5c-8.89,3.92-20.34,7.21-34.39,9.85-14.05,2.68-28.35,4-42.92,4-22.74,0-40.84-4.8-54.37-14.37-13.49-9.61-21.14-22.58-22.9-38.92h180.16c.36-4.28.68-9.17,1.04-14.65.36-5.53.56-10.57.56-15.21,0-47.24-11.57-83.04-34.67-107.38Zm-147.09,82.88c1.08-6.77,2.76-13.41,5.04-19.98,2.32-6.57,5.6-12.37,9.89-17.34,4.24-4.96,9.57-8.97,15.97-12.01,6.41-3,14.05-4.52,22.94-4.52s16.94,1.6,23.18,4.8c6.21,3.2,11.37,7.29,15.45,12.25,4.08,5,7.09,10.69,9.05,17.06,1.96,6.41,3.12,12.97,3.48,19.74h-105.02Z"/><path d="m1146.14,606.73v120.43c-4.64,1-10.05,1.68-16.21,2-6.17.32-13.57.48-22.26.48-15.97,0-29.99-2.72-41.96-8.25-12.01-5.48-21.98-13.21-29.99-23.22s-13.97-21.9-17.98-35.71c-4-13.81-6.01-29.23-6.01-46.24,0-34.95,8.09-62.54,24.22-82.68,16.17-20.18,42.4-30.27,78.71-30.27,16.34,0,31.39,2.12,45.24,6.25,13.81,4.2,26.06,9.09,36.71,14.77l22.5-62.46c-2.68-1.68-7.09-4-13.25-7.01-6.17-3-14.01-5.93-23.5-8.77-9.49-2.8-20.82-5.32-33.99-7.49-13.13-2.16-27.87-3.24-44.2-3.24-23.98,0-46.56,4-67.7,12.01-21.18,7.97-39.56,19.74-55.21,35.23-15.69,15.49-27.99,34.39-36.99,56.69-9.01,22.34-13.49,47.96-13.49,76.95s4.08,54.17,12.25,76.47c8.17,22.3,19.74,41.16,34.71,56.45,15.01,15.33,33.07,26.98,54.21,34.99,21.18,8.01,44.76,12.01,70.74,12.01,30.31,0,55.77-2.12,76.43-6.25,20.66-4.2,35.63-8.09,44.96-11.77v-171.4h-77.95Z"/><path d="m1494.74,568.53c-3.92-14.21-10.57-26.3-19.98-36.23-9.45-9.97-21.94-17.62-37.59-22.94-15.61-5.32-35.19-8.01-58.61-8.01-9.25,0-18.42.48-27.46,1.36-9.05.88-17.7,1.92-25.86,3.16-8.17,1.28-15.69,2.68-22.62,4.28-6.97,1.6-12.73,3.12-17.34,4.52l10.13,63.98c9.57-3.56,20.94-6.33,34.11-8.29,13.13-1.92,26.46-2.92,39.96-2.92,20.26,0,34.47,4.08,42.64,12.25,8.17,8.21,12.29,19.02,12.29,32.55v7.45c-5-1.44-11.49-2.6-19.46-3.48-8.01-.88-17.18-1.32-27.46-1.32-15.29,0-30.03,1.52-44.24,4.52-14.21,3.04-26.82,7.93-37.83,14.65-11.01,6.77-19.82,15.81-26.38,27.18-6.57,11.37-9.85,25.26-9.85,41.6s2.84,31.43,8.53,43.16c5.69,11.73,13.85,21.22,24.5,28.51,10.65,7.29,23.38,12.53,38.11,15.73s31.19,4.8,49.28,4.8c28.79,0,53.33-1.68,73.59-5.08,20.22-3.36,36.03-6.29,47.4-8.77v-165.23c0-17.42-1.96-33.23-5.85-47.44Zm-70.34,163.07c-4.28.72-9.97,1.28-17.06,1.6-7.13.36-14.57.56-22.42.56-14.57,0-26.02-2.4-34.35-7.21-8.37-4.8-12.53-13.41-12.53-25.86,0-6.37,1.4-11.73,4.24-15.97,2.84-4.28,6.77-7.65,11.73-10.13,4.96-2.48,10.77-4.16,17.34-5.04,6.57-.88,13.57-1.36,21.06-1.36,5.32,0,11.17.36,17.58,1.08,6.41.72,11.21,1.44,14.41,2.12v60.21Z"/><path d="m1930.89,578.66c-3.16-15.65-9.05-29.15-17.58-40.52-8.53-11.37-19.98-20.18-34.39-26.38-14.37-6.21-32.75-9.33-55.13-9.33-12.45,0-26.06,2.32-40.8,6.93-14.73,4.6-27.78,11.01-39.16,19.18-8.21-7.09-18.58-13.21-31.19-18.38-12.61-5.16-29.07-7.73-49.32-7.73-10.29,0-20.78.44-31.43,1.32-10.65.88-21.06,2.12-31.19,3.72-10.13,1.6-19.74,3.4-28.79,5.36-9.05,1.92-16.98,3.8-23.7,5.57v270.77h79.39v-216.4c5-.68,10.13-1.32,15.45-1.84,5.33-.56,10.49-.8,15.45-.8,16.01,0,27.26,5.32,33.87,15.97,6.57,10.65,9.85,28.79,9.85,54.37v148.69h79.43v-152.94c0-10.33-.36-20.02-1.08-29.07-.72-9.05-2.32-17.66-4.8-25.86,5-3.2,11.29-5.85,18.94-7.97,7.65-2.16,13.57-3.2,17.86-3.2,15.97,0,27.26,5.32,33.83,15.97,6.57,10.65,9.89,28.79,9.89,54.37v148.69h79.39v-158.3c0-19.18-1.6-36.59-4.8-52.21Z"/><path d="m2232.93,589.03c-5.33-17.94-13.17-33.31-23.46-46.08-10.29-12.81-23.1-22.66-38.35-29.59-15.29-6.93-32.87-10.41-52.77-10.41-11.05,0-21.34,1.08-30.95,3.2-9.57,2.12-18.82,5.16-27.7,9.05v-97.09l-79.39,2.2v359.81c7.09,2.12,15.25,4.16,24.5,6.13,9.25,1.96,18.94,3.64,29.07,5.08,10.13,1.4,20.42,2.56,30.91,3.44,10.45.88,20.5,1.36,30.11,1.36,23.1,0,43.72-3.48,61.82-10.41,18.14-6.93,33.39-16.82,45.84-29.59,12.45-12.81,21.94-28.27,28.51-46.36,6.61-18.14,9.89-38.39,9.89-60.78s-2.68-42.04-8.01-59.97Zm-89.56,117.03c-11.01,14.89-27.34,22.38-49,22.38-7.13,0-13.69-.28-19.74-.8-6.05-.56-11.01-1.16-14.93-1.88v-144.45c4.96-3.2,11.45-5.85,19.46-7.97,8.01-2.16,16.09-3.2,24.26-3.2,37.67,0,56.49,25.58,56.49,76.75,0,24.5-5.53,44.24-16.54,59.17Z"/><path d="m2532.04,588.23c-6.77-18.1-16.17-33.55-28.23-46.36-12.09-12.81-26.58-22.74-43.48-29.83-16.86-7.13-35.43-10.69-55.69-10.69s-38.27,3.56-55.17,10.69c-16.86,7.09-31.43,17.02-43.68,29.83s-21.86,28.27-28.79,46.36c-6.93,18.14-10.41,38.19-10.41,60.25s3.4,42.2,10.13,60.49c6.77,18.3,16.17,33.91,28.27,46.88,12.05,12.97,26.54,23.02,43.44,30.15,16.86,7.09,35.63,10.65,56.21,10.65s39.92-3.56,56.77-10.65c16.9-7.13,31.35-17.18,43.44-30.15,12.09-12.97,21.34-28.59,27.75-46.88,6.37-18.3,9.57-38.47,9.57-60.49s-3.36-42.12-10.13-60.25Zm-85.56,118.63c-9.77,14.37-23.7,21.58-41.84,21.58s-32.15-7.21-42.08-21.58c-9.97-14.41-14.93-33.87-14.93-58.37s4.96-43.8,14.93-57.85c9.93-14.01,23.98-21.06,42.08-21.06s32.07,7.05,41.84,21.06c9.77,14.05,14.69,33.31,14.69,57.85s-4.92,43.96-14.69,58.37Z"/><path d="m2756.04,509.08c-6.05-1.24-12.05-2.28-18.1-3.2-6.05-.88-12.09-1.56-18.14-2.12-6.05-.52-11.17-.8-15.45-.8-23.82,0-45.4,2.24-64.78,6.69-19.34,4.44-36.15,9.13-50.37,14.09v265.44h79.43v-214.23c3.56-1.08,8.81-2.04,15.73-2.96,6.93-.88,12.85-1.32,17.86-1.32,11.01,0,21.3.96,30.91,2.92,9.61,1.96,17.94,3.84,25.06,5.61l13.29-65.54c-4.24-1.8-9.41-3.32-15.45-4.56Z"/><path d="m3018.6,512.28c-9.09-1.96-18.58-3.64-28.55-5.04-9.93-1.44-19.98-2.6-30.11-3.48-10.13-.88-19.98-1.32-29.59-1.32-22.38,0-42.44,3.28-60.21,9.85-17.78,6.61-32.79,15.93-45.04,27.99-12.25,12.09-21.58,26.58-27.99,43.44-6.41,16.9-9.57,35.63-9.57,56.25,0,41.2,10.29,73.27,30.91,96.21,20.58,22.9,50.25,34.35,89,34.35,10.65,0,20.5-.96,29.59-2.92,9.05-1.96,17.86-4.88,26.38-8.77v10.09c0,15.65-4.72,28.43-14.13,38.39-9.41,9.93-25.5,14.93-48.24,14.93-17.42,0-32.95-1.44-46.64-4.28-13.69-2.84-26.74-6.73-39.16-11.73l-13.85,66.62c14.57,5,30.35,9.01,47.44,12.01,17.06,3,34.11,4.52,51.17,4.52,48.64,0,84.64-11.09,107.9-33.31,23.3-22.22,34.95-56.21,34.95-102.05v-235.61c-7.13-2.12-15.21-4.16-24.26-6.13Zm-55.17,183.65c-5,2.84-11.01,5.32-18.14,7.45-7.09,2.12-14.73,3.2-22.9,3.2-35.91,0-53.85-22.22-53.85-66.62,0-21.34,5.16-38.92,15.45-52.77,10.33-13.85,25.94-20.82,46.92-20.82,7.09,0,13.33.28,18.66.8,5.32.56,9.93,1.16,13.85,1.88v126.88Z"/><path d="m3100.68,508.84v280.33h79.39v-280.33h-79.39Z"/></svg>