<?xml version="1.0" encoding="UTF-8"?><svg id="Camada_1" xmlns="http://www.w3.org/2000/svg" viewBox="0 0 163.46 163.46"><defs><style>.cls-1{fill:#fff;}</style></defs><g id="vfX1i2.tif"><path class="cls-1" d="m140.27,63.84c-.03,1.33-.48,2.26-1.36,3-2.27,1.92-4.54,3.84-6.81,5.76-1.54,1.3-3.11,2.58-4.61,3.92-3.01,2.7-3.04,7.65-.06,10.37,1.6,1.46,3.29,2.82,4.94,4.22,2.24,1.9,4.5,3.77,6.7,5.7,1.14.99,1.45,2.31.99,3.75-1.62,5-3.86,9.7-6.71,14.12-1.8,2.8-3.82,5.43-6.06,7.89-1.09,1.19-2.43,1.56-3.95,1.04-3.15-1.09-6.29-2.23-9.44-3.35-1.57-.56-3.14-1.15-4.72-1.66-3.68-1.19-7.76.89-8.93,4.57-.36,1.14-.53,2.34-.75,3.52-.73,3.96-1.45,7.91-2.18,11.87-.28,1.51-1.4,2.61-2.95,2.92-3.22.65-6.47,1.08-9.75,1.23-3.36.15-6.72.08-10.06-.36-1.84-.24-3.67-.56-5.5-.87-1.59-.28-2.69-1.37-2.99-2.97-.65-3.48-1.28-6.96-1.91-10.44-.25-1.36-.46-2.72-.76-4.07-.95-4.35-5.35-6.78-9.57-5.29-4.54,1.61-9.08,3.23-13.62,4.85-1.58.56-3.04.2-4.16-1.06-3.44-3.82-6.36-7.99-8.75-12.54-1.59-3.02-2.92-6.16-3.96-9.41-.47-1.46-.14-2.78,1.02-3.79,2.29-1.99,4.62-3.93,6.93-5.89,1.52-1.29,3.08-2.55,4.57-3.88,2.4-2.15,3.01-5.71,1.52-8.57-.47-.9-1.12-1.66-1.89-2.32-3.63-3.06-7.26-6.13-10.89-9.2-1.38-1.17-1.75-2.57-1.18-4.28,1.19-3.56,2.68-6.99,4.49-10.28,1.92-3.47,4.15-6.73,6.71-9.76.49-.58.98-1.15,1.49-1.71,1.08-1.18,2.42-1.55,3.93-1.03,3.66,1.27,7.3,2.59,10.95,3.89,1.06.38,2.11.78,3.18,1.11,4.16,1.29,8.43-1.27,9.25-5.55.71-3.74,1.37-7.48,2.06-11.23.19-1.05.38-2.09.58-3.14.32-1.6,1.41-2.65,3-2.97,3.25-.65,6.53-1.08,9.84-1.22,3.33-.15,6.66-.07,9.97.36,1.79.23,3.57.54,5.35.85,1.81.32,2.82,1.41,3.15,3.23.6,3.32,1.21,6.65,1.82,9.97.27,1.48.52,2.96.82,4.42.65,3.11,3.54,5.49,6.71,5.59,1.03.03,2.01-.14,2.98-.49,4.5-1.61,9-3.21,13.5-4.81,1.55-.55,3-.17,4.11,1.06,3.76,4.18,6.9,8.78,9.4,13.81,1.31,2.64,2.42,5.36,3.33,8.16.11.36.15.73.19.92Zm-76.37,17.86c0,9.82,7.95,17.84,17.72,17.85,9.93.01,17.92-7.93,17.93-17.82.01-9.8-7.98-17.82-17.78-17.82-9.87,0-17.87,7.96-17.87,17.79Z"/></g></svg>