<?xml version="1.0" encoding="UTF-8"?><svg id="Camada_1" xmlns="http://www.w3.org/2000/svg" viewBox="0 0 163.46 163.46"><defs><style>.cls-1{fill:#040c58;}.cls-2{fill:#030f5a;}.cls-3{fill:#012068;}.cls-4{fill:#061461;}.cls-5{fill:#051260;}.cls-6{fill:#001f68;}.cls-7{fill:#002069;}.cls-8{fill:#020c5e;}.cls-9{fill:#fefefe;}.cls-10{fill:#fbfaf7;}.cls-11{fill:#fdfdfe;}.cls-12{fill:#fdfefe;}.cls-13{fill:#c20b20;}.cls-14{fill:#c2051a;}.cls-15{fill:#c3091d;}.cls-16{fill:#c30e25;}.cls-17{fill:#d3464c;}.cls-18{fill:#e07371;}.cls-19{fill:#c60017;}.cls-20{fill:#c80f2e;}.cls-21{fill:#c93840;}.cls-22{fill:#c70f2d;}.cls-23{fill:#c70f2c;}.cls-24{fill:#c6cedb;}.cls-25{fill:#ad1519;}</style></defs><path class="cls-25" d="m140.78,115.39c.16-.53.31-1.05.47-1.58,1.7.84,3.41,1.69,5.11,2.53-1.7-.84-3.41-1.69-5.11-2.53-.16.53-.31,1.05-.47,1.58Z"/><path class="cls-25" d="m136.65,129.32c.07,0,.14,0,.21,0-.07,0-.14,0-.21,0Z"/><path class="cls-25" d="m55.84,116.26c-.06-.03-.14-.09-.19-.07.05-.02.13.04.19.07,0,0,0,0,0,0Z"/><path class="cls-25" d="m108.03,101.61h0c1.45,0,2.9,0,4.35,0-1.45,0-2.9,0-4.35,0h0Z"/><path class="cls-25" d="m114.74,117.72c.07.07.13.15.19.22-.06-.07-.12-.15-.19-.22-.82-.37-1.65-.74-2.49-1.12.84.38,1.67.75,2.49,1.12Z"/><path class="cls-25" d="m12.91,55.35c.16,0,.32,0,.48,0-.16,0-.32,0-.48,0h0Z"/><path class="cls-25" d="m28.95,113.35h0c-.07,0-.15,0-.22,0h.22Z"/><path class="cls-25" d="m154.96,30.45c.46-.16.93-.31,1.39-.47.16-.15.31-.31.47-.46-.16.15-.31.31-.47.46-.46.16-.93.31-1.39.47Z"/><path class="cls-25" d="m128.91,55.24c.47,0,.94,0,1.41,0,2.98.01,5.95.04,8.93.03-2.98,0-5.95-.02-8.93-.03-.47,0-.94,0-1.41,0Z"/><path class="cls-25" d="m141.48,112.84c-.47.15-.93.3-1.4.45-.39.31-.77.63-1.15.94.38-.31.77-.63,1.16-.94.47-.15.93-.3,1.4-.45Z"/><path class="cls-25" d="m35.69,113.36c.23,0,.47-.01.7-.02.54.07,1.09.13,1.63.2l-1.63-.2c-.23,0-.47.01-.7.02Z"/><path class="cls-25" d="m141.28,113.24c.53,0,1.05,0,1.58,0,.24,0,.48,0,.72,0h0c-.24,0-.48,0-.72,0-.53,0-1.05,0-1.58,0h0Z"/><path class="cls-25" d="m58.45,101.61c.1,0,.2,0,.3,0,.21,0,.42,0,.63,0h-.63c-.1,0-.2,0-.3,0Z"/><path class="cls-25" d="m64.31,100.62c-.12-.08-.27-.11-.43-.11.16,0,.31.03.43.11Z"/><path class="cls-25" d="m142.86,113.25c-.15-.06-.3-.13-.45-.19-.17-.22-.35-.43-.52-.65.17.22.35.43.52.65.15.06.3.12.45.19Z"/><path class="cls-25" d="m143.68,113.29l.06-.02s-.06.02-.06.02Z"/><path class="cls-25" d="m20.82,36.25c.08-.02.16-.04.25-.07-.08.03-.17.05-.25.07h0Z"/><path class="cls-25" d="m158.88,113.26c-.21-.01-.42-.02-.63-.03-.71.03-1.42.06-2.13.1.71-.03,1.42-.06,2.13-.1.21.01.42.02.63.03Z"/><path class="cls-25" d="m143.78,113.26h0c1.48.02,2.96.04,4.43.06-1.48-.02-2.96-.04-4.43-.06Z"/><path class="cls-25" d="m64.72,2.36h0c0-.16,0-.31,0-.47,0,.16,0,.31,0,.47Z"/><path class="cls-25" d="m115.91,49.94l-.7.46c-.23.08-.46.16-.7.23.23-.08.46-.16.7-.23.23-.15.47-.31.7-.46Z"/><path class="cls-25" d="m99.4,1.78c0-.42-.03-.85-.05-1.27h0c.02.42.05.85.05,1.27Z"/><path class="cls-25" d="m2,133.8c.07-.02.15-.05.22-.07h0c-.07.02-.15.05-.22.07Z"/><path class="cls-25" d="m127.76,52.07s.04-.06.07-.07c-.03.01-.05.03-.07.07Z"/><path class="cls-25" d="m118.23,48.78c.31-.08.62-.16.93-.23.31-.23.62-.46.93-.69-.31.23-.62.46-.93.69-.31.08-.62.16-.93.23Z"/><path class="cls-25" d="m99.41,66.95s.04-.08.01-.13c.02.05.02.09-.01.13,0,0,0,0,0,0Z"/><path class="cls-25" d="m115.67,50.41c.08-.15.16-.31.23-.46.39-.16.77-.31,1.16-.47-.39.16-.77.31-1.16.47-.08.15-.16.31-.23.46Z"/><path class="cls-25" d="m13.84,55.35h0c-.15,0-.3,0-.45,0h.45Z"/><path class="cls-25" d="m129.62,51.14c-.57.29-1.13.58-1.7.86h0c.57-.29,1.13-.58,1.7-.86Z"/><path class="cls-25" d="m64.45,100.79c.04.07.06.16.08.27-.01-.11-.04-.2-.08-.27Z"/><path class="cls-25" d="m64.71,101.74c-.04-.06-.08-.13-.12-.19.04.06.08.13.12.19h0Z"/><path class="cls-25" d="m16.63,55.35h0c-.07,0-.14,0-.22,0,.07,0,.14,0,.22,0Z"/><path class="cls-25" d="m11.05,55.35h0c-.15,0-.3,0-.45,0,.15,0,.3,0,.45,0Z"/><path class="cls-25" d="m131.25,51.33c0-.35,0-.7,0-1.05h0c0,.35,0,.7,0,1.05h0Z"/><path class="cls-25" d="m11.64,31.56c.97.48,1.93.96,2.9,1.44.23.15.47.31.7.46-.23-.15-.47-.31-.7-.46-.97-.48-1.93-.96-2.9-1.44Z"/><path class="cls-20" d="m97.08,105.58c0-.54.07-1.07.13-1.6.08-.62.25-1.25-.77-1.23-.15,0-.46-.45-.43-.67.07-.56.16-1.21.5-1.61.18-.22.87-.04,1.33.07.67.02,1.23-1.61,2.02,0,21.44,0,42.87,0,64.31,0v-.69c-20.61,0-41.22,0-61.83,0h-1.45c-.05-.16-.1-.32-.14-.47.33-.15.66-.43,1-.44,4.04-.11,8.08-.25,12.11-.24,16.77.04,33.54.13,50.31.19v-29.91c-19.72,0-39.44,0-59.17-.03-2.52,0-5.04-.32-7.49-.49-.12-.44-.19-.58-.2-.72-.09-3.24-.23-6.48-.23-9.72-.02-17.98-.01-35.97-.01-53.96,0-.99-.09-1.99.03-2.97.08-.68.44-1.32.67-1.98-.08-.31-.15-.62-.23-.93-8.72,0-17.43,0-26.15-.02-.34,0-.69-.17-1.03-.31h-3.17c-.19.5-.38.99-.57,1.49.38.98.93,1.94,1.11,2.96.24,1.35.27,2.76.28,4.14.02,17.14.02,34.27,0,51.41,0,1.89-.13,3.77-.24,5.66-.02.37-.27.72-.34,1.09-.1.54-.11,1.11-.21,1.65-.13.68-.23,1.39-.51,2.02-.27.6-.76,1-1.47.42-.16-.13-.43-.16-.65-.16-14.24,0-28.48-.01-42.71-.01-7.52,0-15.05,0-22.57,0v30.18c20.52,0,41.05,0,61.57,0,1.15,0,2.31.12,3.46.25.32.03.65.23.93.41.58.37,1.16.76,1.71,1.18.27.21.65.47.69.76.18,1.19.34,2.4.35,3.6.02,19.43.02,38.87,0,58.3h27.21c0-18,0-36,0-54v-4.55c.12-.01.24-.02.37-.03.09,1.05.22,2.1.27,3.15.02.53-.16,1.06-.16,1.6,0,17.94,0,35.89,0,53.83h1.41c0-.06,0-.11,0-.17-.02-19.15-.02-38.3,0-57.44Zm1.96-36.01c.07,0,.14-.02.2-.03.04.23.07.45.11.68-.1,0-.21.01-.31.02v-.67Zm-38.41.58c0-.1,0-.21,0-.31h3.04c0,.1.02.21.02.31h-3.05Zm35.03-5.04c-.12,0-.23,0-.35,0V2.06c.11,0,.23,0,.35,0v63.04Z"/><path class="cls-9" d="m25.23,128.85c8.83-4.43,17.66-8.88,26.49-13.32.39-.19.82-.3,1.4-.51v1.31c.01,6.95.03,13.89.04,20.84.01,8.68.02,17.36.02,26.04h1.33c0-16.09,0-32.18,0-48.27l-1.39-1.62h-1.63c-.31.15-.62.31-.93.46-.23.08-.46.15-.7.23-1.01.62-2.01,1.24-3.02,1.86-.23.08-.46.15-.7.23-.54.23-1.08.46-1.63.7-.23.08-.46.15-.7.23-.39.31-.77.62-1.16.93h-.46c-.31.23-.62.46-.93.7-.31.08-.62.15-.93.23-.15.08-.31.15-.46.23-.23.15-.46.31-.7.46h-.23c-1.01.54-2.01,1.08-3.02,1.62-.62,1.41-2.11,1.49-3.25,2.09h-.46c-1.13.62-2.25,1.25-3.38,1.87-.17.09-.4.1-.53.22-1.06.98-2.39,1.38-3.68,1.93-1.48.63-2.83,1.57-4.26,2.31-.97.5-2.01.88-3,1.34-.71.33-1.4.7-2.1,1.05-1.83.91-3.67,1.79-5.48,2.74-1.52.8-2.97,1.72-4.5,2.49-1.5.76-3.07,1.38-4.6,2.08-.47.22-.93.45-1.39.69v1.81c1.84-.92,3.69-1.84,5.53-2.76,6.81-3.4,13.61-6.8,20.41-10.21Z"/><path class="cls-9" d="m3.46,135.12c.86-.39,1.72-.78,2.58-1.19,1.08-.52,2.16-1.05,3.22-1.61.86-.46,1.7-.96,2.54-1.46.16-.09.29-.26.45-.34,1.16-.59,2.3-1.19,3.48-1.73.93-.42,1.9-.72,2.84-1.12.75-.32,1.48-.69,2.21-1.05,1.16-.58,2.33-1.13,3.47-1.76.89-.49,1.71-1.09,2.58-1.6.69-.4,1.39-.84,2.14-1.08,1.3-.41,2.45-1.04,3.59-1.78.83-.54,1.92-.67,2.83-1.12.9-.44,1.71-1.08,2.59-1.59.53-.31,1.11-.53,1.67-.79,1.08-.5,2.16-1.01,3.25-1.51v-.23l-.96-.94c-.07,0-.14.01-.2.03-.24.14-.47.28-.71.42l-2.08.67c-.7.32-1.4.65-2.1.97-.31.15-.62.31-.93.46-.78.45-1.56.91-2.34,1.36-.32.52-.58,1.17-1.4.69-.15.07-.3.14-.45.22-.19.11-.38.21-.57.32-.05.01-.08.04-.1.08,0,.16,0,.32.01.48-.25-.06-.5-.12-.76-.18-.15.08-.31.16-.46.23-.1.97-.62,1.1-1.4.69-.15.08-.31.16-.46.23-.1.97-.62,1.09-1.4.69-.15.08-.31.16-.46.23-.1.97-.62,1.09-1.4.7-.46.24-.93.47-1.39.71-.29.12-.58.25-.87.37-5.44,2.69-10.89,5.38-16.33,8.07-.08.06-.15.12-.23.17-.54.25-1.09.5-1.63.76l-.23.17c-.16.07-.31.15-.47.22-.15.08-.31.16-.46.24-.23.1-.47.19-.7.29-.08.06-.15.12-.23.17,0,0,0,0,0,0-.07.02-.15.05-.22.07-.08.05-.16.1-.25.16.06.64-.21.76-.74.45-.3.15-.6.3-.89.46-.04.66-.36.75-.83.54v1.61c.45-.24.91-.45,1.37-.66.93-.42,1.87-.81,2.8-1.23Z"/><path class="cls-9" d="m63.14,105.08c-.01,19.37-.02,38.74.02,58.11h1.57c.01-7.14.03-14.27.03-21.41,0-11.97,0-23.95,0-35.92,0-.46-.02-.92-.04-1.39,0-.15,0-.3,0-.45,0-.47,0-.93,0-1.4-.03-.05-.06-.11-.07-.16,0-.01.05-.04.07-.06l-.02-.47c-.07-.03-.13-.08-.16-.15-.09-.06-.18-.11-.27-.17-.15.01-.29.02-.44.03-.09.09-.19.18-.28.26-.06-.08-.12-.17-.18-.25-1.23-.01-2.46-.03-3.69-.04-.1,0-.2,0-.3,0-.21,0-.42,0-.63,0-.1,0-.2,0-.3,0-.83,0-1.66,0-2.49,0-.1,0-.2,0-.3,0-18.79,0-37.58,0-56.37,0v1.95h62.68c1.13-.05,1.17.66,1.17,1.52Z"/><path class="cls-9" d="m139.38,39.35c-7.29,3.62-14.58,7.23-21.87,10.85-.77.38-1.52.8-2.28,1.2-1.32.69-2.65,1.38-3.97,2.07-.08.53-.15,1.05-.23,1.58.35-.1.92-.11,1.01-.33.29-.63.64-.68,1.19-.45.13.05.33.06.44-.01.83-.52,1.61-1.12,2.47-1.57.87-.45,1.83-.75,2.73-1.14.67-.29,1.34-.59,1.97-.94.89-.49,1.74-1.05,2.63-1.55.6-.34,1.21-.66,1.84-.95.93-.42,1.89-.79,2.83-1.2.77-.33,1.53-.69,2.28-1.05,1.18-.58,2.36-1.14,3.51-1.77.82-.45,1.57-1.01,2.37-1.5.19-.12.42-.19.63-.22.14-.02.34.15.44.1.91-.5,1.8-1.02,2.7-1.54.28-.16.54-.37.84-.5.9-.4,1.82-.73,2.71-1.16,1.08-.52,2.13-1.1,3.21-1.64.79-.4,1.61-.77,2.4-1.16,1.11-.54,2.23-1.07,3.32-1.66.81-.43,1.59-.93,2.38-1.41.16-.1.29-.3.46-.34,1.36-.29,2.45-1.08,3.61-1.78.83-.5,1.86-.68,2.74-1.1.85-.41,1.63-.95,2.44-1.42v-1.79c-.76.38-1.53.77-2.29,1.15-7.5,3.74-15,7.48-22.5,11.21Z"/><path class="cls-9" d="m.26,55.2c.03.14.37.21.57.31.24-.07.54-.27.73-.2.77.33,1.67.58,2.22,1.15.61.64,1.23.67,1.97.67,5.73,0,11.45,0,17.18,0h.46c.41-.37,1.35-.2,1.16-1.16-.43-.12-.86-.23-1.3-.35.05-.38.09-.71.14-1.05.13-.14.27-.28.4-.42.1.14.2.28.29.42.08.08.15.15.23.23.6-.37.63-.78.02-1.13-.49-.29-1.04-.46-1.54-.73-.92-.49-1.83-1.01-2.75-1.52-.16-.09-.31-.22-.47-.3-1.18-.57-2.36-1.14-3.56-1.67-.94-.41-1.91-.75-2.85-1.16-.67-.29-1.33-.63-1.96-.99-1.48-.84-2.93-1.75-4.44-2.55-.85-.45-1.79-.71-2.68-1.09-.76-.32-1.51-.64-2.23-1.03-.87-.47-1.67-1.06-2.55-1.51v1.88c2,.99,4,1.99,6.01,2.96,1.73.84,3.5,1.6,5.22,2.45.93.45,1.81,1.01,2.71,1.52.83.47,1.66.93,2.49,1.4.41.15.85.27,1.24.47,1.53.76,3.06,1.53,4.57,2.34.49.26.91.63,1.28,1.21h-6.19c-.07,0-.14,0-.22,0-.24,0-.48,0-.72,0-.15,0-.31,0-.46,0v-.08c-.15.03-.31.06-.46.08-.07,0-.15,0-.22,0-.24,0-.47,0-.71,0h-.45c-.16,0-.32,0-.48,0-.15,0-.3,0-.45,0-.16,0-.32,0-.48,0h-.45c-.16,0-.32,0-.48,0h0c-.15,0-.3,0-.45,0l-3.26-.08c-1.49.11-2.84-.06-4.27-.8-1.26-.66-2.52-1.3-3.78-1.94v1.83c.43-.04.8.15.96.85Z"/><path class="cls-9" d="m63.36,66.96c.46-.03.92-.07,1.38-.1-.07-.99-.14-1.97-.2-2.96.06-.08.12-.17.18-.25.01-7.99.04-15.99.04-23.98,0-12.01,0-24.02,0-36.03,0-.42-.02-.85-.04-1.27h0s0,0,0,0c-.11-.08-.22-.16-.33-.23.11-.08.22-.16.33-.23,0-.47,0-.93,0-1.4,0-.16,0-.31,0-.47l.08.02c-.03-.16-.06-.32-.08-.48,0-.15,0-.3,0-.45,0-.16,0-.32,0-.48.03-.26.06-.52.09-.78h-2.16c.19.13.27.36.28.73.04,2.31.21,4.62.21,6.93.02,18.72.01,37.43,0,56.15,0,.87-.01,1.75-.1,2.61-.02.22-.35.52-.59.59-.43.13-.91.15-1.37.15-20.59,0-41.19,0-61.78,0v1.9c20.89,0,41.78,0,62.67,0,.46,0,.93.02,1.39.03Z"/><path class="cls-9" d="m109.16-.14c0,17.05,0,34.1.01,51.15,0,.5-.33,1.27.69,1.25.37-.46.75-.93,1.12-1.39.03-.85.05-1.7.08-2.55-.01-.42-.04-.85-.04-1.27,0-16.06,0-32.12,0-48.17,0-.32,0-.66,0-1.02h-2.3c.18.22.3.52.4.85.11.36.04.77.04,1.15Z"/><path class="cls-9" d="m151.71,37.99c-2.33,1.15-4.66,2.32-7,3.45-2.18,1.05-4.4,2.02-6.56,3.1-1.98.99-3.89,2.12-5.86,3.13-2.3,1.18-4.64,2.28-6.96,3.43-1.32.66-2.64,1.3-3.9,2.06-.28.17-.28.78-.41,1.19.24.16.48.32.72.48,1.15-.49,2.29-.98,3.44-1.47.86-.43,1.72-.86,2.58-1.29.02-.03.04-.06.07-.07.03-.01.06,0,.09,0,.57-.29,1.13-.58,1.7-.86.04-.07.09-.09.17-.06.49-.27.97-.53,1.46-.8h0s0,0,0,0c5.27-2.65,10.54-5.31,15.81-7.96,3.91-1.96,7.84-3.9,11.74-5.88,1.8-.91,3.59-1.84,5.38-2.76v-1.91c-.82.44-1.63.88-2.46,1.29-3.32,1.67-6.67,3.29-10,4.93Z"/><path class="cls-9" d="m99.35-1.36c0,.16,0,.31,0,.47,0,.15,0,.31,0,.46h0c0,.16,0,.31,0,.47v-.47c0,.16,0,.31,0,.47,0,.15,0,.31,0,.46.02.42.05.85.05,1.27,0,21.14,0,42.28,0,63.42,0,.54.01,1.08.02,1.62.37.05.73.15,1.1.15,10.09,0,20.18-.04,30.27-.04,11.13,0,22.25,0,33.38,0v-1.91c-20.26,0-40.52,0-60.79-.02-.63,0-1.26-.44-1.89-.67-.08-.23-.15-.46-.23-.7.16-1.21.44-2.43.45-3.64.03-19.14.03-38.28,0-57.42,0-.78-.3-1.56-.46-2.34-.08-.41-.16-.82-.22-1.24-.08-.57.03-.95.36-1.15h-2.26s.03.04.04.08c.06.24.12.47.18.71Z"/><path class="cls-9" d="m53.17,24.41c-.02,9.67-.04,19.34-.05,29.01.08.16.17.32.25.47h0c.15,0,.31,0,.46,0l.7-1.62v-1.39c-.08-.4-.22-.8-.22-1.2-.01-15.76-.01-31.51,0-47.27,0-.4.15-.8.22-1.2V-1.35c-.03-.42.1-.66.34-.79h-1.85l.19.57c-.01,8.66-.02,17.33-.04,25.99Z"/><path class="cls-9" d="m23.86,113.36c.31-.25.61-.71.92-.72,3.65-.05,7.31-.07,10.96,0,.76.01,1.52.4,2.28.62.08.03.16.07.24.1.15,0,.3,0,.45,0,1.39,0,2.78-.01,4.16-.02,0,0,0,0,0,0,.24-.17.48-.33.72-.5.21-.48,1.7-.31.7-1.39h-.93c-.09.07-.2.21-.27.19-2.32-.67-4.65-.27-6.99-.22-2.97.06-5.94-.15-8.91-.18-1.03-.01-2.09.04-3.1.26-.78.17-1.51.6-2.23.99-2.09,1.12-4.13,2.33-6.24,3.39-1.58.8-3.26,1.37-4.85,2.15-1.95.95-3.83,2.04-5.76,3.03-1.9.97-3.81,1.9-5.72,2.84v1.89c7.8-3.95,15.59-7.92,23.38-11.87.39-.2.79-.36,1.19-.55Z"/><path class="cls-7" d="m148.49,135.31c-2.71-1.35-5.49-2.58-8.13-4.06-.97-.55-2.42-.53-2.84-1.93-.15,0-.31,0-.46,0-.07,0-.14,0-.21,0s-.14,0-.21,0c-.14,0-.27-.01-.38-.07-1.76-.85-3.6-1.59-5.22-2.67-.94-.62-2.43-.48-2.81-1.9-.15,0-.31,0-.46,0-.98-.4-1.98-.75-2.93-1.2-1.57-.74-3.12-1.52-4.67-2.3-1.5-.75-2.98-1.54-4.48-2.29-.84-.42-1.7-.79-2.8-1.29v45.6h51.29v-20.02c-1.63-.8-3.26-1.61-4.89-2.42-3.6-1.81-7.19-3.65-10.79-5.45Z"/><path class="cls-7" d="m51.26,135.99c-.05-5.82.25-11.64-.25-17.86-.87.53-1.48.91-2.1,1.27-.21.12-.44.21-.67.28-.25.08-.58.03-.75.18-.99.84-2.21,1.17-3.35,1.7-1.58.73-3.04,1.71-4.59,2.49-1.47.74-3,1.35-4.49,2.05-1.46.69-2.91,1.4-4.35,2.12-1.64.82-3.26,1.67-4.9,2.49-1.96.98-3.95,1.9-5.88,2.93-.93.49-1.74,1.2-2.62,1.78-.16.1-.43.05-.65.06-.18.01-.41-.05-.55.04-.85.53-1.64,1.15-2.52,1.64-.84.47-1.76.78-2.62,1.21-1,.5-1.97,1.07-2.97,1.59-.22.12-.48.19-.72.26-.26.07-.65,0-.76.16-.76,1.04-2.03.99-3.04,1.49-.14.07-.3.1-.41.19-1.1.83-2.32,1.38-3.64,1.82-.05.02-.1.04-.16.07v19.25h51.87c.05-3.19.09-6.39.11-9.58.04-5.88.05-11.75,0-17.63Z"/><path class="cls-22" d="m21.87,68.51c14.24,0,28.48,0,42.71.01.22,0,.5.03.65.16.71.58,1.2.18,1.47-.42.28-.63.38-1.34.51-2.02.1-.54.11-1.11.21-1.65.07-.37.32-.72.34-1.09.11-1.88.24-3.77.24-5.66.02-17.14.02-34.27,0-51.41,0-1.38-.03-2.79-.28-4.14-.18-1.02-.73-1.98-1.11-2.96-.61.24-1.22.47-1.83.71l-.08-.02c0,.16,0,.31,0,.47,0,.47,0,.93,0,1.4,0,.16,0,.31,0,.47.01.42.04.85.04,1.27,0,12.01,0,24.02,0,36.03,0,7.99-.03,15.99-.04,23.98-.06.08-.12.17-.18.25.07.99.14,1.97.2,2.96,0,.08,0,.16.01.25-.05.72-.43.98-1.15.96-1.59-.04-3.17-.01-4.76-.01-19.85,0-39.7,0-59.55,0v.47c7.52,0,15.05,0,22.57,0Z"/><path class="cls-22" d="m67.65,101.29c-.04-.28-.42-.55-.69-.76-.55-.42-1.12-.81-1.71-1.18-.29-.18-.61-.38-.93-.41-1.15-.12-2.3-.25-3.46-.25-20.52,0-41.05,0-61.57,0v1.85c21.28,0,42.56,0,63.84,0,.23,0,.5-.05.75-.04.16,0,.31.03.43.11.06.04.11.09.14.17.04.07.06.16.08.27.01.11.01.24,0,.39.02.03.05.07.07.1.04.06.08.13.12.19h0c.02.06.02.13-.01.19l.02.47c0,.08,0,.15,0,.23,0,.47,0,.93,0,1.4,0,.15,0,.3,0,.45.01.46.04.92.04,1.39,0,11.97,0,23.95,0,35.92,0,7.14-.02,14.27-.03,21.41h3.28c.02-19.43.02-38.87,0-58.3,0-1.2-.17-2.41-.35-3.6Z"/><path class="cls-9" d="m112.38,101.61c-1.45,0-2.9,0-4.35,0h0c-.1,0-.2,0-.3,0-1.06,0-2.13,0-3.19.01-.09.02-.19.04-.28.05l-4.61.04c-.08.44-.24.87-.24,1.31-.01,20.06-.01,40.12-.01,60.17h2.31c.03-18.45.03-36.89,0-55.34,0-.94-.26-1.89-.52-2.8-.26-.93,0-1.42.95-1.49.27-.02.54,0,.81,0,20.41,0,40.82,0,61.22,0v-1.95c-17.16,0-34.32,0-51.49,0h-.3Z"/><path class="cls-9" d="m150.31,118.42c-1.32-.69-2.64-1.39-3.95-2.08-1.7-.84-3.41-1.69-5.11-2.53-.16.53-.31,1.05-.47,1.58.08.08.16.15.23.23,1.09.63,2.17,1.29,3.28,1.88,2.18,1.16,4.33,2.43,6.61,3.38,1.74.73,3.1,2.33,5.19,2.27.11,0,.27.03.32.11,1.19,1.57,3.21,1.43,4.74,2.32.97.56,2,1.02,3.02,1.48v-1.65c-2.99-1.48-5.98-2.97-8.97-4.46-1.64-.82-3.26-1.69-4.9-2.54Z"/><path class="cls-9" d="m153.71,134.43c-2.05-1.01-4.07-2.08-6.12-3.11-1.67-.83-3.36-1.62-5.03-2.46-2.14-1.08-4.25-2.21-6.38-3.29-1.39-.71-2.8-1.38-4.2-2.07-2.26-1.12-4.51-2.24-6.76-3.36-2.75-1.37-5.5-2.73-8.24-4.11-1.72-.87-3.43-1.77-5.16-2.63-.22-.11-.53-.07-.79-.1.1.22.15.59.3.65.75.26.67.71.38,1.26,1.02.52,2.03,1.04,3.05,1.56,4.49,2.25,8.97,4.51,13.46,6.76,3.81,1.91,7.63,3.81,11.44,5.72,5.96,2.97,11.92,5.94,17.87,8.92,2.22,1.11,4.44,2.23,6.65,3.35v-1.9c-1.29-.68-2.58-1.36-3.88-2.01-2.18-1.09-4.4-2.09-6.59-3.17Z"/><path class="cls-12" d="m147.53,51.36c-2.43,1.24-4.85,2.49-7.29,3.71-.29.15-.66.2-.99.2-2.98,0-5.95-.02-8.93-.03-.47,0-.94,0-1.41,0-1,0-2.01,0-3.01,0-.31.03-.62.05-.93.08-.19.21-.34.48-.57.63-1.02.69-2.06,1.34-3.08,2.02-.07.05-.05.22-.08.33h1.16c.15.08.31.15.46.23h2.79c.42-1.46,1.75-1.01,2.62-1.03,3.65-.08,7.3.03,10.94.12.44.01.87.29,1.31.44.93-.23,1.86-.46,2.79-.7q-.2-1.29.5-1.55c.19.43.38.85.66,1.46.66-.83-.25-2.22,1.11-2.43.28.43.53.81.77,1.19.12-.05.24-.09.36-.14-.15-.82-.3-1.65.71-2,.27.44.51.83.82,1.34.3-.98.52-1.66.73-2.35.12.03.25.05.37.08.17.3.35.6.59,1.03.38-.77.7-1.41,1.09-2.17.42.66.67,1.05.91,1.43.11-.05.21-.09.32-.14-.06-1.07-.01-1.89,1.42-2.11.98-.15,1.89-.92,2.77-1.49.63-.4,2.11-.55,2.72-.08.16-.43.25-.87.47-1.24.19-.33.52-.59.77-.86.24.51.42.88.66,1.38.47-.95.8-1.6,1.18-2.37.27.58.44.95.71,1.53.31-.93.51-1.52.8-2.39.16.22.29.39.41.55v-2.94c-5.3,2.65-10.59,5.31-15.89,7.96-.24.12-.5.19-.75.29Z"/><path class="cls-11" d="m56.39,116.05c-.02-1.37-.68-1.75-1.86-1.11,0,16.09,0,32.18,0,48.27h1.87c0-14.3,0-28.61,0-42.91,0-1.41.01-2.83,0-4.24Zm-.63.4s-.12-.04-.19-.07c.03-.06.04-.16.09-.18.05-.02.13.04.19.07,0,0,0,0,0,0,0,0,0,0,0,0-.03.06-.04.16-.09.18Z"/><path class="cls-11" d="m53.82,104.72c2.15,0,4.3.04,6.45-.02.82-.02,1.17.36,1.19,1.04.03.94-.1,1.88-.11,2.82,0,.64.14,1.29.13,1.93-.04,2.21-.15,4.43-.18,6.64-.01.92.19,1.84.19,2.75-.06,14.14-.15,28.28-.21,42.43,0,.29.02.59.02.88h1.36v-56.39c-.86-.52-.49-1.2-.23-1.86-.15-.46-.31-.93-.46-1.39H-.71v1.15c18.18,0,36.35,0,54.53,0Z"/><path class="cls-3" d="m53.13,116.32c-.96-.13-1.7.22-2.52.76-1.65,1.09-3.41,1.99-5.17,2.91-1.51.79-3.08,1.47-4.61,2.22-2.35,1.14-4.72,2.27-7.05,3.47-1.55.79-3.02,1.74-4.58,2.53-1.5.75-3.07,1.35-4.58,2.08-1.48.7-2.91,1.49-4.37,2.22-2.28,1.13-4.57,2.23-6.85,3.36-1.43.71-2.83,1.47-4.26,2.18-2.35,1.16-4.71,2.28-7.06,3.44-.94.47-1.86.96-2.79,1.45v1.01c.05-.02.1-.05.16-.07,1.32-.43,2.53-.99,3.64-1.82.12-.09.28-.12.41-.19,1.01-.5,2.28-.45,3.04-1.49.11-.15.51-.09.76-.16.25-.06.5-.14.72-.26.99-.52,1.96-1.09,2.97-1.59.86-.43,1.78-.74,2.62-1.21.87-.49,1.67-1.11,2.52-1.64.14-.09.36-.03.55-.04.22-.01.49.04.65-.06.88-.58,1.7-1.28,2.62-1.78,1.93-1.03,3.92-1.95,5.88-2.93,1.64-.82,3.26-1.67,4.9-2.49,1.44-.72,2.89-1.44,4.35-2.12,1.49-.7,3.02-1.31,4.49-2.05,1.55-.78,3.01-1.76,4.59-2.49,1.14-.53,2.37-.86,3.35-1.7.17-.15.5-.1.75-.18.23-.07.46-.16.67-.28.62-.36,1.23-.74,2.1-1.27.5,6.22.2,12.04.25,17.86.05,5.88.04,11.75,0,17.63-.02,3.19-.06,6.39-.11,9.58h2.03c0-8.68-.01-17.36-.02-26.04,0-6.95-.03-13.89-.04-20.84Z"/><path class="cls-3" d="m53.19,163.2h0c0-8.68-.01-17.36-.02-26.04.01,8.68.02,17.36.02,26.04Z"/><path class="cls-9" d="m161.24,111.91c-1.08-.9-2.37-.69-3.62-.69-5.41,0-10.83.08-16.23-.06-1.46-.04-2.12.53-2.66,1.65-.13.26-.33.48-.5.73.23.23.46.46.7.7.38-.31.77-.63,1.15-.94.47-.15.93-.3,1.4-.45.14-.14.27-.29.41-.43.17.22.35.43.52.65.15.06.3.13.45.19.24,0,.48,0,.72,0-.01-.06-.01-.11,0-.17.42-.23.85-.66,1.27-.67,3.78-.05,7.57-.15,11.35.02,1.67.08,3.49-.18,5.01.9.81.57,1.57,1.2,2.36,1.8.08.09.16.17.24.26.07,0,.13,0,.2.01.05,0,.11,0,.17,0v-1.89l-2.24-1.37c-.23-.08-.46-.15-.7-.23Z"/><path class="cls-22" d="m99.86,100.54c-.79-1.61-1.35.02-2.02,0-.46-.11-1.15-.3-1.33-.07-.33.41-.42,1.05-.5,1.61-.03.21.28.67.43.67,1.02-.02.85.61.77,1.23-.07.53-.13,1.07-.13,1.6,0,19.15-.02,38.3,0,57.44,0,.06,0,.11,0,.17h2.08c0-20.5,0-41,0-61.5.23-.38.46-.77.7-1.15Z"/><path class="cls-6" d="m115.68,118.89c1.5.75,2.98,1.53,4.48,2.29,1.55.78,3.1,1.57,4.67,2.3.96.45,1.95.8,2.93,1.2-.17-.23-.3-.54-.53-.66-2.45-1.27-4.91-2.52-7.38-3.73-1.55-.76-3.14-1.44-4.71-2.17-.08-.04-.15-.1-.21-.17-.06-.07-.12-.15-.19-.22-.82-.37-1.65-.74-2.49-1.12-.38.36-.79.74-1.19,1.11-.01.35-.04.69-.04,1.04,0,14.81,0,29.63,0,44.44h1.86v-45.6c1.1.51,1.96.88,2.8,1.29Z"/><path class="cls-9" d="m111.06,117.71c-.07-.84-.15-1.69-.22-2.53-1.35-.3-1.91.1-1.91,1.44,0,15.53,0,31.05,0,46.58h2.08c0-14.81,0-29.63,0-44.44,0-.35.03-.69.04-1.04Z"/><path class="cls-12" d="m110.84,115.18c.29,0,.58.02.87.03.29-.54.37-.99-.38-1.26-.16-.06-.21-.42-.3-.65-.13-.03-.37-.09-.37-.08-.29,1.09-.98,1.43-2.08.99v48.98h.37c-.01-15.53-.01-31.05,0-46.58,0-1.34.56-1.74,1.91-1.44Z"/><path class="cls-12" d="m63.14,105.08c0-.87-.05-1.58-1.17-1.52.16.46.31.93.46,1.39.08.62.16,1.24.23,1.86v56.39h.49c-.04-19.37-.03-38.74-.02-58.11Z"/><path class="cls-22" d="m97.07,4.07c0,17.99-.01,35.97.01,53.96,0,3.24.15,6.48.23,9.72,0,.15.08.29.2.72,2.45.17,4.97.48,7.49.49,19.72.02,39.44.02,59.17.03v-.93c-21.36,0-42.72,0-64.08,0-.79.51-1.29.2-1.63-.57-.22-.49-.51-.97-.63-1.49-.08-.34.08-.75.18-1.44.44.67.67,1.04.91,1.41.08-.4.22-.8.22-1.2.01-20.93,0-41.86.02-62.8,0-.49.12-.97.18-1.46h0c0-.15,0-.31,0-.46,0-.16,0-.31,0-.47,0-.15,0-.31,0-.46h-1.58c-.23.66-.59,1.31-.67,1.98-.11.98-.03,1.98-.03,2.97Z"/><path class="cls-22" d="m113.86,98.7c-4.04-.01-8.08.13-12.11.24-.34,0-.67.28-1,.44.05.16.1.32.14.47h1.45c20.61,0,41.22,0,61.83,0v-.95c-16.77-.06-33.54-.15-50.31-.19Z"/><path class="cls-22" d="m99.36-.42h0c0,.16,0,.31,0,.47,0-.16,0-.31,0-.47Z"/><path class="cls-22" d="m99.35.51c0-.15,0-.31,0-.46,0,.15,0,.31,0,.46h0Z"/><path class="cls-19" d="m99.17,101.69c.16,0,.33.02.49.02l4.61-.04c.09-.02.19-.04.28-.05,1.06,0,2.13,0,3.19-.01.1,0,.2,0,.3,0h0c1.45,0,2.9,0,4.35,0,.1,0,.2,0,.3,0,17.16,0,34.32,0,51.49,0v-1.07c-21.44,0-42.87,0-64.31,0-.23.38-.46.77-.7,1.15Z"/><path class="cls-19" d="m112.68,101.61c-.1,0-.2,0-.3,0h.3c17.16,0,34.32,0,51.49,0h0c-17.16,0-34.32,0-51.49,0Z"/><path class="cls-19" d="m104.54,101.62c1.06,0,2.13,0,3.19-.01.1,0,.2,0,.3,0-.1,0-.2,0-.3,0-1.06,0-2.13,0-3.19.01Z"/><path class="cls-22" d="m95.85,107.77c-.04-1.05-.17-2.1-.27-3.15-.12.01-.24.02-.37.03v4.55c0,18,0,36,0,54h.48c0-17.94,0-35.89,0-53.83,0-.53.19-1.07.16-1.6Z"/><path class="cls-22" d="m95.33,65.11c.11,0,.23,0,.35,0V2.06c-.12,0-.23,0-.35,0v63.04Z"/><path class="cls-23" d="m67.19-2.14h-2.39l-.09.78c0,.16,0,.32,0,.48,0,.15,0,.3,0,.45.03.16.06.32.08.48.61-.24,1.22-.47,1.83-.71.19-.5.38-.99.57-1.49Z"/><path class="cls-23" d="m64.71-.88c0,.15,0,.3,0,.45.03.16.06.32.08.48-.03-.16-.06-.32-.08-.48,0-.15,0-.3,0-.45Z"/><path class="cls-22" d="m60.63,69.84c0,.1,0,.21,0,.31h3.05c0-.1-.02-.21-.02-.31h-3.04Z"/><path class="cls-22" d="m99.25,69.54c-.07,0-.14.02-.2.03v.67c.1,0,.21-.01.31-.02-.04-.23-.07-.45-.11-.68Z"/><path class="cls-7" d="m115.91,49.94c.39-.16.77-.31,1.16-.47.39-.23.78-.46,1.16-.69.31-.08.62-.16.93-.23.31-.23.62-.46.93-.69.31-.08.62-.16.93-.23.31-.23.62-.46.93-.69l.93-.23c.31-.23.62-.46.93-.69.31-.08.62-.16.93-.23.31-.23.62-.46.93-.69.31-.08.62-.16.93-.23.31-.23.62-.46.93-.69.31-.08.62-.16.93-.23.39-.23.78-.46,1.16-.69.23-.08.46-.16.7-.23.39-.23.78-.46,1.16-.69.15-.08.31-.16.46-.23.39-.23.78-.46,1.16-.69.31-.08.62-.16.93-.23.12-.49.23-.99.93-.69.31-.08.62-.16.93-.23l1.16-.93c.39-.15.77-.31,1.16-.46l.7-.46c.15,0,.31,0,.46,0,.39-.23.78-.46,1.16-.69.39-.15.77-.31,1.16-.46l.7-.46.7-.23c.39-.23.78-.46,1.16-.69,1.01-.46,2.01-.93,3.02-1.39.23-.15.47-.31.7-.46.39-.15.77-.31,1.16-.46.23-.15.47-.31.7-.46.39-.15.77-.31,1.16-.46.23-.15.47-.31.7-.46.85-.39,1.7-.77,2.56-1.16.23-.15.47-.31.7-.46.46-.16.93-.31,1.39-.47.16-.15.31-.31.47-.46.39-.16.77-.31,1.16-.47.23-.15.47-.31.7-.46.39-.16.77-.31,1.16-.47.23-.15.47-.31.7-.46.39-.16.77-.31,1.16-.47l.7-.46c.39-.16.77-.31,1.16-.47.2-.13.41-.27.61-.4V-2.14h-51.3c-.03.76-.06,1.52-.07,2.28,0,.42.07.84.07,1.27,0,14.72,0,29.44,0,44.16,0,1.25-.03,2.51,0,3.76.04,1.56.06,1.56,1.62,1.31.23-.08.46-.16.7-.23l.7-.46Z"/><path class="cls-11" d="m59.58,64.09c.61,0,1.29,0,1.81-.25.51-.25.92-.8,1.24-1.3.16-.25.04-.68.04-1.03,0-18.6,0-37.19,0-55.79,0-1.41.06-2.82-.02-4.23-.05-.87-.28-1.73-.5-2.57-.05-.2-.37-.47-.56-.47-2.35.04-4.7.12-7.05.19V1.2c.08.4.22.8.22,1.2.01,15.76.01,31.51,0,47.27,0,.4-.15.8-.22,1.2v1.39c.11.25.3.51.31.76,0,.48-.1.96-.2,1.72-.38-.4-.59-.63-.81-.85-.15,0-.31,0-.46,0-.02.24-.03.48-.05.73-.02.25-.03.52-.05.81-.84-.02-1.81.58-2.33-.68-.03-.08-.19-.14-.3-.15-1.37-.09-2.32-1.04-3.46-1.63-.9-.47-1.89-.75-2.81-1.19-.91-.43-1.78-.96-2.66-1.45-.16-.09-.28-.26-.45-.35-1.16-.59-2.26-1.4-3.49-1.66-1.21-.26-1.65-1.16-2.44-1.8-.72-.59-1.72-.82-2.6-1.23-.75-.35-1.49-.7-2.22-1.09-1.51-.79-2.98-1.65-4.51-2.4-1.51-.74-3.07-1.37-4.59-2.1-.94-.45-1.81-1.05-2.74-1.52-.9-.46-1.85-.83-2.77-1.25-.96-.44-1.91-.9-2.86-1.37-1.56-.77-3.13-1.54-4.68-2.33-.96-.49-1.92-1-2.87-1.5-.17-.09-.35-.33-.47-.3-1.37.33-2.32-.74-3.51-1-.18-.04-.42-.1-.51-.23-.47-.7-1.06-1.18-1.71-1.57v11.42c.3.2.6.41.91.59.24.15.57.13.84.24.32.14.63.33.93.51.09.05.1.24.18.28.92.36,1.86.7,2.78,1.07.26.11.5.29.74.45.23.15.44.34.69.46.51.25,1.03.47,1.48.88.63.14,1.19,0,1.79.78.51.66,1.73.77,2.64,1.14.3.12.59.28.87.45.19.12.32.34.51.43,1.22.59,2.45,1.17,3.68,1.74,1.53.71,3.16,1.25,4.55,2.18.75.5,1.54.67,2.28,1.05.99.52,1.94,1.1,1.36,2.5-.07.16-.06.44.04.55.51.57.21.96-.25,1.34-.57.47-1.14.99-1.94.42h-.46c-.76.47-1.17,1.72-2.47,1.05-.13-.07-.58.46-.87.71l.17.24c-.4.1-.81.2-1.29.32-.12-.38-.23-.72-.37-1.17-1.14.2-2.46-.54-3.32.92-.08.13-.94-.19-1.64-.35-.59.5-2.17.57-3.13.03-.37-.21-.86-.23-1.29-.32-.39-.08-.91,0-1.15-.24-.82-.77-1.5-.6-2-.06-1.63-.96-3.18-1.86-4.73-2.77-.2-.1-.54-.17-.57-.31-.17-.7-.54-.89-.96-.85v9.74c20.1,0,40.19,0,60.29,0Z"/><path class="cls-11" d="m53.37,53.89h0c.15,0,.31,0,.46,0-.15,0-.31,0-.46,0h0Z"/><path class="cls-11" d="m162.97,47.88c-.27-.58-.44-.96-.71-1.53-.38.77-.71,1.42-1.18,2.37-.24-.5-.42-.87-.66-1.38-.25.27-.58.53-.77.86-.21.37-.31.8-.47,1.24-.6-.47-2.09-.32-2.72.08-.89.57-1.79,1.34-2.77,1.49-1.43.22-1.47,1.04-1.42,2.11-.11.05-.21.09-.32.14-.24-.38-.49-.77-.91-1.43-.38.76-.7,1.4-1.09,2.17-.24-.42-.41-.73-.59-1.03-.12-.03-.25-.05-.37-.08-.21.68-.42,1.36-.73,2.35-.31-.51-.55-.9-.82-1.34-1.02.35-.87,1.17-.71,2-.12.05-.24.09-.36.14-.25-.38-.49-.76-.77-1.19-1.36.21-.45,1.6-1.11,2.43-.27-.61-.47-1.04-.66-1.46q-.71.26-.5,1.55c.02.16.12.37.06.48-.32.56-.69,1.09-1.14,1.79-.74-.39-1.63-.39-2.48.31-.25.21-.74.2-1.11.2-2.39-.06-4.78-.13-7.18-.22-1.37-.05-2.73-.23-4.09-.2-1.14.03-2.27.36-3.4.41-.92.04-1.86-.13-2.79-.21-.41-.03-.81-.07-1.04-.09.35-.49.72-1.01,1.09-1.53.02-.11,0-.28.08-.33,1.02-.68,2.06-1.33,3.08-2.02.23-.15.38-.42.57-.63-.85-.01-1.7,0-2.54-.05-.24-.02-.46-.28-.69-.44h0c-.24-.16-.48-.32-.72-.48-.25.29-.51.57-.95,1.08v-3.63c-2.21,1.21-4.18,2.27-6.12,3.37-.17.1-.19.44-.35.58-.31.26-.65.58-1.02.66-.66.14-1.36.04-2.02.17-1.51.29-1.84-.06-1.42-1.82.41.26.77.5,1.13.73.51.32.8.22.75-.43.08-.53.15-1.05.23-1.58-.09-.87-.18-1.73-.27-2.6-.37.46-.75.93-1.12,1.39.03.82.08,1.65-1.2,2.09V-1.52c-1.68,0-3.09,0-4.51,0-.71,0-1.43-.06-2.14-.01-.57.04-.84,1.12-.29,1.62.75.69.7,1.48.7,2.33,0,19.6,0,39.2,0,58.8,0,1.01-.15,1.91-1.17,2.41.08.23.16.46.23.7,16.72-.53,33.45-.14,50.18-.22,4.17-.02,8.34-.01,12.5-.02v-18.05c-.12-.16-.24-.33-.41-.55-.29.87-.49,1.45-.8,2.39Zm-7.3,3.4c-.14-.13-.29-.27-.43-.4.07-.07.15-.14.22-.21.12.15.25.31.37.46-.05.05-.1.1-.16.14Z"/><path class="cls-11" d="m121.74,54.83h0c-.24-.16-.48-.32-.72-.48.24.16.48.32.72.48h0Z"/><path class="cls-11" d="m61.49,119.89c0-.92-.2-1.84-.19-2.75.03-2.21.14-4.43.18-6.64.01-.64-.14-1.29-.13-1.93,0-.94.14-1.88.11-2.82-.02-.68-.37-1.07-1.19-1.04-2.15.06-4.3.02-6.45.02-18.18,0-36.35,0-54.53,0v17.39c.77-.48,1.74-.65,2.58-.3.13-.91.48-1.39,1.57-1.51.61-.06,1.03-1.43,2.02-.27.4-.66.12-2.27,1.63-1.22.65-1.43,1-1.54,2.07-.78.18-.41.27-1.04.59-1.21.33-.17.89.11,1.4.2-.16-2.43,1.31-.91,2.21-.66.18-.6.33-1.09.45-1.5.56.21.94.4,1.33.45.08,0,.26-.54.34-.84.4-1.56.92-.05,1.54,0-.12-.42-.21-.73-.4-1.41.82.09,1.5.17,2.21.25-.29-1.83.81-1.21,1.92-.64-.07-.42-.2-.71-.12-.91.12-.27.53-.7.59-.67,1.8,1.02,3.31-.53,4.98-.54.75,0,1.51,0,2.26.01,1.68.03,3.35.15,5.03.09,2.37-.09,4.73-.32,7.1-.48.3-.02.59-.02.89,0,.4.03.8.08,1.31.14.14.27.36.7.59,1.13h.93c.26.06.65.04.76.2.22.35.28.79.41,1.19,1.18.84,1.68,1.93,1.39,3.02,1.01-.62,2.01-1.24,3.02-1.86-.63-1.16-.1-1.32,1.52-1.8.55-.17,1.24.1,1.91.18-.08.41-.13.67-.18.93l1.39,1.62c1.18-.64,1.84-.25,1.86,1.11.02,1.41,0,2.82,0,4.24,0,14.3,0,28.61,0,42.91h4.91c0-.29-.03-.59-.02-.88.06-14.14.15-28.28.21-42.43Z"/><path class="cls-22" d="m128.91,55.24c.47,0,.94,0,1.41,0,.91-.37,1.81-.98,2.75-1.07,1.72-.17,3.49-.21,5.21,0,1.66.19,2.98-.52,4.34-1.14,1.68-.77,3.28-1.74,4.91-2.62.8-.33,1.62-.61,2.39-1,1.51-.78,2.98-1.66,4.5-2.42,1.56-.78,3.18-1.43,4.73-2.2,1.52-.76,2.98-1.64,4.5-2.4.17-.09.35-.16.53-.25v-7.44c-.62.29-1.25.57-1.87.88-.67.33-1.32.71-1.99,1.05-1.76.9-3.51,1.82-5.29,2.68-1.98.96-4.02,1.81-5.98,2.8-.65.33-1.08,1.12-1.98.88-.93.61-1.83,1.29-2.81,1.8-1.53.81-3.13,1.52-4.69,2.27-1.68.81-3.36,1.61-5.01,2.46-.56.28-1.11.59-1.65.89-.55.31-1.09.62-1.64.92-.49-.08-.97-.17-1.46-.25-.07-.03-.13,0-.17.06-.04,1.31-1.03.77-1.7.86h0s-.07-.01-.09,0c-.03.01-.05.03-.07.07,0,.04.01.08,0,.11-.76,1.45.17,2.26,1.16,3.05Z"/><path class="cls-22" d="m127.92,52.01s-.07-.01-.09,0c.03-.01.06,0,.09,0h0Z"/><path class="cls-22" d="m36.76,114.86c-.75-.42-1.65-.82-2.49-.8-3.12.05-6.23.24-9.35.43-.59.04-1.2.22-1.74.48-2.03.98-4.02,2.04-6.06,3.02-.93.45-1.96.71-2.89,1.15-.88.42-1.7.98-2.55,1.47-.71.41-1.41.83-2.14,1.2-3.05,1.53-6.1,3.07-9.17,4.56-.36.18-.73.35-1.09.52v7.04c.14-.26.37-.3.63-.28.33.02.69.11.9-.14.08-.15.15-.31.23-.46.21-.13.4-.3.63-.36.16-.05.51.12.53.07.55-1.09,1.97-.71,2.66-1.56.13-.16.32-.3.51-.37.57-.21,1.14-.39,1.65-.76.88.22,1.45-.13,1.75-1.12.89.28,1.65.23,1.82-1,1.03.48,1.62.08,1.84-.6,1-.33,1.87-.5,2.63-.89,2.05-1.05,4.02-2.23,6.07-3.28,2.58-1.32,5.19-2.59,7.8-3.85,1.99-.96,4-1.9,6.02-2.79.24-.1.63.16.96.26.31-.15.62-.31.93-.46-.02-.51.13-1.33-.1-1.46Z"/><path class="cls-12" d="m158.99,31.29c-1.16.7-2.25,1.49-3.61,1.78-.17.04-.3.24-.46.34-.79.48-1.56.98-2.38,1.41-1.09.58-2.21,1.11-3.32,1.66-.8.39-1.61.76-2.4,1.16-1.07.54-2.12,1.13-3.21,1.64-.89.42-1.81.76-2.71,1.16-.29.13-.56.33-.84.5-.9.52-1.79,1.05-2.7,1.54-.1.05-.3-.12-.44-.1-.22.03-.45.11-.63.22-.79.49-1.55,1.05-2.37,1.5-1.15.63-2.33,1.19-3.51,1.77-.75.37-1.51.72-2.28,1.05-.94.41-1.9.78-2.83,1.2-.63.28-1.24.61-1.84.95-.88.5-1.74,1.06-2.63,1.55-.64.35-1.3.65-1.97.94-.91.39-1.86.68-2.73,1.14-.86.45-1.64,1.05-2.47,1.57-.11.07-.32.06-.44.01-.55-.23-.91-.18-1.19.45-.1.22-.66.23-1.01.33.04.65-.24.75-.75.43-.36-.23-.72-.47-1.13-.73-.43,1.76-.09,2.11,1.42,1.82.66-.13,1.37-.03,2.02-.17.37-.08.71-.4,1.02-.66.16-.14.18-.48.35-.58,1.95-1.09,3.91-2.16,6.12-3.37v3.63c.44-.5.7-.79.95-1.08.13-.41.14-1.03.41-1.19,1.26-.76,2.59-1.4,3.9-2.06,2.31-1.15,4.66-2.25,6.96-3.43,1.97-1.01,3.88-2.14,5.86-3.13,2.16-1.08,4.38-2.05,6.56-3.1,2.34-1.13,4.67-2.3,7-3.45,3.33-1.64,6.68-3.26,10-4.93.83-.42,1.64-.85,2.46-1.29v-3c-.82.47-1.6,1.01-2.44,1.42-.89.43-1.91.6-2.74,1.1Zm-37.56,20.65c-.03-.14-.11-.38-.08-.39.21-.09.45-.14.67-.2.04.13.08.27.11.4-.23.06-.47.13-.7.19Zm1.61-.84c-.03-.14-.07-.28-.1-.42.22-.07.44-.15.66-.18.03,0,.09.24.14.37-.24.08-.47.16-.71.23Z"/><path class="cls-11" d="m5.28,137.24c1.53-.77,2.98-1.7,4.5-2.49,1.81-.95,3.65-1.83,5.48-2.74.7-.35,1.39-.73,2.1-1.05,1-.46,2.03-.84,3-1.34,1.44-.74,2.78-1.68,4.26-2.31,1.29-.55,2.62-.95,3.68-1.93.13-.12.36-.13.53-.22,1.13-.62,2.25-1.25,3.38-1.87.1-.12.19-.24.29-.36.06.12.12.24.18.36,1.15-.6,2.63-.67,3.25-2.09,0-.19-.03-.4.04-.56.06-.14.32-.36.36-.34,1.14.68,1.46-1.55,2.62-.73h.23c.23-.15.46-.31.7-.46.16-.08.31-.15.46-.23.31-.08.62-.15.93-.23.17-.42.05-1.22.93-.7h.46c.39-.31.77-.62,1.16-.93.23-.08.46-.15.7-.23.22-.2.43-.41.66-.62-.34-.31-.64-.59-1.04-.95.55-.29.94-.49,1.33-.7.24.56.46,1.07.67,1.57.23-.08.46-.15.7-.23.29-1.08-.22-2.17-1.39-3.02-.83.97-1.35.97-1.86,0-.24.17-.48.33-.72.5-.23.13-.46.27-.68.41l-.25.47.96.94c.12.1.23.2.35.3-.12-.02-.23-.05-.35-.07-1.08.5-2.16,1.01-3.25,1.51-.56.26-1.14.49-1.67.79-.88.51-1.68,1.14-2.59,1.59-.91.45-2,.58-2.83,1.12-1.14.74-2.29,1.37-3.59,1.78-.75.24-1.45.68-2.14,1.08-.88.51-1.7,1.11-2.58,1.6-1.13.63-2.31,1.18-3.47,1.76-.73.36-1.46.73-2.21,1.05-.94.4-1.92.7-2.84,1.12-1.18.53-2.33,1.14-3.48,1.73-.17.08-.29.25-.45.34-.84.49-1.68,1-2.54,1.46-1.06.56-2.14,1.09-3.22,1.61-.85.41-1.71.8-2.58,1.19-.93.42-1.87.81-2.8,1.23-.46.21-.92.43-1.37.66v3c.46-.24.92-.47,1.39-.69,1.53-.7,3.1-1.33,4.6-2.08Z"/><path class="cls-11" d="m42.88,113.34h0c.24-.17.48-.33.72-.5-.24.17-.48.33-.72.5,0,0,0,0,0,0Z"/><path class="cls-3" d="m-.71-1.58h47.8c1.12-.07,2.24-.23,3.34-.13.25.02.41.99.61,1.52v50.61c-1.89-.9-3.52-1.69-5.16-2.44-1.55-.71-3.15-1.31-4.68-2.07-1.46-.72-2.83-1.62-4.28-2.37-2.66-1.39-5.35-2.73-8.03-4.09-1.47-.74-2.95-1.47-4.43-2.18-.88-.43-1.77-.85-2.69-1.19-.2-.07-.45.02-.7.1-.08.03-.17.05-.25.07,1.44.71,2.9,1.39,4.32,2.13.87.45,1.68,1.03,2.55,1.5.69.37,1.43.65,2.15.98,1.55.71,3.11,1.39,4.63,2.15,1.52.76,2.99,1.62,4.51,2.38,1.55.78,3.16,1.46,4.71,2.24,1.86.94,3.7,1.91,5.5,2.96.29.17.32.79.46,1.2,1.16.54,2.31,1.07,3.47,1.61.02-9.67.04-19.34.05-29.01.01-8.66.02-17.33.04-25.99l-.19-.57H-.71v.56Z"/><path class="cls-3" d="m53.17,24.41c-.02,9.67-.04,19.34-.05,29.01h0c.02-9.67.04-19.34.05-29.01Z"/><path class="cls-12" d="m62.44,64.87c.24-.07.56-.37.59-.59.09-.87.1-1.74.1-2.61,0-18.72.01-37.43,0-56.15,0-2.31-.17-4.62-.21-6.93,0-.37-.09-.6-.28-.73h-7.76c-.24.13-.37.37-.34.79,2.35-.07,4.7-.15,7.05-.19.19,0,.51.27.56.47.22.85.45,1.71.5,2.57.08,1.41.02,2.82.02,4.23,0,18.6,0,37.19,0,55.79,0,.35.12.78-.04,1.03-.33.5-.73,1.05-1.24,1.3-.52.26-1.2.25-1.81.25-20.1,0-40.19,0-60.29,0v.92c20.59,0,41.19,0,61.78,0,.46,0,.93-.02,1.37-.15Z"/><path class="cls-12" d="m53.11,53.41h0c-1.16-.54-2.31-1.07-3.47-1.61-2.1-1.05-4.2-2.1-6.3-3.14-5.74-2.83-11.5-5.63-17.23-8.49-8.95-4.46-17.88-8.95-26.82-13.42v1.88c.65.39,1.24.87,1.71,1.57.09.13.33.19.51.23,1.19.26,2.14,1.34,3.51,1,.12-.03.3.21.47.3.95.51,1.91,1.01,2.87,1.5,1.56.79,3.12,1.56,4.68,2.33.95.47,1.9.92,2.86,1.37.92.43,1.87.8,2.77,1.25.93.47,1.8,1.06,2.74,1.52,1.51.73,3.08,1.35,4.59,2.1,1.53.75,3,1.61,4.51,2.4.73.38,1.47.74,2.22,1.09.87.41,1.88.64,2.6,1.23.79.64,1.23,1.54,2.44,1.8,1.23.26,2.34,1.08,3.49,1.66.16.08.28.26.45.35.88.49,1.75,1.02,2.66,1.45.92.44,1.91.72,2.81,1.19,1.13.59,2.08,1.55,3.46,1.63.1,0,.26.07.3.15.53,1.26,1.49.66,2.33.68.02-.29.04-.56.05-.81.02-.25.03-.49.05-.73-.08-.16-.17-.32-.25-.47Z"/><path class="cls-12" d="m53.37,53.89h0c-.08-.16-.17-.32-.25-.47h0c.08.16.17.32.25.47Z"/><path class="cls-12" d="m53.32,54.62c.02-.25.03-.49.05-.73h0c-.02.24-.03.48-.05.73Z"/><path class="cls-14" d="m100.52,66.97c-.37,0-.73-.1-1.1-.15.02.05.02.09-.01.13.23.37.46.73.69,1.1,21.36,0,42.72,0,64.08,0v-1.12c-11.13,0-22.25,0-33.38,0-10.09,0-20.18.03-30.27.04Z"/><path class="cls-19" d="m55.96,101.61c.83,0,1.66,0,2.49,0,.1,0,.2,0,.3,0h.63c.1,0,.2,0,.3,0,1.23.01,2.46.03,3.69.04.15,0,.3,0,.45-.01.15-.01.29-.02.44-.03.09-.05.17-.11.26-.16h0c.02-.15.02-.28,0-.39-.01-.11-.04-.2-.08-.27-.04-.07-.09-.12-.14-.17-.12-.08-.27-.11-.43-.11-.24,0-.52.04-.75.04-21.28,0-42.56,0-63.84,0v1.07c18.79,0,37.58,0,56.37,0h.3Z"/><path class="cls-19" d="m59.38,101.61c.1,0,.2,0,.3,0,1.23.01,2.46.03,3.69.04-1.23-.01-2.46-.03-3.69-.04-.1,0-.2,0-.3,0Z"/><path class="cls-19" d="m55.66,101.61c.1,0,.2,0,.3,0,.83,0,1.66,0,2.49,0-.83,0-1.66,0-2.49,0h-.3Z"/><path class="cls-19" d="m64.53,101.05c.01.11.01.24,0,.39h0c.02-.15.02-.28,0-.39Z"/><path class="cls-14" d="m58.84,68.05c1.59,0,3.18-.03,4.76.01.72.02,1.1-.24,1.15-.96-.47-.05-.93-.09-1.4-.14-.46-.01-.93-.03-1.39-.03-20.89,0-41.78,0-62.67,0v1.11c19.85,0,39.7,0,59.55,0Z"/><path class="cls-7" d="m50.03.47c.36-.05.67-.43,1.01-.66-.2-.53-.36-1.5-.61-1.52-1.1-.1-2.23.06-3.34.13.6.08,1.19.15,1.79.23.33.05.66.11.99.17-.01.12-.02.24-.03.36-1.06.05-2.11.15-3.17.16-12.43.01-24.87,0-37.3,0-3.36,0-6.72,0-10.08,0V.73c15.73,0,31.45,0,47.18,0,1.19,0,2.39-.1,3.57-.25Z"/><path class="cls-2" d="m2.08,141.48c2.34-1.17,4.71-2.28,7.06-3.44,1.43-.71,2.83-1.47,4.26-2.18,2.28-1.13,4.57-2.23,6.85-3.36,1.46-.73,2.9-1.51,4.37-2.22,1.51-.72,3.09-1.32,4.58-2.08,1.56-.78,3.03-1.73,4.58-2.53,2.33-1.19,4.69-2.32,7.05-3.47,1.53-.75,3.1-1.43,4.61-2.22,1.75-.91,3.52-1.82,5.17-2.91.82-.54,1.56-.89,2.52-.76v-1.31c-.58.21-1.01.32-1.4.51-8.83,4.43-17.66,8.88-26.49,13.32-6.8,3.41-13.6,6.82-20.41,10.21-1.84.92-3.69,1.84-5.53,2.76v1.11c.93-.49,1.85-.98,2.79-1.45Z"/><path class="cls-12" d="m10.78,118.02c1.59-.78,3.28-1.35,4.85-2.15,2.11-1.07,4.15-2.27,6.24-3.39.72-.38,1.45-.82,2.23-.99,1-.22,2.06-.27,3.1-.26,2.97.04,5.94.25,8.91.18,2.34-.05,4.68-.45,6.99.22.07.02.18-.12.27-.19-.22-.43-.45-.86-.59-1.13-.51-.05-.91-.11-1.31-.14-.3-.02-.59-.02-.89,0-2.37.16-4.73.39-7.1.48-1.67.06-3.35-.06-5.03-.09-.75-.01-1.51-.02-2.26-.01-1.67,0-3.18,1.56-4.98.54-.06-.03-.48.4-.59.67-.08.2.05.49.12.91-1.1-.57-2.21-1.19-1.92.64-.71-.08-1.39-.15-2.21-.25.19.68.28,1,.4,1.41-.62-.05-1.14-1.56-1.54,0-.08.3-.26.85-.34.84-.4-.05-.77-.24-1.33-.45-.12.4-.27.9-.45,1.5-.9-.25-2.37-1.77-2.21.66-.51-.09-1.07-.37-1.4-.2-.32.17-.41.79-.59,1.21-1.06-.76-1.41-.64-2.07.78-1.51-1.05-1.23.55-1.63,1.22-.98-1.16-1.41.21-2.02.27-1.09.11-1.44.6-1.57,1.51-.84-.35-1.82-.18-2.58.3v1.78c1.91-.94,3.83-1.88,5.72-2.84,1.93-.99,3.81-2.07,5.76-3.03Z"/><path class="cls-23" d="m16.34,52.55c-.37-.33-.73-.65-1.09-.98-1.2-.46-2.42-.86-3.58-1.4-1.65-.77-3.25-1.63-4.87-2.46-1.61-.83-3.2-1.69-4.82-2.49-.89-.44-1.79-.86-2.68-1.29v.96c.63.32,1.27.63,1.9.95,3.16,1.58,6.33,3.16,9.5,4.72.48.24.97.49,1.49.62.95.24,1.2.95,1.47,1.95-1.15.18-2.23.39-3.31.5-.86.08-1.75-.03-2.6.08-.39.05-.74.42-1.1.64.23.31.46.61.7.92l3.26.08c.15,0,.3,0,.45,0h.48c.15,0,.3,0,.45,0,.16,0,.32,0,.48,0,.15,0,.3,0,.45,0h0c.16,0,.32,0,.48,0,.15,0,.3,0,.45,0,.24,0,.47,0,.71,0,.07,0,.15,0,.22,0,.16-.03.32-.06.48-.08.22-.16.41-.38.66-.47,1.38-.51,1.54-1.27.43-2.25Z"/><path class="cls-23" d="m11.98,55.35c.16,0,.32,0,.48,0-.16,0-.32,0-.48,0h0Z"/><path class="cls-23" d="m13.84,55.35c.24,0,.47,0,.71,0-.24,0-.47,0-.71,0h0Z"/><path class="cls-23" d="m11.05,55.35c.16,0,.32,0,.48,0h-.48s0,0,0,0Z"/><path class="cls-23" d="m12.46,55.35c.15,0,.3,0,.45,0h0c-.15,0-.3,0-.45,0Z"/><path class="cls-23" d="m14.55,55.35c.07,0,.15,0,.22,0,.16-.03.32-.06.48-.08-.16.03-.32.06-.48.08-.07,0-.15,0-.22,0Z"/><path class="cls-6" d="m111.02,47.05c0,.42.02.85.04,1.27.15.26.31.51.46.77s.3.51.42.78c.27.58.31,1.52.73,1.73.76.37,1.41-.26,1.84-.96-1.56.24-1.58.24-1.62-1.31-.03-1.25,0-2.51,0-3.76,0-14.72,0-29.44,0-44.16,0-.42-.08-.84-.07-1.27,0-.76.04-1.52.07-2.28h-1.85c0,.36,0,.7,0,1.02,0,16.06,0,32.12,0,48.17Z"/><path class="cls-6" d="m111.02,47.05c0,.42.02.85.04,1.27h0c-.01-.42-.04-.85-.04-1.27Z"/><path class="cls-12" d="m151.67,64.12c-16.73.07-33.45-.32-50.18.22.63.23,1.26.67,1.89.67,20.26.02,40.52.01,60.79.02v-.92c-4.17,0-8.34,0-12.5.02Z"/><path class="cls-5" d="m163.56,26.27c-.39.16-.77.31-1.16.47l-.7.46c-.39.16-.77.31-1.16.47-.23.15-.47.31-.7.46-.39.16-.77.31-1.16.47-.23.15-.47.31-.7.46-.39.16-.77.31-1.16.47-.16.15-.31.31-.47.46-.46.16-.93.31-1.39.47-.23.15-.47.31-.7.46-.85.39-1.7.77-2.56,1.16-.23.15-.47.31-.7.46-.39.15-.77.31-1.16.46-.23.15-.47.31-.7.46-.39.15-.77.31-1.16.46-.23.15-.47.31-.7.46-1.01.46-2.01.93-3.02,1.39-.39.23-.78.46-1.16.69l-.7.23-.7.46c-.39.15-.77.31-1.16.46-.39.23-.78.46-1.16.69-.15,0-.31,0-.46,0l-.7.46c-.39.15-.77.31-1.16.46-.39.31-.78.62-1.16.93-.31.08-.62.16-.93.23-.31.23-.62.46-.93.69-.31.08-.62.16-.93.23-.39.23-.78.46-1.16.69-.15.08-.31.16-.46.23-.39.23-.78.46-1.16.69.39-.23.78-.46,1.16-.69-.39.23-.78.46-1.16.69-.23.08-.46.16-.7.23-.39.23-.78.46-1.16.69-.31.08-.62.16-.93.23-.31.23-.62.46-.93.69-.31.08-.62.16-.93.23-.31.23-.62.46-.93.69-.31.08-.62.16-.93.23-.31.23-.62.46-.93.69.31-.23.62-.46.93-.69-.31.23-.62.46-.93.69l-.93.23c-.31.23-.62.46-.93.69-.31.08-.62.16-.93.23-.31.23-.62.46-.93.69-.31.08-.62.16-.93.23-.39.23-.78.46-1.16.69-.39.16-.77.31-1.16.47-.08.15-.16.31-.23.46-.15.33-.3.66-.45.99.76-.4,1.51-.82,2.28-1.2,7.29-3.62,14.59-7.23,21.87-10.85,7.5-3.73,15-7.47,22.5-11.21.76-.38,1.53-.77,2.29-1.15v-1.12c-.2.13-.41.27-.61.4Z"/><path class="cls-5" d="m135.9,40.19c.39-.31.78-.62,1.16-.93.39-.15.77-.31,1.16-.46-.39.15-.77.31-1.16.46l-1.16.93Z"/><path class="cls-12" d="m4.07,43.67c.89.38,1.83.64,2.68,1.09,1.51.8,2.96,1.71,4.44,2.55.64.36,1.29.7,1.96.99.94.41,1.91.74,2.85,1.16,1.2.53,2.38,1.11,3.56,1.67.17.08.31.21.47.3.91.51,1.82,1.03,2.75,1.52.5.27,1.06.44,1.54.73.61.36.58.77-.02,1.13-.09.42,1.34.54.23,1.16.19.96-.76.79-1.16,1.16.8.56,1.36.05,1.94-.42.46-.38.75-.77.25-1.34-.1-.11-.11-.4-.04-.55.58-1.4-.36-1.99-1.36-2.5-.74-.38-1.54-.56-2.28-1.05-1.39-.92-3.02-1.47-4.55-2.18-1.23-.57-2.46-1.15-3.68-1.74-.2-.09-.33-.31-.51-.43-.28-.17-.57-.33-.87-.45-.9-.37-2.13-.48-2.64-1.14-.6-.79-1.16-.65-1.79-.78-.45-.41-.97-.62-1.48-.88-.25-.12-.46-.31-.69-.46-.24-.16-.47-.34-.74-.45-.92-.37-1.86-.7-2.78-1.07-.08-.03-.1-.22-.18-.28-.3-.19-.6-.38-.93-.51-.27-.11-.6-.1-.84-.24-.31-.19-.61-.39-.91-.59v1.06c.88.45,1.68,1.04,2.55,1.51.72.39,1.48.71,2.23,1.03Z"/><path class="cls-12" d="m101.03-1c.06.41.14.83.22,1.24.15.78.46,1.56.46,2.34.03,19.14.03,38.28,0,57.42,0,1.22-.29,2.43-.45,3.64,1.01-.5,1.17-1.4,1.17-2.41,0-19.6,0-39.2,0-58.8,0-.85.05-1.64-.7-2.33-.55-.5-.28-1.58.29-1.62.71-.05,1.43,0,2.14.01,1.41,0,2.83,0,4.51,0v55.87c1.28-.44,1.23-1.27,1.2-2.09-1.01.02-.69-.76-.69-1.25-.01-17.05-.01-34.1-.01-51.15,0-.39.07-.8-.04-1.15-.1-.33-.22-.63-.4-.85h-7.33c-.33.19-.44.57-.36,1.15Z"/><path class="cls-15" d="m163.64,42.39c-1.52.76-2.98,1.65-4.5,2.4-1.56.78-3.18,1.42-4.73,2.2-1.52.76-2.98,1.64-4.5,2.42-.77.39-1.59.67-2.39,1,0,.32,0,.63,0,.95.25-.09.51-.17.75-.29,5.3-2.65,10.6-5.31,15.89-7.96v-.97c-.18.08-.35.16-.53.25Z"/><path class="cls-13" d="m.38,126.36c3.07-1.5,6.12-3.03,9.17-4.56.73-.37,1.43-.79,2.14-1.2.85-.49,1.67-1.05,2.55-1.47.94-.45,1.96-.71,2.89-1.15,2.03-.98,4.02-2.04,6.06-3.02.53-.26,1.15-.44,1.74-.48,3.11-.19,6.23-.38,9.35-.43.84-.01,1.73.39,2.49.8.23.13.08.95.1,1.46.7-.32,1.4-.65,2.1-.97-.15-.29-.29-.58-.44-.86-.16-.32-.33-.63-.49-.94-.54-.07-1.09-.13-1.63-.2-.23,0-.47.01-.7.02-.23,0-.46,0-.68,0-.16,0-.32,0-.48,0-.07,0-.15,0-.22,0-.86,0-1.71,0-2.57,0-.08,0-.15,0-.23,0-.23,0-.47,0-.7,0-.08,0-.15,0-.22,0-.54,0-1.09,0-1.63,0h-.22c-1.62,0-3.24,0-4.87,0-.4.18-.8.35-1.19.55-7.79,3.96-15.58,7.92-23.38,11.87v1.11c.36-.17.73-.34,1.09-.52Z"/><path class="cls-13" d="m147.06,42.32c0,.22,0,.44,0,.66.91.24,1.33-.55,1.98-.88,1.96-.99,4-1.85,5.98-2.8,1.78-.86,3.53-1.78,5.29-2.68.67-.34,1.32-.72,1.99-1.05.62-.3,1.24-.59,1.87-.88v-1.01c-1.79.92-3.58,1.84-5.38,2.76-3.9,1.98-7.82,3.92-11.74,5.88Z"/><path class="cls-15" d="m34.97,116.53c-2.03.89-4.03,1.83-6.02,2.79-2.61,1.26-5.22,2.52-7.8,3.85-2.04,1.05-4.02,2.23-6.07,3.28-.76.39-1.63.56-2.63.89-.21.68-.8,1.08-1.84.6-.17,1.22-.94,1.27-1.82,1-.3.99-.87,1.34-1.75,1.12-.51.37-1.09.55-1.65.76-.19.07-.39.21-.51.37-.68.86-2.1.47-2.66,1.56-.02.05-.37-.12-.53-.07-.23.06-.42.24-.63.36-.08.15-.15.31-.23.46-.21.25-.57.16-.9.14-.26-.02-.49.02-.63.28v.41c.13.19.27.38.4.58.14-.01.28-.03.43-.04.3-.15.6-.3.89-.46.25-.15.49-.3.74-.45.08-.05.16-.1.25-.16.07-.02.15-.05.22-.07h0s0,0,0,0h0c.08-.06.15-.12.23-.17.23-.1.47-.19.7-.29.15-.08.31-.16.46-.24.16-.07.31-.15.47-.22l.23-.17c.54-.25,1.09-.5,1.63-.76.08-.06.15-.12.23-.17,5.44-2.69,10.89-5.38,16.33-8.07.29-.12.58-.25.87-.37.46-.23.93-.47,1.39-.71.47-.23.93-.46,1.4-.7.15-.08.31-.16.46-.23l1.4-.69c.15-.08.31-.16.46-.23.47-.23.93-.46,1.4-.69.15-.08.31-.16.46-.23.25-.1.5-.2.75-.3h0s.05-.07.1-.08c.19-.11.38-.21.57-.32.15-.07.3-.14.45-.22l1.4-.69c.78-.45,1.56-.91,2.34-1.36-.32-.09-.72-.36-.96-.26Z"/><polygon class="cls-15" points="2.22 133.73 2.22 133.73 2.22 133.73 2.22 133.73"/><path class="cls-15" d="m31.08,119.46h0s.05-.07.1-.08c-.05.01-.08.04-.1.08h0Z"/><path class="cls-15" d="m31.18,119.38c.19-.11.38-.21.57-.32.15-.07.3-.14.45-.22-.15.07-.3.14-.45.22-.19.11-.38.21-.57.32Z"/><path class="cls-12" d="m3.77,56.47c-.55-.57-1.44-.83-2.22-1.15-.18-.08-.48.12-.73.2,1.55.9,3.09,1.81,4.73,2.77.5-.54,1.18-.71,2,.06.24.23.76.16,1.15.24.44.09.92.11,1.29.32.97.54,2.55.47,3.13-.03.7.16,1.56.48,1.64.35.85-1.46,2.17-.72,3.32-.92.14.44.25.78.37,1.17.49-.12.89-.22,1.29-.32l-.17-.24c.3-.25.74-.78.87-.71,1.3.67,1.71-.58,2.47-1.05-5.73,0-11.45,0-17.18,0-.74,0-1.36-.03-1.97-.67Z"/><path class="cls-15" d="m7.34,55.27c-.23-.31-.46-.61-.7-.92-.62-.08-1.24-.16-1.86-.24l-1.4-.69c-.15-.08-.31-.16-.46-.23-.47-.23-.93-.46-1.4-.69-.15-.08-.31-.16-.46-.23-.16-.08-.31-.15-.47-.23-.43-.22-.87-.44-1.3-.65v1.15c1.26.64,2.52,1.29,3.78,1.94,1.43.75,2.77.91,4.27.8Z"/><path class="cls-12" d="m54.31,49.67c0,.4.15.8.22,1.2.08-.4.22-.8.22-1.2.01-15.76.01-31.51,0-47.27,0-.4-.15-.8-.22-1.2-.08.4-.22.8-.22,1.2-.01,15.76-.01,31.51,0,47.27Z"/><path class="cls-16" d="m1.98,45.21c1.62.81,3.21,1.67,4.82,2.49,1.62.83,3.22,1.7,4.87,2.46,1.16.54,2.38.94,3.58,1.4l.49-.24c-.83-.47-1.66-.93-2.49-1.4-.9-.51-1.78-1.06-2.71-1.52-1.73-.84-3.49-1.61-5.22-2.45-2.01-.97-4.01-1.97-6.01-2.96v.92c.9.42,1.8.85,2.68,1.29Z"/><path class="cls-16" d="m132.89,50.41c.55-.31,1.1-.61,1.65-.89,1.66-.85,3.34-1.64,5.01-2.46,1.57-.76,3.16-1.46,4.69-2.27.98-.52,1.87-1.2,2.81-1.8,0-.22,0-.44,0-.66-5.27,2.65-10.54,5.31-15.81,7.96,0,.35,0,.7,0,1.05.55-.3,1.09-.62,1.64-.92Z"/><path class="cls-16" d="m131.25,51.33c.55-.3,1.09-.62,1.64-.92-.55.31-1.09.62-1.64.92h0Z"/><path class="cls-21" d="m99.17,1.96c0,20.93,0,41.86-.02,62.8,0,.4-.15.8-.22,1.2.16.33.32.66.47.99.03-.04.04-.08.01-.13,0-.54-.02-1.08-.02-1.62,0-21.14,0-42.28,0-63.42,0-.42-.03-.85-.05-1.27-.06.49-.18.97-.18,1.46Z"/><path class="cls-13" d="m16.34,52.55c1.1.98.95,1.75-.43,2.25-.24.09-.44.31-.66.47v.08c.14,0,.3,0,.45,0h.72c.07-.06.14-.06.22,0h6.19c-.36-.58-.79-.95-1.28-1.21-1.51-.8-3.04-1.58-4.57-2.34-.39-.2-.83-.31-1.24-.47l-.49.24c.36.33.73.66,1.09.98Z"/><path class="cls-13" d="m15.23,55.35c.15,0,.31,0,.46,0,.24,0,.48,0,.72,0h-.72c-.15,0-.31,0-.46,0Z"/><path class="cls-12" d="m38.02,113.26c-.76-.22-1.52-.61-2.28-.62-3.65-.07-7.31-.05-10.96,0-.31,0-.61.47-.92.72,1.62,0,3.24,0,4.87,0,.07,0,.15,0,.22,0,.54,0,1.09,0,1.63,0,.08,0,.15,0,.22,0,.23,0,.47,0,.7,0,.08,0,.15,0,.23,0,.86,0,1.71,0,2.57,0,.07,0,.15,0,.22,0,.16,0,.32,0,.48,0,.23,0,.46,0,.68,0,.23,0,.47-.01.7-.02.54-.03,1.09-.05,1.63-.08Z"/><path class="cls-12" d="m28.95,113.35c.54,0,1.09,0,1.63,0-.54,0-1.09,0-1.63,0h0Z"/><path class="cls-4" d="m115.23,51.4c.15-.33.3-.66.45-.99-.16,0-.31,0-.46,0-.23.08-.46.16-.7.23-.43.69-1.08,1.33-1.84.96-.42-.21-.46-1.15-.73-1.73-.13-.27-.27-.53-.42-.78-.15-.26-.31-.51-.46-.77h0c-.03.85-.05,1.7-.08,2.55.09.87.18,1.73.27,2.6,1.32-.69,2.65-1.38,3.97-2.07Z"/><path class="cls-4" d="m111.52,49.09c-.15-.26-.31-.51-.46-.77h0c.15.26.31.51.46.77Z"/><path class="cls-13" d="m128.91,55.24c-.99-.79-1.92-1.6-1.16-3.05.02-.03,0-.08,0-.11-.86.43-1.72.86-2.58,1.29.24.63.48,1.25.72,1.88,1,0,2.01,0,3.01,0Z"/><path class="cls-14" d="m122.43,55.27c.84.06,1.69.04,2.54.05.31-.03.62-.05.93-.08-.24-.63-.48-1.25-.72-1.88-1.15.49-2.29.98-3.44,1.47.23.15.45.42.69.44Z"/><path class="cls-14" d="m125.18,53.36c-1.15.49-2.29.98-3.44,1.47h0c1.15-.49,2.29-.98,3.44-1.47Z"/><path class="cls-19" d="m38.71,113.36c-.15,0-.3,0-.45,0-.08.06-.16.12-.24.18.16.31.33.63.49.94.15.29.29.58.44.86l2.08-.67c.24-.14.47-.28.71-.42.07-.02.13-.03.2-.03l.25-.47c-.75-.07-1.5-.14-2.25-.22-.41-.04-.82-.11-1.24-.17Z"/><path class="cls-11" d="m51.4,112.2c-1.62.48-2.16.64-1.52,1.8.23-.08.46-.15.7-.23.18-.3.36-.59.54-.89.13.14.26.28.39.42h1.63c.05-.26.1-.51.18-.93-.67-.08-1.36-.35-1.91-.18Z"/><path class="cls-12" d="m44.3,111.45c1.01,1.08-.49.92-.7,1.39.51.97,1.03.97,1.86,0-.13-.4-.19-.84-.41-1.19-.1-.16-.49-.14-.76-.2Z"/><path class="cls-11" d="m44.16,115.22c.4.36.7.64,1.04.95-.22.21-.44.41-.66.62.54-.23,1.08-.46,1.63-.7-.22-.5-.43-1.01-.67-1.57-.39.21-.78.41-1.33.7Z"/><path class="cls-11" d="m36.33,120.3s-.3.19-.36.34c-.07.16-.03.37-.04.56,1.01-.54,2.01-1.08,3.02-1.62-1.16-.82-1.48,1.41-2.62.73Z"/><path class="cls-11" d="m24.31,54.82c-.08-.08-.15-.15-.23-.23h-.7c-.04.33-.09.67-.14,1.05.43.12.87.23,1.3.35,1.11-.62-.33-.74-.23-1.16Z"/><path class="cls-17" d="m38.71,113.36c.41.06.82.12,1.24.17.75.08,1.5.15,2.25.22.23-.14.46-.27.68-.41-1.39,0-2.78.01-4.16.02Z"/><path class="cls-17" d="m42.2,113.75c.23-.14.46-.27.68-.41h0c-.23.14-.46.27-.68.41Z"/><path class="cls-12" d="m54.64,54.74c.09-.75.2-1.24.2-1.72,0-.25-.2-.51-.31-.76l-.7,1.62c.22.23.43.46.81.85Z"/><path class="cls-13" d="m131.25,51.33c0-.35,0-.7,0-1.05-.49.27-.97.53-1.46.8.49.08.97.17,1.46.25h0Z"/><path class="cls-13" d="m131.25,50.28c-.49.27-.97.53-1.46.8.49-.27.97-.53,1.46-.8h0Z"/><path class="cls-13" d="m131.25,51.33h0c-.49-.08-.97-.17-1.46-.25.49.08.97.17,1.46.25h0Z"/><path class="cls-13" d="m129.62,51.14c-.57.29-1.13.58-1.7.86.67-.09,1.66.45,1.7-.86Z"/><path class="cls-11" d="m26.15,121.86c-.47.23-.93.46-1.4.7.78.4,1.3.27,1.4-.7Z"/><path class="cls-11" d="m29.87,120c-.47.23-.93.46-1.4.69.78.4,1.3.27,1.4-.69Z"/><path class="cls-11" d="m28.01,120.93l-1.4.69c.78.4,1.3.28,1.4-.69Z"/><path class="cls-11" d="m33.59,118.14l-1.4.69c.82.48,1.07-.18,1.4-.69Z"/><path class="cls-11" d="m50.58,113.77c.31-.15.62-.31.93-.46-.13-.14-.26-.28-.39-.42-.18.3-.36.59-.54.89Z"/><path class="cls-11" d="m41.28,118.64c.31-.23.62-.46.93-.7-.88-.52-.76.28-.93.7Z"/><path class="cls-11" d="m.12,134.86c-.14.01-.28.03-.43.04H-.31c-.13.11-.27.22-.4.32v.17c.47.22.79.12.83-.54Z"/><path class="cls-11" d="m-.31,134.9H-.31c.14-.01.28-.03.43-.04-.14.01-.28.03-.43.04H-.31Z"/><path class="cls-11" d="m30.34,119.76c.25.06.5.12.76.18,0-.16,0-.32-.01-.48-.25.1-.5.2-.75.3Z"/><path class="cls-11" d="m31.09,119.94c0-.16,0-.32-.01-.48h0c0,.16,0,.32.01.48Z"/><path class="cls-17" d="m38.02,113.26c-.54.03-1.09.05-1.63.08l1.63.2c.08-.06.16-.12.24-.18-.08-.03-.16-.07-.24-.1Z"/><path class="cls-12" d="m23.78,54.16c-.13.14-.27.28-.4.42h.7c-.1-.14-.2-.28-.29-.42Z"/><path class="cls-17" d="m63.36,66.96c.47.05.93.09,1.4.14,0-.08,0-.16-.01-.25-.46.03-.92.07-1.38.1Z"/><path class="cls-11" d="m1.75,133.95c-.25.15-.49.3-.74.45.53.3.8.19.74-.45Z"/><path class="cls-18" d="m63.54,101.9c.09-.09.19-.18.28-.26-.15,0-.3,0-.45.01.06.08.12.17.18.25Z"/><path class="cls-11" d="m43.26,115.47c-.12-.1-.23-.2-.35-.3v.23c.12.02.23.05.35.07Z"/><path class="cls-11" d="m32.21,123.29h.46c-.06-.12-.12-.24-.18-.36-.1.12-.19.24-.29.36Z"/><path class="cls-10" d="m64.38,2.13c.11.08.22.16.33.23,0-.16,0-.31,0-.47-.11.08-.22.16-.33.23Z"/><path class="cls-10" d="m64.72,2.36h0c-.11-.08-.22-.16-.33-.23.11.08.22.16.33.23Z"/><path class="cls-18" d="m64.71,101.74c-.04-.06-.08-.13-.12-.19-.02-.03-.05-.07-.07-.1-.09.05-.17.11-.26.16.09.06.18.11.27.17.06-.02.12-.03.18-.03h0Z"/><path class="cls-18" d="m64.52,101.45h0s.05.07.07.1c-.02-.03-.05-.07-.07-.1Z"/><path class="cls-10" d="m64.54,101.78c.03.07.09.12.16.15.03-.06.03-.12.01-.19-.06,0-.12.01-.18.03Z"/><path class="cls-10" d="m64.71,101.74c.02.06.02.13-.01.19.03-.06.03-.12.01-.19h0Z"/><path class="cls-10" d="m64.65,102.46c.01.06.05.11.07.16,0-.08,0-.15,0-.23-.03.02-.08.05-.07.06Z"/><path class="cls-24" d="m16.41,55.34c.07,0,.14,0,.22,0-.07-.05-.14-.05-.22,0Z"/><path class="cls-1" d="m139.65,129.24c-3.81-1.9-7.63-3.81-11.44-5.72-4.49-2.25-8.97-4.5-13.46-6.76,0,.32,0,.64,0,.95.07.07.13.15.19.22.06.07.13.14.21.17,1.57.73,3.16,1.41,4.71,2.17,2.48,1.21,4.93,2.47,7.38,3.73.23.12.36.44.53.66.15,0,.31,0,.46,0,1.44.68,2.89,1.36,4.32,2.05,1.23.6,2.46,1.2,3.67,1.84.32.17.57.49.84.74h0c.15,0,.31,0,.46,0,.86.39,1.73.76,2.58,1.18,3,1.48,5.98,2.98,8.97,4.48,4.11,2.06,8.21,4.14,12.32,6.2.92.46,1.85.91,2.78,1.36v-1.03c-2.22-1.12-4.43-2.24-6.65-3.35-5.95-2.98-11.91-5.95-17.87-8.92Z"/><path class="cls-1" d="m137.53,129.32c-.15,0-.31,0-.46,0h0c.15,0,.31,0,.46,0Z"/><path class="cls-6" d="m161.39,141.18c-4.11-2.06-8.21-4.14-12.32-6.2-2.99-1.5-5.98-3-8.97-4.48-.85-.42-1.72-.79-2.58-1.18.42,1.4,1.87,1.38,2.84,1.93,2.64,1.48,5.42,2.7,8.13,4.06,3.6,1.8,7.19,3.64,10.79,5.45,1.63.82,3.25,1.63,4.89,2.42v-.64c-.93-.45-1.86-.9-2.78-1.36Z"/><path class="cls-6" d="m131.04,126.58c1.62,1.07,3.46,1.82,5.22,2.67.11.05.25.07.38.07.07,0,.14,0,.21,0,.07,0,.14,0,.21,0-.28-.25-.52-.57-.84-.74-1.21-.64-2.44-1.24-3.67-1.84-1.44-.7-2.88-1.37-4.32-2.05.38,1.42,1.88,1.28,2.81,1.9Z"/><path class="cls-6" d="m136.86,129.31c.07,0,.14,0,.21,0h0c-.07,0-.14,0-.21,0Z"/><path class="cls-11" d="m163.66,128.92c.12-.32.24-.65.4-1.09-.8.13-1.51.24-2.44.39.26-.58.4-.9.63-1.42-1.93.84-3.07-.14-4.16-1.35-.19-.21-.62-.3-.93-.3-1.32,0-2.28-.56-3.24-1.48-.7-.67-1.82-.87-2.72-1.35-1.44-.77-2.76-1.94-4.28-2.31-1.93-.47-3.31-2.2-5.45-2.13-.55.02-1.15-.53-1.67-.9-.1-.07-.03-.62.12-.76.3-.27.72-.41,1.09-.6-.08-.08-.15-.15-.23-.23-.91.07-1.75.04-1.86-1.16-.23-.23-.46-.46-.7-.7-.06-.24-.26-.55-.17-.71.4-.79.88-1.54,1.33-2.31q.19-.84,1.59-.84c-.1-.19-.17-.36-.27-.5-.1-.16-.23-.3-.42-.54.93-1.05,2.17-.72,3.27-.78,1.35-.08,2.71-.03,4.07-.05.23,0,.46-.07.69-.07,3.03,0,6.06-.02,9.09,0,1.39.01,2.5.93,2.9,2.31.25.65,1.28.91.93,1.86.23.08.46.15.7.23.69-.07,1.59.29,2.24.8v-8.69c-17.43,0-34.86,0-52.28,0-2.29,0-4.59-.12-6.88-.23-1.12-.05-1.98.02-1.98,1.5,0,1.02-.35,2.05-.35,3.07-.02,18.2-.02,36.41-.02,54.61h5.92v-48.98c1.1.44,1.8.1,2.08-.99,0,0,.24.05.37.08.27.03.57-.02.79.1,1.73.86,3.44,1.76,5.16,2.63,2.74,1.38,5.49,2.74,8.24,4.11,2.25,1.12,4.51,2.24,6.76,3.36,1.4.69,2.81,1.36,4.2,2.07,2.13,1.09,4.25,2.21,6.38,3.29,1.67.84,3.36,1.62,5.03,2.46,2.04,1.02,4.07,2.1,6.12,3.11,2.19,1.08,4.41,2.08,6.59,3.17,1.3.65,2.59,1.33,3.88,2.01v-10.51c-.17-.06-.34-.11-.51-.17Zm-50.73-15.87c-1.25-1.99-2.41.04-3.83-.04.18-.7.34-1.31.46-1.79.88,0,1.56.02,2.24,0,1.13-.05,1.65.7,1.13,1.83Zm24.66,4.22c-.6-.84-1.19-1.68-1.79-2.51.09-.1.18-.2.27-.3.64.13,1.61.06,1.85.44.36.57.2,1.46.27,2.21l-.6.17Z"/><path class="cls-12" d="m102.14,103.56c-.96.08-1.22.56-.95,1.49.26.91.52,1.86.52,2.8.03,18.45.03,36.89,0,55.34h.95c0-18.2,0-36.41.02-54.61,0-1.02.36-2.05.35-3.07,0-1.48.87-1.55,1.98-1.5,2.29.11,4.59.23,6.88.23,17.43.01,34.86,0,52.28,0v-.69c-20.41,0-40.82,0-61.22,0-.27,0-.54-.02-.81,0Z"/><path class="cls-21" d="m99.65,101.72c-.16,0-.33-.02-.49-.02,0,20.5,0,41,0,61.5h.23c0-20.06,0-40.12.01-60.17,0-.44.16-.87.24-1.31Z"/><path class="cls-12" d="m156.41,123.27c-.06-.08-.21-.11-.32-.11-2.08.06-3.44-1.54-5.19-2.27-2.28-.95-4.42-2.22-6.61-3.38-1.11-.59-2.19-1.25-3.28-1.88-.37.19-.79.33-1.09.6-.16.14-.22.69-.12.76.52.37,1.12.92,1.67.9,2.14-.08,3.51,1.65,5.45,2.13,1.52.37,2.84,1.54,4.28,2.31.9.48,2.03.68,2.72,1.35.96.92,1.92,1.47,3.24,1.48.32,0,.74.09.93.3,1.09,1.2,2.23,2.18,4.16,1.35-.23.52-.37.84-.63,1.42.93-.15,1.64-.26,2.44-.39-.16.44-.28.77-.4,1.09.17.06.34.11.51.17v-2.03c-1.02-.47-2.05-.92-3.02-1.48-1.53-.89-3.55-.75-4.74-2.32Zm3.67,3.23c-.09-.13-.2-.23-.18-.28.04-.1.16-.18.24-.27.04.09.13.18.12.27,0,.08-.1.15-.19.28Z"/><path class="cls-23" d="m151.74,117.35c-.72-.37-.96-1.12-.65-1.78.16-.34.85-.59,1.31-.61,2.17-.06,4.34-.05,6.51-.01.48,0,.98.18,1.42.38,1.29.58,2.62,1.11,3.85,1.79v-.61c-1.44-.68-2.89-1.37-4.33-2.05-.52-.09-1.04-.17-1.57-.26s-1.04-.18-1.56-.3c-.23-.05-.4-.39-.6-.59-2.64,0-5.27,0-7.91,0-.18.28-.3.69-.55.8-1.02.43-1.2,1.29-1.31,2.22,1.32.69,2.64,1.39,3.95,2.08.51-.05,1.1-.29,1.52-.12,1.84.74,3.64,1.58,5.43,2.43,2.31,1.09,4.62,2.19,6.91,3.32v-.63c-1.94-.92-3.89-1.82-5.82-2.75-2.22-1.07-4.42-2.19-6.61-3.32Z"/><path class="cls-16" d="m157.26,120.72c-1.79-.85-3.59-1.69-5.43-2.43-.42-.17-1.01.07-1.52.12,1.63.85,3.25,1.72,4.9,2.54,2.99,1.49,5.98,2.98,8.97,4.46v-1.38c-2.29-1.13-4.6-2.23-6.91-3.32Z"/><path class="cls-15" d="m147.67,114.12c.25-.11.37-.53.55-.8-1.48-.02-2.96-.04-4.43-.06,0,0-.02,0-.05.02l-.06.02s-.1-.04-.1-.04c-.24,0-.48,0-.72,0-.53,0-1.05,0-1.58,0-.1.1-.21.2-.31.3.09.09.18.18.28.27,1.7.84,3.41,1.69,5.11,2.53.11-.93.3-1.79,1.31-2.22Z"/><path class="cls-2" d="m111.06,117.71c.4-.38.81-.75,1.19-1.11.84.38,1.67.75,2.49,1.12,0-.32,0-.64,0-.95-1.02-.52-2.03-1.04-3.05-1.56-.29,0-.58-.02-.87-.03.07.84.15,1.69.22,2.53Z"/><path class="cls-12" d="m140.78,115.39c.16-.53.31-1.05.47-1.58-.09-.09-.18-.18-.28-.27-.3-.08-.6-.16-.89-.24-.39.31-.77.63-1.16.94.11,1.2.95,1.23,1.86,1.16Z"/><path class="cls-11" d="m121.2,59.92c.93.08,1.86.25,2.79.21,1.14-.05,2.27-.38,3.4-.41,1.36-.03,2.73.15,4.09.2,2.39.09,4.78.17,7.18.22.38,0,.86.01,1.11-.2.85-.71,1.74-.7,2.48-.31.45-.69.82-1.23,1.14-1.79.06-.11-.03-.32-.06-.48-.93.23-1.86.46-2.79.7-.57,1.22-1.73,1.26-2.86.26-1.04.16-1.93.4-2.82.42-2.66.05-5.33.03-8,0-.4,0-.8-.14-1.2-.22h-1.63c-.02.22-.03.63-.06.63-.8.02-1.7.21-2.03-.87h-.7c-.37.52-.74,1.04-1.09,1.53.23.02.64.06,1.04.09Z"/><path class="cls-13" d="m138.28,54.16c-1.72-.2-3.49-.17-5.21,0-.94.1-1.83.7-2.75,1.07,2.98.01,5.95.04,8.93.03.33,0,.7-.06.99-.2,2.44-1.22,4.86-2.47,7.29-3.71,0-.32,0-.63,0-.95-1.63.88-3.23,1.84-4.91,2.62-1.36.62-2.68,1.33-4.34,1.14Z"/><path class="cls-11" d="m134.86,58.74c.89-.02,1.78-.26,2.82-.42,1.13,1,2.29.96,2.86-.26-.44-.15-.87-.43-1.31-.44-3.65-.09-7.3-.2-10.94-.12-.87.02-2.2-.43-2.62,1.03.4.08.8.22,1.2.22,2.67.02,5.33.04,8,0Z"/><path class="cls-11" d="m123.98,59.16s.04-.41.06-.63h-1.16c-.15-.08-.31-.15-.46-.23h-.46c.34,1.07,1.23.89,2.03.87Z"/><path class="cls-11" d="m62.67,106.81c-.08-.62-.15-1.24-.23-1.86-.25.66-.63,1.34.23,1.86Z"/><path class="cls-11" d="m55.65,116.19s-.06.12-.09.18c.06.03.14.09.19.07.05-.02.06-.12.09-.18-.06-.03-.14-.09-.19-.07Z"/><path class="cls-11" d="m55.75,116.45s.06-.12.09-.18c0,0,0,0,0,0-.03.06-.04.16-.09.18Z"/><path class="cls-14" d="m160.1,113.76c-.08.23-.17.47-.25.7,1.44.68,2.89,1.37,4.33,2.05v-1.02c-.06-.03-.11-.06-.17-.09-.07-.01-.13-.02-.2-.01-.23-.06-.46-.12-.7-.18-1-.48-2.01-.97-3.01-1.45Z"/><path class="cls-14" d="m159.84,114.46c1.44.68,2.89,1.37,4.33,2.05h0c-1.44-.68-2.89-1.37-4.33-2.05h0Z"/><path class="cls-12" d="m160.31,110.06c-1.24-.08-2.48-.15-3.72-.23-.16.86-.86,1.04-1.5.9-3.14-.68-6.29.05-9.43-.2-.54.1-1.08.21-1.69.33-.04-.41-.06-.66-.08-.93-.69-.08-1.71-.47-1.98-.18-.76.82-1.75.36-2.53.78-.45.76-.93,1.52-1.33,2.31-.08.17.11.47.17.71.17-.24.37-.46.5-.73.54-1.12,1.21-1.69,2.66-1.65,5.41.14,10.82.05,16.23.06,1.25,0,2.54-.2,3.62.69.35-.95-.68-1.21-.93-1.86Z"/><path class="cls-12" d="m148.22,113.32c2.64,0,5.27,0,7.91,0,.71-.03,1.42-.06,2.13-.1.21.01.42.02.63.03.4.17.81.34,1.21.5,1,.48,2.01.97,3.01,1.45.15-.03.31-.05.46-.08-.78-.6-1.55-1.23-2.36-1.8-1.51-1.08-3.34-.82-5.01-.9-3.78-.17-7.57-.08-11.35-.02-.43,0-.85.44-1.27.67.07.06.14.12.21.18,1.48.02,2.96.04,4.43.06Z"/><path class="cls-12" d="m161.94,112.15l2.24,1.37v-.58c-.64-.51-1.54-.87-2.24-.8Z"/><path class="cls-10" d="m140.97,113.54c.1-.1.21-.2.31-.3.07-.07.13-.13.2-.2,0-.07,0-.13,0-.2-.47.15-.93.3-1.4.45.3.08.6.16.89.24Z"/><path class="cls-10" d="m141.28,113.24c-.1.1-.21.2-.31.3.1-.1.21-.2.31-.3h0Z"/><path class="cls-12" d="m142.41,113.06c-.17-.22-.35-.43-.52-.65-.14.14-.27.29-.41.43,0,.07,0,.13,0,.2.31,0,.62.01.92.02Z"/><path class="cls-24" d="m141.48,113.04c-.07.07-.13.13-.2.2h0c.53,0,1.05,0,1.58.01-.15-.06-.3-.13-.45-.19-.31,0-.62-.01-.92-.02Z"/><path class="cls-24" d="m141.28,113.24c.07-.07.13-.13.2-.2-.07.07-.13.13-.2.2h0Z"/><path class="cls-13" d="m163.8,115.39c-.08-.09-.16-.17-.24-.26-.15.03-.31.05-.46.08.23.06.46.12.7.18Z"/><path class="cls-24" d="m143.68,113.29s.03,0,.06-.02l.05-.02h0c-.07-.06-.14-.12-.21-.18,0,.06,0,.12,0,.17h0s.1.04.1.04Z"/><path class="cls-24" d="m143.57,113.08c0,.06,0,.12,0,.17h0c-.01-.06-.01-.11,0-.17Z"/><path class="cls-24" d="m143.78,113.26l-.05.02s.05-.02.05-.02h0Z"/><path class="cls-23" d="m98.93,65.96c-.24-.37-.47-.73-.91-1.41-.1.69-.26,1.09-.18,1.44.12.52.41.99.63,1.49.34.77.84,1.08,1.63.57-.23-.37-.46-.73-.69-1.1,0,0,0,0,0,0,0,0,0,0,0,0-.16-.33-.32-.66-.47-.99Z"/><path class="cls-23" d="m100.1,68.05c-.23-.37-.46-.73-.69-1.1,0,0,0,0,0,0,.23.37.46.73.69,1.1Z"/><path class="cls-6" d="m134.04,41.12c.31-.23.62-.46.93-.69-.7-.3-.81.2-.93.69Z"/><path class="cls-6" d="m115.21,50.41c.15,0,.31,0,.46,0,.08-.15.16-.31.23-.46-.23.15-.47.31-.7.46Z"/><path class="cls-12" d="m155.23,50.88c.14.13.29.27.43.4.05-.05.1-.1.16-.14-.12-.15-.25-.31-.37-.46-.07.07-.15.14-.22.21Z"/><path class="cls-11" d="m121.34,51.55s.05.26.08.39c.23-.06.47-.13.7-.19-.04-.13-.08-.27-.11-.4-.23.06-.46.11-.67.2Z"/><path class="cls-11" d="m122.94,50.68c.03.14.07.28.1.42.24-.08.47-.16.71-.23-.05-.13-.11-.37-.14-.37-.23.03-.44.12-.66.18Z"/><path class="cls-7" d="m-.6,23.52c1.03.56,1.97,1.29,3.02,1.82.86.43,1.81.68,2.72,1,.21.08.48.07.64.21,1.56,1.34,3.54,1.87,5.33,2.76,1.53.76,2.98,1.7,4.52,2.46,1.45.72,2.97,1.29,4.44,1.96.65.29,1.26.66,1.89,1,1.38.75,2.76,1.52,4.15,2.26,1.48.78,2.97,1.55,4.47,2.29,1.77.88,3.54,1.76,5.34,2.58,1.62.74,3.3,1.35,4.91,2.09.94.43,1.78,1.05,2.69,1.55.84.45,1.7.85,2.56,1.26.84.4,1.92.58,2.49,1.22.76.85,1.57.79,2.48.79V-.19c-.33.23-.65.62-1.01.66-1.18.15-2.38.25-3.57.25-15.73,0-31.45,0-47.18,0v22.74s.07.03.11.05Z"/><path class="cls-7" d="m46.07,46.77c-.86-.41-1.72-.81-2.56-1.26-.91-.49-1.76-1.11-2.69-1.55-1.61-.75-3.29-1.36-4.91-2.09-1.8-.82-3.57-1.7-5.34-2.58-1.5-.74-2.99-1.51-4.47-2.29-1.39-.74-2.76-1.51-4.15-2.26-.63-.34-1.24-.71-1.89-1-1.47-.67-2.99-1.24-4.44-1.96-1.54-.76-2.98-1.7-4.52-2.46-1.79-.89-3.77-1.41-5.33-2.76-.16-.13-.43-.13-.64-.21-.91-.32-1.86-.57-2.72-1-1.04-.53-1.99-1.26-3.02-1.82-.04-.02-.07-.04-.11-.05v1.27c2.15,1.1,4.23,2.31,6.37,3.42.89.46,1.87.74,2.77,1.17.87.42,1.69.95,2.55,1.39.92.48,1.89.87,2.79,1.38.32.18.51.6.76.91.23.15.47.31.7.46.13-.13.24-.35.39-.38.2-.04.48-.01.64.11.68.53,1.33,1.11,1.99,1.67.23.15.47.31.7.46.8-.43,1.34-.36,1.4.7.16.08.31.15.47.23.08-.02.16-.04.25-.07.25-.08.51-.17.7-.1.92.34,1.81.76,2.69,1.19,1.48.71,2.96,1.44,4.43,2.18,2.68,1.35,5.37,2.7,8.03,4.09,1.44.75,2.82,1.65,4.28,2.37,1.53.76,3.13,1.36,4.68,2.07,1.64.75,3.27,1.54,5.16,2.44v-1.64c-.9,0-1.72.05-2.48-.79-.57-.64-1.65-.82-2.49-1.22Z"/><path class="cls-8" d="m43.35,48.67c2.1,1.04,4.2,2.09,6.3,3.14-.15-.41-.17-1.04-.46-1.2-1.8-1.05-3.64-2.02-5.5-2.96-1.55-.79-3.15-1.47-4.71-2.24-1.52-.76-2.98-1.62-4.51-2.38-1.52-.76-3.09-1.44-4.63-2.15-.72-.33-1.46-.61-2.15-.98-.87-.47-1.67-1.05-2.55-1.5-1.42-.74-2.88-1.42-4.32-2.13h0,0c-.16-.08-.31-.15-.47-.23-.47-.23-.93-.46-1.4-.7-.23-.15-.47-.31-.7-.46-1.01-.46-2.01-.93-3.02-1.39-.23-.15-.47-.31-.7-.46-.97-.48-1.93-.96-2.9-1.44-.97-.48-1.94-.95-2.91-1.41-.53-.25-1.07-.47-1.62-.69-.55-.22-1.09-.42-1.64-.64-.31-.23-.62-.46-.93-.69-.31-.08-.62-.16-.93-.24-.15-.08-.31-.15-.46-.23h0c-.16-.15-.31-.31-.47-.46-.46-.16-.93-.31-1.39-.47-.16-.15-.31-.31-.47-.46-.51-.26-1.02-.51-1.53-.77v1.25c8.94,4.48,17.88,8.96,26.82,13.42,5.73,2.86,11.49,5.66,17.23,8.49Z"/><path class="cls-8" d="m25.14,38.38c-1.42-.74-2.88-1.42-4.32-2.13h0c1.44.71,2.9,1.39,4.32,2.13Z"/><path class="cls-20" d="m10.35,53.63c1.08-.11,2.15-.32,3.31-.5-.26-1-.52-1.71-1.47-1.95-.52-.13-1.01-.38-1.49-.62-3.17-1.57-6.34-3.14-9.5-4.72-.63-.32-1.27-.64-1.9-.95v6.49c.43.22.87.44,1.3.65.16.08.31.15.47.23.15.08.31.16.46.23.55.06,1.28-.24,1.4.69h0c.15.08.31.16.46.23.55.06,1.28-.24,1.4.69h0c.62.08,1.24.16,1.86.24.37-.22.72-.6,1.1-.64.86-.11,1.74,0,2.6-.08Z"/><path class="cls-20" d="m2.92,53.19h0c.15.08.31.16.46.23-.15-.08-.31-.16-.46-.23h0Z"/><path class="cls-20" d="m.59,52.03c.16.08.31.15.47.23.15.08.31.16.46.23-.15-.08-.31-.16-.46-.23-.16-.08-.31-.15-.47-.23Z"/><path class="cls-20" d="m4.78,54.12h0c.62.08,1.24.16,1.86.24-.62-.08-1.24-.16-1.86-.24h0Z"/><path class="cls-23" d="m1.52,52.5c.47.23.93.46,1.4.69-.12-.93-.84-.64-1.4-.69Z"/><path class="cls-23" d="m1.52,52.5c.47.23.93.46,1.4.69h0c-.47-.23-.93-.46-1.4-.69Z"/><path class="cls-23" d="m3.38,53.42c.47.23.93.46,1.4.69-.12-.93-.84-.63-1.4-.69Z"/><path class="cls-23" d="m3.38,53.42l1.4.69h0l-1.4-.69Z"/><path class="cls-11" d="m143.89,109.92c.02.27.05.52.08.93.61-.12,1.15-.22,1.69-.33-.35-.29-.71-.57-1.23-1,1.06-.14,1.97-.31,2.88-.37,1.14-.06,2.28-.06,3.42-.02,1.61.05,3.23.12,4.84.25.35.03.68.29,1.02.44,1.24.08,2.48.15,3.72.23-.4-1.38-1.51-2.3-2.9-2.31-3.03-.02-6.06,0-9.09,0-.23,0-.46.07-.69.07-1.36.02-2.72-.03-4.07.05-1.1.07-2.34-.27-3.27.78.19.24.32.38.42.54.1.15.17.31.27.5q-1.4,0-1.59.84c.77-.42,1.76.04,2.53-.78.27-.29,1.29.1,1.98.18Z"/><path class="cls-11" d="m111.8,111.22c-.68.03-1.36,0-2.24,0-.12.48-.28,1.09-.46,1.79,1.42.08,2.58-1.94,3.83.04.52-1.13,0-1.88-1.13-1.83Z"/><path class="cls-11" d="m136.07,114.45c-.09.1-.18.2-.27.3.6.84,1.19,1.68,1.79,2.51l.6-.17c-.06-.75.09-1.64-.27-2.21-.24-.38-1.21-.31-1.85-.44Z"/><path class="cls-11" d="m159.89,126.22s.09.15.18.28c.09-.12.18-.2.19-.28,0-.09-.08-.18-.12-.27-.08.09-.2.16-.24.27Z"/><path class="cls-20" d="m160.32,115.33c-.44-.2-.94-.37-1.42-.38-2.17-.04-4.34-.05-6.51.01-.46.01-1.15.27-1.31.61-.3.66-.06,1.41.65,1.78,2.19,1.13,4.39,2.24,6.61,3.32,1.93.93,3.88,1.84,5.82,2.75v-6.3c-1.23-.68-2.56-1.21-3.85-1.79Z"/><path class="cls-13" d="m156.72,113.91c.52.11,1.04.21,1.56.3s1.04.17,1.57.26h0c.08-.23.17-.47.25-.7-.4-.17-.81-.34-1.21-.5-.21-.01-.42-.02-.63-.03-.71.03-1.42.06-2.13.1.2.2.37.54.6.59Z"/><path class="cls-13" d="m158.28,114.21c.52.09,1.04.17,1.57.26h0c-.52-.09-1.04-.17-1.57-.26Z"/><path class="cls-11" d="m150.73,109.14c-1.14-.03-2.28-.04-3.42.02-.92.05-1.83.23-2.88.37.52.42.88.71,1.23,1,3.14.26,6.29-.48,9.43.2.64.14,1.34-.05,1.5-.9-.34-.15-.67-.42-1.02-.44-1.61-.12-3.22-.2-4.84-.25Z"/><path class="cls-3" d="m13.78,32.09c-.9-.51-1.87-.9-2.79-1.38-.86-.44-1.68-.97-2.55-1.39-.9-.43-1.88-.71-2.77-1.17-2.14-1.11-4.23-2.32-6.37-3.42v.77c.51.26,1.02.51,1.53.77.16.15.31.31.47.46.46.16.93.31,1.39.47l.47.46h0c.15.08.31.15.46.23.31.08.62.16.93.24.31.23.62.46.93.69.54.22,1.09.43,1.64.64.55.22,1.09.44,1.62.69.98.46,1.94.93,2.91,1.41.97.48,1.93.96,2.9,1.44-.25-.31-.44-.73-.76-.91Z"/><path class="cls-3" d="m4.55,28.13c.31.23.62.46.93.69.54.22,1.09.43,1.64.64-.55-.22-1.09-.42-1.64-.64-.31-.23-.62-.46-.93-.69Z"/><path class="cls-3" d="m15.63,33.08c-.15.03-.26.25-.39.38,1.01.46,2.01.93,3.02,1.39-.66-.56-1.31-1.13-1.99-1.67-.15-.12-.44-.15-.64-.11Z"/><path class="cls-3" d="m18.96,35.32c.47.23.93.46,1.4.7-.05-1.06-.6-1.13-1.4-.7Z"/></svg>