<?xml version="1.0" encoding="UTF-8"?>
<svg id="Layer_1" data-name="Layer 1" xmlns="http://www.w3.org/2000/svg" viewBox="0 0 66 66">
  <defs>
    <style>
      .cls-1 {
        fill: #018ed3;
      }

      .cls-2 {
        fill: #24abf1;
      }

      .cls-3 {
        fill: #0179ba;
      }

      .cls-4 {
        fill: #0075b6;
      }

      .cls-5 {
        fill: #0076c2;
      }

      .cls-6 {
        fill: #0066a4;
      }

      .cls-7 {
        fill: #0087d1;
      }

      .cls-8 {
        fill: #0071ba;
      }

      .cls-9 {
        fill: #0080ce;
      }

      .cls-10 {
        fill: #006faf;
      }

      .cls-11 {
        fill: #fff;
      }

      .cls-12 {
        fill: #21a2f0;
      }

      .cls-13 {
        fill: #007dca;
      }

      .cls-14 {
        fill: #0067a6;
      }

      .cls-15 {
        fill: #26b1f2;
      }

      .cls-16 {
        fill: #017ac8;
      }

      .cls-17 {
        fill: #016cab;
      }

      .cls-18 {
        fill: #016daf;
      }

      .cls-19 {
        fill: #006fae;
      }
    </style>
  </defs>
  <rect class="cls-11" x="0" width="66" height="66"/>
  <g id="n6jcJT.tif">
    <g>
      <path class="cls-12" d="M61.56,34.85v17.93c-.23.38-.31.81-.54,1.19-.8,1.39-2.69,1.78-3.99,2.58-3.11,1.06-6.62,3.69-9.67,4.59-1.05.31-1.66.24-2.62-.23.11,0,.22,0,.33,0,.75-.02,1.5-.36,1.89-1,.19-.31.33-.69.34-1.05,0-4.33-.01-8.66,0-12.98,0-3.27,0-6.54,0-9.8h13.53s.23-.11.23-.11c.13-.18.06-1.12.5-1.12Z"/>
      <path class="cls-2" d="M61.56,14.8v20.05c-.44,0-.37.94-.5,1.12l-.23.11h-13.53c0-5.35,0-10.7,0-16.04,0-.37,0-.74,0-1.11l13.63-.02c.34-.11.13-1.54.18-1.94.08-.65.2-1.01.23-1.78,0-.21-.11-.45.22-.38Z"/>
      <path class="cls-15" d="M46.64,4.55c.63.19,1.23.42,1.82.68,4.08,1.82,8.12,3.92,12.04,6,.54.57.8,1.28,1.06,2v1.56c-.34-.06-.22.17-.22.38-.02.77-.15,1.13-.23,1.78-.05.4.17,1.82-.18,1.94l-13.63.02c0-3.96,0-7.92,0-11.88.06-.16-.1-.31-.12-.38-.18-.71-.38-1-1-1.34-.55-.3-1.02-.47-1.67-.22.13-.07.26-.25.44-.28l.89-.28h.78Z"/>
      <path class="cls-7" d="M30.26,32.84c3.98,3.02,8.01,6.29,12.03,9.36-.27.21-.59.34-.94.34h-16.88c-1.01-.93-2.26-1.88-3.34-2.68-.06-.04-.64-.83-.89-1.06-2.12-1.94-4.37-3.82-6.46-5.74-.72-.66-1.47-1.53-2.23-2.23.15-.23.38-.21.61-.23,4.61-.28,9.51.22,14.16.01l.38-.34c1.16.88,2.43,1.7,3.56,2.56Z"/>
      <path class="cls-4" d="M47.2,6.67c-.27-.04-.34.04-.47.25-.81,1.25-.81,5-.98,6.6-.26,2.53-.62,5.06-.88,7.59-.02.18-.09.48.1.6-3.8,2.82-7.59,5.73-11.36,8.58-.45-.23-.83-.67-1.26-.91-2.39-1.33-4.75-2.58-7.06-4.08-.54-.35-1.3-.62-1.71-1.13,1.49-1.36,2.96-2.76,4.46-4.12h13.99c.46-.36.13-1.06.32-1.45.09-.19.46-.25.56-.45.64-1.29.51-1.96.75-3.26.07-.36.43-.83.51-1.16.34-1.54.3-3.09.47-4.65.04-.39.25-1.81.36-2.09.19-.47,1.02-1.11,1.2-1.64.62.34.83.62,1,1.34Z"/>
      <path class="cls-9" d="M44.41,43.76c-.27.08-.21.29-.23.5-.07.72-.03,1.56-.11,2.23-.05.42-.37,1.11-.43,1.57-.09.63.09,1.45-.29,2.04-.35.54-.59.7-.71,1.52-.05.34.07.8,0,1.08-.04.16-.61.23-.62.51l-.1,1.24c-.16.22-3.03.06-3.57.1-.2.02-.38.04-.5.23-4.47-4.05-8.94-8.22-13.37-12.25h16.88c.35.01.67-.13.94-.33.68.52,1.42,1.03,2.12,1.56Z"/>
      <path class="cls-1" d="M21.24,26.16c1.82,1.37,3.64,2.75,5.46,4.12l-.38.34c-4.64.21-9.54-.29-14.16-.01-.23.01-.46,0-.61.23-1.92-1.77-4.13-3.51-5.96-5.34-1.1-1.1-1.56-2.43-.39-3.73.46-.51,3.33-3.08,3.82-3.31.69-.31,1.42-.27,2.12.04,3.41,2.5,6.73,5.12,10.1,7.67Z"/>
      <path class="cls-3" d="M46.19,5.33c-.18.54-1,1.17-1.2,1.64-.11.27-.32,1.7-.36,2.09-.17,1.57-.13,3.12-.47,4.65-.07.33-.44.81-.51,1.16-.24,1.3-.11,1.97-.75,3.26-.1.19-.47.26-.56.45-.19.39.14,1.09-.32,1.46h-13.99c5.21-4.76,10.39-9.56,15.59-14.32.28-.23.57-.43.89-.61.65-.25,1.12-.08,1.67.22Z"/>
      <path class="cls-18" d="M19.24,41.2c-2.51,1.76-5.17,4.43-7.76,6-.89.54-1.72.69-2.66.14-.66-.39-3.12-2.63-3.66-3.24-.79-.9-.83-2.14-.11-3.1,2.48-2.37,5.08-4.63,7.62-6.92.16.74.97,1.1,1.45,1.61,1.56,1.65,3.27,3.39,4.68,5.12.13.15.27.3.44.39Z"/>
      <path class="cls-13" d="M45.19,44.32c.06.35-.18.64-.21.96-.34,2.97-.38,6.36-.91,9.23-.05.27-.35.51-.42.81-.14.67-.33,1.34-.46,1.99-.05.24.05.55-.02.76-.08.25-.49.18-.63.32-.13.12-.02.5-.36.42-1.47-1.31-2.89-2.69-4.34-4.01.12-.19.3-.21.5-.23.54-.04,3.42.12,3.57-.1l.1-1.24c.01-.28.58-.35.62-.51.07-.28-.05-.75,0-1.08.12-.82.36-.97.71-1.52.39-.6.21-1.42.29-2.04.06-.46.38-1.15.43-1.57.08-.67.04-1.51.11-2.23.02-.2-.04-.42.23-.5.25.19.53.37.78.56Z"/>
      <path class="cls-6" d="M21.13,39.86l-1.89,1.34c-.18-.1-.32-.24-.44-.39-1.4-1.73-3.12-3.48-4.68-5.12-.48-.51-1.3-.87-1.45-1.61.35-.31.62-.8,1.11-1,2.09,1.92,4.34,3.8,6.46,5.74.25.23.83,1.02.89,1.06Z"/>
      <path class="cls-10" d="M23.58,24.16c.41.52,1.16.78,1.71,1.13,2.31,1.5,4.67,2.75,7.06,4.08.43.24.81.68,1.26.91-.5.38-1.04.83-1.56,1.23l-9.47-6.46c.32-.29.7-.62,1-.89Z"/>
      <path class="cls-16" d="M45.19,44.32c.23.17.52.53.56.56-.15.18-.2.5-.22.73-.21,2.96-.2,5.95-.45,8.91-.14,1.6-.65,3.37-.43,5,.06.49.4.91.44,1.4-.11,0-.22,0-.33,0-1.06-.51-1.69-1.34-2.56-2.12.34.08.23-.3.36-.42.14-.13.55-.07.63-.32.07-.21-.02-.52.02-.76.13-.65.32-1.32.46-1.99.06-.3.37-.54.42-.81.53-2.87.57-6.26.91-9.23.04-.31.27-.61.21-.96Z"/>
      <path class="cls-14" d="M31.27,32.06c-.31.24-.55.7-1,.78-1.13-.86-2.4-1.68-3.56-2.56-1.82-1.38-3.64-2.75-5.46-4.12.27-.21.53-.44.78-.67l9.25,6.57Z"/>
      <path class="cls-17" d="M32.05,31.51c-.27.21-.55.38-.78.56l-9.25-6.57c.21-.18.41-.31.56-.45l9.47,6.46Z"/>
      <path class="cls-5" d="M46.75,45.54c-.15.18-.2.5-.22.73-.26,3.52-.24,7.11-.66,10.59-.11.91.05,2.74,1.1,3.05-.4.64-1.15.98-1.89,1-.04-.5-.37-.91-.44-1.4-.21-1.63.3-3.4.43-5,.25-2.96.23-5.95.45-8.91.02-.23.07-.55.22-.73.28.21.69.45,1,.67Z"/>
      <path class="cls-8" d="M47.31,45.88c0,4.33,0,8.65,0,12.98-.01.36-.15.75-.34,1.05-1.06-.31-1.21-2.15-1.1-3.05.42-3.48.4-7.07.66-10.59.02-.23.07-.55.22-.73.17.11.4.19.56.33Z"/>
      <path class="cls-19" d="M47.2,6.67c.02.07.18.22.12.38,0,3.96-.02,7.92,0,11.88,0,.37,0,.74,0,1.11-.76.58-1.57,1.1-2.34,1.67-.19-.12-.12-.41-.1-.6.26-2.53.62-5.06.88-7.59.16-1.59.16-5.35.98-6.6.14-.21.2-.29.47-.25Z"/>
    </g>
  </g>
</svg>