<?xml version="1.0" encoding="UTF-8"?>
<svg id="Layer_1" data-name="Layer 1" xmlns="http://www.w3.org/2000/svg" viewBox="0 0 60 60">
  <defs>
    <style>
      .cls-1 {
        fill: #fff;
      }
    </style>
  </defs>
  <g id="aJNjWF.tif">
    <path class="cls-1" d="M3.18,29.95c0,14.86,12.04,26.9,26.9,26.9,14.86,0,26.9-12.04,26.9-26.9,0-14.86-12.04-26.9-26.9-26.9-14.86,0-26.9,12.04-26.9,26.9ZM17.85,38.87l17.15-17.21h-8.58c-.21,0-.98-.51-1.16-.71-1.45-1.62-.13-4.01,1.98-3.97,4.28.27,8.95-.33,13.19,0,1.7.14,2.5.93,2.63,2.63.33,4.24-.26,8.91,0,13.2.05,2.1-2.34,3.42-3.97,1.97-.19-.18-.7-.94-.7-1.16v-8.58s-17.22,17.16-17.22,17.16c-2.36,1.97-5.29-.96-3.32-3.33Z"/>
  </g>
</svg>