<?xml version="1.0" encoding="UTF-8"?><svg id="Camada_1" xmlns="http://www.w3.org/2000/svg" viewBox="0 0 5199.14 528.99"><defs><style>.cls-1{opacity:.15;}</style></defs><path d="m264.49,521.27c-5.52,0-10.63-.16-15.63-.49-48.62-2.91-95.13-19.51-134.49-48l-.42-.3c-.24-.17-.47-.33-.7-.5-.79-.57-1.64-1.18-2.46-1.81-1.62-1.17-3.3-2.46-5.08-3.9-53.3-42-87.37-102.02-95.9-168.97-1.38-10.81-2.08-21.86-2.08-32.82,0-13.31,1.02-26.65,3.04-39.65,8.38-53.99,33.34-103.06,72.18-141.9C131.43,34.43,195.9,7.72,264.49,7.72h180.57c42.02,0,76.21,34.19,76.21,76.21v180.54c0,45.65-12.11,90.45-35.03,129.54-2.14,3.68-4.19,7-6.27,10.15-4.49,6.93-9.43,13.79-14.69,20.38-2.81,3.49-5.34,6.5-7.75,9.22-1.87,2.16-3.79,4.27-5.87,6.46-.79.86-1.63,1.77-2.5,2.65-43.22,44.8-101.11,72.33-163.01,77.5-7.22.6-14.51.9-21.66.9Zm0-508.53c-67.25,0-130.46,26.18-177.99,73.73C48.41,124.56,23.94,172.66,15.73,225.6c-1.98,12.74-2.98,25.82-2.98,38.88,0,10.75.69,21.58,2.04,32.19,8.37,65.64,41.77,124.48,94.05,165.68,1.74,1.4,3.36,2.64,4.95,3.8.83.63,1.63,1.22,2.43,1.79.24.18.43.32.63.45l.47.33c38.59,27.93,84.19,44.2,131.86,47.06,4.9.32,9.91.48,15.31.48,7.01,0,14.16-.3,21.24-.88,60.68-5.07,117.45-32.06,159.83-76,.85-.86,1.64-1.72,2.43-2.57,2.05-2.16,3.93-4.22,5.76-6.34,2.37-2.68,4.86-5.63,7.61-9.05,5.15-6.45,9.99-13.18,14.4-19.99,2.04-3.09,4.04-6.33,6.14-9.93,22.47-38.33,34.34-82.25,34.34-127.01V83.93c0-39.25-31.94-71.19-71.19-71.19h-180.57Z"/><path d="m264.49,528.99c-5.65,0-10.93-.16-16.13-.5-50.05-3-97.96-20.1-138.52-49.46l-.35-.25c-.28-.19-.58-.41-.88-.64-.7-.5-1.61-1.17-2.51-1.85-1.56-1.13-3.34-2.5-5.24-4.02C46.02,429.06,10.94,367.25,2.14,298.28c-1.42-11.14-2.14-22.52-2.14-33.8,0-13.71,1.05-27.45,3.14-40.84,8.63-55.62,34.34-106.17,74.35-146.18C127.42,27.51,193.84,0,264.49,0h180.57c46.28,0,83.94,37.65,83.94,83.94v180.54c0,47.03-12.48,93.17-36.09,133.45-2.19,3.77-4.32,7.21-6.49,10.5-4.59,7.09-9.69,14.16-15.09,20.94-2.89,3.59-5.5,6.69-8.01,9.52-1.9,2.19-3.89,4.39-6.05,6.66-.76.83-1.66,1.8-2.6,2.75-44.47,46.1-104.11,74.45-167.87,79.78-7.43.62-14.93.93-22.3.93Zm0-508.53c-65.19,0-126.46,25.38-172.53,71.46-36.92,36.92-60.64,83.55-68.6,134.85-1.92,12.35-2.89,25.04-2.89,37.69,0,10.43.67,20.93,1.98,31.21,8.11,63.62,40.49,120.65,91.17,160.59,1.7,1.37,3.21,2.53,4.71,3.62.91.69,1.65,1.23,2.38,1.75l1.1.79c37.44,27.1,81.63,42.86,127.84,45.64,4.77.31,9.61.46,14.85.46,6.78,0,13.72-.29,20.6-.86,58.81-4.91,113.82-31.07,154.91-73.66.83-.85,1.57-1.64,2.29-2.43,2.05-2.16,3.86-4.15,5.62-6.18,2.34-2.64,4.75-5.51,7.43-8.83,4.96-6.23,9.66-12.74,13.93-19.35,1.99-3.02,3.93-6.15,5.95-9.62,21.79-37.17,33.29-79.73,33.29-123.12V83.94c0-35-28.47-63.47-63.47-63.47h-180.57Z"/><g class="cls-1"><path d="m451.14,355.23l1.14-1.14-.63-.61c-.16.59-.34,1.17-.51,1.76Z"/><path d="m257.53,369.79c-.26,3.82-1.04,7.61-1.02,11.4.03,4.08-2.31,5.81-5.56,7.05-1.24.47-2.49.99-3.73,1.49-28.48,11.15-56.04,24.21-82.33,39.88-18.23,10.87-35.42,23.2-50.02,38.56-.04.61-.07,1.21-.1,1.8-.82-.59-1.64-1.19-2.44-1.8-1.71-1.24-3.38-2.53-5.03-3.86-51.07-40.25-86.36-99.63-94.99-167.33-1.36-10.65-2.06-21.49-2.06-32.51,0-13.36,1.02-26.46,3.01-39.27l191.76-118.39,1.68,1.68c-4.1,3.45-7.56,7.8-10.64,12.65-2.52,3.99-2.71,8.27,2.03,11.65-21.42,20.95-28.61,87.25-9.14,116.61-6.63,10.87-7.62,22.69-4.37,34.72,3.34,12.19,10.97,21.15,22.76,26.38-3.09,5.57-2.53,10.26,1.65,14.54.78.8,1.14,2.02,1.62,3.06,4.64,10.14,16.46,19.57,28.76,17.45,5.11-.89,7.65.61,9.57,4.92,2.9,6.44,9.17,11.38,8.59,19.33Z"/><polygon points="446.33 173.38 440.33 150.24 381.18 130.52 305.74 133.09 242.3 203.39 199.44 214.53 184.86 277.11 196.86 301.97 219.15 306.26 241.44 323.41 263.73 327.69 262.87 367.98 263.73 433.14 311.74 473.43 392.32 444.28 394.04 390.27 437.76 353.41 452.33 297.69 452.33 273.68 454.9 258.25 456.62 238.54 446.33 173.38"/></g><path d="m463.24,212.15c-7.46-5.44-8.41-11.84-8.75-19.5-.06-1.17-.07-2.38-.42-3.45-.82-2.5-.38-3.98,2.36-4.96,5.33-1.87,8.29-6.06,8-11.5-.26-5.73-.89-11.69-2.82-17.04-4.45-12.27-9.77-24.23-14.6-36.02,1.43.15,3.06-.15,4.81-.34-1.99-6.41-6.32-17.44-15.95-28.16-11.6-12.9-24.75-18.48-31.32-20.76-5.85-1.02-11.84-1.62-17.94-1.74-2.03-.06-4.11-2-6.07-3.23-2.19-1.35-4.08-3.75-6.38-4.17-20.35-3.6-40.86-4.37-61.18-.7-11.72,2.12-23.25,5.72-34.53,9.61-11.73,4.01-22.53,10.11-32.11,18.11-2.06,1.73-3.06,4.02-4.15,5.71-1.7,2.6-3.06,5.06-4.15,7.24-2.31-1.4-5.59-1.8-8.44-2.24-1.77-.26-3.74,1.13-5.66,1.29-8.03.66-14.45,3.67-19.79,8.21-4.1,3.45-7.56,7.8-10.64,12.65-2.52,3.99-2.71,8.27,2.03,11.64-21.42,20.95-28.61,87.25-9.14,116.61-6.63,10.87-7.62,22.69-4.37,34.72,3.34,12.19,10.97,21.15,22.76,26.38-3.09,5.57-2.53,10.25,1.65,14.54.78.8,1.14,2.02,1.62,3.06,4.64,10.14,16.46,19.57,28.76,17.45,5.11-.89,7.65.61,9.57,4.92,2.9,6.44,9.17,11.38,8.59,19.33-.26,3.82-1.04,7.61-1.02,11.4.03,4.08-2.31,5.81-5.56,7.05-1.24.47-2.49.99-3.73,1.49-28.48,11.15-56.04,24.21-82.33,39.88-18.23,10.87-35.42,23.2-50.02,38.56,1.16.88,2.33,1.73,3.53,2.57,37.86,27.4,83.62,44.56,133.18,47.53,5.11.34,10.26.48,15.46.48,7.23,0,14.38-.31,21.45-.89,63.21-5.28,119.87-33.68,161.43-76.76.85-.86,1.67-1.74,2.47-2.62-12.42-11.62-26.1-21.68-41.27-29.95-1.97-1.07-3.8-2.37-6.83-4.26,20.58-1.29,31.91-12.49,39.46-29.01,2.98-6.54,5.4-13.25,7.39-20.06.18-.59.35-1.17.51-1.76,0,0,.01,0,0-.01,2.71-9.52,4.62-19.25,6.22-29.1,2.6-16.18,4.42-32.4,2.57-48.86-.19-1.59,1.07-3.82,2.31-5.08,5.79-5.84,9.73-12.71,11.98-20.54,4.11-14.25,3.99-28.29-8.94-37.73Zm-18.36,102.49c-2.98-5.69-7.12-10.52-6.88-10.43-3.2-4.75-29.52-14.98-39.12-14.18-3.96.34-8.22.35-12.07-.32-.51-.09-1.07-.16-1.67-.2-8.53-.73-25.32,2.3-28.56,3.39-2.03.69-4.04,1.43-6,2.22-1.23.54-2.41,1.1-3.58,1.68-1.33.67-2.3,1.27-4.87,3-1.73,1.16-7.15,4.62-6.2,4.48-2.56,4.39-13.68,11.45-15.45,15.23-1.14,2.44-.25,4.27,1.87,5.6-5.53,6.42-11.89,7.01-24.15,3.54-8.4-2.37-16.37-6.47-24.24-10.37-8.05-4.01-13.06-10.96-15.01-19.68-2.55-11.38-4.51-22.89-6.85-34.32-.99-4.83,1.01-8.54,3.44-12.43,1.9-3.06,2.15-7.89,4.7-9.58,2.3-1.54,6.71.06,10.2.35,7.3.63,14.6,1.32,22.13,1.99,5.91,27.28,21.59,37.09,44.24,37.48,11.5.19,22.21-1.9,31-9.92,6-5.46,11.1-13.68,14.95-25.81,5.6,3.61,11.48,6.58,12.93,14.09.53,2.71,2.22,5.19,3.42,7.75,2.53,5.4-.2,10.2-6.19,10.5-2.11.1-4.27-.48-6.38-.88-3.8-.73-7.94,1.16-7.99,4.01,0,.41.01.8.07,1.16.32,2.25,1.77,3.45,3.85,3.85.61.12,1.27.16,1.99.15,5.73-.13,11.81.83,17.09-.79,3.89-1.2,6.74-5.79,10.69-9.47,9.63,5.87,21.31,7.02,34.14,2.72.47,12.04.37,23.76-1.52,35.18Zm-18.83,32.9c-.6,6.51-6.99,8-13.62,6.39-7.05-1.71-12-4.56-15.4-10.5-2.63-4.59-6.74-6.54-11.35-5.02-2.93.97-6.07,3.75-7.42,6.54-5.57,11.53-22.09,14.99-35.36,9.08-4.71-2.09-5.49-7.14-5.62-11.6-.15-4.62.28-9.49,1.42-14.25,2.46.03,4.89-.04,7.1-.2,3.77-.28,7.4-1.65,11.1-2.52,3.99-.94,7.86-2.17,11.78-3.03-1.04.7-2.17,1.76-2.19,2.65-.03,1.35.91,3.29,2.03,3.96,1.77,1.07,4.04,1.65,6.12,1.77,4.33.26,8.66.09,13.01.09v-.15c4.83,0,9.67.23,14.48-.09,3.51-.22,7.84-1.13,7.87-5.33.03-2.49-1.64-3.44-3.58-3.83.57-.18,1.14-.34,1.68-.48,4.49.85,10.2,4.67,16.25,7.67.88.44,1.76.85,2.65,1.24.01.47.01.95.01,1.42,0,5.4-.47,10.81-.95,16.18Zm-45.99,81.69c-3.42,11.02-13.22,15.46-23.26,17.77-.1.03-.22.04-.32.07-18.21,4.13-35.45-.03-51.51-9.04-9.99-5.6-18.58-13.02-25.76-21.99-6.12-7.64-9.77-16.08-9.26-26.14.07-1.61-1.8-3.31-3.34-5.94.22-1.58.64-4.49,1.2-8.27,35.08,20.85,71.51,35.46,113.93,34.7-.34,4.21-.22,8.31-.51,12.17-.19,2.3-.51,4.54-1.17,6.66Zm-144.51-146.54c.53,5.76-.25,10.46-6.09,13.91-6.45,3.83-12.61,5.76-19.81,2.91-13.24-5.24-20.93-21.67-16.63-35.62,4.33-14.1,13.62-20.93,27.59-20.09,1.08.06,2.4,1.05,3.12,2,10.37,13.68,12.79,15.54,11.81,33.38,0,1.17-.09,2.34.01,3.5Zm51.03-92.79c4.4-5.72,10.23-8.82,14.86-10.59-.2-3.12,0-6.73,2.05-7.87,1.93-1.07,3.64,1.05,8.06,1.36.69.04,6.98.38,11.4-3.99,1.95-1.93,2.84-4.1,3.26-5.43.91-1.35,2.34-2.94,4.35-3.26,1.27-.22,1.67.38,3.77.7,4.39.66,8.47.63,12-3.06.48-.5,1.39-.79,2.4-.91.59-.99,1.36-1.87,2.34-2.56,1.35-.94,2.77-1.27,4.92-1.48,5.19-.5,6.52.53,10.5-.06,2.25-.32,1.77-.64,4.87-1.32,4.75-1.04,8.16-1.78,10.81-.1,3.23,2.08,3.58,6.7,3.7,7.68.38,3.53-.97,6.19-1.7,7.87-2.72.18-5.33-5.35-8.59-4.92-1.54.22-3.48,1.78-5.19,7.62-.16,2.19-.23,7.53,3.2,11.98,5.87,7.52,18.65,8.29,26.61,2.62,5.97-4.26,7.5-11.02,7.87-13.03.1-2.96-.15-7.74-2.02-13.15,3.63,4.11,6.77,5.21,9.1,5.37,4.4.32,7.65-2.57,12.29-1.01,2.68.91,4.43,2.81,5.41,4.11,2.38,2.66,5.3,6.58,7.55,11.84,4.29,10.02,3.67,19.15,3.06,23.64-3.41-.34-6.66-1.05-9.87-.91-7.78.38-15.73.31-23.26,1.97-9.52,2.11-16.14,8.46-19.11,18.11-5,.94-8.4.31-11-5.18-4.73-9.96-14.15-13.43-24.52-15.01-15.23-2.31-30.34-2-45.01,2.81-2.97.98-5.54,2.15-7.75,3.54-7.39,4.64-10.65,11.76-11.07,22.31-.04.97-.12,1.95-.22,3.45-4.51-.38-8.79-.72-13.08-1.1,2.94-8.4-2.65-27.44,7.58-41.46.13-.21.28-.4.44-.6Zm158.98,70.19c.69,5.97.15,7.27-5.6,9.1-12.14,3.88-25.66-1.29-31.79-12.52-5.15-9.42-7.18-19.63-5.97-30.34.69-6.12,4.3-10.08,10.06-11.79,9.13-2.69,18.43-2.81,27.71-.94,1.08.22,2.63,1.67,2.74,2.66.66,6.13.97,12.29,1.39,18.43-.23.01.51,16.97,1.46,25.4Zm-86.24,3.58c-6.74,5.53-15.87,7.93-25.73,6.73-22.51-2.74-29.83-16.56-29.95-39.89-.04-7.52,2.41-12.22,7.65-14.86,2.06-1.05,4.58-1.78,7.53-2.25,6.74-1.05,13.58-1.62,21.45-2.53,6.14.95,13.31,1.61,20.26,3.25,7.4,1.76,11.29,7.27,11.76,14.92.57,8.91-1.43,17.29-5.41,25.18-1.92,3.77-4.49,6.95-7.56,9.47Z"/><path d="m222.22,282.02c.48-.58,1.83-.58,2.12-1.17,1.45-2.96,3.96-6.12,3.75-9.04-.56-7.68-15.22-16.19-22.27-13.09-2.06.9-3.13,4.06-4.65,6.18,1.57,1.71,3.87,3.74,5.93,3.21,1.91-.49,2.13-2.8,3.86-3.47,1.53-.6,4.28.05,9.65,5.98-.75.66-2.89,2.7-3.67,6.17-.8,3.59.36,6.44.77,7.33"/><path d="m937.32,61.23h77.96v346.29h-77.96v-146.91h-130.92v146.91h-77.95V61.23h77.95v132.42h130.92V61.23Z"/><path d="m1044.65,269.15c0-24.87,3.82-46.64,11.46-65.29,7.64-18.66,17.67-34.2,30.11-46.64,12.44-12.43,26.73-21.85,42.91-28.24,16.17-6.4,32.78-9.6,49.84-9.6,39.79,0,71.24,12.18,94.34,36.51,23.09,24.35,34.65,60.15,34.65,107.4,0,4.62-.19,9.68-.54,15.19-.36,5.52-.71,10.4-1.07,14.66h-180.15c1.77,16.35,9.41,29.32,22.92,38.91,13.5,9.59,31.63,14.39,54.37,14.39,14.57,0,28.87-1.33,42.91-4,14.03-2.67,25.49-5.94,34.38-9.86l10.66,64.49c-4.26,2.13-9.95,4.27-17.06,6.4-7.11,2.12-15.01,4-23.71,5.59-8.71,1.6-18.04,2.94-27.98,4-9.95,1.07-19.9,1.6-29.85,1.6-25.23,0-47.17-3.74-65.82-11.19-18.66-7.46-34.11-17.68-46.37-30.65-12.26-12.97-21.32-28.34-27.18-46.11-5.87-17.77-8.8-36.96-8.8-57.57Zm186.55-30.38c-.36-6.75-1.51-13.33-3.47-19.73-1.96-6.39-4.98-12.08-9.06-17.05-4.09-4.98-9.24-9.06-15.46-12.26-6.22-3.2-13.95-4.79-23.18-4.79s-16.53,1.51-22.92,4.53c-6.39,3.02-11.72,7.02-15.99,11.99-4.26,4.98-7.55,10.75-9.86,17.32-2.32,6.58-4,13.24-5.06,19.99h105Z"/><path d="m1347.97,136.43c13.5-3.9,30.91-7.54,52.23-10.92,21.32-3.37,43.71-5.07,67.16-5.07s43.61,3.12,59.43,9.33c15.81,6.23,28.33,15.02,37.58,26.39,9.24,11.38,15.81,24.87,19.72,40.51,3.91,15.64,5.87,33.04,5.87,52.24v158.3h-79.42v-148.71c0-25.58-3.38-43.7-10.13-54.36-6.75-10.66-19.37-15.99-37.84-15.99-5.69,0-11.73.26-18.12.8-6.39.53-12.08,1.16-17.05,1.86v216.4h-79.42V136.43Z"/><path d="m1801.07,197.2c-7.12-1.77-15.46-3.63-25.05-5.59-9.59-1.96-19.9-2.94-30.91-2.94-4.98,0-10.93.45-17.86,1.33-6.93.9-12.17,1.86-15.72,2.94v214.26h-79.42V141.76c14.21-4.97,31-9.67,50.37-14.12,19.36-4.45,40.95-6.66,64.76-6.66,4.27,0,9.41.26,15.46.79,6.04.54,12.08,1.25,18.12,2.13,6.04.9,12.08,1.96,18.12,3.2,6.04,1.25,11.2,2.76,15.46,4.54l-13.33,65.55Z"/><path d="m1934.32,406.12l-79.42,1.08V126.84h79.42v279.28Z"/><path d="m2227.46,130.29c-9.28-1.92-18.87-3.62-29-5.01-10.13-1.49-20.47-2.67-30.92-3.52-10.55-.85-20.57-1.28-30.17-1.28-23.13,0-43.71,3.52-61.83,10.66-18.12,7.04-33.36,17.16-45.84,30.06-12.47,13.01-21.96,28.46-28.46,46.37-6.61,18.02-9.91,37.74-9.91,59.48,0,44.77,10.45,80.16,31.45,106.28,21,26.12,51.38,39.23,91.14,39.23,10.98,0,21.32-1.07,30.91-3.2,9.59-2.13,18.87-5.22,27.72-9.06v95.35h79.42V136.48c-7.14-2.13-15.24-4.16-24.52-6.18Zm-74.3,211.92c-8,2.13-16.1,3.2-24.31,3.2-37.63,0-56.5-25.48-56.5-76.22,0-24.52,5.54-44.24,16.52-58.95,10.98-14.71,27.4-22.07,49.04-22.07,7.14,0,13.64.21,19.72.75,6.08.53,10.98,1.17,14.93,1.92v143.38c-5.01,3.2-11.41,5.86-19.4,8Z"/><path d="m2544.64,397.6c-13.51,3.91-30.92,7.56-52.24,10.93-21.32,3.37-43.7,5.06-67.16,5.06s-43.62-3.2-59.43-9.59c-15.81-6.4-28.34-15.37-37.58-26.92-9.24-11.54-15.81-25.32-19.72-41.31-3.91-15.99-5.86-33.57-5.86-52.77V126.84h79.42v146.58c0,25.58,3.37,44.07,10.12,55.43,6.75,11.37,19.36,17.05,37.85,17.05,5.68,0,11.72-.27,18.12-.8,6.4-.53,12.08-1.15,17.06-1.86V126.84h79.42v270.76Z"/><path d="m2582.52,269.15c0-24.87,3.82-46.64,11.46-65.29,7.64-18.66,17.67-34.2,30.11-46.64,12.44-12.43,26.73-21.85,42.91-28.24,16.17-6.4,32.78-9.6,49.84-9.6,39.79,0,71.24,12.18,94.34,36.51,23.09,24.35,34.65,60.15,34.65,107.4,0,4.62-.19,9.68-.54,15.19-.36,5.52-.71,10.4-1.07,14.66h-180.15c1.77,16.35,9.41,29.32,22.92,38.91,13.5,9.59,31.63,14.39,54.37,14.39,14.57,0,28.87-1.33,42.91-4,14.03-2.67,25.49-5.94,34.38-9.86l10.66,64.49c-4.26,2.13-9.95,4.27-17.06,6.4-7.11,2.12-15.01,4-23.71,5.59-8.71,1.6-18.04,2.94-27.98,4-9.95,1.07-19.9,1.6-29.85,1.6-25.23,0-47.17-3.74-65.82-11.19-18.66-7.46-34.11-17.68-46.37-30.65-12.26-12.97-21.32-28.34-27.18-46.11-5.87-17.77-8.8-36.96-8.8-57.57Zm186.55-30.38c-.36-6.75-1.51-13.33-3.47-19.73-1.96-6.39-4.98-12.08-9.06-17.05-4.09-4.98-9.24-9.06-15.46-12.26-6.22-3.2-13.95-4.79-23.18-4.79s-16.53,1.51-22.92,4.53c-6.39,3.02-11.72,7.02-15.99,11.99-4.26,4.98-7.55,10.75-9.86,17.32-2.32,6.58-4,13.24-5.06,19.99h105Z"/><path d="m3133.74,121.57c-36.31,0-62.54,10.08-78.7,30.24-16.16,20.16-24.23,47.72-24.23,82.7,0,16.98,2,32.4,6,46.22,4,13.82,9.99,25.73,17.99,35.72,7.99,9.99,17.99,17.74,29.98,23.24,11.99,5.49,25.99,8.25,41.98,8.25,8.66,0,16.06-.17,22.23-.5,6.16-.33,11.57-1.01,16.24-2v-120.42h77.96v171.39c-9.33,3.67-24.32,7.58-44.97,11.75-20.66,4.16-46.14,6.25-76.45,6.25-25.99,0-49.56-4-70.71-11.99-21.16-7.99-39.22-19.66-54.21-34.98-14.99-15.32-26.57-34.15-34.73-56.47-8.17-22.31-12.24-47.79-12.24-76.45s4.5-54.63,13.49-76.95c8.99-22.32,21.32-41.22,36.97-56.71,15.65-15.5,34.06-27.24,55.22-35.23,21.15-7.99,43.72-11.99,67.71-11.99,16.32,0,31.06,1.08,44.22,3.25,13.16,2.17,24.49,4.67,33.98,7.5,9.5,2.83,17.32,5.75,23.49,8.74,6.16,3,10.57,5.33,13.24,7l-22.49,62.46c-10.67-5.66-22.91-10.57-36.73-14.75-13.82-4.16-28.9-6.25-45.22-6.25Z"/><path d="m3397.61,119.64c23.45,0,42.99,2.67,58.63,8,15.63,5.33,28.15,12.97,37.58,22.92,9.41,9.95,16.07,22.03,19.99,36.24,3.9,14.22,5.86,30.03,5.86,47.44v165.23c-11.37,2.49-27.18,5.42-47.43,8.8-20.26,3.37-44.77,5.06-73.56,5.06-18.12,0-34.56-1.59-49.3-4.8-14.75-3.2-27.45-8.43-38.11-15.72-10.66-7.28-18.84-16.79-24.52-28.51-5.68-11.73-8.53-26.12-8.53-43.17s3.28-30.2,9.86-41.58c6.57-11.37,15.37-20.42,26.38-27.18,11.01-6.75,23.63-11.64,37.85-14.66,14.2-3.02,28.96-4.53,44.24-4.53,10.3,0,19.45.45,27.45,1.33,8,.88,14.48,2.04,19.46,3.46v-7.45c0-13.5-4.09-24.34-12.26-32.52-8.18-8.16-22.39-12.25-42.64-12.25-13.51,0-26.83.98-39.98,2.93-13.15,1.96-24.52,4.72-34.11,8.27l-10.12-63.96c4.61-1.42,10.39-2.94,17.32-4.53,6.93-1.6,14.47-3.02,22.65-4.27,8.17-1.24,16.79-2.3,25.85-3.2,9.06-.88,18.21-1.33,27.45-1.33Zm6.39,232.39c7.81,0,15.28-.18,22.39-.53,7.1-.35,12.79-.88,17.06-1.6v-60.22c-3.2-.71-8-1.42-14.39-2.13-6.4-.71-12.26-1.06-17.59-1.06-7.46,0-14.48.45-21.05,1.33-6.58.88-12.35,2.58-17.32,5.06-4.98,2.49-8.89,5.86-11.73,10.13-2.85,4.26-4.26,9.59-4.26,15.99,0,12.44,4.17,21.05,12.53,25.85,8.34,4.8,19.8,7.19,34.37,7.19Z"/><path d="m3721.32,258.75c0-25.58-3.29-43.7-9.86-54.36-6.58-10.66-17.85-15.99-33.84-15.99-4.98,0-10.13.26-15.46.8-5.33.53-10.48,1.16-15.45,1.86v216.4h-79.42V136.69c6.75-1.77,14.66-3.63,23.72-5.59,9.06-1.95,18.66-3.74,28.78-5.33,10.13-1.6,20.52-2.84,31.18-3.74,10.66-.87,21.14-1.33,31.44-1.33,20.26,0,36.69,2.58,49.3,7.73,12.61,5.15,23.01,11.28,31.18,18.38,11.37-8.17,24.43-14.56,39.17-19.19,14.74-4.61,28.33-6.93,40.78-6.93,22.39,0,40.77,3.12,55.16,9.33,14.39,6.23,25.85,15.02,34.38,26.39,8.53,11.38,14.39,24.87,17.59,40.51,3.2,15.64,4.8,33.04,4.8,52.24v158.3h-79.42v-148.71c0-25.58-3.29-43.7-9.86-54.36-6.58-10.66-17.86-15.99-33.85-15.99-4.26,0-10.22,1.06-17.85,3.2-7.65,2.13-13.95,4.8-18.92,8,2.48,8.18,4.08,16.79,4.79,25.85.71,9.07,1.07,18.75,1.07,29.06v152.97h-79.41v-148.71Z"/><path d="m4259.99,267.28c0,22.39-3.29,42.64-9.86,60.76-6.58,18.12-16.08,33.58-28.51,46.38-12.45,12.78-27.72,22.65-45.84,29.58-18.12,6.93-38.73,10.4-61.83,10.4-9.59,0-19.64-.46-30.12-1.33-10.48-.9-20.78-2.05-30.91-3.47-10.12-1.43-19.81-3.11-29.05-5.07-9.24-1.95-17.41-4-24.52-6.12V38.61l79.42-2.22v97.1c8.87-3.9,18.12-6.92,27.71-9.06,9.6-2.13,19.9-3.2,30.92-3.2,19.89,0,37.48,3.46,52.76,10.39,15.28,6.93,28.07,16.79,38.38,29.59,10.3,12.78,18.12,28.16,23.45,46.1,5.33,17.95,8,37.93,8,59.96Zm-81.02-2.12c0-51.18-18.84-76.75-56.5-76.75-8.18,0-16.26,1.06-24.25,3.2-8,2.13-14.48,4.8-19.45,8v144.44c3.9.72,8.87,1.33,14.92,1.86,6.04.54,12.61.8,19.72.8,21.67,0,38.02-7.46,49.03-22.38,11.01-14.93,16.53-34.65,16.53-59.16Z"/><path d="m4561.24,266.75c0,22.04-3.2,42.2-9.59,60.49-6.4,18.31-15.64,33.94-27.72,46.91-12.09,12.97-26.57,23.01-43.44,30.12-16.88,7.1-35.8,10.66-56.76,10.66s-39.36-3.56-56.24-10.66c-16.88-7.11-31.36-17.15-43.44-30.12-12.09-12.97-21.5-28.6-28.25-46.91-6.76-18.29-10.13-38.46-10.13-60.49s3.47-42.11,10.39-60.22c6.93-18.12,16.52-33.58,28.78-46.38,12.26-12.79,26.83-22.74,43.71-29.85,16.88-7.1,35.26-10.66,55.17-10.66s38.81,3.56,55.69,10.66c16.88,7.11,31.36,17.05,43.44,29.85,12.08,12.79,21.5,28.25,28.25,46.38,6.75,18.11,10.13,38.2,10.13,60.22Zm-81.02,0c0-24.52-4.89-43.79-14.66-57.83-9.78-14.03-23.72-21.05-41.84-21.05s-32.17,7.02-42.11,21.05c-9.95,14.04-14.92,33.31-14.92,57.83s4.97,43.97,14.92,58.37c9.94,14.39,23.99,21.58,42.11,21.58s32.06-7.19,41.84-21.58c9.77-14.4,14.66-33.85,14.66-58.37Z"/><path d="m4777.26,197.46c-7.12-1.77-15.46-3.63-25.05-5.59-9.59-1.96-19.9-2.94-30.91-2.94-4.98,0-10.93.45-17.86,1.33-6.93.9-12.17,1.86-15.72,2.94v214.26h-79.42V142.02c14.21-4.97,31-9.67,50.37-14.12,19.36-4.45,40.95-6.66,64.76-6.66,4.27,0,9.41.26,15.46.79,6.04.54,12.08,1.25,18.12,2.13,6.04.9,12.08,1.96,18.12,3.2,6.04,1.25,11.2,2.76,15.46,4.54l-13.33,65.55Z"/><path d="m5061.91,372.29c0,45.84-11.64,79.86-34.92,102.07-23.28,22.19-59.26,33.31-107.93,33.31-17.05,0-34.11-1.52-51.17-4.54-17.06-3.02-32.87-7.02-47.44-11.99l13.86-66.63c12.44,4.98,25.49,8.88,39.17,11.73,13.67,2.84,29.23,4.26,46.64,4.26,22.74,0,38.82-4.98,48.24-14.92,9.41-9.95,14.13-22.74,14.13-38.38v-10.12c-8.53,3.91-17.32,6.84-26.38,8.79-9.06,1.96-18.92,2.94-29.58,2.94-38.74,0-68.41-11.46-89.01-34.37-20.61-22.92-30.91-54.99-30.91-96.21,0-20.6,3.2-39.35,9.59-56.24,6.4-16.86,15.72-31.36,27.98-43.43,12.26-12.08,27.27-21.4,45.04-27.98,17.77-6.58,37.84-9.87,60.23-9.87,9.59,0,19.46.46,29.58,1.33,10.13.9,20.16,2.05,30.12,3.47,9.94,1.43,19.46,3.11,28.51,5.07,9.06,1.96,17.14,4,24.26,6.12v235.59Zm-174.29-114.07c0,44.42,17.94,66.63,53.83,66.63,8.17,0,15.81-1.06,22.92-3.2,7.1-2.13,13.14-4.61,18.12-7.46v-126.86c-3.91-.71-8.53-1.33-13.86-1.86-5.33-.53-11.56-.8-18.66-.8-20.97,0-36.6,6.93-46.91,20.79-10.31,13.86-15.45,31.45-15.45,52.77Z"/><path d="m5199.14,407.46h-79.42V127.11h79.42v280.36Z"/></svg>