<?xml version="1.0" encoding="UTF-8"?><svg id="Camada_1" xmlns="http://www.w3.org/2000/svg" xmlns:xlink="http://www.w3.org/1999/xlink" viewBox="0 0 5102.41 471.27"><defs><style>.cls-1{fill:#00586a;}.cls-2{fill:url(#Gradiente_sem_nome_22);}.cls-3{opacity:.25;}</style><linearGradient id="Gradiente_sem_nome_22" x1="69.83" y1="346.74" x2="312.72" y2="103.85" gradientUnits="userSpaceOnUse"><stop offset="0" stop-color="#00a5be"/><stop offset="1" stop-color="#fcb01f"/></linearGradient></defs><path class="cls-1" d="m840.59,24.83h77.96v346.29h-77.96v-146.91h-130.92v146.91h-77.95V24.83h77.95v132.42h130.92V24.83Z"/><path class="cls-1" d="m947.92,232.75c0-24.87,3.82-46.64,11.46-65.29,7.64-18.66,17.67-34.2,30.11-46.64,12.44-12.43,26.73-21.85,42.91-28.24,16.17-6.4,32.78-9.6,49.84-9.6,39.79,0,71.24,12.18,94.34,36.51,23.09,24.35,34.65,60.15,34.65,107.4,0,4.62-.19,9.68-.54,15.19-.36,5.52-.71,10.4-1.07,14.66h-180.15c1.77,16.35,9.41,29.32,22.92,38.91,13.5,9.59,31.63,14.39,54.37,14.39,14.57,0,28.87-1.33,42.91-4,14.03-2.67,25.49-5.94,34.38-9.86l10.66,64.49c-4.26,2.13-9.95,4.27-17.06,6.4-7.11,2.12-15.01,4-23.71,5.59-8.71,1.6-18.04,2.94-27.98,4-9.95,1.07-19.9,1.6-29.85,1.6-25.23,0-47.17-3.74-65.82-11.19-18.66-7.46-34.11-17.68-46.37-30.65-12.26-12.97-21.32-28.34-27.18-46.11-5.87-17.77-8.8-36.96-8.8-57.57Zm186.55-30.38c-.36-6.75-1.51-13.33-3.47-19.73-1.96-6.39-4.98-12.08-9.06-17.05-4.09-4.98-9.24-9.06-15.46-12.26-6.22-3.2-13.95-4.79-23.18-4.79s-16.53,1.51-22.92,4.53c-6.39,3.02-11.72,7.02-15.99,11.99-4.26,4.98-7.55,10.75-9.86,17.32-2.32,6.58-4,13.24-5.06,19.99h105Z"/><path class="cls-1" d="m1251.24,100.03c13.5-3.9,30.91-7.54,52.23-10.92,21.32-3.37,43.71-5.07,67.16-5.07s43.61,3.12,59.43,9.33c15.81,6.23,28.33,15.02,37.58,26.39,9.24,11.38,15.81,24.87,19.72,40.51,3.91,15.64,5.87,33.04,5.87,52.24v158.3h-79.42v-148.71c0-25.58-3.38-43.7-10.13-54.36-6.75-10.66-19.37-15.99-37.84-15.99-5.69,0-11.73.26-18.12.8-6.39.53-12.08,1.16-17.05,1.86v216.4h-79.42V100.03Z"/><path class="cls-1" d="m1704.34,160.8c-7.12-1.77-15.46-3.63-25.05-5.59-9.59-1.96-19.9-2.94-30.91-2.94-4.98,0-10.93.45-17.86,1.33-6.93.9-12.17,1.86-15.72,2.94v214.26h-79.42V105.36c14.21-4.97,31-9.67,50.37-14.12,19.36-4.45,40.95-6.66,64.76-6.66,4.27,0,9.41.26,15.46.79,6.04.54,12.08,1.25,18.12,2.13,6.04.9,12.08,1.96,18.12,3.2,6.04,1.25,11.2,2.76,15.46,4.54l-13.33,65.55Z"/><path class="cls-1" d="m1837.59,369.72l-79.42,1.08V90.44h79.42v279.28Z"/><path class="cls-1" d="m2130.73,93.89c-9.28-1.92-18.87-3.62-29-5.01-10.13-1.49-20.47-2.67-30.92-3.52-10.55-.85-20.57-1.28-30.17-1.28-23.13,0-43.71,3.52-61.83,10.66-18.12,7.04-33.36,17.16-45.84,30.06-12.47,13.01-21.96,28.46-28.46,46.37-6.61,18.02-9.91,37.74-9.91,59.48,0,44.77,10.45,80.16,31.45,106.28,21,26.12,51.38,39.23,91.14,39.23,10.98,0,21.32-1.07,30.91-3.2,9.59-2.13,18.87-5.22,27.72-9.06v95.35h79.42V100.08c-7.14-2.13-15.24-4.16-24.52-6.18Zm-74.3,211.92c-8,2.13-16.1,3.2-24.31,3.2-37.63,0-56.5-25.48-56.5-76.22,0-24.52,5.54-44.24,16.52-58.95,10.98-14.71,27.4-22.07,49.04-22.07,7.14,0,13.64.21,19.72.75,6.08.53,10.98,1.17,14.93,1.92v143.38c-5.01,3.2-11.41,5.86-19.4,8Z"/><path class="cls-1" d="m2447.91,361.2c-13.51,3.91-30.92,7.56-52.24,10.93-21.32,3.37-43.7,5.06-67.16,5.06s-43.62-3.2-59.43-9.59c-15.81-6.4-28.34-15.37-37.58-26.92-9.24-11.54-15.81-25.32-19.72-41.31-3.91-15.99-5.86-33.57-5.86-52.77V90.44h79.42v146.58c0,25.58,3.37,44.07,10.12,55.43,6.75,11.37,19.36,17.05,37.85,17.05,5.68,0,11.72-.27,18.12-.8,6.4-.53,12.08-1.15,17.06-1.86V90.44h79.42v270.76Z"/><path class="cls-1" d="m2485.79,232.75c0-24.87,3.82-46.64,11.46-65.29,7.64-18.66,17.67-34.2,30.11-46.64,12.44-12.43,26.73-21.85,42.91-28.24,16.17-6.4,32.78-9.6,49.84-9.6,39.79,0,71.24,12.18,94.34,36.51,23.09,24.35,34.65,60.15,34.65,107.4,0,4.62-.19,9.68-.54,15.19-.36,5.52-.71,10.4-1.07,14.66h-180.15c1.77,16.35,9.41,29.32,22.92,38.91,13.5,9.59,31.63,14.39,54.37,14.39,14.57,0,28.87-1.33,42.91-4,14.03-2.67,25.49-5.94,34.38-9.86l10.66,64.49c-4.26,2.13-9.95,4.27-17.06,6.4-7.11,2.12-15.01,4-23.71,5.59-8.71,1.6-18.04,2.94-27.98,4-9.95,1.07-19.9,1.6-29.85,1.6-25.23,0-47.17-3.74-65.82-11.19-18.66-7.46-34.11-17.68-46.37-30.65-12.26-12.97-21.32-28.34-27.18-46.11-5.87-17.77-8.8-36.96-8.8-57.57Zm186.55-30.38c-.36-6.75-1.51-13.33-3.47-19.73-1.96-6.39-4.98-12.08-9.06-17.05-4.09-4.98-9.24-9.06-15.46-12.26-6.22-3.2-13.95-4.79-23.18-4.79s-16.53,1.51-22.92,4.53c-6.39,3.02-11.72,7.02-15.99,11.99-4.26,4.98-7.55,10.75-9.86,17.32-2.32,6.58-4,13.24-5.06,19.99h105Z"/><path class="cls-1" d="m3037.01,85.17c-36.31,0-62.54,10.08-78.7,30.24-16.16,20.16-24.23,47.72-24.23,82.7,0,16.98,2,32.4,6,46.22,4,13.82,9.99,25.73,17.99,35.72,7.99,9.99,17.99,17.74,29.98,23.24,11.99,5.49,25.99,8.25,41.98,8.25,8.66,0,16.06-.17,22.23-.5,6.16-.33,11.57-1.01,16.24-2v-120.42h77.96v171.39c-9.33,3.67-24.32,7.58-44.97,11.75-20.66,4.16-46.14,6.25-76.45,6.25-25.99,0-49.56-4-70.71-11.99-21.16-7.99-39.22-19.66-54.21-34.98-14.99-15.32-26.57-34.15-34.73-56.47-8.17-22.31-12.24-47.79-12.24-76.45s4.5-54.63,13.49-76.95c8.99-22.32,21.32-41.22,36.97-56.71,15.65-15.5,34.06-27.24,55.22-35.23,21.15-7.99,43.72-11.99,67.71-11.99,16.32,0,31.06,1.08,44.22,3.25,13.16,2.17,24.49,4.67,33.98,7.5,9.5,2.83,17.32,5.75,23.49,8.74,6.16,3,10.57,5.33,13.24,7l-22.49,62.46c-10.67-5.66-22.91-10.57-36.73-14.75-13.82-4.16-28.9-6.25-45.22-6.25Z"/><path class="cls-1" d="m3300.88,83.24c23.45,0,42.99,2.67,58.63,8,15.63,5.33,28.15,12.97,37.58,22.92,9.41,9.95,16.07,22.03,19.99,36.24,3.9,14.22,5.86,30.03,5.86,47.44v165.23c-11.37,2.49-27.18,5.42-47.43,8.8-20.26,3.37-44.77,5.06-73.56,5.06-18.12,0-34.56-1.59-49.3-4.8-14.75-3.2-27.45-8.43-38.11-15.72-10.66-7.28-18.84-16.79-24.52-28.51-5.68-11.73-8.53-26.12-8.53-43.17s3.28-30.2,9.86-41.58c6.57-11.37,15.37-20.42,26.38-27.18,11.01-6.75,23.63-11.64,37.85-14.66,14.2-3.02,28.96-4.53,44.24-4.53,10.3,0,19.45.45,27.45,1.33,8,.88,14.48,2.04,19.46,3.46v-7.45c0-13.5-4.09-24.34-12.26-32.52-8.18-8.16-22.39-12.25-42.64-12.25-13.51,0-26.83.98-39.98,2.93-13.15,1.96-24.52,4.72-34.11,8.27l-10.12-63.96c4.61-1.42,10.39-2.94,17.32-4.53,6.93-1.6,14.47-3.02,22.65-4.27,8.17-1.24,16.79-2.3,25.85-3.2,9.06-.88,18.21-1.33,27.45-1.33Zm6.39,232.39c7.81,0,15.28-.18,22.39-.53,7.1-.35,12.79-.88,17.06-1.6v-60.22c-3.2-.71-8-1.42-14.39-2.13-6.4-.71-12.26-1.06-17.59-1.06-7.46,0-14.48.45-21.05,1.33-6.58.88-12.35,2.58-17.32,5.06-4.98,2.49-8.89,5.86-11.73,10.13-2.85,4.26-4.26,9.59-4.26,15.99,0,12.44,4.17,21.05,12.53,25.85,8.34,4.8,19.8,7.19,34.37,7.19Z"/><path class="cls-1" d="m3624.59,222.35c0-25.58-3.29-43.7-9.86-54.36-6.58-10.66-17.85-15.99-33.84-15.99-4.98,0-10.13.26-15.46.8-5.33.53-10.48,1.16-15.45,1.86v216.4h-79.42V100.29c6.75-1.77,14.66-3.63,23.72-5.59,9.06-1.95,18.66-3.74,28.78-5.33,10.13-1.6,20.52-2.84,31.18-3.74,10.66-.87,21.14-1.33,31.44-1.33,20.26,0,36.69,2.58,49.3,7.73,12.61,5.15,23.01,11.28,31.18,18.38,11.37-8.17,24.43-14.56,39.17-19.19,14.74-4.61,28.33-6.93,40.78-6.93,22.39,0,40.77,3.12,55.16,9.33,14.39,6.23,25.85,15.02,34.38,26.39,8.53,11.38,14.39,24.87,17.59,40.51,3.2,15.64,4.8,33.04,4.8,52.24v158.3h-79.42v-148.71c0-25.58-3.29-43.7-9.86-54.36-6.58-10.66-17.86-15.99-33.85-15.99-4.26,0-10.22,1.06-17.85,3.2-7.65,2.13-13.95,4.8-18.92,8,2.48,8.18,4.08,16.79,4.79,25.85.71,9.07,1.07,18.75,1.07,29.06v152.97h-79.41v-148.71Z"/><path class="cls-1" d="m4163.26,230.88c0,22.39-3.29,42.64-9.86,60.76-6.58,18.12-16.08,33.58-28.51,46.38-12.45,12.78-27.72,22.65-45.84,29.58-18.12,6.93-38.73,10.4-61.83,10.4-9.59,0-19.64-.46-30.12-1.33-10.48-.9-20.78-2.05-30.91-3.47-10.12-1.43-19.81-3.11-29.05-5.07-9.24-1.95-17.41-4-24.52-6.12V2.22l79.42-2.22v97.1c8.87-3.9,18.12-6.92,27.71-9.06,9.6-2.13,19.9-3.2,30.92-3.2,19.89,0,37.48,3.46,52.76,10.39,15.28,6.93,28.07,16.79,38.38,29.59,10.3,12.78,18.12,28.16,23.45,46.1,5.33,17.95,8,37.93,8,59.96Zm-81.02-2.12c0-51.18-18.84-76.75-56.5-76.75-8.18,0-16.26,1.06-24.25,3.2-8,2.13-14.48,4.8-19.45,8v144.44c3.9.72,8.87,1.33,14.92,1.86,6.04.54,12.61.8,19.72.8,21.67,0,38.02-7.46,49.03-22.38,11.01-14.93,16.53-34.65,16.53-59.16Z"/><path class="cls-1" d="m4464.51,230.35c0,22.04-3.2,42.2-9.59,60.49-6.4,18.31-15.64,33.94-27.72,46.91-12.09,12.97-26.57,23.01-43.44,30.12-16.88,7.1-35.8,10.66-56.76,10.66s-39.36-3.56-56.24-10.66c-16.88-7.11-31.36-17.15-43.44-30.12-12.09-12.97-21.5-28.6-28.25-46.91-6.76-18.29-10.13-38.46-10.13-60.49s3.47-42.11,10.39-60.22c6.93-18.12,16.52-33.58,28.78-46.38,12.26-12.79,26.83-22.74,43.71-29.85,16.88-7.1,35.26-10.66,55.17-10.66s38.81,3.56,55.69,10.66c16.88,7.11,31.36,17.05,43.44,29.85,12.08,12.79,21.5,28.25,28.25,46.38,6.75,18.11,10.13,38.2,10.13,60.22Zm-81.02,0c0-24.52-4.89-43.79-14.66-57.83-9.78-14.03-23.72-21.05-41.84-21.05s-32.17,7.02-42.11,21.05c-9.95,14.04-14.92,33.31-14.92,57.83s4.97,43.97,14.92,58.37c9.94,14.39,23.99,21.58,42.11,21.58s32.06-7.19,41.84-21.58c9.77-14.4,14.66-33.85,14.66-58.37Z"/><path class="cls-1" d="m4680.53,161.06c-7.12-1.77-15.46-3.63-25.05-5.59-9.59-1.96-19.9-2.94-30.91-2.94-4.98,0-10.93.45-17.86,1.33-6.93.9-12.17,1.86-15.72,2.94v214.26h-79.42V105.62c14.21-4.97,31-9.67,50.37-14.12,19.36-4.45,40.95-6.66,64.76-6.66,4.27,0,9.41.26,15.46.79,6.04.54,12.08,1.25,18.12,2.13,6.04.9,12.08,1.96,18.12,3.2,6.04,1.25,11.2,2.76,15.46,4.54l-13.33,65.55Z"/><path class="cls-1" d="m4965.18,335.89c0,45.84-11.64,79.86-34.92,102.07-23.28,22.19-59.26,33.31-107.93,33.31-17.05,0-34.11-1.52-51.17-4.54-17.06-3.02-32.87-7.02-47.44-11.99l13.86-66.63c12.44,4.98,25.49,8.88,39.17,11.73,13.67,2.84,29.23,4.26,46.64,4.26,22.74,0,38.82-4.98,48.24-14.92,9.41-9.95,14.13-22.74,14.13-38.38v-10.12c-8.53,3.91-17.32,6.84-26.38,8.79-9.06,1.96-18.92,2.94-29.58,2.94-38.74,0-68.41-11.46-89.01-34.37-20.61-22.92-30.91-54.99-30.91-96.21,0-20.6,3.2-39.35,9.59-56.24,6.4-16.86,15.72-31.36,27.98-43.43,12.26-12.08,27.27-21.4,45.04-27.98,17.77-6.58,37.84-9.87,60.23-9.87,9.59,0,19.46.46,29.58,1.33,10.13.9,20.16,2.05,30.12,3.47,9.94,1.43,19.46,3.11,28.51,5.07,9.06,1.96,17.14,4,24.26,6.12v235.59Zm-174.29-114.07c0,44.42,17.94,66.63,53.83,66.63,8.17,0,15.81-1.06,22.92-3.2,7.1-2.13,13.14-4.61,18.12-7.46v-126.86c-3.91-.71-8.53-1.33-13.86-1.86-5.33-.53-11.56-.8-18.66-.8-20.97,0-36.6,6.93-46.91,20.79-10.31,13.86-15.45,31.45-15.45,52.77Z"/><path class="cls-1" d="m5102.41,371.06h-79.42V90.71h79.42v280.36Z"/><path class="cls-2" d="m389.16,82.83v135.74c0,35.18-9.48,68.13-26.08,96.44-1.49,2.55-3.04,5.08-4.66,7.55-3.4,5.25-7.05,10.31-10.94,15.19-1.87,2.32-3.78,4.62-5.76,6.85-1.42,1.64-2.87,3.23-4.37,4.81-.6.66-1.22,1.32-1.86,1.97-31.25,32.39-73.85,53.74-121.38,57.71-5.31.44-10.69.67-16.12.67-3.92,0-7.79-.11-11.63-.36-37.27-2.23-71.67-15.14-100.14-35.74-.27-.2-.55-.39-.81-.58-.62-.44-1.23-.89-1.84-1.35-1.29-.94-2.54-1.9-3.78-2.9-38.4-30.26-64.93-74.9-71.42-125.81-1.02-8.01-1.55-16.16-1.55-24.44,0-10.04.77-19.9,2.27-29.52,6.36-40.96,25.73-77.63,53.74-105.65,34.57-34.58,82.37-55.99,135.16-55.99h135.76c30.59,0,55.41,24.8,55.41,55.41Z"/><g class="cls-3"><path class="cls-1" d="m197.98,410.8c-4.13,0-7.96-.12-11.7-.36-36.39-2.18-71.21-14.61-100.67-35.93l-.31-.22c-.18-.12-.35-.25-.52-.38-.6-.42-1.22-.88-1.84-1.36-1.21-.88-2.47-1.84-3.81-2.92-39.9-31.44-65.4-76.36-71.79-126.48-1.03-8.1-1.56-16.36-1.56-24.57,0-9.97.77-19.95,2.28-29.68,6.27-40.41,24.96-77.14,54.03-106.22,36.29-36.3,84.55-56.29,135.89-56.29h135.17c31.46,0,57.05,25.59,57.05,57.05v135.14c0,34.17-9.07,67.7-26.22,96.97-1.6,2.75-3.14,5.24-4.7,7.6-3.36,5.18-7.06,10.32-10.99,15.26-2.1,2.61-4,4.86-5.8,6.9-1.4,1.61-2.84,3.2-4.39,4.83-.59.65-1.22,1.32-1.87,1.98-32.35,33.53-75.69,54.14-122.02,58.01-5.41.45-10.86.67-16.21.67Zm0-380.66c-50.34,0-97.66,19.6-133.23,55.19-28.51,28.51-46.83,64.52-52.98,104.14-1.48,9.54-2.23,19.33-2.23,29.1,0,8.05.51,16.16,1.53,24.09,6.26,49.13,31.27,93.18,70.4,124.02,1.3,1.05,2.51,1.98,3.71,2.85.62.47,1.22.91,1.82,1.34.18.13.32.24.47.34l.35.25c28.89,20.91,63.02,33.09,98.71,35.23,3.67.24,7.42.36,11.46.36,5.25,0,10.6-.22,15.9-.66,45.42-3.79,87.91-24,119.64-56.89.63-.64,1.23-1.29,1.82-1.93,1.54-1.62,2.94-3.16,4.31-4.74,1.78-2.01,3.63-4.22,5.7-6.77,3.85-4.83,7.48-9.87,10.78-14.96,1.53-2.31,3.03-4.74,4.6-7.44,16.82-28.69,25.71-61.57,25.71-95.07V83.43c0-29.38-23.91-53.29-53.29-53.29h-135.17Z"/><path class="cls-1" d="m197.98,416.58c-4.23,0-8.18-.12-12.07-.37-37.46-2.25-73.33-15.05-103.69-37.02l-.26-.18c-.21-.14-.43-.31-.66-.48-.53-.37-1.21-.87-1.88-1.39-1.17-.85-2.5-1.87-3.92-3.01C34.45,341.77,8.19,295.5,1.61,243.87c-1.07-8.34-1.61-16.86-1.61-25.3,0-10.26.79-20.55,2.35-30.57,6.46-41.63,25.71-79.47,55.66-109.42,37.38-37.39,87.09-57.98,139.98-57.98h135.17c34.64,0,62.83,28.18,62.83,62.83v135.14c0,35.2-9.34,69.74-27.02,99.89-1.64,2.82-3.23,5.4-4.86,7.86-3.44,5.31-7.25,10.6-11.3,15.68-2.16,2.69-4.12,5.01-5.99,7.13-1.42,1.64-2.91,3.28-4.53,4.99-.57.62-1.24,1.35-1.94,2.06-33.29,34.51-77.93,55.73-125.66,59.72-5.56.46-11.17.69-16.69.69Zm0-380.66c-48.8,0-94.66,19-129.15,53.49-27.64,27.64-45.39,62.54-51.35,100.94-1.44,9.25-2.17,18.74-2.17,28.22,0,7.8.5,15.66,1.48,23.36,6.07,47.62,30.31,90.31,68.25,120.21,1.27,1.02,2.4,1.89,3.52,2.71.68.52,1.23.92,1.78,1.31l.82.59c28.02,20.28,61.1,32.09,95.69,34.16,3.57.23,7.2.35,11.12.35,5.08,0,10.27-.22,15.42-.64,44.02-3.68,85.2-23.26,115.96-55.14.62-.63,1.17-1.23,1.71-1.82,1.53-1.61,2.89-3.1,4.21-4.63,1.75-1.98,3.56-4.13,5.56-6.61,3.72-4.66,7.23-9.54,10.43-14.48,1.49-2.26,2.94-4.6,4.45-7.2,16.31-27.82,24.92-59.69,24.92-92.16V83.43c0-26.2-21.31-47.51-47.51-47.51h-135.17Z"/></g></svg>