<?xml version="1.0" encoding="UTF-8"?><svg id="Camada_1" xmlns="http://www.w3.org/2000/svg" xmlns:xlink="http://www.w3.org/1999/xlink" viewBox="0 0 1290.82 1290.82"><defs><style>.cls-1{fill:#00586a;}.cls-2{fill:#fcb01f;}.cls-3{fill:url(#Gradiente_sem_nome_22);}.cls-4{opacity:.15;}.cls-5{opacity:.25;}</style><linearGradient id="Gradiente_sem_nome_22" x1="227.63" y1="1063.16" x2="1019.41" y2="271.38" gradientUnits="userSpaceOnUse"><stop offset="0" stop-color="#00a5be"/><stop offset="1" stop-color="#fcb01f"/></linearGradient></defs><path class="cls-3" d="m1268.6,202.86v442.5c0,114.67-30.91,222.09-85.01,314.38-4.84,8.32-9.9,16.57-15.2,24.6-11.08,17.1-22.98,33.6-35.68,49.52-6.1,7.57-12.33,15.06-18.79,22.34-4.63,5.34-9.36,10.54-14.24,15.67-1.97,2.15-3.98,4.3-6.06,6.42-101.87,105.59-240.73,175.19-395.67,188.13-17.32,1.43-34.85,2.19-52.56,2.19-12.76,0-25.39-.36-37.9-1.18-121.48-7.28-233.64-49.34-326.43-116.5-.9-.65-1.79-1.26-2.65-1.9-2.01-1.43-4.02-2.9-5.99-4.41-4.19-3.05-8.28-6.2-12.33-9.47-125.17-98.64-211.66-244.18-232.81-410.12-3.33-26.1-5.06-52.67-5.06-79.67,0-32.74,2.51-64.86,7.39-96.24,20.72-133.53,83.87-253.07,175.19-344.39C317.49,92,473.32,22.22,645.39,22.22h442.57c99.71,0,180.64,80.85,180.64,180.64Z"/><g class="cls-5"><path class="cls-1" d="m645.39,1271.98c-13.46,0-25.94-.39-38.13-1.19-118.63-7.11-232.12-47.62-328.18-117.13l-1.02-.72c-.58-.41-1.15-.81-1.7-1.23-1.94-1.38-3.99-2.88-6.01-4.42-3.95-2.87-8.05-6.01-12.41-9.52-130.06-102.49-213.19-248.93-234.02-412.3-3.37-26.39-5.08-53.34-5.08-80.09,0-32.49,2.5-65.04,7.43-96.75,20.45-131.74,81.35-251.48,176.14-346.26C320.7,84.01,478.02,18.85,645.39,18.85h440.61c102.55,0,185.97,83.42,185.97,185.97v440.54c0,111.4-29.56,220.7-85.48,316.1-5.22,8.97-10.23,17.08-15.31,24.77-10.95,16.9-23.02,33.65-35.84,49.74-6.86,8.51-13.04,15.86-18.91,22.49-4.56,5.26-9.26,10.43-14.32,15.76-1.93,2.11-3.98,4.31-6.11,6.47-105.45,109.32-246.73,176.49-397.77,189.11-17.62,1.46-35.4,2.2-52.84,2.2Zm0-1240.88c-164.1,0-318.34,63.89-434.32,179.91-92.94,92.94-152.65,210.33-172.7,339.49-4.83,31.09-7.28,63.01-7.28,94.87,0,26.24,1.68,52.67,4.98,78.54,20.42,160.17,101.92,303.74,229.5,404.28,4.25,3.42,8.19,6.45,12.09,9.28,2.03,1.55,3.98,2.97,5.92,4.36.58.43,1.06.77,1.54,1.11l1.14.81c94.16,68.15,205.43,107.86,321.76,114.83,11.96.79,24.18,1.16,37.37,1.16,17.11,0,34.55-.73,51.83-2.16,148.07-12.37,286.59-78.23,390.02-185.45,2.07-2.1,4.01-4.19,5.92-6.28,5.01-5.27,9.58-10.3,14.06-15.47,5.79-6.54,11.85-13.74,18.57-22.08,12.56-15.74,24.38-32.17,35.15-48.78,4.98-7.54,9.87-15.45,14.99-24.24,54.83-93.53,83.8-200.69,83.8-309.92V204.81c0-95.79-77.93-173.72-173.72-173.72h-440.61Z"/><path class="cls-1" d="m645.39,1290.82c-13.79,0-26.66-.4-39.35-1.22-122.13-7.33-239.04-49.05-338.01-120.68l-.85-.6c-.67-.47-1.42-1.01-2.15-1.55-1.71-1.21-3.94-2.85-6.13-4.52-3.81-2.75-8.16-6.09-12.78-9.82C112.3,1046.97,26.69,896.14,5.23,727.84c-3.47-27.19-5.23-54.94-5.23-82.48,0-33.45,2.57-66.97,7.65-99.65,21.06-135.72,83.8-259.06,181.44-356.69C310.94,67.13,472.99,0,645.39,0h440.62c112.93,0,204.81,91.88,204.81,204.81v440.54c0,114.75-30.45,227.35-88.07,325.63-5.35,9.2-10.54,17.59-15.84,25.62-11.21,17.31-23.63,34.55-36.83,51.1-7.06,8.75-13.42,16.33-19.54,23.23-4.63,5.34-9.5,10.71-14.77,16.25-1.86,2.02-4.06,4.39-6.34,6.71-108.51,112.48-254.04,181.67-409.63,194.67-18.12,1.5-36.42,2.26-54.42,2.26Zm0-1240.88c-159.07,0-308.58,61.93-420.99,174.38-90.09,90.09-147.97,203.88-167.4,329.05-4.68,30.15-7.06,61.09-7.06,91.98,0,25.44,1.63,51.06,4.83,76.16,19.79,155.24,98.8,294.4,222.47,391.86,4.14,3.33,7.83,6.17,11.49,8.82,2.23,1.69,4.02,3,5.8,4.28l2.68,1.92c91.36,66.12,199.19,104.59,311.95,111.36,11.64.76,23.46,1.13,36.24,1.13,16.55,0,33.47-.71,50.28-2.1,143.5-11.98,277.75-75.82,378.01-179.75,2.03-2.07,3.83-4,5.59-5.92,5-5.26,9.41-10.12,13.72-15.08,5.71-6.45,11.59-13.45,18.13-21.56,12.11-15.19,23.57-31.1,34-47.21,4.87-7.37,9.59-15,14.52-23.47,53.16-90.69,81.24-194.56,81.24-300.44V204.81c0-85.4-69.47-154.87-154.87-154.87h-440.62Z"/></g><g class="cls-4"><path class="cls-2" d="m1100.84,866.8l2.78-2.78-1.54-1.5c-.39,1.43-.82,2.86-1.25,4.28Z"/><path class="cls-2" d="m628.4,902.35c-.64,9.32-2.53,18.56-2.5,27.81.07,9.96-5.64,14.17-13.57,17.21-3.03,1.14-6.07,2.43-9.1,3.64-69.5,27.2-136.76,59.08-200.91,97.31-44.48,26.52-86.42,56.62-122.05,94.1-.11,1.5-.18,2.96-.25,4.39-2-1.43-4-2.89-5.96-4.39-4.18-3.03-8.25-6.18-12.28-9.42-124.62-98.2-210.72-243.1-231.78-408.31-3.32-25.99-5.03-52.44-5.03-79.32,0-32.59,2.5-64.58,7.35-95.81l467.92-288.9,4.1,4.1c-10,8.43-18.46,19.03-25.95,30.88-6.14,9.75-6.6,20.17,4.96,28.42-52.26,51.12-69.82,212.9-22.31,284.55-16.17,26.52-18.6,55.37-10.67,84.71,8.14,29.74,26.77,51.62,55.55,64.36-7.53,13.6-6.18,25.02,4.03,35.48,1.89,1.96,2.78,4.93,3.96,7.46,11.32,24.74,40.16,47.76,70.18,42.59,12.46-2.18,18.67,1.5,23.35,11.99,7.07,15.71,22.38,27.77,20.95,47.16Z"/><polygon class="cls-2" points="1089.11 423.08 1074.47 366.6 930.13 318.49 746.04 324.76 591.25 496.3 486.65 523.49 451.09 676.2 480.38 736.86 534.77 747.32 589.15 789.16 643.54 799.62 641.45 897.94 643.54 1056.92 760.69 1155.24 957.32 1084.11 961.51 952.33 1068.19 862.38 1103.76 726.4 1103.76 667.83 1110.03 630.18 1114.21 582.07 1089.11 423.08"/></g><path class="cls-1" d="m1130.37,520.68c-18.21-13.28-20.53-28.88-21.35-47.58-.14-2.86-.18-5.82-1.03-8.43-2-6.1-.93-9.71,5.75-12.1,12.99-4.57,20.24-14.78,19.53-28.06-.64-13.99-2.18-28.52-6.89-41.59-10.85-29.95-23.85-59.12-35.63-87.89,3.5.36,7.46-.36,11.74-.82-4.86-15.64-15.42-42.55-38.91-68.72-28.31-31.49-60.4-45.09-76.43-50.65-14.28-2.5-28.88-3.96-43.77-4.25-4.96-.14-10.03-4.89-14.81-7.89-5.35-3.28-9.96-9.14-15.56-10.17-49.66-8.78-99.7-10.67-149.29-1.71-28.59,5.18-56.72,13.96-84.25,23.45-28.63,9.78-54.97,24.67-78.36,44.19-5.03,4.21-7.46,9.82-10.14,13.92-4.14,6.35-7.46,12.35-10.14,17.67-5.64-3.43-13.64-4.39-20.6-5.46-4.32-.64-9.14,2.75-13.81,3.14-19.6,1.61-35.27,8.96-48.3,20.03-10,8.42-18.46,19.03-25.95,30.88-6.14,9.75-6.6,20.17,4.96,28.42-52.26,51.12-69.82,212.9-22.31,284.55-16.17,26.52-18.6,55.37-10.67,84.71,8.14,29.74,26.77,51.62,55.55,64.36-7.53,13.6-6.18,25.02,4.03,35.48,1.89,1.96,2.78,4.93,3.96,7.46,11.32,24.74,40.16,47.76,70.18,42.59,12.46-2.18,18.67,1.5,23.35,11.99,7.07,15.71,22.38,27.77,20.95,47.16-.64,9.32-2.53,18.56-2.5,27.81.07,9.96-5.64,14.17-13.57,17.21-3.03,1.14-6.07,2.43-9.1,3.64-69.5,27.2-136.76,59.08-200.91,97.31-44.48,26.52-86.42,56.62-122.05,94.1,2.82,2.14,5.68,4.21,8.6,6.28,92.39,66.86,204.05,108.74,324.99,115.98,12.46.82,25.02,1.18,37.73,1.18,17.63,0,35.09-.75,52.33-2.18,154.25-12.89,292.51-82.18,393.92-187.31,2.07-2.11,4.07-4.25,6.03-6.39-30.31-28.34-63.68-52.9-100.7-73.07-4.82-2.61-9.28-5.78-16.67-10.39,50.23-3.14,77.86-30.49,96.28-70.79,7.28-15.96,13.17-32.34,18.03-48.94.43-1.43.86-2.86,1.25-4.28,0,0,.04,0,0-.04,6.6-23.24,11.28-46.98,15.17-71,6.35-39.48,10.78-79.07,6.28-119.23-.46-3.89,2.61-9.32,5.64-12.39,14.14-14.24,23.74-31.02,29.24-50.12,10.03-34.77,9.75-69.04-21.81-92.06Zm-44.8,250.1c-7.28-13.89-17.39-25.67-16.78-25.45-7.82-11.6-72.04-36.55-95.46-34.59-9.67.82-20.06.86-29.45-.79-1.25-.21-2.61-.39-4.07-.5-20.81-1.78-61.79,5.6-69.68,8.28-4.96,1.68-9.85,3.5-14.64,5.43-3,1.32-5.89,2.68-8.75,4.1-3.25,1.64-5.6,3.11-11.89,7.32-4.21,2.82-17.46,11.28-15.14,10.92-6.25,10.71-33.38,27.95-37.7,37.16-2.78,5.96-.61,10.42,4.57,13.67-13.49,15.67-29.02,17.1-58.94,8.64-20.49-5.78-39.95-15.78-59.15-25.31-19.63-9.78-31.88-26.74-36.63-48.01-6.21-27.77-10.99-55.87-16.71-83.75-2.43-11.78,2.46-20.85,8.39-30.34,4.64-7.46,5.25-19.24,11.46-23.38,5.6-3.75,16.39.14,24.88.86,17.81,1.54,35.63,3.21,54.01,4.86,14.42,66.58,52.69,90.49,107.95,91.46,28.06.46,54.19-4.64,75.64-24.2,14.64-13.32,27.09-33.38,36.48-62.97,13.67,8.82,28.02,16.06,31.56,34.38,1.29,6.6,5.43,12.67,8.35,18.92,6.18,13.17-.5,24.88-15.1,25.63-5.14.25-10.42-1.18-15.56-2.14-9.28-1.78-19.38,2.82-19.49,9.78,0,1,.04,1.96.18,2.82.79,5.5,4.32,8.42,9.39,9.39,1.5.29,3.11.39,4.85.36,13.99-.32,28.81,2.04,41.69-1.93,9.5-2.93,16.46-14.14,26.1-23.1,23.49,14.31,52.01,17.14,83.32,6.64,1.14,29.38.89,57.97-3.71,85.85Zm-45.94,80.28c-1.46,15.89-17.06,19.53-33.23,15.6-17.21-4.18-29.27-11.14-37.59-25.63-6.43-11.21-16.46-15.96-27.7-12.24-7.14,2.36-14.82,9.14-18.1,15.96-13.6,28.13-53.9,36.59-86.28,22.17-11.49-5.1-13.39-17.42-13.71-28.31-.36-11.28.68-23.17,3.46-34.77,6,.07,11.92-.11,17.31-.5,9.21-.68,18.06-4.03,27.09-6.14,9.75-2.29,19.17-5.28,28.74-7.39-2.53,1.71-5.28,4.28-5.35,6.46-.07,3.28,2.21,8.03,4.96,9.67,4.32,2.61,9.85,4.03,14.92,4.32,10.57.64,21.13.21,31.73.21v-.36c11.78,0,23.6.57,35.34-.21,8.57-.54,19.13-2.75,19.2-12.99.07-6.07-4-8.39-8.75-9.35,1.39-.43,2.78-.82,4.11-1.18,10.96,2.07,24.88,11.39,39.66,18.71,2.14,1.07,4.28,2.07,6.46,3.03.04,1.14.04,2.32.04,3.46,0,13.17-1.14,26.38-2.32,39.48Zm-112.23,199.34c-8.35,26.88-32.27,37.73-56.76,43.37-.25.07-.54.11-.79.18-44.44,10.07-86.5-.07-125.69-22.06-24.38-13.67-45.34-31.77-62.86-53.65-14.92-18.63-23.85-39.23-22.6-63.79.18-3.93-4.39-8.07-8.14-14.49.54-3.86,1.57-10.96,2.93-20.17,85.6,50.87,174.49,86.53,278.01,84.67-.82,10.28-.54,20.28-1.25,29.7-.46,5.6-1.25,11.07-2.86,16.24Zm-352.62-357.58c1.29,14.06-.61,25.52-14.85,33.95-15.74,9.35-30.77,14.06-48.33,7.1-32.31-12.78-51.08-52.87-40.59-86.92,10.57-34.41,33.23-51.08,67.33-49.01,2.64.14,5.85,2.57,7.6,4.89,25.31,33.38,31.2,37.91,28.81,81.46,0,2.86-.21,5.71.04,8.53Zm124.51-226.43c10.75-13.96,24.95-21.53,36.27-25.85-.5-7.6,0-16.42,5-19.21,4.71-2.61,8.89,2.57,19.67,3.32,1.68.11,17.03.93,27.81-9.75,4.75-4.71,6.93-10,7.96-13.24,2.21-3.28,5.71-7.18,10.6-7.96,3.11-.54,4.07.93,9.21,1.71,10.71,1.61,20.67,1.53,29.27-7.46,1.18-1.21,3.39-1.93,5.85-2.21,1.43-2.43,3.32-4.57,5.71-6.25,3.28-2.29,6.75-3.11,11.99-3.61,12.67-1.21,15.92,1.29,25.63-.14,5.5-.79,4.32-1.57,11.89-3.21,11.6-2.53,19.92-4.36,26.38-.25,7.89,5.07,8.75,16.35,9.03,18.74.93,8.6-2.36,15.1-4.14,19.2-6.64.43-12.99-13.07-20.95-11.99-3.75.54-8.5,4.36-12.67,18.6-.39,5.35-.57,18.38,7.82,29.24,14.31,18.35,45.51,20.24,64.93,6.39,14.56-10.39,18.31-26.88,19.21-31.81.25-7.21-.36-18.88-4.93-32.09,8.85,10.03,16.53,12.71,22.2,13.1,10.75.79,18.67-6.28,29.99-2.46,6.53,2.21,10.82,6.85,13.21,10.03,5.82,6.5,12.92,16.06,18.42,28.88,10.46,24.45,8.96,46.73,7.46,57.69-8.32-.82-16.24-2.57-24.1-2.21-18.99.93-38.37.75-56.76,4.82-23.24,5.14-39.37,20.63-46.62,44.19-12.21,2.28-20.49.75-26.84-12.64-11.53-24.31-34.52-32.77-59.83-36.63-37.16-5.64-74.04-4.89-109.84,6.85-7.25,2.39-13.53,5.25-18.92,8.64-18.03,11.32-25.99,28.7-27.02,54.44-.11,2.36-.29,4.75-.54,8.42-11-.93-21.45-1.75-31.91-2.68,7.18-20.49-6.46-66.97,18.49-101.17.32-.5.68-.96,1.07-1.46Zm387.93,171.28c1.68,14.56.36,17.74-13.67,22.2-29.63,9.46-62.61-3.14-77.57-30.56-12.57-22.99-17.53-47.91-14.56-74.04,1.68-14.92,10.5-24.6,24.56-28.77,22.28-6.57,44.98-6.85,67.61-2.28,2.64.54,6.43,4.07,6.68,6.5,1.61,14.96,2.36,29.99,3.39,44.98-.57.04,1.25,41.41,3.57,61.97Zm-210.44,8.75c-16.46,13.49-38.73,19.35-62.79,16.42-54.94-6.67-72.79-40.41-73.07-97.35-.11-18.35,5.89-29.81,18.67-36.27,5.03-2.57,11.17-4.36,18.38-5.5,16.46-2.57,33.13-3.96,52.33-6.18,14.99,2.32,32.48,3.93,49.44,7.92,18.06,4.28,27.56,17.74,28.7,36.41,1.39,21.74-3.5,42.19-13.21,61.44-4.68,9.21-10.96,16.96-18.46,23.1Z"/><path class="cls-1" d="m542.26,688.18c1.17-1.43,4.47-1.42,5.17-2.86,3.55-7.23,9.67-14.94,9.16-22.07-1.36-18.75-37.13-39.5-54.34-31.94-5.02,2.21-7.64,9.91-11.35,15.09,3.82,4.18,9.43,9.13,14.47,7.84,4.67-1.2,5.2-6.82,9.42-8.48,3.73-1.46,10.44.13,23.54,14.6-1.83,1.6-7.05,6.6-8.95,15.07-1.96,8.76.89,15.71,1.88,17.89"/></svg>