<?xml version="1.0" encoding="UTF-8"?><svg id="logos" xmlns="http://www.w3.org/2000/svg" viewBox="0 0 1294.11 1212.26"><defs><style>.cls-1{fill:#3ca3bb;}</style></defs><path class="cls-1" d="m677.87,5.02s.01.02.02.03c.03.02.05.05.08.07l-.1-.09Z"/><path class="cls-1" d="m605.87,1179.65s0,0,.01,0c.02-.02.05-.04.07-.07l-.08.07Z"/><path class="cls-1" d="m21.29,83.53s-.03.01-.04.02c0,0,0,0,0,0l.04-.03Z"/><path class="cls-1" d="m1294.11,574.87c-.33-9.76-.65-19.52-.98-29.27.03-1.62.06-3.24.09-4.85-.34-4.87-.68-9.74-1.01-14.61-.69-1.67-1.38-3.34-2.07-5.01-.52-4.69-1.06-9.38-1.55-14.08-.7-6.7-1.3-13.42-2.04-20.13-.71-6.46-1.54-12.92-2.32-19.38-.11-1.46-.22-2.92-.33-4.38-1.04-6.94-2.08-13.87-3.13-20.8-.42-2.14-.85-4.29-1.27-6.43-1.08-3.75-2.03-7.53-3.25-11.23-2.35-7.09-4.91-14.11-7.27-21.2-3.04-9.08-5.5-18.38-9.06-27.24-5.6-13.94-12.16-27.37-20.86-39.82-7.53-10.77-13.82-22.4-20.65-33.66-2.58-4.26-5.12-8.55-7.68-12.83-1.44-1.83-2.88-3.67-4.32-5.51-2.43-3.19-4.68-6.54-7.33-9.53-2.03-2.29-4.07-4.55-6.13-6.81-4.42-4.87-8.89-9.69-13.33-14.55-.96-1.39-1.92-2.78-2.87-4.17-6.49-4.46-12.98-8.92-19.47-13.37-.4-.33-.8-.65-1.19-.97-.72-.65-1.43-1.29-2.15-1.94-.31-.3-.63-.6-.94-.9-4.89-3.58-9.72-7.27-14.72-10.69-2.9-1.99-6.1-3.56-9.16-5.31-1.1-.88-2.2-1.75-3.3-2.62-2.44-1.56-4.79-3.28-7.34-4.65-7.59-4.09-15.22-8.12-22.92-11.99-2.4-1.21-5.09-1.86-7.65-2.76-.69-.84-1.37-1.68-2.06-2.52-.43-.05-.87-.09-1.3-.13-.65-.6-1.31-1.19-1.96-1.79-3.56-1.48-7.11-2.95-10.67-4.43-5.29-.31-10.67-.38-14.56-4.89-1.45-.19-2.91-.38-4.36-.58-13.17-1.57-26.35-3.13-39.52-4.7-2.4-.29-4.79-.58-7.19-.86-4-.45-8-.9-12-1.35-8.11.05-16.21.1-24.32.14-.87.22-1.74.43-2.6.64-5.34-.93-10.68-1.86-16.02-2.78-1.04.3-2.07.61-3.11.92-1.58.24-3.16.47-4.73.7-2.54.5-5.08,1-7.61,1.5-.47-.47-.93-.95-1.39-1.43-.71-.21-1.43-.43-2.14-.64-.55-.32-1.11-.63-1.67-.95-2.57-.36-5.13-.8-7.7-1.07-12.16-1.28-16.14-6.23-14.92-18.6.1-1.21.21-2.42.31-3.63.94-1.94,1.87-3.88,2.81-5.81.26-.35.32-.72.17-1.12-.48-10.2-.96-20.41-1.44-30.61.19-.37.2-.74.04-1.12-.08-2.46-.17-4.93-.25-7.4.21-.37.22-.75.05-1.14-.39-8.19-.78-16.39-1.17-24.59-.18-.38-.35-.76-.53-1.15-.55-2.45-1.09-4.9-1.64-7.36-.2-.44-.4-.88-.59-1.32-.31-2.09-.61-4.18-.91-6.28-1.06-1.37-2.11-2.75-3.17-4.13-5.89-5.54-11.79-11.07-17.68-16.61-1.16-.17-2.31-.34-3.47-.51-.42-.01-.85-.02-1.28-.03-2.31-1.78-4.61-3.56-6.91-5.35-2.72-.4-5.44-.8-8.15-1.2-2.03-1.72-4.05-3.44-6.08-5.15-2.18-.36-4.37-.71-6.55-1.07-1.89-1.42-3.79-2.85-5.69-4.27-1.53-.1-3.07-.2-4.61-.31-.86.17-1.72.34-2.58.51-.43-.01-.86-.01-1.29-.01-1.2-.15-2.39-.31-3.59-.46-4.69-1.47-9.37-2.94-14.06-4.41-1.22-.12-2.44-.23-3.66-.35-5.57-.9-11.14-1.8-16.71-2.7h-.58l-.52-.26c-2.87.1-5.73.2-8.59.3-1.91-.98-3.81-1.95-5.72-2.93-.37-.03-.74-.03-1.11.01-.41-.43-.81-.85-1.21-1.27-.86.3-1.71.59-2.56.89-3.62.07-7.24.13-10.86.2-4.04-.66-8.08-1.31-12.12-1.97-1.18.02-2.35.04-3.53.06-.79-.22-1.58-.43-2.36-.64-2.87.25-5.73.51-8.59.76-.39-.18-.77-.37-1.16-.56-1.2-.1-2.4-.21-3.6-.31-6.49.13-13.01.73-19.45.27-6.66-.48-13.25-2-19.88-3.06-6.15.41-12.31.82-18.47,1.24-.41-.49-.83-.98-1.25-1.47-.42-.35-.84-.71-1.26-1.07l.07-.53c-.75-.12-1.49-.23-2.24-.35-1.66.06-3.31.13-4.97.19-3.04.1-6.08.19-9.12.28-1.84.05-3.69.11-5.54.16-.42-.03-.84-.06-1.26-.09-2.83.03-5.66.06-8.49.08-2.81-.26-5.62-.52-8.42-.78-1.19-.19-2.39-.39-3.58-.58-6.77-.3-13.55-.59-20.32-.89-5.77.16-11.53.32-17.3.48-4.4-.01-8.8-.02-13.2-.03-.86.17-1.71.35-2.57.53-5.22-.48-10.44-.96-15.66-1.44-1.11-.33-2.22-.66-3.33-1-.09.21-.2.41-.31.61-.41-.01-.82-.03-1.23-.05-1.19-.18-2.39-.36-3.58-.54-4.09.29-8.17.57-12.25.86-.42.12-.84.23-1.25.35-.39-.17-.77-.33-1.16-.5-6.11.23-12.23.46-18.34.68-.38-.15-.75-.31-1.13-.46-4.26,1.15-8.52,2.3-12.79,3.45-14.15.51-28.3,1.01-42.45,1.51-.37.23-.76.25-1.16.07-2.44-.02-4.89-.04-7.34-.06h-14.02c-.59.17-1.18.34-1.77.51-1.6.06-3.2.11-4.8.16-.08.28-.2.53-.36.78-1.99.06-3.99.13-5.99.19-.37-.21-.75-.43-1.12-.64-.74.07-1.49.15-2.23.22-1.68-.1-3.36-.21-5.04-.31-5.31.33-10.61.66-15.91,1-1.18-.1-2.36-.2-3.55-.3-2.06.12-4.12.24-6.18.36-1.15.1-2.31.21-3.46.31-1.68-.11-3.36-.21-5.04-.32-6.84.14-13.67.28-20.5.42-1.3.16-2.6.32-3.9.49-2.45.11-4.89.23-7.34.35-1.2-.12-2.4-.23-3.6-.35-6.43.19-12.86.37-19.3.55-1.3.16-2.6.31-3.9.47-8.48.09-16.95.17-25.43.26-5.85,1.24-11.7,2.48-17.55,3.72-.29.29-.64.38-1.04.27-3.73.17-7.46.33-11.19.5-2.45.13-4.89.26-7.34.39-11.47.8-22.93,1.61-34.4,2.41-.35.18-.69.36-1.04.53-.83.22-1.65.43-2.48.64-.87.13-1.74.26-2.62.39-2.57-.16-5.14-.32-7.72-.48-.65.18-1.3.37-1.96.55-1.28.29-2.55.58-3.83.87-2.37.02-4.74.05-7.11.07-1.28.21-2.57.42-3.86.63-.39-.17-.77-.35-1.16-.52-1.23.12-2.46.24-3.68.36-1.61-.14-3.21-.28-4.82-.42-2.45.21-4.9.42-7.35.63-6.04.99-12.08,1.98-18.13,2.97-4.22.21-8.44.41-12.65.61-5.77,1.12-11.54,2.24-17.3,3.36-2.47.05-4.93.1-7.4.15-2.41.25-4.82.5-7.23.76-.85.24-1.71.48-2.57.72l.06-.07c-.46.24-.92.48-1.39.72-1.16.22-2.33.45-3.49.67-3.74.72-7.47,1.43-11.22,2.15-3.74.2-7.49.4-11.23.6-.97-.05-1.94-.1-2.91-.15-3.6,1.1-7.21,2.2-10.81,3.29-4.21-.93-8.31-1.96-11.47,2.56-.58.83-2.85.53-4.35.67-2.08.2-4.24.02-6.24.53-3.47.88-6.82,2.24-10.26,3.26-12.54,3.72-24.55,8.34-33.25,18.82-1.11,1.52-2.22,3.04-3.32,4.56-1.93,4.96-3.86,9.93-5.78,14.9-1.3,12.01-2.6,24.02-3.9,36.02.01,3.26.02,6.52.03,9.77.17.39.16.77-.03,1.14-.09,1.61-.19,3.23-.28,4.84.53,6.14,1.05,12.28,1.57,18.42.33,4.1.66,8.2.99,12.3.52,2.07,1.03,4.14,1.54,6.21.32,2.78.63,5.56.94,8.35.25.08.49.19.71.34-.15.79-.3,1.58-.46,2.37.1,1.19.19,2.38.29,3.57,1.35,6.93,2.83,13.84,3.98,20.81.34,2.06-.25,4.29-.41,6.44.15,4,.29,8.01.44,12.02.72,5.34,1.44,10.67,2.17,16.01.45,1.62.9,3.25,1.35,4.88.18,4.59.37,9.17.55,13.76.08,2.84.15,5.69.22,8.54,1.02,2.54,2.04,5.08,3.06,7.62.22,2.41.45,4.82.68,7.22.11,2.09.22,4.18.34,6.27.13,1.23.26,2.45.39,3.68-.03,4.05-.06,8.1-.09,12.14.2,1.65.4,3.29.6,4.93.88,5.31,1.77,10.62,2.65,15.92.45,4.56.89,9.13,1.33,13.69.03,3.65.05,7.29.07,10.94.16,3.62.32,7.24.48,10.86.14.87.27,1.74.4,2.6.13,1.59.26,3.18.39,4.77-.05,5.3-.11,10.61-.16,15.91-.1,1.76-.19,3.52-.28,5.28.19.67.39,1.34.58,2.01.24,3.61.47,7.22.71,10.83.23.51.46,1.01.69,1.51.11,2.45.22,4.89.34,7.34.63,1.29,1.26,2.58,1.89,3.87.32,1.24.63,2.49.94,3.73-.22,1.59-.43,3.18-.65,4.77.1,2.04.2,4.08.31,6.13.24,1.66.48,3.32.71,4.98-.14.8-.28,1.59-.42,2.39.17.38.16.76-.02,1.14.09,1.15.18,2.3.26,3.45.26.08.5.19.72.33-.08,7.69-.16,15.37-.25,23.06.28,1.25.56,2.5.83,3.76-.16.8-.33,1.6-.49,2.4.16.38.16.76-.02,1.14.17.43.34.85.51,1.28-.11.77-.21,1.54-.32,2.31.17,7.75.33,15.5.5,23.24-.02,1.22-.05,2.43-.08,3.64-.13.76-.27,1.53-.4,2.29.42.89.84,1.77,1.26,2.66.01,2.84.03,5.68.05,8.52.3.83.59,1.66.88,2.49-.02.43-.04.85-.06,1.28-.31,1.57-.63,3.15-.94,4.72-.03,1.23-.05,2.46-.08,3.69.67,2.81,1.33,5.62,2,8.44.2.35.41.7.61,1.05.35.16.69.33,1.03.49.16.52.33,1.03.49,1.55-.07,1.54-.13,3.08-.2,4.62-.07.81-.13,1.63-.19,2.44.13,3.16.26,6.31.39,9.47.14,1.31.29,2.63.44,3.94.05,1.21.11,2.42.17,3.62-.37,2.48-.74,4.96-1.12,7.44-.54,2.26-1.09,4.51-1.63,6.76.22,1.65.44,3.3.65,4.96.79,1.83,2.18,3.64,2.25,5.5.29,8,.19,16.01.24,24.03.21.85.43,1.7.64,2.55.14,3.25.28,6.51.42,9.76.29,4.49.58,8.99.87,13.49.22.34.27.7.14,1.09-.05,2.46-.11,4.93-.16,7.39-.13,2.59-.26,5.18-.38,7.76.44,5.96.88,11.91,1.33,17.87-.11,4.03-.21,8.07-.32,12.11-.26,2.4-.52,4.8-.78,7.21-.22,1.99-.45,3.99-.68,5.99-.44,4-.87,8-1.31,12.01.31,5.54.62,11.09.93,16.64-.59,1.4-1.19,2.79-1.79,4.19.28.77.57,1.54.86,2.3.6.86,1.21,1.72,1.82,2.58-.26,4.2-.53,8.39-.79,12.58.23,3.9.47,7.81.7,11.72.04.77.08,1.54.11,2.32-.16,1.26-.33,2.53-.5,3.79.42,5.7.83,11.41,1.24,17.12.17.38.16.76-.02,1.13,0,.42-.01.84-.02,1.26.14,2.03.28,4.07.42,6.1-.11,1.6-.22,3.2-.32,4.79.21,4.9.42,9.79.62,14.69-.15,2-.3,4-.45,5.99.16,2.05.32,4.1.47,6.15.41,4.29.82,8.58,1.22,12.86.22,1.46.43,2.92.65,4.38.24.83.48,1.67.72,2.5.73,3.73,1.46,7.46,2.19,11.18-.14.79-.27,1.59-.4,2.38-.81,3.96-1.61,7.93-2.42,11.89-.17,1.6-.33,3.2-.5,4.8.21,1.65.42,3.29.63,4.94-.16,2.58-.32,5.17-.48,7.76.34,3.51.68,7.01,1.02,10.52.15,1.56.31,3.12.46,4.68-.18,5.72-.37,11.43-.55,17.15.42,7.73.84,15.45,1.25,23.17.09,2.07.18,4.13.27,6.19-.16,2.58-.32,5.16-.48,7.73.19,1.06.38,2.13.56,3.19.16.84.32,1.67.48,2.51-.05,1.68-.11,3.35-.16,5.03-.43,1.08-.85,2.17-1.28,3.26.61,1.89,1.22,3.77,1.83,5.66.19.64.39,1.27.58,1.91-.26,3.23-.53,6.45-.8,9.68.2.31.19.62-.02.92.14,1.33.29,2.66.43,3.99.28,5.92.55,11.85.83,17.78.15.58.31,1.15.46,1.72-.11,1.63-.23,3.27-.34,4.9-.16,2.3-.31,4.61-.46,6.91.1.48.2.95.3,1.42-.15,4.04-.29,8.07-.44,12.11.53,1.73,1.06,3.46,1.59,5.19.51,2.08,1.03,4.16,1.54,6.25.48,7.56.97,15.13,1.45,22.69.16,1,.32,1.99.48,2.99,1.42,6.21,2.85,12.42,4.28,18.63.62,1.66,1.25,3.33,1.87,4.99.21.46.41.93.61,1.4.15.42.3.85.44,1.28,2.46,3.07,4.91,6.15,7.37,9.22,1.38,1.03,2.76,2.05,4.14,3.08.25.55.49,1.09.75,1.63l.15.33c5.82,6.54,11.04,13.75,17.55,19.5,16.96,14.98,36.56,26.03,56.86,35.84.38.35.76.7,1.13,1.05,2.76.8,5.51,1.6,8.27,2.41,1.91.89,3.81,1.78,5.72,2.67,6.3,1.65,12.6,3.29,18.9,4.94,1.3.42,2.6.84,3.91,1.27,9.32,2.7,18.65,5.34,27.95,8.13,5.84,1.75,11.61,3.72,17.41,5.59.81-.18,1.61-.36,2.41-.54,1.26.08,2.51.16,3.77.24.6.34,1.2.67,1.81,1,6.96.98,13.92,1.97,20.88,2.95.58.28,1.16.55,1.73.83,1.77.32,3.54.64,5.31.95.6.35,1.21.69,1.81,1.03,2.94.46,5.88.91,8.81,1.36,2.01.19,4.01.37,6.01.56,3.97,4.55,9.11,2.08,13.82,2.41,2.51.18,4.96,1.16,7.48,1.5,3.64.49,7.3.72,10.96,1.06,5.93-.27,11.87-.54,17.81-.81.59-.14,1.18-.27,1.77-.41,3.6.33,7.21.65,10.82.98,2.4.27,4.8.54,7.2.81,2.4.27,4.8.53,7.2.8,1.2.14,2.4.27,3.6.41,4.04.02,8.09.04,12.14.06,4.49-.32,8.98-.63,13.47-.94,6.82.31,13.64.63,20.46.95.44-.24.89-.48,1.33-.71.84.09,1.68.19,2.52.29.37.32.75.65,1.12.97,1.17.18,2.34.36,3.51.54,1.59.2,3.19.41,4.78.61.83-.13,1.65-.27,2.48-.4,2.82.1,5.65.2,8.47.29,2.36-.19,4.71-.55,7.06-.55,7.91,0,15.82.32,23.72.16,6.87-.15,13.74-.66,20.59-1.24,11.6-.99,23.18-2.15,34.77-3.26,3.9-.38,7.8-.84,11.7-1.26l2.46-.54c3.81.23,7.61.47,11.41.71.66-.19,1.32-.37,1.98-.56,3.53-.3,7.2-.07,10.56-1,10.75-2.97,21.55-4.71,32.75-3.8,4.14.34,8.42.19,12.52-.47,12.48-2,24.9-4.35,37.34-6.57.58-.15,1.16-.3,1.73-.45,4.25-.14,8.49-.28,12.73-.43.67-.2,1.34-.4,2.01-.6,7.16-3.02,14.38-5.64,22.35-3.5.39-.11.78-.15,1.17-.12,9.67-2.28,19.34-4.53,29-6.83,5.51-1.31,11.01-2.68,16.51-4.02.64-.19,1.27-.37,1.9-.55,9.35-2.88,18.72-5.67,28.03-8.67,10.45-3.36,20.87-6.84,31.25-10.4,8.32-2.86,16.87-5.28,24.79-9.01,14.38-6.76,28.71-13.79,42.43-21.78,12.13-7.06,23.42-15.58,35.07-23.46.09-.8.18-1.6.28-2.4,1.16-2.33,1.71-5.48,3.57-6.87,15.21-11.36,15.16-29.42,19.7-45.23,1.5-5.2,1.81-10.76,1.95-16.35.08-3.15.11-6.31.26-9.42.89-18.19,1.57-36.38,2.34-54.57-.14-.56-.28-1.13-.42-1.69-.21-6.13-.42-12.27-.63-18.4.14-1.2.28-2.4.41-3.59-.45-4.56,2.43-3.43,4.95-2.9,6.06.27,12.11.54,18.17.8,1.6.19,3.19.38,4.79.57,6.41.63,12.82,1.25,19.23,1.88,2.78-.32,5.56-.63,8.34-.95,2.24.64,4.48,1.29,6.73,1.92.01,0,.17.16.17.16,2.52.53,5.03,1.05,7.55,1.58,1.15-.26,2.3-.68,3.46-.76,20.38-1.25,41.1,2.4,61.1-4.26.17-.06.4.05.59.03,4.74-.31,9.47-.63,14.21-.95,3.9-1.45,7.8-2.9,11.7-4.35,2.68-.65,5.35-1.3,8.02-1.95.65-.21,1.3-.42,1.94-.63,3.33-1.09,6.66-2.19,9.99-3.29,4.87-2.03,9.75-4.07,14.62-6.11.74-.28,1.49-.56,2.23-.84,2.51-1.01,5.02-2.03,7.53-3.05.11-.39.21-.79.32-1.19.89-.69,1.79-1.39,2.69-2.09,2.95-1.74,5.9-3.48,8.84-5.22,5.26-3.48,10.51-6.96,15.76-10.43.96-.42,1.92-.84,2.89-1.26,6.03-4.03,12.07-8.07,18.1-12.1,1.76-1.42,3.53-2.85,5.29-4.27,4.03-3.19,8.06-6.38,12.09-9.56,3.62-3.07,7.23-6.14,10.85-9.22,1.25-.83,2.49-1.65,3.74-2.48.54-1.17,1.08-2.35,1.63-3.53l4.17-4.11c1.23-1.21,2.47-2.43,3.7-3.65.65-.97,1.3-1.95,1.95-2.93.4-.06.81-.13,1.21-.2,1.22-1.49,2.45-2.99,3.67-4.49.37-.16.56-.45.57-.84,1-1.17,1.99-2.34,2.98-3.51,1.34-1.11,2.67-2.23,4-3.35-.06-.4-.13-.81-.2-1.21.06-.78.11-1.56.17-2.34.31-.43.62-.85.93-1.28.25-.29.49-.58.74-.87,2.08-2.64,4.17-5.28,6.25-7.93,1.38-2.24,2.76-4.47,4.13-6.71,1.55-3.52,3.1-7.03,4.65-10.54.27-.18.31-.4.13-.66.37-.55.75-1.1,1.13-1.66.72-.63,1.45-1.26,2.18-1.9.72-1.23,1.44-2.46,2.16-3.69l.52.18c-.09-.32-.17-.65-.25-.98,1.95-2.35,3.9-4.7,5.84-7.06.32-.47.63-.94.94-1.42.59-1.43,1.18-2.87,1.77-4.3.68-1.13,1.35-2.27,2.03-3.4.01-1.21.01-2.43.02-3.64.44-1.15.88-2.29,1.32-3.44,3.01-7.32,6.01-14.65,9.06-21.96.21-.49.77-.83,1.17-1.25.38-2.41.76-4.82,1.14-7.23.3-.32.61-.63.91-.94.53-1.26,1.06-2.52,1.59-3.78.12-.1.34-.19.34-.3.03-.28-.04-.58-.07-.87.15-.88.3-1.76.45-2.64.35-.61.7-1.22,1.05-1.84.25-1.2.5-2.39.75-3.59.12-1.57.24-3.13.36-4.7.24-.03.48-.05.72-.05.12,0,.23,0,.35,0,.03-.4.07-.8.1-1.2l.47.13c.33-.4.66-.8,1-1.19.23-.8.47-1.59.71-2.38-.15-.37-.13-.73.04-1.08.94-5.18,1.87-10.36,2.8-15.54.18-1.6.37-3.2.55-4.8.26-1.99.53-3.98.8-5.98.12-1.2.25-2.41.37-3.61.31-2.43.63-4.85.94-7.28-.12-.37-.22-.75-.3-1.14.36-.18.73-.36,1.09-.54.25-1.36.49-2.72.73-4.07.48-.39.96-.77,1.44-1.16.09-1.19.18-2.38.27-3.57-.33-.27-.66-.53-.99-.78.02-3.92-1.49-8.91.36-11.51,3.49-4.9,2.43-9.65,2.48-14.67.06-5.5.47-10.99.73-16.49.22-2,.45-4,.67-6,.54-6.19,1.08-12.38,1.62-18.58-.13-1.86-.25-3.72-.38-5.58-.72-5.37-2.8-10.9,1.89-15.61.21-2.8.41-5.61.61-8.41ZM449.26,12.13h0c-.11-.05-.22-.14-.33-.23.11.08.22.17.33.23Zm824.69,582.42c-.22,1.95-.44,3.9-.66,5.84.26.45.51.9.77,1.35-.01,1.4-.03,2.79-.04,4.19.19.64.38,1.29.58,1.94.17,3.17.34,6.33.51,9.5.18.51.36,1.01.53,1.52-.08,1.25-.16,2.51-.24,3.76-.43,1.32-.85,2.64-1.27,3.96.02.34-.13.56-.46.64-.56,1.97-1.11,3.93-1.67,5.9.28,4.07.55,8.15.82,12.23-1.85,13.16-3.71,26.32-5.57,39.48.06,2.86.12,5.71.18,8.57-.34.31-.68.61-1.02.92-1.03,1.95-2.06,3.91-3.09,5.86-.35,3.24-.71,6.48-1.06,9.73-.4,2.31-.8,4.62-1.2,6.93-1.94,7.64-3.86,15.28-5.86,22.9-.49,1.86-1.22,3.66-1.84,5.49-.51,1.16-1.02,2.33-1.52,3.5-1.63,3.88-3.25,7.76-4.87,11.65-.33.8-.65,1.6-.97,2.39-.26.32-.51.63-.76.94l-.03.04c-2.08,4.25-4.15,8.5-6.22,12.75-2.1,3.8-4.2,7.59-6.3,11.39-.4.78-.8,1.56-1.2,2.35-1.26,2.3-2.51,4.6-3.77,6.9-.29.38-.59.76-.88,1.14-1.36,2.75-2.74,5.48-4.1,8.22-.34.67-.67,1.35-1.01,2.02-1.21,1.93-2.43,3.86-3.64,5.78-.29.76-.57,1.53-.86,2.29-.43.66-.85,1.33-1.27,1.99-3.17,4.64-6.34,9.28-9.51,13.92-1.31,2.8-2.5,5.67-3.98,8.38-.4.74-1.63,1.04-2.48,1.54-.32.2-.65.25-1.01.13-2.54,1.84-5.07,3.69-7.61,5.53l-.06.09c-1.55,1.71-3.1,3.41-4.66,5.11-1.41,1.43-2.83,2.85-4.24,4.28-3.52,2.76-7.04,5.53-10.57,8.3-1.26.84-2.53,1.68-3.8,2.52-3.53,3.03-7.06,6.06-10.6,9.09-10.71,6.58-21.53,13.02-32.11,19.8-9.4,6.02-17.95,13.41-29.26,16.04-5.15,1.2-10.09,3.26-15.13,4.94-8.61,2.43-17.2,4.91-25.83,7.26-1.3.35-2.77.1-4.16.14-2.48.5-4.95,1.01-7.42,1.52l.03-.02c-3.37.9-6.74,1.81-10.1,2.71l-.32.1-.2-.27c-.63.18-1.26.36-1.89.53-16.35.28-32.72,1.25-49.04.62-13.91-.53-27.75-2.92-41.62-4.46-3.04-.33-6.09-.84-9.13-.77-7.76.18-15.53.53-23.28,1.04-7.29.48-12.51,7.04-11.79,14.36.51,5.21.93,10.42,1.39,15.64-.11,1.69-.21,3.39-.31,5.09.39,6.44.78,12.89,1.17,19.34.03,1.29.06,2.59.09,3.89.22.24.22.5.01.75.15.55.31,1.1.46,1.64-.09,1.26-.18,2.51-.28,3.77-.31.56-.63,1.12-.95,1.68-5.73,2.59-1.26,7.56-2.61,11.17.23.83.45,1.67.67,2.51.25,9.28.57,18.56.75,27.85.04,2.25.07,4.5.09,6.75.02,2.22-1.16,4.46-1.78,6.69-.37.38-.74.77-1.1,1.16-.58,1.92-1.16,3.85-1.73,5.77-.3,1.26-.6,2.52-.89,3.78.1.37,0,.67-.33.88-1.27,2.96-2.53,5.91-3.8,8.86-1.27,3.04-1.91,6.6-3.92,9.01-9.23,11.04-19.08,21.12-31.28,29.44-8.35,5.7-17.68,9.09-25.82,14.76-2.91,1.46-5.83,2.93-8.74,4.4-.47.19-.93.38-1.4.57-5.09,2.43-10.19,4.86-15.28,7.29-14.21,4.83-28.4,9.72-42.64,14.45-5.05,1.68-10.23,2.98-15.35,4.46-1.73.52-3.45,1.04-5.18,1.56-3.32.88-6.64,1.76-9.95,2.64-.91.57-1.83,1.15-2.74,1.72-4.13,1.36-8.26,2.71-12.39,4.07-.79.21-1.58.42-2.38.64-.6,0-1.2.01-1.81.01l-.15.07c-1.86.5-3.73,1.01-5.6,1.52-2.12.85-4.23,1.71-6.35,2.57-3.33.16-6.65.31-9.98.47-1.34,1.02-2.69,2.03-4.04,3.05-.36.12-.72.25-1.08.37-.88.09-1.76.17-2.63.25-3.25.03-6.49.06-9.74.09-4.12.86-8.25,1.73-12.38,2.59-1.25.16-2.5.32-3.75.48-2.45.14-4.89.27-7.34.4-2.89.48-5.78.95-8.67,1.42-2.33.68-4.66,1.37-6.99,2.05-3.46.37-6.91.75-10.37,1.12-3.24-.03-6.47-.06-9.71-.09-1.17,0-2.33.01-3.5.01-1.41,1.32-2.82,2.64-4.24,3.97-7.77.18-15.65,1.25-23.3.34-10.3-1.23-19.15,4.93-29.18,4.37-3.74-.21-7.52.35-11.29.56-7.68.78-16.1-2.07-22.58,4.61-3.55-.25-7.1-.51-10.65-.77-8.72.22-17.43.44-26.15.66-1.84.04-3.69.08-5.53.13-16.6.54-33.19,1.27-49.79,1.5-4.7.07-9.4-1.58-14.14-2.02-5.14-.47-10.33-.43-15.49-.62-1.86.14-3.71.27-5.56.41-.58,0-1.16-.01-1.74-.01-2.26.01-4.51.02-6.76.03-9.11.35-18.23.71-27.34,1.07-1.89-.21-3.78-.41-5.67-.62-1.49-.76-2.97-1.52-4.46-2.28-1.2-.08-2.41-.16-3.61-.23-4.89.21-9.77.42-14.66.63-1.2-.1-2.4-.21-3.6-.31-5.28-.34-10.56-.69-15.84-1.03-.69-.09-1.39-.18-2.08-.27-1.3-.14-2.6-.27-3.89-.41-1.94-.3-3.88-.59-5.82-.89-2.51-.31-5.02-.61-7.52-.92-.41-.11-.82-.21-1.23-.32-2.27-.28-4.54-.56-6.81-.85h.02c-1.16-.15-2.32-.31-3.48-.47-2.87-.59-5.74-1.17-8.61-1.75-2.31-.23-4.61-.46-6.92-.69-2.28-.37-4.58-.65-6.84-1.14-2.92-.65-5.81-1.47-8.72-2.21-2.05-.49-4.11-.99-6.16-1.48-5.51-1.1-11.01-2.19-16.51-3.28-2.04-.68-4.07-1.37-6.1-2.05-2.23-.78-4.45-1.57-6.68-2.35-4.2,2.01-7.41,1.01-9.57-3.16-6.26-1.68-12.52-3.36-18.78-5.03-.73-.07-1.47-.14-2.21-.2-5.1-1.72-10.2-3.43-15.31-5.14-4.53.01-8.81-.58-11.7-4.67h-.01c-1.17-.5-2.33-1.01-3.49-1.51-8.12-4.23-16.3-8.35-24.34-12.74-4.19-2.28-8.12-5.04-12.16-7.58-1.88-2.01-3.76-4.02-5.65-6.03-.31-.3-.63-.6-.94-.9-.33-.34-.66-.68-.99-1.02-.77-.45-1.54-.9-2.32-1.35-.78-.18-1.57-.36-2.36-.55-1.76-1.37-3.79-2.5-5.2-4.16-2.79-3.29-5.23-6.88-7.82-10.35l-2.22-1.59-12.09-23.16.06.05c-.21-.45-.42-.89-.63-1.34-1.24-8.24-2.41-16.49-3.76-24.72-.83-5.01-1.92-9.98-2.89-14.98.19-2,.37-4,.56-6.01-.33-9.11-.66-18.22-.99-27.33-.17-1.85-.34-3.71-.5-5.56-.3-10.59-.6-21.18-.9-31.78.06-.8.11-1.6.17-2.4-.39-10.58-.77-21.15-1.16-31.73.08-.8.15-1.6.23-2.4-.1-.82-.2-1.64-.29-2.46-.26-3.68-.51-7.36-.77-11.04-.03-6.48-.07-12.96-.1-19.44.13-1.2.25-2.4.38-3.6-.15-.82-.3-1.65-.45-2.48-.01-2.41-.03-4.81-.04-7.21-.18-.86-.36-1.72-.54-2.57-.19-3.97-.7-7.95-.49-11.89.26-5.1.99-10.18,1.7-15.25.62-4.43,3.15-8.46-.92-13.17-1.87-2.16-.53-7.09-.65-10.77-.24-1.65-.48-3.29-.73-4.94-.32-11.38-.65-22.75-.97-34.13-.27-1.25-.53-2.49-.79-3.73.07-5.39.14-10.78.21-16.16.09-7.68.48-15.38.17-23.04-.26-6.49-1.39-12.94-2.02-19.42-.15-1.56.14-3.15.22-4.72.15-1.61.31-3.21.46-4.81-.46-7.66-.39-15.41-1.58-22.95-.77-4.86.49-8.48,3.11-12.12.12-1.2.25-2.4.37-3.6-.39-8.17-2.38-16.1-.28-24.6,1.32-5.33-.94-11.55-1.63-17.37-1.3-10.79-2.84-21.56-3.81-32.38-.33-3.72.04-7.82,1.33-11.29,1.85-4.98,1.22-9.19-1.45-13.43-.31-4.49-.62-8.98-.94-13.48.19-1.59.37-3.19.56-4.79,1.13-4.3,2.27-8.59,3.41-12.89-1.05-5.48-2.05-10.96-3.16-16.43-.34-1.65-.98-3.24-1.49-4.86-.27-8.11-.55-16.23-.83-24.34-.25-1.66-.5-3.32-.75-4.98-.11-3.25-.22-6.5-.34-9.76-.08-2.84-.15-5.69-.23-8.53.1-4.04.19-8.08.29-12.13.01-.8.03-1.61.04-2.41-.17-2.48-.33-4.96-.5-7.44-.2-.78-.39-1.56-.59-2.33-.26-4.46-.81-8.91-.7-13.36.07-2.83,1.12-5.65,1.72-8.47-.58-1.3-1.16-2.6-1.74-3.89.05-.4.01-.79-.09-1.17-.34-4-.68-8-1.03-11.99-.74-1.82-1.49-3.64-2.24-5.46-.44-1.64-.88-3.27-1.32-4.91-.02-.42-.03-.83-.05-1.25.18-.39.36-.77.53-1.16.18-1.6.36-3.2.54-4.8l-.51-9.78c-.21-10.03-.38-20.07-.64-30.1-.25-9.47-.61-18.93-.92-28.4.09-1.21.17-2.42.25-3.62v-.07c-.2-1.19-.38-2.37-.57-3.55-.06-.42-.13-.84-.19-1.26-.2-.42-.39-.83-.59-1.25-.4-1.61-.8-3.22-1.2-4.83-.16-.47-.31-.95-.47-1.42-.59-14.66-1.18-29.32-1.78-43.98-.37-.37-.74-.73-1.12-1.1-.89-6.56-1.82-13.11-2.66-19.68-.27-2.13-.31-4.29-.46-6.43-.68-1.68-1.37-3.35-2.06-5.03-.72-3.51-1.87-7-2.05-10.54-.36-7.05-.19-14.13-.24-21.2-.07-.42-.15-.84-.23-1.26-1.42-4.68-2.84-9.37-4.26-14.05-.08-5.27-.16-10.55-.24-15.82-.02-4.66-.03-9.31-.05-13.97-1.11-3.97-2.21-7.95-3.32-11.92-.11-3.06-.23-6.11-.35-9.17-.14-.59-.29-1.18-.44-1.77.21-3.51.41-7.02.62-10.53-.13-.52-.26-1.05-.39-1.57-.7-7.88-1.4-15.75-2.15-24.16,2.86.06,4.78.11,6.7.15.85-.21,1.7-.41,2.55-.62,2.83-3.29,1.91-6.13-.21-9.62-2.42-3.99-7.68-7.08-5.39-13.08.7-.35,1.41-.69,2.11-1.04.47-1.37.9-2.75,1.4-4.11.77-2.12,1.58-4.23,2.38-6.34,4.75-2.87,9.49-5.74,14.24-8.61,5.74-2.08,11.48-4.16,17.22-6.24.56-.17,1.12-.34,1.68-.51,4.54-1.26,9.09-2.52,13.63-3.78.48-.19.95-.37,1.43-.56,2.22.05,4.44.11,6.65.16.64-.18,1.28-.36,1.92-.54,5.3-1.17,10.61-2.33,15.91-3.5.88-.09,1.77-.18,2.65-.27,1.27.08,2.54.17,3.81.25.38-.14.75-.11,1.11.07.73-.12,1.45-.24,2.18-.37,3.36-.58,6.72-1.18,10.09-1.64,4.7-.63,9.43-1.07,14.15-1.6.66-.19,1.33-.37,1.99-.56,10.52-4.74,21.58-4.83,32.81-4.02,2.72.19,5.51-.74,8.28-1.08,9.42-1.19,18.85-2.35,28.27-3.52.7-.1,1.4-.2,2.09-.3,3.28-.12,6.55-.24,9.83-.36,3.32-.34,6.68-.5,9.97-1.05,5.66-.95,11.25-2.76,16.92-3.05,7.09-.36,14.23.44,21.35.74.66-.19,1.32-.38,1.97-.58,2.8-.19,5.6-.38,8.41-.57.44-.13.88-.25,1.32-.37,1.98-.02,3.97-.04,5.95-.05.46-.12.92-.23,1.38-.35,5.86-1.04,11.73-2.07,17.6-3.11.76.04,1.51.08,2.27.12,9.23-.32,18.47-.64,27.7-.95.94-.15,1.87-.29,2.81-.43,3.79.24,7.58.49,11.38.73.67-.21,1.34-.42,2.01-.62,4.84-.35,9.68-.7,14.52-1.05,1.68-.1,3.36-.19,5.04-.29,4.19.32,8.38.63,12.57.94.67-.21,1.34-.41,2.01-.62,11.46-.62,22.93-1.25,34.4-1.88h0c1.18-.1,2.36-.2,3.54-.31,6.79-.02,13.57-.05,20.36-.07,1.29-.09,2.58-.18,3.88-.27,1.95.04,3.91.09,5.87.14.19-.26.34-.54.46-.84,1.19.14,2.37.27,3.56.41l-.06-.42c3.48-.01,6.95-.02,10.43-.03.98-.1,1.96-.21,2.94-.31,4.49-.04,8.99-.08,13.48-.11,8.17-1.14,16.34-2.27,24.5-3.4.88-.23,1.75-.46,2.63-.69,2.16-.21,4.33-.42,6.49-.63.11-.25.22-.49.33-.73.1.28.19.57.28.85.91.18,1.82.36,2.73.54.38-.13.76-.11,1.12.08,7.89-.07,15.78-.15,23.67-.22,1.04-.16,2.09-.31,3.13-.47h2.35c1.64-.09,3.28-.18,4.93-.27,7.69.27,15.39.55,23.08.82,3.6.42,7.19.84,10.79,1.26,1.27-.02,2.53-.04,3.8-.06.72-.13,1.45-.25,2.17-.38,4.33.04,8.65.07,12.98.11.98-.15,1.97-.29,2.95-.44,3.23.2,6.45.41,9.67.62,1.66-.02,3.32-.04,4.98-.05.36-.21.74-.22,1.12-.05l14.49.39c1.81.85,3.63,2.48,5.41,2.42,9.54-.29,19.06-.99,28.59-1.55,2.8.32,5.6.63,8.4.95,1.59.2,3.19.4,4.79.61,5.26.33,10.52.67,15.78,1,4.83.02,9.66.05,14.49.07,4.73,5.64,10.6,2.73,16.15,2.16,4.28-.1,8.55-.2,12.83-.31.37.02.74.04,1.11.05,1.24.15,2.47.29,3.71.44.36.07.73.15,1.1.22,1.07.27,2.13.53,3.2.8,2.26.52,4.51,1.47,6.77,1.49,5.13.03,10.26-.39,15.4-.62,3.99.45,7.99.9,11.99,1.35,2.8.31,5.6.62,8.4.93,1.56.26,3.11.52,4.66.78,4.84.53,9.68,1.06,14.52,1.6,1.05.55,2.1,1.09,3.15,1.64,1.67.49,3.34.98,5.01,1.46,2.35.43,4.7.86,7.05,1.29,2.77.93,5.53,1.87,8.29,2.8,2.39.28,4.79.56,7.19.84,1.1-1.37,2.2-2.74,3.3-4.12,1.29,1.73,2.58,3.45,3.87,5.17,1.49,1.01,2.98,2.03,4.47,3.04,1.64,1.28,3.28,2.57,4.92,3.86,1.8.66,3.6,1.32,5.4,1.98,1.93.72,3.85,1.45,5.77,2.17,4.12,3.25,8.24,6.5,12.35,9.74.74.47,1.48.94,2.22,1.41.99,2.11,1.99,4.23,2.99,6.34.26,1.26.52,2.53.77,3.79.25.41.5.83.75,1.25,1.75,2.61,1.58,4.66-1.7,5.8-.47.68-.93,1.35-1.39,2.02-3.58.97-7.16,1.93-10.75,2.89-.56.29-1.12.57-1.68.86-1.53.31-3.06.63-4.59.94-2.65.89-5.29,1.79-7.93,2.68-7.76,2.67-15.46,5.48-23.28,7.96-7.58,2.4-15.25,4.55-22.92,6.65-5.33,1.47-10.73,2.67-16.1,3.99-1.08.61-2.16,1.23-3.24,1.85-.54.55-1.01,1.48-1.64,1.6-8.12,1.57-16.26,3.02-24.4,4.51-1.32.51-2.63,1.01-3.95,1.52-4.36.8-8.73,1.61-13.09,2.41-8.13.82-15.36,6.88-24.1,4.15-3.35.05-7.63-1.2-9.85.41-5.1,3.7-10.42,3.04-15.88,3.05-.45.17-.9.34-1.35.51-1.65.01-3.3.02-4.96.03-3.38,1.18-6.76,2.37-10.14,3.55-1.59,3.4-3.18,6.81-4.76,10.22,10.7-1.43,21.41-2.85,32.12-4.27.38-.16.75-.15,1.12.03,2.82.19,5.64.38,8.46.58,5.42-1.34,10.84-2.69,16.26-4.03.99-.05,1.98-.1,2.97-.14,1.82-.26,3.64-.53,5.46-.79,2.04-.19,4.09-.37,6.14-.56,4.08-3.49,8.99-3.75,14.01-3.56.38-.16.77-.16,1.15.01,3.15-1,6.3-2,9.44-3,.6-.16,1.2-.31,1.79-.46,4.98-.74,9.95-1.48,14.92-2.22,2.53-1.02,5.07-2.03,7.6-3.05,1.99-.53,3.98-1,5.94-1.6,1.93-.58,3.83-1.27,5.74-1.92.32-.3.65-.6.97-.9,1.25-.22,2.5-.43,3.75-.64,3.25-.58,6.5-1.15,9.76-1.72,3.02-1.23,6.04-2.46,9.06-3.68.81-.37,1.61-.74,2.42-1.1,2.93-1.09,5.87-2.17,8.81-3.25,8.88-2.92,17.76-5.84,26.64-8.76,2.47.02,4.93.05,7.4.07l-.06-.43c.4,0,.8-.02,1.19-.03,1.24.16,2.48.33,3.72.49.34.21.67.43,1.01.64.33,1.18.66,2.36.99,3.54.05.9.09,1.79.14,2.69.14,1.55.29,3.11.43,4.66-.15.39-.31.78-.46,1.17.31,1.65.63,3.31.94,4.96-.14,1.06-.29,2.13-.44,3.19.12.56.24,1.11.36,1.67-.12,2.01-.23,4.02-.34,6.03.26,6.95.52,13.89.78,20.84-.12.37-.24.75-.36,1.13l-.44-.14c.03.44.05.88.07,1.32-.36.17-.73.31-1.12.41-.1,1.02-.2,2.03-.3,3.05l-.41-.12c-.06.4-.12.8-.18,1.2-.09.81-.18,1.62-.27,2.44.11.42.21.85.32,1.27-.21.38-.22.76-.04,1.14-.16.4-.32.81-.49,1.21.17,1.66.33,3.32.49,4.98l.44-.06c.01.4.02.8.03,1.2,1.91,3.81,3.83,7.61,5.74,11.42.35.19.71.37,1.06.55.42-.03.83-.05,1.25-.08,1.14.47,2.28.94,3.41,1.41.43.37.85.74,1.28,1.12,2.65,1.18,5.31,2.36,7.97,3.54.37.27.74.54,1.11.81,1.17.41,2.35.82,3.52,1.22.8.07,1.61.14,2.41.21.8.48,1.59.95,2.39,1.43.3.14.59.28.89.41.04.28.08.56.13.84,1.96.34,3.93.69,5.9,1.03,1.37.12,2.75.25,4.12.37.98.39,1.96.77,2.95,1.16.4.18.8.36,1.2.55.83-.05,1.66-.09,2.49-.13,1.45-.12,2.89-.24,4.34-.36,1.39.06,2.77.13,4.16.19.81,0,1.61-.01,2.42-.01l-.1.49c1.66-.31,3.33-.63,4.99-.95,1.37.17,2.75.33,4.12.5.64-.19,1.27-.37,1.91-.56,1.83.07,3.65.14,5.48.21,3.44.08,6.88.17,10.32.25.42-.09.83-.18,1.25-.28,3.21-.06,6.41-.12,9.62-.18.85-.17,1.7-.34,2.55-.51,0,.33-.01.65-.01.98,2.77,2.44,3.74.02,4.92-1.83.83.17,1.65.33,2.48.5.44-.14.88-.28,1.32-.41.36.04.72.08,1.08.12,1.49.72,2.98,1.44,4.46,2.16.04.38.09.75.17,1.13.37.08.74.07,1.11-.04,3.62-.13,7.29-.73,10.83-.25,3.29.44,6.44,2.01,9.65,3.09,1.94.19,3.89.38,5.83.58,1.29-.2,2.58-.39,3.87-.59.35-.25.72-.28,1.1-.09,6.72,1.54,13.45,3.08,20.17,4.62,1.6.19,3.2.37,4.8.55,1.56.58,3.11,1.16,4.67,1.74,3.55,1.13,7.09,2.26,10.64,3.38.74.48,1.47.97,2.2,1.45,2.66,1.53,5.32,3.06,7.97,4.59.76.48,1.52.96,2.28,1.44,2.71,1.11,5.42,2.23,8.13,3.34.78.23,1.56.46,2.34.69,3.01,2.2,6.02,4.4,9.03,6.59.39.17.78.33,1.17.5.38.35.75.69,1.13,1.04,4.6,2.25,9.2,4.49,13.8,6.74.37.34.73.68,1.1,1.01,1.04.77,2.08,1.53,3.12,2.29,2.74,1.68,5.48,3.36,8.22,5.04,4.2,3.77,9.21,6.2,12.97,10.98,4.27,5.41,11.72,8.18,16.61,13.24,8.37,8.65,15.86,18.15,23.64,27.36,1.11,1.32,2.21,2.64,3.31,3.97,3.48,4.19,6.9,8.44,10.3,12.69,1.36,1.69,2.68,3.5,3.6,5.45,5.49,11.54,9.85,23.68,19.06,33.13,1.71,1.75,2.3,4.59,3.41,6.92.23.4.46.79.69,1.19.14.42.28.84.43,1.26,2.57,6.32,5.14,12.63,7.71,18.95l-.14-.04c.33.52.66,1.03.98,1.55,1.32,3.37,2.63,6.73,3.95,10.1,4.19,12.24,8.39,24.49,12.58,36.73.69,2.07,1.38,4.14,2.07,6.22.92,2.53,1.83,5.05,2.75,7.58.21,1.65.42,3.29.63,4.94.72,4.13,1.44,8.26,2.16,12.4l-.04-.05c.85,2.57,1.71,5.14,2.57,7.71.01.8.02,1.59.04,2.39-.09,3.24-.18,6.49-.27,9.74.1,3.64.2,7.29.31,10.93.22.85.44,1.7.67,2.54.94,3.59,1.89,7.18,2.83,10.77,1.35,6.34,2.71,12.69,4.06,19.03.04,3.07.08,6.13.12,9.2-.01,2.25-.02,4.49-.03,6.74-.08,1.78-.16,3.56-.24,5.34.37,3.11.74,6.22,1.1,9.34.15,2.04.29,4.08.43,6.12-.04,4.05-.08,8.09-.12,12.14-.11,2.16-.23,4.33-.35,6.49.19.67.37,1.33.56,1.99.03,1.58.07,3.16.1,4.74.08,5.07,2.39,10.64-3.19,14.47Z"/><path class="cls-1" d="m1224.3,835.57c-.17-.41-.33-.81-.5-1.22-.05.78-.11,1.56-.16,2.35.22-.37.44-.75.66-1.13Z"/><path class="cls-1" d="m852.36,40.62c-1.29-1.72-2.58-3.44-3.88-5.17-1.1,1.37-2.2,2.74-3.3,4.12,2.39.35,4.78.7,7.18,1.05Z"/><path class="cls-1" d="m744.19,24.66l.56-.11c-.37-.02-.74-.03-1.12-.05,0,0,.55.16.55.16Z"/><path class="cls-1" d="m748.98,25.23l.58-.02c-.37-.07-.74-.15-1.11-.22l.53.24Z"/><path class="cls-1" d="m922.73,187.36l.53-.03c-.3-.14-.59-.27-.89-.41,0,0,.35.44.35.44Z"/><path class="cls-1" d="m1000.34,189.38l.56-.09c-.36-.04-.72-.08-1.08-.12,0,0,.53.21.53.21Z"/><path class="cls-1" d="m1209.03,598.36c-.09-.42-.18-.85-.27-1.27-.26-3.54-.8-7.1-.73-10.64.15-7.03.99-14.06.89-21.08-.16-10.35-.89-20.68-1.38-31.03-.21-.67-.42-1.34-.62-2.01l-4.11-19.68c-.12-.45-.24-.91-.36-1.37-4.06-12.71-4.8-25.73-3.7-38.93-.17-.57-.34-1.14-.51-1.71-.03-.83-.06-1.66-.09-2.49-.39-.28-.46-.61-.21-.99-1.1-4.08-2.21-8.17-3.31-12.26-.16-.57-.31-1.15-.47-1.72-1.23-8.04-.09-16.17-3.4-24.24-2.81-6.87-2.64-14.93-4.04-22.42-1.31-7.05-2.17-14.07-6.45-20.48-3.79-5.69-5.8-12.57-8.59-18.93-1.55-1.86-3.09-3.71-4.64-5.56-3.98-6.19-7.97-12.38-11.96-18.57-.3-.41-.6-.82-.89-1.23-.25-.35-.49-.69-.73-1.04-.59-.8-1.18-1.6-1.77-2.4-2.87-2.53-5.74-5.06-8.6-7.59-1.15-2.09-2.3-4.18-3.46-6.27-.53-1.32-1.07-2.64-1.6-3.96-1.05-1.63-2.1-3.26-3.14-4.89-2.58-2.29-5.15-4.58-7.72-6.87-1.2-1.03-2.4-2.07-3.6-3.1-4.58-5.29-9.15-10.57-13.72-15.86-2.01-1.11-4.1-2.09-6-3.37-1.9-1.27-3.62-2.83-5.41-4.26-1.41-1.35-2.81-2.71-4.22-4.06-1.17-1.36-2.33-2.72-3.5-4.09-1.02-.62-2.03-1.23-3.05-1.85-3.53-1.44-7.06-2.89-10.6-4.33-.34-.22-.69-.44-1.03-.66-.58-.36-1.16-.71-1.74-1.07-.55.1-1.1.19-1.64.29-1.61-.01-3.21-.01-4.82-.02-1.23-.81-2.47-1.61-3.7-2.42-1.92-.5-3.83-1-5.75-1.5-2.35-.42-4.71-.84-7.07-1.26-.85.16-1.71.32-2.57.48-1.99-1.33-3.98-2.66-5.97-3.98-9.2.26-18.4.53-27.59.79-3.28-.09-6.56-.18-9.84-.27-6.19,1.42-12.38,2.83-18.57,4.25-7.9,3.15-15.79,6.29-23.68,9.44-1.87,1.13-3.74,2.25-5.61,3.38-13.24,11.73-26.48,23.46-39.71,35.18-.33.35-.65.69-.97,1.03-4.88,5.77-10.59,11.05-14.43,17.44-4.88,8.11-8.26,17.12-12.28,25.75.99,2.13,1.99,4.26,2.99,6.39-1.86,7.04-4.88,13.98-1.91,21.45.05,1.29.11,2.59.16,3.89.27,3.6.55,7.21.82,10.81-.08,1.68-.16,3.37-.24,5.05-.11,1.82-.21,3.63-.32,5.45.13.58.26,1.16.39,1.74.12,7.74.23,15.48.34,23.22.09,2.44.18,4.89.27,7.33-.09,1.76-.19,3.52-.28,5.28.19.67.38,1.33.56,2,.11,1.57.22,3.13.32,4.7.02,1.29.04,2.59.06,3.89.07,2.44.13,4.88.19,7.31.04,3.65.08,7.3.11,10.95.23,4,.45,7.99.67,11.98.04,1.3.07,2.6.11,3.9.23,4.03.45,8.06.68,12.09-.11,1.65-.21,3.31-.32,4.96-.2,2.4-.4,4.8-.59,7.2.22.83.45,1.65.67,2.48.13,3.84.27,7.67.4,11.51.18.67.35,1.34.53,2.02-.13,1.97-.25,3.95-.37,5.92.18,1.27.36,2.54.55,3.81l-.72,8.34c.25.45.5.9.75,1.34-.02.42-.05.84-.07,1.26-.79,6.79-1.58,13.59-2.37,20.39.06,4.05.11,8.11.16,12.16.18,1.24.35,2.48.52,3.71-.16,2.38-.32,4.76-.48,7.14.18,1.27.36,2.53.54,3.8-.16,1.6-.32,3.2-.47,4.81-.09,1.76-.17,3.52-.25,5.28.2.67.39,1.34.59,2,.28,3.65.56,7.29.84,10.94.23,2.36.44,4.73.7,7.09.35,3.16-.53,5.49-4.01,6.14-.22,1.16-.43,2.32-.64,3.48.47,4.51.94,9.01,1.41,13.52l.1.32-.28.19c.06,2.26.12,4.51.19,6.76l-.51,3.6c.63,8.1,1.26,16.2,1.88,24.3-.11,2.08-.22,4.17-.33,6.25.16,6.48.32,12.96.48,19.44.16.45.32.89.49,1.34.11,2.39.22,4.79.34,7.18-.1,2.06-.2,4.12-.29,6.18-.18,6.72-1.07,13.51-.35,20.13.7,6.5,3.03,12.83,4.65,19.23-.26,2.42-.51,4.84-.76,7.26.41,3.24.83,6.47,1.25,9.71,5.17,1.73,7.72,5.58,8.67,10.72,3.04,4.82,6.08,9.65,9.12,14.47.34.44.67.89,1.01,1.33,4.65,6.06,9.3,12.11,13.96,18.17,1.52.94,3.03,1.88,4.55,2.82.33.28.65.56.98.84,3.67,3.52,7.34,7.05,11.01,10.58,7.08,5.35,14.16,10.7,21.24,16.05,1.02.71,2.04,1.41,3.06,2.11,4.72,1.74,9.44,3.49,14.15,5.25,3.12-1.36,5.81-1.83,8.49,1.38,1.08,1.3,3.85,1.18,5.85,1.71,6.39.37,12.77.73,19.15,1.1.61-.97,1.21-1.94,1.81-2.92,4.89-1.18,9.79-2.35,14.68-3.53,3.44-1.41,6.88-2.82,10.33-4.23,10.24-4.45,20.49-8.91,30.73-13.36,2.58-1.34,5.16-2.69,7.74-4.03,3.03-2.06,6.06-4.11,9.09-6.17,1.83-1.42,3.65-2.84,5.48-4.26,1.8-1.37,3.61-2.75,5.42-4.13,2.52-1.55,5.04-3.1,7.56-4.66,4.25-3.76,8.45-7.56,12.75-11.25,1.93-1.66,4.07-3.08,6.11-4.61,2.65-2.18,5.31-4.35,7.97-6.53,1.91-2.05,3.82-4.09,5.73-6.14,2.2-1.85,4.4-3.7,6.6-5.56,1.6-3.49,2.69-7.36,4.91-10.4,4.76-6.5,10.1-12.56,15.2-18.8,1.09-1.97,2.17-3.93,3.25-5.89-.09-.35-.03-.66.2-.93.46-.77.93-1.53,1.4-2.3.47-.76.93-1.53,1.4-2.29.2-.77.41-1.55.61-2.32,2.44-7.83,4.89-15.65,7.33-23.48.13-.79.27-1.59.41-2.38.14-1.2.28-2.4.43-3.6.56-1.75.6-4.28,1.8-5.1,3.78-2.58,3.74-5.53,2.01-9.08.1-1.3.21-2.6.31-3.9.51-.65,1.01-1.31,1.51-1.96.31-1.99.62-3.97.93-5.96.17-1.6.34-3.2.51-4.8.42-1.35.83-2.69,1.24-4.04.24-1.01.47-2.02.71-3.03.47-1.75.95-3.5,1.43-5.24.68-4.64,1.36-9.28,2.04-13.92-2.34-2.65-1.4-4.34,1.59-5.43.94-1.22,1.89-2.45,2.83-3.68-.36-.27-.42-.6-.2-.97-.19-1.51-.38-3.02-.58-4.54-.14-.61-.28-1.23-.42-1.84,1.57-8.22,3.47-16.4,4.59-24.68.87-6.43.77-13,1.1-19.51Zm-21.52,38.73c.11.39.06.77-.17,1.11-.32,2.83-.64,5.66-.97,8.49.15.39.11.76-.12,1.11-.1.81-.21,1.62-.31,2.43-.49,1.16-.99,2.33-1.48,3.49.19,2.84.38,5.69.57,8.54-.88.95-1.77,1.9-2.66,2.85-.28,1.36-.56,2.72-.83,4.08-.17,1.6-.34,3.2-.5,4.8-1.01,2.39-2.01,4.77-3.01,7.16-.19.73-.39,1.47-.58,2.2.11.39.07.77-.12,1.12-1.61,8.34-3.21,16.68-4.82,25.01-1.15,5.19-2.29,10.37-3.44,15.55-1.35,3.5-2.7,7-4.05,10.5-.63,1.21-1.26,2.42-1.9,3.63-3.74,12.43-10.69,22.81-20.15,31.59-.71,1.08-1.41,2.16-2.12,3.24-3.3,4.09-6.6,8.18-9.89,12.27-7.49,6.07-14.97,12.14-22.45,18.21-9.51,8.45-19.32,16.44-31.55,20.74-.49.28-.98.56-1.46.83-12.9,9.51-26.71,17.16-42.44,20.95-1.7.6-3.4,1.2-5.1,1.8-.83.33-1.66.66-2.49.99-.42.22-.84.43-1.26.65-.44.05-.88.1-1.32.15-2.84.08-5.68.16-8.53.24-8.15.56-16.39,2.08-24.2-1.87-.43-.26-.85-.51-1.28-.77-8.79-5.12-18.28-9.35-26.21-15.58-12.19-9.56-24.19-19.68-31.33-34.06-1.46-1.94-2.91-3.88-4.37-5.81-1.75-2.12-3.5-4.23-5.26-6.35-1.3-2.71-2.61-5.42-3.92-8.14-.89-2.73-1.78-5.45-2.67-8.18-.19-.64-.38-1.28-.56-1.92-1.01-3.18-2.01-6.36-3.02-9.54-.18-.6-.37-1.2-.56-1.8.33-4.63.66-9.26.99-13.9-.06-1.83-.13-3.67-.2-5.5-.36-12.05-.72-24.1-1.08-36.14-.12-.53-.25-1.05-.37-1.58-.37-13.27-.96-26.54-1.04-39.81-.05-8.68.64-17.36,1-26.03.11-1.14.21-2.28.32-3.42-.56-21.11-1.2-42.22-1.6-63.33-.06-3.34,1.05-6.68,1.49-10.03.59-4.52,1.49-9.05,1.49-13.58,0-18.57-.3-37.15-.49-55.72-.14-.62-.27-1.24-.41-1.86.01-.84.02-1.68.03-2.53.05-.8.11-1.6.16-2.4-.49-9.4-.99-18.79-1.48-28.19.08-.75.16-1.51.25-2.27-.63-23.58-1.26-47.16-1.88-70.75.02-.8.05-1.61.07-2.41,0-.59.02-1.17.03-1.76-.16-.62-.32-1.24-.48-1.86-.11-8.34-2.63-16.88,1.81-24.83,1.52-2.72,3.56-5.15,5.35-7.71,1.28-1.33,2.55-2.66,3.82-3.99,1.46-2.32,2.96-4.61,4.35-6.97.7-1.18.9-2.79,1.83-3.69,7.31-7.07,14.78-13.96,22.1-21.01,3.15-3.05,5.97-6.42,9.09-9.5,1.53-1.52,3.38-2.71,5.08-4.05,3.84-1.58,7.68-3.16,11.52-4.73,8.96-3.5,17.92-7,26.87-10.5,2.07-.13,4.13-.25,6.19-.38,10.17-.38,20.33-.75,30.5-1.12,1.97.54,3.94,1.08,5.91,1.61,3.2.67,6.4,1.35,9.6,2.02,1.52.67,3.05,1.35,4.57,2.03,1.99.31,3.98.62,5.97.92.6.34,1.19.68,1.79,1.01,2.56.62,5.13,1.24,7.69,1.86,1.21.46,2.41.92,3.61,1.38,2.17,1.47,4.34,2.93,6.51,4.39.78.63,1.57,1.25,2.35,1.88,4.22,2.55,8.62,4.84,12.57,7.75,2.23,1.63,3.72,4.28,5.55,6.46,1.72,2.46,3.45,4.92,5.18,7.38.66.64,1.33,1.28,1.99,1.92,1.84,1.81,3.68,3.61,5.52,5.41,4.25,5.34,8.5,10.69,12.76,16.03,1.45,1.83,2.9,3.67,4.35,5.51,1.39,1.43,2.77,2.85,4.15,4.28,2.2,3.01,4.41,6.03,6.62,9.04.59,1.26,1.19,2.52,1.78,3.79l4.5,7.71,4.86,5.64c5.16,3.36,7.32,8.4,7.97,14.28.34,1.24.69,2.48,1.03,3.72.28.85.57,1.7.85,2.56.36,1.09.71,2.19,1.07,3.29,1.16,2.72,2.32,5.44,3.49,8.16.4,1.23.81,2.46,1.21,3.69.56,2.46,1.12,4.92,1.68,7.38l-.07-.04c.83,2.6,1.67,5.19,2.5,7.79.67,1.89,1.35,3.77,2.02,5.65.27.65.55,1.3.82,1.95.29,1.88.57,3.76.86,5.64.12,1.41.23,2.81.35,4.22-.2,2.41-.41,4.81-.61,7.21.1,2.04.2,4.08.3,6.12.3,1.96.6,3.91.91,5.87.8,2.62,1.61,5.25,2.41,7.87.34,3.19.68,6.38,1.02,9.57.02,1.31.05,2.62.08,3.92.28,5.15.57,10.3.85,15.45,1.02,4.31,2.04,8.62,3.06,12.93-.17,2.59-.34,5.17-.5,7.75.18.64.37,1.28.55,1.92,1.1,5.8,2.19,11.6,3.28,17.41.18,1.24.35,2.49.53,3.73-.03.8-.05,1.59-.07,2.38.23.43.47.85.7,1.28,0,1.88-.03,3.75-.04,5.63.08,1.79.15,3.59.22,5.38.29,8.94.57,17.88.86,26.82.14,1.64.29,3.28.43,4.92.16,7.28.31,14.56.47,21.84.09,1.66.19,3.32.28,4.98-1.71,7.51-3.41,15.03-5.12,22.55Z"/><path class="cls-1" d="m408.75,856.09c-.37-1.62-.74-3.25-1.11-4.87-2.35-2.81-4.7-5.62-7.05-8.43.02.02.05.04.07.05-1.57-6.75-6.17-10.88-11.93-14.14-4.82-2.72-9.62-5.51-14.25-8.54-6.3-4.12-12.42-8.49-18.62-12.75-2.14-5.88-3.99-11.65-.28-17.76,2.86-4.71,6.13-7.15,12.13-6.67,6.03.49,8.78,3.76,9.66,8.8,1.48,8.5,2.33,17.11,3.56,26.62,1.47.17,4.53.63,7.6.81,2.18.13,4.4-.36,6.58-.19,11.67.93,12.97-.72,11.46-12.62-.66-5.27-.02-10.69-.09-16.04-.04-2.52-.34-5.03-.52-7.54-1.95-3.69-3.5-7.66-5.95-10.98-2.93-3.95-6.63-7.34-10-10.98-1.81-1.53-3.63-3.07-5.45-4.6-2.35-.89-4.71-1.78-7.06-2.67-.55-.24-1.09-.48-1.64-.72-.01,0-.28.21-.28.21l-.3-.2c-1.19-.22-2.37-.45-3.56-.67-.75-.59-1.49-1.18-2.24-1.77-13.08-1.3-23.37,3.75-31.48,13.79-.63.33-1.26.67-1.89,1-.79,1.2-1.58,2.39-2.36,3.58-1.34,3.04-2.67,6.08-4,9.12-1.06,1.2-2.13,2.41-3.9,4.41-.79-2.37-1.23-3.71-1.68-5.04-.3-.61-.61-1.22-.91-1.83.03-1.65.05-3.3.08-4.95-.18-.6-.37-1.21-.55-1.82.02-4.84.04-9.68.06-14.53-.77-.19-1.55-.39-2.32-.59-2.47.33-4.94.66-7.41.98-2.69.03-5.39.06-8.09.08-.2.29-.39.58-.57.88-.33-.17-.66-.33-1-.49-2.45-.52-4.92-1-7.37-1.55-2.84-.65-5.67-1.91-8.51-1.94-6.34-.07-12.69.47-19.03.76-2.05-.12-4.11-.24-6.16-.36-2.74-.1-5.48-.19-8.23-.29l-.75,3.15c-.1,1.81-.2,3.63-.3,5.44.15.59.29,1.19.44,1.78-.03.83-.06,1.67-.09,2.5-.12,1.23-.23,2.45-.35,3.67l.44-.09c-.23,1.78-.46,3.57-.69,5.35.17.65.34,1.29.51,1.94.17,3.51.33,7.02.5,10.54.34.21.65.44.95.7-.12.35-.25.7-.39,1.04v3.54c-.13,4.09-.27,8.17-.4,12.26.23,2.86.45,5.72.68,8.58.17,2.04.35,4.09.53,6.13-.13.69-.26,1.37-.39,2.05.14.5.28.99.42,1.49-.12,3.03-.24,6.07-.37,9.1-.24,5.87-.49,11.75-.74,17.62-.64,6.4-1.29,12.8-1.94,19.2.32,3.85.63,7.71.95,11.56.17.65.34,1.29.51,1.94.01.83.02,1.66.02,2.49.12,2.04.24,4.07.36,6.11,0,1.4-.01,2.8-.01,4.2,1.31,1.98,2.62,3.95,3.93,5.93,0,.39.03.78.07,1.18,8.31,1.27,16.63,2.54,24.95,3.81.36.19.72.37,1.08.55,1.56.59,3.11,1.18,4.66,1.77,4.05.05,8.09.1,12.14.14,6.81.63,13.62,1.26,20.44,1.88,1.43-1.94,3.8-3.75,4.12-5.87.83-5.4.74-10.93,1.02-16.42-.07-4.42-6.79-9.63-12.64-9.96-9.59-.53-19.18-1.17-28.76-1.77-.77-.2-1.53-.41-2.3-.62-.29-2.49-.58-4.98-.86-7.48h-.01c.75-8.3,1.5-16.6,2.24-24.91.68.38,1.37.76,2.05,1.14,6.86.35,13.72.7,20.58,1.05,3.19.37,6.37.75,9.55,1.12,6.85,1.14,7.62.67,8.13-6.27.37-5.17.23-10.37.49-15.56.29-5.76-2.92-9.7-8.72-9.75-4.31-.04-8.63.56-12.93.87-2.7-5.21-2.69-5.13-9.06-4.3-3.94.51-7.93.71-11.89,1.05-.72-4.54-1.44-9.08-2.16-13.63.15-1.38.48-2.78.42-4.15-.42-9.17.61-9.74,9.6-9.4,8.97.35,17.97-.38,26.96-.64q9.31,1.02,10.24,10.8c.15,1.59.47,3.29.1,4.78-4.13,16.78,5.7,27.85,16.68,37.34,9.14,7.89,20.03,13.76,30.2,20.46,7.15,4.71,9.23,13.94,4.66,19.63-4.4,5.45-10.34,5.01-15.39,3.03-3.22-1.26-5.47-5.66-7.48-9.06-1.23-2.07-1.19-4.89-1.72-7.37.89-7.66-.79-10.25-6.73-10.4-4.39-.12-8.78-.15-13.16-.33-4.8-.2-7.81,2.31-8.66,6.65-.68,3.44-.17,7.12-.19,10.69,1.87,5.81,3.74,11.63,5.6,17.44.26.5.53.99.79,1.49.26.38.53.77.79,1.15,3.04,3.94,6.08,7.88,9.13,11.82,3.08,3.25,4.89,8.24,10.78,7.68.45-.05,1.06,1.45,1.59,2.23.33.07.54.27.61.6,2.4.3,4.8.6,7.21.9,6.25-.33,12.51-.66,18.77-.98.66-.18,1.33-.36,1.99-.54,1.56-.37,3.12-.74,4.68-1.11,1.84-.9,3.68-1.8,5.52-2.71.82-.38,1.63-.75,2.45-1.13.47-.34.95-.68,1.42-1.02,2.38-3.39,4.75-6.78,7.12-10.17,1.62-5.87,3.24-11.75,4.86-17.63-.09-7.28-.18-14.57-.26-21.85Z"/><path class="cls-1" d="m169.26,464.7c.95,2.05,1.9,4.11,2.85,6.16.54,4.11,1.08,8.22,1.61,12.33,0,0-.13-.04-.13-.04.2.5.4.99.6,1.49.67,2.09,1.35,4.18,2.02,6.27.14,1.66.27,3.32.41,4.99.02,4.38.03,8.75.05,13.13,3.91,1,3.28,3.8,2.63,6.61,1.18,9.42,3.2,11.29,10.97,10.95,4.07-.18,8.16.22,12.25.36.8.09,1.6.17,2.4.26,2.31.01,4.63.02,8.22.04.97-8.7,1.97-17,2.8-25.32.3-2.94.21-5.92.29-8.88,1.07-2.31,2.14-4.62,3.21-6.93-.44-5.46-.88-10.91-1.33-16.37.98-.24,1.96-.48,2.94-.72.62,1.65,1.69,3.28,1.79,4.96.23,4.16.02,8.34-.02,12.51.31,1.24.63,2.47.94,3.71.33,4.06.67,8.13,1,12.19,1.35,3.38,2.71,6.77,4.06,10.15.12,1.28.24,2.55.36,3.83.22,2.03.44,4.06.67,6.09,0,0-.03-.04-.03-.04.25.86.5,1.72.75,2.59,2.02,4,4.82,4.8,9.34,3.77,4.73-1.08,9.81-.61,14.74-.81,1.6.18,3.2.36,4.8.54,1.05,0,2.1,0,3.15,0,.31-.72.62-1.44.92-2.16.01-.42.02-.84.04-1.25.41-1.41.81-2.82,1.21-4.24.47-6.19.94-12.39,1.42-18.58.37-.49.73-.98,1.1-1.47.25-1.05.5-2.1.74-3.15.18-1.6.36-3.2.54-4.81.11-3.28.23-6.57.34-9.85.19-.38.38-.76.58-1.13-.06-.42.07-.77.37-1.06.39-.93.77-1.86,1.16-2.79,1.03-8.64,1.9-17.3,3.19-25.9.3-2,2.03-3.78,3.11-5.66.16-1.2.32-2.4.48-3.6-.18-2.82-.36-5.65-.54-8.47-.18-.42-.36-.84-.54-1.26.04-1.25.09-2.5.13-3.76.36-.3.72-.59,1.08-.89,1.04-.4,2.09-.81,3.13-1.21.08-.7.16-1.39.24-2.09-.17-1.26-.34-2.51-.51-3.77-1.91-5.46.05-10.02,3.33-14.27-.13-.38-.2-.77-.23-1.18-.04-6.89-.08-13.78-.12-20.66-2.71-.41-5.43-.82-8.14-1.23-5.98-.59-11.96-1.17-17.94-1.76-.95,1.1-1.9,2.21-2.85,3.31-.66,1.55-1.32,3.1-1.98,4.65.09.4.02.77-.22,1.11-.08.83-.16,1.66-.23,2.49.16.39.14.77-.06,1.14.2,2.06.4,4.11.6,6.17-.63,2.89-1.25,5.78-1.88,8.67-.49,4.43-.97,8.86-1.46,13.28.19.66.38,1.33.57,1.99-1.22,4.34-2.45,8.68-3.67,13.01.21.4.42.79.63,1.19-.01,1.24-.02,2.48-.04,3.71.8,3.73,1.61,7.46,2.41,11.2-1.41-1.21-3.3-2.15-4.11-3.68-1.08-2.03-1.32-4.5-1.92-6.79-.27-.12-.54-.23-.82-.32-.03-.77-.06-1.55-.08-2.32l-.34-.33s.16-.4.16-.4c-.29-4.14-.58-8.28-.88-12.43-.18-1.27-.37-2.54-.55-3.8-1-2.23-2.01-4.46-3.01-6.69-.26-.74-.52-1.49-.77-2.23-.26-1.27-.51-2.55-.77-3.82.08-.39.15-.79.23-1.18,0,0-.54,0-.54,0-.2-1.25-.41-2.5-.61-3.75,0,0,0,0,0,0-.1-3.23-.19-6.46-.29-9.7-.42-.82-.85-1.64-1.27-2.47-1.79-4.32-3.57-8.65-5.36-12.97-2.71-1.16-5.42-2.33-8.13-3.49-3.2-.36-6.4-.72-9.6-1.09-5.39,6.45-8.62,13.72-8.54,22.26.26.45.52.9.78,1.35-.03.82-.07,1.64-.1,2.46-.71,2.35-1.42,4.7-2.13,7.05-.44,4-.88,8-1.33,12-.09.8-.18,1.6-.27,2.4-.8,7.49-1.61,14.97-2.41,22.46.02,4.67.05,9.33.07,14-.02-4.67-.05-9.33-.07-14-.72-.19-1.44-.38-2.17-.58-1.39-7.23-2.77-14.46-4.16-21.68-.31-1.18-.62-2.36-.93-3.53-4.82-6.92-2.37-14.61-2.31-22.04-4.96-.28-4.4-3.41-3.47-6.73-.23-2.11-.66-4.23-.66-6.34-.03-10.27-1.56-11.79-11.98-11.51-3.57-1.08-7.15-2.15-10.72-3.23-2.46.21-4.92.42-7.37.63-.08.39-.16.78-.24,1.17.01,1.18.02,2.36.03,3.54.33,3.32.66,6.64.98,9.96.32.84.64,1.69.96,2.53.28.45.56.9.84,1.35.57,3.29,1.14,6.58,1.71,9.87.77,3.68,1.54,7.37,2.31,11.05.53,1.73,1.06,3.46,1.58,5.19-.81,5.92-.98,11.75,2.45,17.07.08.89.16,1.78.25,2.67.09,3.64.19,7.28.28,10.92,4.91,4.95,4.79,11.34,5.05,17.63Z"/><path class="cls-1" d="m779.11,845.57c-.13-.29-.3-.57-.39-.87-.03-.12.13-.29.2-.44-.02-.92-.03-1.84-.05-2.77.03-.76.06-1.52.09-2.27-1.09-5.43-2.17-10.85-3.25-16.27-2.33-4.91-4.6-9.84-6.99-14.72-2.15-4.37-.27-9.91,5.28-15.17.3-.98.6-1.96.89-2.95.46-1.57.92-3.14,1.37-4.71,1.6-13.14.02-25.63-7.46-36.94-1.66-1.47-3.33-2.94-4.99-4.41-9.17-9.15-20.35-9.99-32.27-7.84-.19.03-.4-.03-.6-.04-1.68-.1-3.36-.2-5.04-.3-4.01.12-8.03.24-12.05.36-1.68.1-3.36.21-5.03.31-2.85.52-5.7,1.03-8.55,1.54-4.97,2.65-7.67,6.73-7.77,12.43.13,2.05.26,4.11.4,6.16.17.38.17.77,0,1.15.19,3.01.39,6.03.58,9.05.18.66.37,1.33.55,1.99.02,1.21.03,2.43.05,3.64-.04,2.85-.08,5.7-.13,8.55-.09,1.54-.19,3.08-.28,4.63.11.25.26.5.34.77.02.08-.17.22-.26.33.07.95.13,1.89.2,2.84.2.37.2.74,0,1.11.34,5.25.68,10.51,1.02,15.77.15.43.29.87.44,1.31.01.85.03,1.71.05,2.57-.32,3.2-.64,6.4-.96,9.61.49,6.91.98,13.82,1.47,20.73.09.38.19.75.28,1.12.08,9.26.16,18.51.24,27.77.16.95.32,1.9.48,2.84,0,.83,0,1.66,0,2.49-.14,4.68-.08,9.37-.48,14.03-.24,2.74-.09,4.68,3.25,4.71,2.29-.27,4.59-.54,6.89-.8,5.61-1.76,11.22-3.51,16.83-5.27.2-.28.36-.58.5-.9.88-4.46,1.76-8.91,2.64-13.37-.11-2.02-.22-4.04-.33-6.06-.56-3.33-1.12-6.66-1.67-9.99.01-.79.02-1.57.02-2.35.17-4.03.33-8.06.5-12.08-.05-4.5-.2-9.01-.07-13.5.03-1.17.95-2.32,1.46-3.47.12-.37.29-.7.52-1.01,1.83-.26,3.67-.52,5.5-.77,1.14-.29,2.28-.59,3.42-.88,2.21.8,4.43,1.59,6.64,2.38,1.71,2.14,3.43,4.28,5.14,6.42.32,2.41.65,4.82.97,7.24.14,4.52.27,9.04.4,13.56-.25,3.37-.5,6.73-.76,10.09.19.67.37,1.33.56,2-.09,1.62-.18,3.23-.27,4.85.3.68.84,1.35.87,2.04.37,7.33,2.67,9.08,10.04,7.53l-.05.09c.51-.36,1.03-.72,1.54-1.08.32-.24.64-.47.97-.7,1.74-.26,3.49-.51,5.23-.76,9.74-2.93,11.62-5.72,11.42-15.9-.09-5.13.3-10.28.47-15.42Zm-28.94-66.01c-1.53,5.76-9.17,11.55-15.34,12.2-3.55.38-7.05,1.24-10.99,1.95-1.46-7.75-3.18-15.2-4.18-22.74-.59-4.44,1.82-6.67,6.66-5.77,3.54.66,7.21,1.38,10.76,1.15,6.99-.44,9.91,4.16,12.56,9.23.6,1.13.86,2.77.53,3.98Z"/><path class="cls-1" d="m471.3,493.71c-.03-.69-.06-1.38-.09-2.07-.14-.94-.28-1.88-.42-2.82-.12-.88-.24-1.76-.35-2.64-.98-4.89-1.96-9.79-2.94-14.69-.98-2.46-1.97-4.92-2.95-7.38-1.1-.5-2.21-1.01-3.32-1.52-.71-.99-1.42-1.98-2.13-2.97.06-.48.11-.96.17-1.44.07-.39.2-.75.38-1.09.36-.4.72-.81,1.08-1.21,1.01-1.93,2.02-3.86,3.03-5.79.5-.69,1-1.39,1.51-2.08,6.61-12.28,4.58-24.36-.8-36.38-1.45-2.2-2.89-4.4-4.34-6.59-3.25-2.97-6.49-5.94-9.74-8.91-.35-.3-.69-.61-1.04-.91-2.52-1.36-5.04-2.72-7.57-4.07-1.37-.21-2.74-.42-4.11-.64-.37-.17-.73-.34-1.1-.51-.37.19-.73.38-1.1.57-.86-.11-1.72-.22-2.58-.34-1.53-.82-3.05-1.65-4.57-2.48-6.01-.04-12.02-.09-18.04-.14-.9.11-1.8.23-2.7.34l.1.41c-.86.04-1.73.08-2.59.13-.23-.18-.44-.37-.63-.58-.51.08-1.02.16-1.53.24-1.28-.02-2.56-.03-3.85-.05l-.58.12-.56-.18c-2.74-.07-5.47-.14-8.21-.21-.04.26-.13.49-.27.71-3.66.05-7.32.09-10.99.14-.04.36-.16.69-.35.99-.13,1.2-.26,2.4-.4,3.6.4,8.72.8,17.45,1.2,26.17-.03,2.66-.06,5.32-.08,7.97.84,25.54,1.68,51.08,2.52,76.62.17,1.29.35,2.58.52,3.88.31,6.46.62,12.93.97,20.17,8.5-.53,16.63-1.04,24.77-1.55l1.44-.42c4.93-1.67,3.15-5.89,3.11-9.09-.17-14.01-.67-28-1.05-42-1.88-5.63,2.51-4.35,5.31-4.82l-.04.11c.5-.2,1-.41,1.5-.61,5.22.14,10.51.02,14.28,4.62,1.36,2.28,2.72,4.56,4.07,6.84,1.22,3.6,3.18,7.13,3.51,10.8.92,10.32,1.17,20.7,1.68,31.06.75,1.01,1.5,2.02,2.26,3.03.2.33.4.65.61.98.35.46.7.93,1.05,1.4,2.4.46,4.82,1.38,7.2,1.28,5.27-.21,10.52-.93,15.78-1.45.44-.27.87-.54,1.31-.81.71-9.9,1.41-19.8,2.12-29.71-.15-1.34-.31-2.69-.46-4.03Zm-33.84-59.91c-3.05,2.12-5.9,5.57-9.18,6.05-5.84.86-11.94-.07-17.93-.25-.43-2.96-1.55-6.02-1.14-8.85.64-4.34-4.1-10.82,2.88-12.75,13.22-3.65,22.07-.92,25.4,7.13,1.02,2.46.03,5.76-.03,8.67Z"/><path class="cls-1" d="m482.9,782.07c5.18-.92,9.8.44,11.41,6.21,1.81,6.48,3.07,13.11,4.92,19.58.55,1.92,2.38,5.06,3.46,4.99,7.57-.46,15.12-1.52,22.63-2.66,1.14-.17,2.06-1.78,3.08-2.73.16-3.64.31-7.28.47-10.92-2.2-7.51-4.4-15.02-6.6-22.54-.91-1.36-1.82-2.72-2.74-4.08-1.09-2.13-2.18-4.27-3.26-6.4-1.88-1.71-3.77-3.42-5.65-5.13-1.46-1.07-2.91-2.14-4.37-3.21-3.46-1.69-6.91-3.38-10.37-5.06-2.01-.09-4.02-.18-6.03-.27-1.99-.24-3.99-.49-5.98-.73-2.02.21-4.03.42-6.05.62,0,0,.05-.09.05-.09-.47.23-.94.46-1.41.68-3.26,1.81-6.52,3.62-9.79,5.43-1.45.71-2.9,1.42-4.34,2.13-.98.58-1.96,1.16-2.94,1.73-.38.39-.76.78-1.14,1.17-1.12,1.86-2.17,3.75-3.36,5.56-6.24,9.51-10.53,19.37-9.03,31.32.98,7.79.39,15.77.5,23.67-.13,1.2-.26,2.4-.39,3.6.57,6.8,1.14,13.6,1.7,20.41.1,1.35.21,2.7.32,4.04-.06.83-.12,1.66-.18,2.49-.22,2.8-.43,5.6-.65,8.4.16.86.32,1.72.49,2.57.2.37.2.75.02,1.13.72,6.5,1.44,12.99,2.17,19.49,1.69,4.32,3.38,8.63,5.07,12.95,3.66,4.62,7.32,9.25,10.98,13.87.32.27.63.55.95.82,1.16.74,2.59,1.24,3.43,2.25,4.15,5.02,8.75,5.96,14.56,2.69,1.9-1.07,4.6-.72,6.93-1.01.87-.14,1.73-.27,2.6-.41,1.64.11,3.29.22,4.93.33,2,.21,4,.41,6,.62,1.69-1.52,3.38-3.04,5.07-4.56,2.71-1.7,5.42-3.39,8.13-5.09.38-.38.77-.76,1.16-1.14,1.06-1.94,2.13-3.88,3.19-5.82,1.1-1.84,2.21-3.67,3.31-5.51,1.85-5.48,3.7-10.96,5.55-16.44-.57-13.41-1.15-26.82-1.72-40.23h0c-.17-1.64-.33-3.28-.5-4.92-2-1.04-3.96-2.88-6-2.97-8.95-.4-17.93-.67-26.87-.28-11.38.5-14.79,2.35-12.52,17.62h0c-.01.85-.03,1.69-.04,2.54.15.84.29,1.69.44,2.53-.53,8.73.85,11.2,8.65,10.26,7.42-.89,7.12,3.19,7.42,7.87.64,10.22-5.47,16.18-15.5,14.43-2.27-.4-5.49-2.61-6.01-4.58-2.04-7.87-4.09-15.92-4.48-23.98-1-20.52-1.14-41.07-1.55-61.62-.09-4.63,4.87-10.74,9.88-11.62Z"/><path class="cls-1" d="m562.32,678.86c-.25-.87-.5-1.75-.75-2.62.08-.75.16-1.51.25-2.27-.16-.44-.31-.88-.46-1.32.17-4.33.51-8.67.41-12.99-.03-1.44-1.19-2.85-1.83-4.27-.29-.42-.57-.85-.85-1.27l-.15-.15c-.28-.36-.56-.73-.83-1.1-2.13-4.13-4.26-8.27-6.38-12.4-3.65-3.79-7.3-7.57-10.96-11.35-3.33-2.04-6.66-4.09-10-6.13-6.56-2.78-13.12-5.55-19.69-8.33-.68-.48-1.37-.96-2.06-1.44-2.8-1.02-5.6-2.05-8.4-3.07-2.41-4.39-4.82-8.78-7.23-13.16-.65-.88-1.3-1.75-1.95-2.62.54-1.17,1.08-2.34,1.61-3.51,2.43-3.14,4.76-6.38,7.31-9.42,5.26-6.27,12.99-6.44,17.56.32,2.75,4.08,3.83,9.29,5.65,13.99.86,1.62,1.72,3.24,2.57,4.85.66,4.38,1.2,8.79,2.03,13.14.23,1.2,1.34,2.24,2.05,3.36,6.89-.74,13.77-1.47,20.66-2.2,1.3-.01,2.59-.02,3.89-.03,4.65-2.38,5.47-6.08,3.66-10.68.08-1.18.15-2.36.23-3.54-.03-6.88-.06-13.76-.09-20.63-1.99-4.26-3.97-8.52-5.96-12.77-2.78-3.88-5.56-7.75-8.35-11.62-3.02-1.63-6.05-3.26-9.07-4.89-2.48-2.6-4.71-5.71-9.08-4.25-1.61-.69-3.22-1.39-4.83-2.08-1.67-.6-3.44-1.9-4.98-1.66-7.91,1.22-15.8,2.65-23.61,4.4-3.92.88-8.47,1.69-11.28,4.17-4.88,4.32-9.08,9.6-12.7,15.05-3.55,5.34-6.03,11.39-8.98,17.12.28,1.01.56,2.01.85,3.02,0,1.06.01,2.13.01,3.19,1.49,8.63,2.98,17.27,4.46,25.9,2.38,3.52,4.76,7.04,7.14,10.56.62.92,1.23,1.83,1.85,2.75.03.68.07,1.37.1,2.06,2.35,2.29,4.69,4.58,7.04,6.87,1.33.64,2.66,1.28,3.99,1.93,1.1.94,2.21,1.88,3.31,2.83,2.31,1.07,4.63,2.13,6.94,3.2,2.28,1.43,4.57,2.87,6.85,4.3,1.53.96,3.05,1.91,4.58,2.87,1.14.55,2.27,1.1,3.41,1.65,2.68,1.49,5.37,2.98,8.05,4.47,1.52,1.31,3.04,2.61,4.56,3.92.32.09.65.16.98.22.27.58.54,1.16.81,1.74.76.59,1.53,1.18,2.29,1.77.26,1.14.51,2.28.77,3.42l.41-.1c-3.47,15.02-6.83,18.95-18.06,18.82-1.48-.64-2.97-1.27-4.46-1.9-.68-.51-1.36-1.03-2.03-1.54-.26-.41-.52-.82-.78-1.24-.23-.29-.45-.58-.68-.87-.01-.38-.01-.76,0-1.14-1.63-2.74-3.26-5.49-4.9-8.23-.59-3.3-1.18-6.6-1.77-9.91-.24-2.32-.49-4.64-.85-8.16-8.61.81-16.89,1.87-25.21,2.26-4.25.19-6.29,1.8-6.63,5.88-.08.8-.16,1.6-.24,2.4-.08,1.78-.15,3.56-.22,5.34.15.63.31,1.27.46,1.9.9,4.1,1.8,8.21,2.71,12.31.21.48.43.96.64,1.45,1.65,3.47,3.31,6.95,4.96,10.43.42,1.2.85,2.4,1.27,3.6.3.07.59.15.89.23.34.51.68,1.03,1.02,1.54l-.13.07c.68,1.6,1.37,3.2,2.05,4.79,7.2,4.94,14.4,9.89,21.6,14.83.55.31,1.11.63,1.67.95,4.54.96,9.08,1.92,13.61,2.88,2.46-.24,4.92-.48,7.39-.72,4.85-1.83,9.71-3.67,14.56-5.5,1.54-.96,3.08-1.93,4.62-2.89,2.28-2.61,4.56-5.22,6.85-7.82,1.85-1.83,3.7-3.65,5.55-5.47,1.5-3.06,2.99-6.11,4.49-9.17,1.07-3.52,2.15-7.05,3.23-10.57-.2-.28-.32-.58-.36-.92.81-.83,1.63-1.67,2.44-2.5.17-.78.34-1.56.5-2.33Z"/><path class="cls-1" d="m373.41,442.6c-.7-11.84-2.1-23.63-3.2-35.45-.33-.49-.66-.98-1-1.47-5.57-4.95-11.14-9.9-16.71-14.85-2.29-.84-4.57-1.69-6.86-2.54-9.29-.59-18.58-1.17-27.87-1.76l-.37.31s-.41-.15-.41-.16c-1.82.53-3.64,1.06-5.46,1.59-.42.27-.84.54-1.27.81l-.24.16c-.35.27-.69.54-1.04.8-2.54,1-5.08,1.99-7.62,2.98-3.42,1.23-6.85,2.46-11.21,4.02,4.36,4.67,2.89,7.97-1.2,10.68-.17.42-.35.85-.53,1.27-.48,4.34-.96,8.67-1.44,13.01-.01,3.25-.02,6.5-.03,9.76.19.38.18.76-.01,1.13.13,2.46.26,4.91.39,7.37-.01.8-.02,1.61-.04,2.42.34,3.29.68,6.59,1.01,9.88.17.38.16.76-.04,1.14-.36,3.99-.71,7.98-1.07,11.97.24,1.27.47,2.54.7,3.81.19,6.08.38,12.15.58,18.23.2.85.39,1.71.59,2.56-3,11.25,5.58,18.46,9.52,27.29,1.83,1.82,3.65,3.65,5.48,5.47,3.42,1.64,6.84,3.27,10.26,4.9,3.16,1.66,6.2,4.34,9.52,4.75,5.35.67,10.88-.15,16.33-.34.89-.15,1.78-.31,2.67-.46,4.35-2.52,8.69-5.04,13.03-7.56,1.31-1.03,2.62-2.06,3.93-3.08.41-.02.83-.04,1.24-.05,2.45-2.89,4.9-5.78,7.35-8.67.28-3.39.89-6.53,5.24-6.78.49-6.39,1.48-12.8,1.39-19.19-.23-14.65-.74-29.31-1.61-43.95Zm-28.71,47.65c-.4,4.13-5.32,7.83-8.18,11.72-8.88,1.07-16.43-3.76-19.16-12.24.01-.8.03-1.59.05-2.38.09-3.66.18-7.32.27-10.98-.52-15.75-1.07-31.49-1.53-47.23-.08-2.8.2-5.61.33-8.41.23-4.74,2.97-6.54,7.46-6.83,12.4-.79,18,2.11,19.41,10.73.58,3.53.52,7.18.62,10.78.21,7.73.34,15.46.5,23.19.21,10.56,1.24,21.2.23,31.65Z"/><path class="cls-1" d="m249.22,831c-.11-8.41-.21-16.81-.32-25.21-.15-.96-.29-1.92-.44-2.88.05-1.8.1-3.6.15-5.4-.19-.65-.39-1.3-.58-1.95-2.17-7.13-4.34-14.25-6.52-21.38-1.74-2.62-3.48-5.24-5.22-7.86-4.04-3.58-8.09-7.15-12.13-10.73-1.97-.87-3.94-1.74-5.9-2.61-.42.08-.76-.05-1.01-.4-2.73-.58-5.47-1.17-8.2-1.75-4.02-.32-8.04-.64-12.06-.96-.37-.22-.75-.45-1.12-.67-4.01-.37-8.02-.73-12.03-1.09-2.86.04-5.71.07-8.56.11-.81.09-1.62.18-2.42.27-4.52.14-10.08-1.62-10.58,5.82.46,4.26.93,8.52,1.39,12.78.19.66.38,1.32.57,1.98,0,1.09.01,2.18.01,3.27.16.53.32,1.07.48,1.6-.03.84-.05,1.67-.08,2.51-.11,1.2-.22,2.41-.32,3.61.01,2.75.03,5.51.04,8.26-.07,1.29-.15,2.58-.22,3.87-.02.77-.04,1.55-.06,2.33.26.45.52.9.78,1.35l.84,12.03c-.12,2.1-.25,4.19-.37,6.29-.02,4.7-.04,9.4-.06,14.1.17.56.34,1.12.52,1.67.1,1.59.2,3.19.3,4.78.06,1.28.12,2.57.18,3.86.15,2.04.3,4.08.44,6.13-.11,1.2-.23,2.4-.34,3.6.21,6.86.42,13.72.62,20.58.15,1.66.3,3.32.45,4.98,0-.01-.05-.05-.05-.05.15.42.3.84.44,1.26-.02,1.26-.05,2.51-.07,3.76-.34,9.18,1.31,10.9,10.45,12.22,2.6.38,5.02,2.05,7.52,3.13.78.19,1.55.39,2.33.58,1.65-.25,3.29-.5,4.94-.75,2.09-.36,4.19-.72,6.28-1.08l.5.09.45-.25c.88.16,1.76.31,2.63.46,1.42,1.69,2.72,3.29,4.83,3.29.7,0,1.48-.17,2.38-.57,1.53-.67,3.8.33,5.74.57,1.64-.2,3.28-.39,4.92-.59,3.8-2.48,7.59-4.96,11.38-7.44,2.93-3.35,5.86-6.7,8.79-10.05,2.56-.76,3.88-2.28,4.66-4.12.79-1.84,1.06-4,1.53-6.04.15-2.41.31-4.81.47-7.22.18-1.2.36-2.4.55-3.6.32-6.46.65-12.92.98-19.38.18-1.18.36-2.36.54-3.54.01-.73.01-1.46.01-2.19-.14-.46-.29-.92-.43-1.38Zm-30.27,24.21c-2.09,4.45-5.19,9.66-9.25,11.58-3.73,1.75-9.89,1.83-13.54-3.02-.21-.85-.41-1.71-.62-2.57l.05.11c-.21-19.08-.35-38.16-.7-57.24-.07-4.09-.89-8.16-1.36-12.24.14-1.15.41-2.31.41-3.46v-.12c-.2-8.24.09-8.09,8.63-7.65,10.38.52,14,5.1,14.62,14.51.61,9.12.43,18.3.87,27.44.35,7.15,1.28,14.28,1.63,21.43.19,3.77.75,8.06-.74,11.23Z"/><path class="cls-1" d="m664.22,900.24c.65-.17,1.31-.33,1.96-.5,2.91-.59,5.82-1.18,8.72-1.77,3.36-4.22,7.37-.8,11.08-.94,3.85.8,5.71-.74,5.29-4.68-.31-2.94-.86-5.85-1.19-8.79-.59-5.27-.47-10.71-1.79-15.78-1.29-4.97-5.33-6.58-10.44-4.99-3.39,1.06-6.86,1.86-10.29,2.78-.24.39-.56.5-.96.32-1.63.11-3.27.22-4.91.33-.45.14-.9.28-1.35.42-.85.13-1.71.27-2.57.4-2.1,1.27-4.2,2.53-7.82,4.72.46-4.07.74-6.65,1.03-9.24-.21-.33-.22-.66-.01-1-.14-1.28-.29-2.57-.43-3.85-.69-5.04-1.54-10.08-1.95-15.14-.1-1.28.96-3.6,1.91-3.85,6.39-1.72,12.89-3.01,19.36-4.44.34-.08.69-.16,1.03-.23,1.97-.11,3.94-.22,5.91-.33.54-.15,1.08-.3,1.63-.44.84.02,1.68.04,2.52.07.8.09,1.6.18,2.4.26,3.75.81,5.49-.59,5.48-4.54,0-2.76.5-5.53.78-8.3-.14-1.64-.29-3.28-.43-4.92-.18-1.67-.37-3.34-.55-5.02-.19-.38-.21-.77-.05-1.16-.22-.33-.24-.68-.07-1.04-.13-.44-.25-.87-.38-1.3-1.58-2.35-3.15-4.7-4.73-7.05h-.57s-.49-.3-.49-.3c-1.25-.1-2.5-.21-3.75-.31l-.57.14-.57-.14c-1.16.16-2.34.26-3.48.51-6.91,1.51-13.82,3.06-20.73,4.59-3.16.07-7.09,2.84-8.72-2.49.22-3.01.43-6.01.65-9.02-.15-.61-.31-1.21-.46-1.82.39-4.03.78-8.06,1.17-12.09,1.67-1.05,3.34-2.09,5.01-3.14,0,0,.34-.18.34-.18l.36.16c.57-.15,1.13-.3,1.7-.45,2.12-.38,4.23-.77,6.35-1.15.84-.22,1.68-.44,2.53-.66-.02.01-.03.03-.05.04,4.55.05,9.14.49,13.63-.03,1.85-.22,3.46-2.41,5.17-3.76h0c3.7.43,5.49-.96,5.4-4.94-.13-6.28.09-12.57.16-18.86-1.21-5.2-5.34-5.88-9.67-6.25-1.18-.06-2.36-.12-3.54-.19-2.14.55-4.28,1.1-6.42,1.66,2.13.64,4.23,1.46,6.36,2.03-2.14-.57-4.24-1.39-6.36-2.03-2.45.61-4.89,1.21-7.34,1.82-4.56.67-9.11,1.34-13.67,2.01-5.24-.26-10.47-.52-15.71-.78-1.16-.06-2.31-.11-3.47-.17-.38.06-.75.13-1.13.19-3.05,2.41-6.1,4.83-9.15,7.25-.37,1.07-.74,2.15-1.11,3.22.72.73,1.84,1.48,2.57,2.21-.73-.73-1.85-1.48-2.57-2.21-.14,6.53-.28,13.06-.42,19.59,1.13,5.28,2.41,10.54,3.34,15.86.4,2.29.09,4.7.1,7.05.13.97.26,1.94.39,2.91.05,8.34.09,16.68.14,25.02.17,1.01.33,2.02.5,3.03-.15,2-.3,4-.45,6,.24.44.47.87.71,1.31-.26,3.26-.52,6.52-.79,9.78.09.71.18,1.41.27,2.12.26,3.99.52,7.98.78,11.97l.52,2.96c.93,14.57,1.85,29.13,2.78,43.7,2.45.37,4.91.74,7.36,1.12.35-.57.69-1.14,1.04-1.72,2.06-.25,4.13-.5,6.19-.74.38-.18.77-.19,1.15,0,5.5-1.44,10.97-3.06,16.53-4.24,2.84-.6,5.85-.39,8.79-.55Z"/><path class="cls-1" d="m523.54,1146.16c-7.64.45-15.24,1.71-22.85,2.65-3.17.39-6.38.58-9.52,1.13-7.91,1.38-15.75,3.73-23.7,4.21-14.94.9-29.94.76-44.91,1.03-12.17.22-24.33.41-36.5.61l-4.67.25c-1.29.07-2.59.14-3.88.2-3.6-.37-7.21-.74-10.81-1.11-1.99-.31-3.98-.61-5.97-.91l-2.46-.38c-3.22.06-6.45.11-9.67.17-4.87-.88-9.71-1.98-14.62-2.56-3.31-.39-6.83.56-10.04-.1-10.5-2.14-20.9-4.74-31.34-7.16-2.4-.31-4.79-.62-7.19-.93-.82-.12-1.64-.24-2.47-.36-.58-.29-1.15-.58-1.73-.87-.57-.11-1.14-.23-1.7-.34-6.3-1.63-12.59-3.25-18.89-4.88-4.36-.89-8.72-1.77-13.08-2.66-3.11-1.12-6.23-2.24-9.34-3.36-1.2-.15-2.39-.3-3.59-.46-2.39-.74-4.79-1.49-7.18-2.23-6.65-1.92-13.3-3.84-19.96-5.76-4.69-1.29-9.37-2.58-14.06-3.88l-4.66-1.81c-3.12-1.11-6.23-2.22-9.35-3.34-2.35-.7-4.71-1.39-7.06-2.09l-6-.65c-2.71-1.11-5.42-2.23-8.13-3.34-3.11-1.47-6.22-2.95-9.33-4.42-1.91-.71-3.82-1.42-5.73-2.13-2.38-.9-4.75-1.8-7.13-2.7-6.54-3.11-13.09-6.23-19.63-9.34-2.72-1.62-5.44-3.23-8.15-4.85-2.12-1.42-4.08-3.56-6.39-4.06-2.63-.57-5.73-.07-8.28.89-.64.24.05,4.01.12,6.16.52.44,1.04.88,1.56,1.32,3.65,2.68,7.29,5.35,10.94,8.03,2.36,1.22,4.71,2.44,7.07,3.66,0,0,.46.04.46.04l.34.31c1.52.92,3.04,1.84,4.56,2.76,2.47,1.45,4.94,2.89,7.41,4.34,6,1.92,12.04,3.75,18,5.79,12.55,4.3,25.06,8.7,37.59,13.06,3.95,1.44,7.91,2.88,11.86,4.32,1.95.55,3.89,1.1,5.84,1.65.4.21.8.42,1.19.64,0,0,.07-.08.07-.08,5.02,1.48,10.03,2.97,15.04,4.46,1.61.44,3.22.88,4.84,1.32,2.7.87,5.39,1.75,8.09,2.62,3.16.74,6.32,1.47,9.48,2.21,9.02,2.66,18.03,5.33,27.05,7.99,2,.2,4.01.4,6.01.61,3.99.85,7.96,1.79,11.96,2.53,2.74.5,5.52.73,8.29,1.08,2.08.71,4.16,1.42,6.24,2.13,3.09.27,6.18.54,9.27.81.37.35.74.7,1.12,1.05,0,0-.02-.03-.02-.03,1.19.43,2.38.86,3.56,1.29,4.35.68,8.69,1.37,13.03,2.05,1.6.19,3.2.39,4.8.58,5.56,1.01,11.11,2.02,16.66,3.04,2.05-.18,4.09-.35,6.14-.53,9.7.28,19.41.57,29.11.85.53.34,1.07.67,1.61,1.01,3.82.56,7.63,1.13,11.45,1.69.39-.1.77-.06,1.13.13,7.16-.14,14.32-.29,21.48-.43,1.77-.07,3.54-.15,5.3-.22,3.71-.48,7.42-.97,11.14-1.45.41-.22.82-.45,1.24-.67,3.48-.61,6.94-1.35,10.45-1.82,10.03-1.33,20.08-2.56,30.12-3.83.47-.17.95-.35,1.42-.52,7.21-1.02,14.41-2.04,21.62-3.06.65-.22,1.3-.44,1.94-.66.42-.04.84-.08,1.26-.12,2.47-.59,4.95-1.17,7.42-1.76,3.74-.72,7.48-1.44,11.21-2.16,2.68-.65,5.36-1.29,8.05-1.94.15-.37.42-.6.81-.7-1.78-1.41-3.63-4.1-5.32-4Z"/><path class="cls-1" d="m411.82,879.41c.44,7.36.87,14.72,1.31,22.07,1.3,3.72,2.59,7.44,3.89,11.16,1.94.37,3.87.74,5.81,1.1,4.43.42,8.85.84,13.28,1.25,1.6.58,3.21,1.17,4.81,1.75.68-7.02,1.37-14.04,2.05-21.06-.13-.99-.26-1.99-.39-2.98-.36-7.78-.72-15.56-1.07-23.34l.28-2.27c0-3.69-.02-7.37-.02-11.06.08-.76.17-1.53.25-2.29-.2-6.7-.4-13.4-.6-20.1-.13-1.03-.26-2.05-.39-3.08.15-2.72.31-5.44.46-8.16-.12-.9-.23-1.81-.35-2.71.02-.86.04-1.72.06-2.57-.14-.4-.12-.78.09-1.16-.2-2.41-.41-4.81-.61-7.22-.11-.41-.21-.81-.32-1.22.01-2.69.02-5.38.03-8.07-.14-1.01-.29-2.02-.43-3.03-.11-2.49-.22-4.97-.32-7.46.08-.75.17-1.5.25-2.26-.12-10.93-.24-21.87-.37-32.8-.34-.2-.64-.44-.92-.72-8.42.48-16.84.96-25.26,1.44-.61.41-1.22.82-1.83,1.23-.03.4-.21.7-.57.9-.29.5-.58,1-.87,1.5-.55,8.28-1.1,16.56-1.65,24.84.71.89,1.42,1.78,2.13,2.68-.35,7.96-1.06,15.93-.96,23.89.17,13.1.87,26.19,1.34,39.29-.24.8-.47,1.6-.71,2.41.82,3.99,2.16,7.96,2.33,11.98.23,5.34-.45,10.72-.73,16.09Z"/><path class="cls-1" d="m186.94,152.64c3.17-.23,6.88-1.86,8.66,2.62l7.13,1.04c8.28-.02,16.57-.11,24.85,0,.98.01,1.95,1.11,2.92,1.71,1.63-.13,3.26-.27,4.89-.4,11.53-.08,23.06-.17,34.58-.25,4.39.5,8.79.97,13.18,1.53,1.43.18,2.83.61,4.24.92,4.89-.27,9.78-.54,14.67-.81,1.2.13,2.4.26,3.6.38,1.99.15,3.99.31,5.98.46,2.45-.06,4.9-.11,7.35-.17,15.07-.75,30.14-1.5,45.21-2.25,1.21.05,2.42.09,3.63.14,4.51-.16,9.02-.41,13.53-.46,10.5-.13,21-.17,31.5-.25,2.58-1.35,5.17-2.69,7.75-4.03,3.18.12,6.37.23,9.55.35.27-.61.54-1.23.82-1.84-1.58-1.81-3.16-3.61-4.74-5.42-1.63.31-3.26.62-4.89.93-.81.39-1.62.78-2.44,1.18-.9.2-1.8.4-2.7.61-2.07.45-4.15.9-6.22,1.35l-3.55.09c-2.84-.77-5.68-1.54-8.52-2.32-1.53-.28-3.06-.55-4.6-.83-.8-.04-1.61-.09-2.41-.13-2.43.11-4.87.23-7.3.34-.42-.02-.83-.05-1.25-.07-2.84.04-5.67.08-8.51.12-9.12.32-18.25.64-27.37.97-.63.15-1.26.31-1.88.46-7.32.04-14.64.08-21.95.13-3.55-.82-7.1-1.63-10.66-2.45-5.56-.1-11.13-.2-16.69-.3-.47.12-.94.23-1.41.35-2.63-.03-5.27-.05-7.91-.08-.65.16-1.3.33-1.94.49-9.58-.53-19.16-1.05-28.75-1.58-2.47,3.6-4.53,2.43-6.43-.55-3.92-.1-7.84-.2-11.76-.3l-2.72.44c-2.46.14-4.92.28-7.38.42l-.58.13-.58-.15c-1.2-.12-2.4-.25-3.6-.37-3.2-.36-6.4-.71-9.6-1.07-2-.23-4-.45-6-.68-6.79-.81-13.59-1.62-20.38-2.43l-3.61-.38c-1.61-.14-3.21-.28-4.82-.41-5.65-.21-11.29-.41-16.94-.62-1.54-.89-3.07-1.79-4.61-2.68-4.99.2-10.05,1.01-14.96.48-8.28-.89-16.46-2.62-24.68-4-2.8-.33-5.6-.65-8.4-.98-1.6-.18-3.2-.36-4.8-.54-4.76-.88-9.52-1.76-14.29-2.65-1.19-.19-2.39-.38-3.58-.57-1.55-.58-3.11-1.17-4.66-1.75-1.2-.13-2.4-.25-3.6-.38-.79-.16-1.59-.32-2.38-.48-1.95-.84-3.9-1.67-5.85-2.51-.77-.21-1.53-.42-2.3-.63-1.21-.45-2.43-.9-3.64-1.35-3.68-2.03-9.06.06-11.59-4.76-1.51-.96-3.02-1.93-4.53-2.89-2.35-1.02-4.69-2.04-7.04-3.06-3.76-1.42-6.68-1.01-7.7,3.54,1.83,2.58,3.66,5.16,5.5,7.74.78.24,1.56.49,2.34.73.41.31.82.63,1.23.94,0,0-.03-.11-.03-.11.75.17,1.49.35,2.24.52,1.57.53,3.13,1.07,4.7,1.6.77.25,1.54.51,2.31.76.37.3.75.61,1.12.91h0c.29.44.57.86.86,1.28.81.58,1.63,1.15,2.44,1.73.41-.03.78.07,1.12.3.85.09,1.71.19,2.56.28.58.28,1.17.57,1.75.85.55.12,1.11.25,1.66.37,9.05,2.91,18.1,5.81,27.14,8.73.36.12.64.46.96.69,1.98.14,3.97.29,5.95.43.46-.23.92-.46,1.38-.69,1.96.58,3.91,1.16,5.87,1.75l10.69,2.22c2.44-.12,4.89-.25,7.33-.37,1.54.63,3.08,1.26,4.62,1.88.41.05.82.09,1.23.14,1.96.58,3.92,1.16,5.88,1.74l11.96,1.09c2.81.45,5.62.9,8.43,1.35,6,.66,12,1.32,18,1.98,2.81.28,5.61.55,8.41.83,2.33-.37,4.66-.9,7.01-1.07Z"/><path class="cls-1" d="m807.49,1093.91c-9.45,2.29-18.58,5.95-27.84,9.02-.5.47-1.01.93-1.52,1.4-3.69.71-7.37,1.41-11.06,2.11-2.14.88-4.27,1.76-6.41,2.64-7.14.29-14.28-.7-21.14,3.17-4.5,2.54-10.03,4.4-15.1,4.39-3.26,0-4.83,1.02-6.79,2.69-4.83,1.41-9.65,2.81-14.48,4.22-.24.23-.49.26-.78.09-10.43,2.64-20.84,5.33-31.31,7.83-.88.21-2.08-.91-3.12-1.42l-.34-.39s-.14.02-.13.02c-.39.62-.67,1.64-1.2,1.78-5.4,1.51-10.77,3.23-16.27,4.2-8.34,1.47-16.77,2.41-25.18,3.52-1.97.26-3.98.3-5.97.45-.86.21-1.72.42-2.58.63-7.81,1.46-15.61,2.92-23.42,4.39-3.82.9-7.63,1.8-11.45,2.7-3.24.02-6.49.05-9.73.07-1.19.01-2.38.02-3.57.04.21,1.9.41,3.8.62,5.7,3.55.47,7.1.95,10.65,1.42,1.24-.18,2.48-.36,3.72-.54,6.69-.08,13.45.44,20.05-.38,10.01-1.24,19.92-3.36,29.86-5.19,5.21-.95,10.36-2.21,15.58-3.05,3.13-.5,6.35-.44,9.54-.63,1.71-.43,3.42-.86,5.13-1.29,4.28-.51,8.55-1.01,12.83-1.52,1.43-.25,2.87-.49,4.3-.74,4.14-1.11,8.28-2.21,12.42-3.31l.03.1c.47-.2.95-.39,1.42-.59,2.53-.73,5.06-1.46,7.6-2.19,6.25-1.57,12.5-3.14,18.75-4.71,1.22-.47,2.44-.94,3.66-1.41,7.44-1.91,14.88-3.83,22.32-5.74.9-.12,1.81-.24,2.71-.35,4.58-1.23,9.15-2.46,13.73-3.68,7.77-2.08,15.63-3.89,23.31-6.28,10.79-3.36,21.53-6.91,32.12-10.84,5.11-1.89,9.82-4.85,15.77-7.85-9.99-5.41-18.55-2.44-26.71-.46Z"/><path class="cls-1" d="m658.53,404.32c-.61,1.89-1.21,3.78-1.82,5.67-.71.38-1.43.75-2.14,1.13-1,.42-2,.85-2.99,1.27-4.67,3.21-6.49,6.99-2.38,11.95.54.56,1.07,1.11,1.61,1.67,0,0,.43.04.43.04,1.19.29,2.39.58,3.58.88,1.68-.28,3.36-.55,5.04-.83,2.59-1.71,5.18-3.43,7.77-5.14.47-.38.93-.75,1.4-1.13,1.72-1.85,3.44-3.7,5.16-5.55,1.92-1.88,3.83-3.76,5.75-5.64.81-2.83,1.61-5.67,2.42-8.5-.81,2.84-1.61,5.67-2.42,8.5.6,4.12,1.21,8.23,1.82,12.35.16.75.31,1.51.47,2.26.87,2.27,1.73,4.54,2.6,6.81.22.41.44.82.66,1.23.16.42.32.84.48,1.26,1.46,1.58,2.93,3.17,4.39,4.75,1.4,1.28,2.81,2.56,4.21,3.84.35.36.71.72,1.06,1.08.38.39.76.78,1.15,1.16,2.61,1.83,5.23,3.65,7.84,5.48,3.38-1.23,6.31-1,8.22,2.54,1.13.91,2.25,1.81,3.38,2.72,8.96,0,15.07,7.12,23.19,9.25.87,2.38,1.75,4.76,2.62,7.14-.38,9.17-4.16,13.1-12.79,13.3-.61.17-1.21.35-1.82.52-2.46.1-4.92.19-7.38.29l-2.49-.93-.05.06c-.65-.93-1.29-1.87-1.94-2.8-.11-.37-.23-.73-.34-1.1-.1-1.6-.2-3.21-.3-4.81-.1-.45-.21-.9-.31-1.34-1.25-11.62-2.18-12.42-14.32-11.58-4.35.3-8.68.87-13.02,1.32-1.15.68-2.29,1.35-3.44,2.03-.77,1.05-1.54,2.09-2.31,3.13-.14,1.97-.27,3.94-.41,5.91.85,2.98,1.7,5.95,2.55,8.93l.03.03c.72,1.68,1.44,3.36,2.17,5.04.35,1.2.71,2.4,1.06,3.59.49.93.98,1.87,1.47,2.8,4.63,4.77,9.27,9.53,13.9,14.29,4.37,1.9,8.74,3.81,13.11,5.72,2.41.17,4.83.34,7.24.5,2.42-.28,4.83-.56,7.25-.84,1.27-.04,2.54-.07,3.81-.11.83-.19,1.66-.37,2.49-.56.8.04,1.61.07,2.41.11,3.38-1.83,6.76-3.67,10.13-5.5.45-.24.91-.47,1.36-.71.47-.27.93-.54,1.4-.81l1.09-.62c1.85-1.18,3.7-2.36,5.55-3.54,1.06-.89,2.12-1.78,3.17-2.68,0,0,.14-.4.14-.4.69-.86,1.39-1.72,2.08-2.58,2.24-4.62,4.48-9.24,6.72-13.86.21-1.98.43-3.97.64-5.95.13-.82.26-1.64.39-2.46.1-.75.2-1.49.3-2.24-.31-6.37-.62-12.73-.92-19.1-.59-1.84-1.18-3.68-1.77-5.52-.74-1.26-1.48-2.51-2.21-3.77-2.23-2.28-4.46-4.56-6.69-6.84-2.41-1.52-4.82-3.04-7.23-4.57-.49.28-.99.56-1.48.84-5.42-2.26-10.85-4.53-16.27-6.79-1.71-.86-3.42-1.72-5.13-2.58-1.04-.43-2.07-.86-3.11-1.29-1.53-.62-3.05-1.24-4.58-1.86-1.51-.69-3.03-1.38-4.54-2.07l-4.18-4.09c-4.16-13.48-1.3-20.12,10.79-25.05,2.6-1.37,5.17-3.9,7.86-.14,1.43,1.42,2.86,2.84,4.29,4.26.96,1.87,1.91,3.74,2.87,5.6.17,2.37.34,4.74.51,7.11-.04,3.54-.28,7.09-.03,10.6.11,1.59,1.21,3.11,1.86,4.66,5.69-.34,11.37-.68,17.06-1.02,1.66-.17,3.32-.33,4.99-.5,1.2-.25,2.4-.51,3.6-.76.73-1.93,1.46-3.85,2.19-5.78.26-3.42.53-6.85.79-10.27-.13-.58-.27-1.16-.4-1.74-.2-3.28-.39-6.57-.59-9.85-.4-.29-.46-.62-.19-.99-1.1-3.82-2.2-7.64-3.3-11.46-.21-.44-.41-.88-.61-1.32-.76-2.04-1.52-4.08-2.27-6.11-.75-.84-1.5-1.68-2.25-2.51-4.12-2.33-8.24-4.66-12.36-6.98-4.27-1.66-8.54-3.31-12.81-4.97-2.85.14-5.7.27-8.55.41-2.57,1.24-5.14,2.48-7.71,3.73-8.42.75-15.97,3.36-21.63,10.06-.83,1.17-1.67,2.35-2.5,3.52-1.03,1.05-2.07,2.1-3.1,3.14-.81.75-1.62,1.49-2.43,2.24-1.66,2.2-3.32,4.39-4.99,6.59-.28,2.65-.55,5.31-.83,7.96h0c-1.2.14-2.4.29-3.61.43.02-2.96.04-5.92.06-8.88-.08-4.6-.16-9.21-.24-13.81-1.8-.94-3.61-1.89-5.41-2.83-5.38.02-10.96-.81-16.09.34-4.1.92-7.66,4.25-11.45,6.51-.14.79-.29,1.59-.43,2.38-.16,6.06-.33,12.11-.49,18.17,2,6.34,7.76,5.47,12.51,6.53Z"/><path class="cls-1" d="m915.61,901.98c-.56-1.66-1.11-3.33-1.67-4.99-.69-3.29-1.59-6.55-2.03-9.87-1.4-10.58-2.48-21.2-4.03-31.75-.35-2.38-2.14-4.54-3.27-6.8-1.04,1.5-2.08,3-3.12,4.5-.43,1.18-.86,2.36-1.29,3.55-.56,2.3-1.12,4.59-1.68,6.89-1.38,19.77,2.96,38.49,9.27,57.19,6.75-2.08,9.33-5.65,8.51-11.56-.33-2.37-.46-4.76-.69-7.15Z"/><path class="cls-1" d="m906.72,283.55s-.06-.07-.09-.11h0s.1.11.1.11Z"/><path class="cls-1" d="m681.58,133.45c-1.18-.27-2.37-.53-3.55-.8-4.49.04-8.99.08-13.48.12,0,0,.22-.4.22-.4-3.29.61-6.59,1.23-9.88,1.84-2.57.71-5.13,1.42-7.7,2.12h-.55s-.52-.17-.52-.17c-.43,0-.86.02-1.29.03-4.49.31-8.98.61-13.46.92-.8-.07-1.61-.14-2.41-.21-1.6-.16-3.2-.32-4.81-.48-1.84,1.8-3.69,3.59-5.53,5.39-2.38-.26-4.76-.53-7.14-.79-.58.79-1.17,1.59-1.75,2.38.03,4.21,2.81,3.93,5.69,3.48,1.18-.35,2.35-.71,3.53-1.06.21-.44.42-.88.63-1.32-.06-.18-.13-.36-.19-.53.06.18.13.36.19.53.38,0,.76-.03,1.14-.08,1.17-.36,2.34-.71,3.5-1.07l.05.16c.51-.16,1.02-.33,1.54-.49,1.22.05,2.44.1,3.66.16l2.89.12c.65-.16,1.3-.32,1.96-.48,9.71.13,19.42.26,29.12.39,1.25-.15,2.5-.3,3.75-.46,5.71-.33,11.42-.66,17.12-.99,1.59-3.41,3.17-6.81,4.76-10.22-2.49.62-4.98,1.25-7.48,1.87Z"/><path class="cls-1" d="m614.78,873.08c-.51-3.32-1.02-6.63-1.53-9.95.04-3.24.08-6.49.12-9.73-.09-.4-.03-.77.2-1.11.21-2.87.43-5.73.64-8.59-.15-1.58-.3-3.16-.45-4.74-.11-.85-.23-1.69-.35-2.53-.03-2.07-.06-4.15-.09-6.23-.19-.07-.38-.16-.57-.25.02-1.08.04-2.15.05-3.23.07-1.95.14-3.91.22-5.86-.09-.45-.18-.89-.26-1.33-.11-3.74-.23-7.49-.34-11.24.09-1.17.19-2.33.28-3.49-.12-3.56-.24-7.13-.37-10.69-.14-.91-.28-1.82-.42-2.73-.25-2.06-.57-4.11-.72-6.17-.34-4.53-.61-9.06-.9-13.59v-2.37c-.24-5.01-.29-10.03-.85-15-.16-1.33-1.88-2.48-2.88-3.71-5.84-.27-11.68-.54-17.53-.8-7.6-.73-3.76,5.5-5.19,8.53.18.65.36,1.3.55,1.95.26,9.75.53,19.49.79,29.24.01,2.45.02,4.9.03,7.35-.07,5.7-.15,11.39-.23,17.08l-.4-.19c-.14.66-.27,1.33-.41,1.99-.66-.71-1.31-1.43-1.97-2.15-1.24-2.98-2.49-5.96-3.74-8.94-.24-.43-.49-.85-.73-1.28-2.15-3.11-4.31-6.22-6.46-9.33-.26-1.93-.52-3.85-.78-5.78-.31-.55-.61-1.1-.91-1.66-.9-2.9-1.81-5.81-2.71-8.72-.26-.44-.52-.89-.77-1.33-1.44-2.01-2.89-4.02-4.33-6.02-.13.6-.26,1.2-.39,1.8h-.01c.14-.6.27-1.2.4-1.8-.63-2.22-1.26-4.43-1.89-6.65-.21-.48-.42-.96-.64-1.44q-3.77-10.67-15.42-11.38c-.59-.04-1.18-.1-1.78-.15-2.1.28-4.38.17-6.26.98-1.65.71-2.86,2.44-4.27,3.73-.28,3.48-.56,6.96-.83,10.45.08.48.17.97.26,1.45.05,2.08.11,4.15.17,6.22.36,6.16.72,12.33,1.08,18.49.14,6.04.28,12.08.43,18.12-.02,7.31-.04,14.62-.06,21.93.46,14.24.92,28.49,1.38,42.73.37,7.72.73,15.44,1.09,23.16-.17,2.58-.35,5.16-.52,7.74,1.05,1.93,2.1,3.86,3.16,5.79,2.15,1.07,4.3,2.15,6.45,3.22.84-.16,1.69-.32,2.53-.49,3.63-.37,7.27-.74,10.9-1.11.9-.04,1.8-.08,2.7-.12.58-.02,1.17-.04,1.76-.06.68-1.1,1.36-2.2,2.05-3.3-.22-1.62-.45-3.25-.67-4.88.3-1.19.59-2.38.89-3.57.1-.76.2-1.52.3-2.28.18-3.03.36-6.06.54-9.1-.15-.6-.29-1.2-.44-1.8.02-.84.04-1.68.06-2.51-.08-2.35-.17-4.69-.25-7.04-.29-6.13-1.21-12.32-.65-18.37.38-4.11-.59-6.4-4.02-8.05.61-1.5,1.22-3,1.83-4.51,1.03-.22,2.06-.44,3.09-.67.09.35.13.7.12,1.06.45.43.91.86,1.36,1.29.26,1.22.52,2.44.78,3.66.56.94,1.13,1.89,1.7,2.84.3.84.6,1.68.9,2.52.1.69.2,1.38.29,2.07.7,1.33,1.4,2.66,2.08,3.99,0-.01-.03-.02-.04-.02,2.33,5.13,4.68,10.25,7.02,15.38,2.33,3.5,4.67,7,7,10.49.25.48.5.95.75,1.42.63,2.12,1.26,4.24,1.9,6.36,1.35,2.96,2.7,5.92,4.05,8.89,3.11.76,6.22,1.53,9.33,2.3.8-.17,1.59-.33,2.39-.49,2.51-.12,5.01-.24,7.52-.36.36-.22.73-.24,1.11-.07.36-.14.74-.21,1.13-.2.2-1.58.4-3.16.6-4.74.2-8.88.4-17.75.6-26.63-.18-1.23-.37-2.46-.55-3.69Z"/><path class="cls-1" d="m460.52,689.19c-.43-.53-.86-1.06-1.28-1.6l-9.21-.54c-.58.17-1.17.34-1.75.5-4.51.34-9.03.68-13.55,1.02-1.6-.16-3.2-.32-4.81-.48-1.83-.09-3.66-.17-5.49-.26-.56.12-1.13.24-1.69.36-2.25.01-4.49.02-6.74.03-2.28-.31-4.56-.62-6.84-.93.31-6.01.62-12.02.94-18.03-.13-.26-.29-.5-.37-.77-.02-.09.14-.24.22-.37-.52-4.6-1.04-9.21-1.56-13.82.2-1.76.4-3.51.64-5.73,2.47-.08,4.8-.17,7.13-.25,1.93.09,3.87.18,5.8.27,11.53-.33,23.07-.67,34.6-1,.51-2.03,1.31-4.04,1.46-6.1.46-6.26.66-12.53.97-18.8-.1-.5-.21-1-.31-1.49-.07-1.28-.13-2.55-.19-3.82-6.24-.65-12.49-1.84-18.73-1.84-9.57,0-19.13,1.01-28.69,1.09-1.38.01-3.9-2.69-3.98-4.23-.27-5.54.52-11.12.42-16.68-.05-2.85-1.11-5.7-1.71-8.54,2.34-1.72,4.61-4.78,7.03-4.91,8.85-.47,17.76.43,26.62.05,5.85-.25,11.65-1.81,17.47-2.79-.32-1.62-.64-3.24-.96-4.87,0-.84.02-1.68.03-2.52.5-7.22.99-14.45,1.49-21.68-1.96-.37-3.91-.74-5.86-1.11-2.04-.16-4.07-.32-6.11-.47-1.94-.12-3.87-.23-5.81-.35-.85.1-1.69.2-2.54.3-13-.08-26-.15-39-.23-1.23-.02-2.45-.03-3.67-.05-2.42-.04-4.83-.09-7.25-.14-4.46.93-9.9-3.74-13.44,2.37.03,5.81.05,11.62.08,17.43.02.68.04,1.36.06,2.03-.01,3.61-.02,7.22-.04,10.83.07,6.12.14,12.23.2,18.35.48,7.91.96,15.82,1.44,23.73.25,1.08.49,2.16.74,3.25-.17.38-.35.77-.52,1.15-.24,6.43-.49,12.86-.73,19.29.25.44.5.88.76,1.33-.01.43-.01.86-.01,1.28.02,7.29.03,14.57.05,21.85.34,4.49.69,8.98,1.04,13.47.19,4.89.38,9.77.57,14.66-.03,4.05-.07,8.09-.1,12.14-.1.8-.19,1.6-.28,2.4-.03.77-.05,1.54-.08,2.31.27.46.54.92.81,1.38.03.42.05.84.08,1.26.25.82.5,1.64.74,2.46.75.96,1.51,1.91,2.26,2.87,1.94.79,3.88,2.24,5.83,2.24,6.1-.01,12.2-.57,18.31-.91.43-.23.86-.46,1.29-.69.83.06,1.65.12,2.47.18.8.07,1.6.14,2.41.22,2.64.17,5.29.34,7.94.52.97-.15,1.94-.29,2.92-.44,3.71-.41,7.42-.82,11.14-1.23,1.2.09,2.41.17,3.61.26,4.84.17,9.68.33,14.53.5,1.21,0,2.42-.01,3.64-.02.39.19.77.38,1.16.57.42-.14.84-.28,1.26-.42,2.71.67,3.71-.21,2.68-2.95.15-10.96.31-21.92.46-32.89Z"/><path class="cls-1" d="m567.26,578.36s-.04,0-.06,0c0,.02-.01.03-.02.04,0,0,.08-.05.08-.05Z"/><path class="cls-1" d="m369.83,663.35l-.93-6.18c-.51-2.1-1.03-4.19-1.55-6.29-2.39-4.29-4.78-8.59-7.16-12.88-.3-.44-.59-.88-.88-1.33-.18-.32-.23-.67-.15-1.04-.52-1.75-1.04-3.5-1.55-5.25.5-.76,1.01-1.53,1.52-2.3.36-.37.71-.74,1.07-1.11,1.51-3.05,3.02-6.1,4.52-9.16.56-1.16,1.11-2.33,1.66-3.49.23-.34.46-.67.7-1.01-.01-.68-.02-1.36-.02-2.04.23-2.61.46-5.21.69-7.81.18-.37.37-.74.55-1.12-.01-.37.15-.64.48-.81-.34-1.78-.67-3.57-1.01-5.36.12-.71.24-1.41.36-2.12-.34-.95-.69-1.9-1.03-2.85-.43-1.21-.86-2.43-1.29-3.64-.54-1.71-1.07-3.43-1.61-5.14.09-.79.18-1.58.27-2.37l-.46.1c.15-1.01.3-2.01.44-3.01-.92-1.14-1.85-2.28-2.78-3.41-.81-1.57-1.61-3.14-2.42-4.71-2.42-3.8-4.77-7.23-10.03-8.02-2.42-.36-4.41-3.54-6.6-5.44-1.35-.42-2.71-.85-4.06-1.27l-.32.11-.25-.24c-.4-.15-.8-.31-1.2-.46-.4-.36-.79-.71-1.19-1.07-3.1-.83-6.2-1.66-9.3-2.49-.42.08-.84.16-1.27.24-1.57-.31-3.15-.62-4.73-.93-8.03.14-16.06.27-24.08.41-.05.26-.14.51-.28.73-.81-.15-1.63-.31-2.45-.46-2.04.13-4.07.26-6.11.4-2.01-.2-4.01-.4-6.02-.6-4.54.38-9.09.75-13.64,1.13-.24,2-.49,3.99-.74,5.99-.13,1.96-.26,3.93-.39,5.89.15.43.31.86.46,1.28.08,1.64.17,3.27.25,4.91.16,1.27.31,2.54.47,3.8.21.32.23.64.07.98.28.18.56.36.85.52-.11.72-.22,1.43-.33,2.15.01,9.28.02,18.56.04,27.83.09.89.18,1.77.28,2.65-.01.79-.03,1.59-.04,2.38.16.4.32.79.48,1.18.11,9.28.22,18.56.33,27.84.26.1.51.22.74.36-.01.81-.01,1.61-.02,2.42,0,2.43,0,4.86.01,7.3-.05,6.79-.09,13.59-.14,20.39-.01,1.3-.02,2.59-.03,3.89.25,2.02.5,4.05.75,6.07.13,1.26.27,2.52.41,3.78-.02,6.8-.04,13.6-.05,20.4-.08,1.31-.16,2.62-.24,3.93l.45-.13c.25,1.28.5,2.56.75,3.84.21,2.87.03,5.85.8,8.57.34,1.23,2.54,1.95,3.9,2.9.74.09,1.48.17,2.23.26.83.06,1.66.11,2.49.17,2.14.79,4.27,2.21,6.42,2.26,7.71.17,15.43-.12,23.15-.23.98-.13,1.96-.26,2.95-.4,16.28,3.05,28.93-3.19,39.27-15.35,1.01-.69,2.02-1.37,3.02-2.05,1.28-1.09,2.56-2.18,3.84-3.27.29-2,.57-4.01.85-6.01-.12-.37-.11-.74.03-1.1.38-.02.76.01,1.13.1.9-.7,1.8-1.39,2.7-2.08.54-.76,1.09-1.52,1.64-2.28.22-2.02.44-4.05.67-6.07-.09-.42-.18-.83-.27-1.25.48-.36.96-.73,1.43-1.1.61-4,1.22-8,1.82-12,.14-1.55.28-3.1.42-4.64-.25-1.26-.49-2.53-.74-3.79Zm-35.83,13.2c-1.02,5.73-4.07,9.17-8.52,10.44-5.88,1.69-12.25,1.75-18.44,2.08-1,.06-3-2.07-3.04-3.24-.38-11.17-.44-22.35-.61-34.65,7.1.26,12.9.18,18.64.77,6.1.62,10.06,5.89,11.22,11.78.85,4.34,1.59,8.13.75,12.82Zm-1.71-70.78c-.09.35-.53.6-.73.94-1.57,2.7-2.78,7.44-4.74,7.78-7.44,1.25-15.11,1.17-22.7,1.31-.81.01-2.35-1.85-2.35-2.85.03-9.91.31-19.82.5-28.49,7.59.24,13.62.42,19.65.63,6.03.22,10.51,4.25,12.71,8.65,1.45,2.9-1.39,7.95-2.34,12.03Z"/><path class="cls-1" d="m645.48,464.6c-.09-.91-.17-1.81-.25-2.72-.08-.4-.15-.8-.23-1.21-.19-2.81-.38-5.61-.57-8.42-.22-.84-.45-1.68-.67-2.52.13-.39.27-.78.4-1.17.1-.75.2-1.51.3-2.26-.12-.44-.24-.89-.36-1.33.07-.82.15-1.63.23-2.44.04-.77.09-1.54.13-2.3.03-.89.06-1.77.08-2.66-.08-.86-.16-1.73-.25-2.6.02-.71.04-1.42.06-2.12.17-.41.34-.81.51-1.21-.17-.38-.16-.76.02-1.13-.24-.94-.48-1.87-.73-2.81-.16-.36-.23-.74-.21-1.13-.17-2.81-.34-5.61-.52-8.41-.61-3.71-1.23-7.43-1.85-11.15-1.41-3.27-2.83-6.55-4.24-9.83-2.71-3.15-5.41-6.3-8.12-9.44-.87-.67-1.74-1.34-2.61-2.01-3.51-1.21-7.02-2.41-10.53-3.61-1.64-.37-3.28-.74-4.91-1.11-3.52-.64-7.03-1.29-10.55-1.93-1.19.03-2.38.07-3.57.11-5.28.13-10.58.05-15.85.47-4.6.37-9.16,1.29-13.75,1.96-3.26.48-6.53.95-9.8,1.43l-.43.15-.45-.06c-1.04.63-2.08,1.26-3.12,1.88-.18,1.6-.36,3.2-.54,4.8.18,1.64.37,3.29.56,4.93-.07,1.6-.14,3.2-.21,4.8.25,1.25.5,2.5.75,3.74-.06.83-.12,1.66-.18,2.49-.06,7.65-.12,15.31-.18,22.96.23,1.26.46,2.51.69,3.77.22,1.66.43,3.32.65,4.98.15.78.31,1.55.46,2.33.01,1.25.02,2.5.02,3.75-.28,6.42-.56,12.83-.84,19.24.27.46.53.92.8,1.38-.11,2.01-.22,4.01-.33,6.02.45,2.9.9,5.79,1.35,8.69-.18,4.44-.36,8.88-.54,13.32-.2,1.62-.39,3.24-.59,4.85,1.2,7.41,2.39,14.82,3.59,22.23.93,1.24,1.86,2.47,2.79,3.71,5.13-.24,10.26-.47,15.39-.71,5.67-.02,11.35-.04,17.02-.06,1.21.07,2.42.14,3.62.22,3.21-.2,6.42-.39,9.62-.58,4.32-1.81,8.64-3.62,12.96-5.42.4-.08.8-.16,1.2-.24,1.62-.95,3.25-1.9,4.88-2.84.31-.57.62-1.15.93-1.72.01,0,.09-.06.09-.06,3.2-2.67,6.4-5.35,9.61-8.03.09-.75.18-1.49.27-2.24.31-.59.62-1.19.93-1.79.68-.25,1.37-.5,2.05-.76,1.19-3.36,2.38-6.72,3.57-10.07.47-7.65.94-15.3,1.41-22.95.2-.38.21-.77.04-1.16Zm-29.28,9.92c-.34,6.31-2.35,14.21-10.08,17.49-1.24.1-2.49.2-3.74.3-.77.05-1.54.09-2.32.14-9.1.29-9.59.34-10.45-8.58-.91-9.44-.87-18.98-1.04-28.49-.2-10.56.45-21.23-5.08-30.91.53-4.77,1.07-9.55,1.7-15.18,5.63.19,11.12.69,16.59.46,6.73-.28,9.15,3.86,10.46,9.26,1.04,4.27,2.13,8.61,2.4,12.97.86,14.18,2.32,28.43,1.56,42.54Z"/><path class="cls-1" d="m658.29,560.83c0-1.13,0-2.26.01-3.39-.11-.47-.22-.93-.33-1.4-.93-4.57-1.86-9.13-2.79-13.7-2.32-.86-4.64-1.71-6.95-2.57-2.07.38-4.14.75-6.21,1.13-3.23-.1-6.45-.2-9.68-.3-2.04.18-4.09.37-6.14.56-3.76-.04-7.52-.13-11.28-.09-10.02.09-20.04.23-30.06.35-2.04.17-4.09.33-6.13.49-1.6-.06-3.2-.12-4.8-.18-1.99.24-3.99.48-5.98.73l.06-.12c-.51.23-1.02.45-1.53.68-.37.08-.76.11-1.14.09-1.74,1.44-3.47,2.87-5.21,4.31-.22-.08-.44-.13-.68-.15.14.39.12.77-.08,1.14l-.36,4.89c-.33,3.61-.67,7.22-1,10.82,1.1,4.64,2.2,9.27,3.31,13.9,1.2.14,2.4.27,3.6.41.76-.02,1.52-.04,2.28-.07.08-.29.18-.58.29-.86.35.14.69.3,1.02.47,5.25.49,10.5.97,15.74,1.46,2.06-.25,4.11-.49,6.16-.74-.29,1.99-.57,3.99-.86,5.98-.4,4.57-.79,9.15-1.19,13.72.2.65.4,1.3.6,1.95,1.47,3.48,2.95,6.96,4.42,10.44.17.77.34,1.55.5,2.32-.15.39-.29.78-.44,1.17-.02,1.21-.04,2.42-.06,3.63-.07.97-.14,1.93-.21,2.89.16.65.33,1.29.5,1.94-.05,1.85-.1,3.71-.15,5.56.13.98.25,1.97.38,2.95.02,2.1.05,4.2.07,6.31.12.77.23,1.55.35,2.33-.16.81-.31,1.62-.47,2.44.19.37.2.74.01,1.12.29.69.59,1.39.89,2.08.13,2.21.26,4.42.4,6.62-.23,3.6-.46,7.19-.69,10.79.34.86.67,1.73,1.01,2.59-.23.79-.45,1.57-.67,2.36.17,2.04.35,4.09.52,6.13.01,4.68.01,9.36.02,14.04.16.99.32,1.99.49,2.98.09,2.86.18,5.72.27,8.59-.13,1.2-.27,2.4-.4,3.6-.02,4.39-.04,8.79-.06,13.19,1.99.32,3.98.65,5.97.98,2.32-.5,4.64-.99,6.96-1.5.98,0,1.95-.01,2.93-.01,2.13-.11,4.27-.17,6.4-.32q10.27-.73,10.68-10.65c.02-.57.33-1.13.51-1.69.1-.73.2-1.46.31-2.2-.01-.84-.01-1.69-.02-2.54-.39-.47-.78-.94-1.17-1.4.23-.77.47-1.53.71-2.3-.41-.87-.82-1.75-1.23-2.62.2-.81.41-1.62.62-2.44.17-.65.33-1.31.5-1.96-.18-.88-.36-1.77-.54-2.65-.27-.46-.54-.93-.81-1.39.17-4.89.35-9.77.52-14.65-.34-1.27-.69-2.54-1.04-3.8.14-1.16.29-2.31.43-3.46.17-.77.34-1.53.51-2.29-.3-2.05-.65-4.09-.86-6.14-.39-3.74-.69-7.48-1.03-11.22.03-1.2.07-2.39.1-3.58,2.97-10.31-.37-20.39-1.12-30.56,0-.8-.03-1.6-.04-2.4.38-2.01.76-4.01,1.14-6.02-.14-3.22-.29-6.45-.44-9.68l-.02-.02c-.28-.42-.56-.84-.85-1.26.09-.43.17-.87.26-1.31-.34-3.23-.68-6.45-1.1-10.4,2.49.03,4.6.06,6.7.08l-.02.03c.4-.13.81-.27,1.22-.41,5.29-1.27,10.59-2.54,15.89-3.81.56-.18,1.11-.36,1.67-.53,5.95-.42,9.32-3.41,9.49-9.56-.19-.64-.39-1.27-.58-1.9Zm-41.06-15.55h0c5.52.21,11.05.42,16.58.63-5.53-.21-11.06-.42-16.59-.63Z"/><path class="cls-1" d="m427.51,652.23c7.7.18,15.41-.49,23.11-.52,3.19-.01,5.6-.35,5.94-4.12-11.53.33-23.07.67-34.6,1,1.85,1.27,3.67,3.59,5.55,3.64Z"/><path class="cls-1" d="m893.89,214.07c.93,2.98,1.86,5.97,2.8,8.95l.58,1.53c-.14.67-.28,1.33-.42,2-.04,4.88-.09,9.76-.13,14.64.63,10.46,7.42,19.95,4.85,30.91.33,1.9.66,3.81.99,5.71,1.03,1.45,2.05,2.91,3.08,4.36,0,0-.07-.05-.07-.05.35.44.71.88,1.06,1.32,1.16.09,2.33.18,3.49.26.65-6.11,1.31-12.22,1.96-18.33-.15-1-.3-2.01-.46-3.01-.33-3.77-.65-7.54-.98-11.3-.39-.79-.77-1.58-1.16-2.37.12-.82.25-1.63.37-2.45l.28-2.26c.09-1.23.17-2.46.26-3.69.1-.81.2-1.62.3-2.43-.23-2.04-.47-4.08-.7-6.12-1.36-6.65-2.72-13.29-4.08-19.94-.03-.38-.06-.76-.09-1.14.03.38.06.76.09,1.14.16-1.42.33-2.84.49-4.26-.31-.24-.61-.49-.9-.74,0,0,0,0,0,0,0-.76,0-1.53,0-2.29.14-.38.28-.77.41-1.15-1.27-3.59-3.56-4.41-6.71-2.3-2.06,1.38-3.96,2.99-5.94,4.5.06,2.87.13,5.74.19,8.61l.44-.1Z"/><path class="cls-1" d="m606.31,748.75c-5.87-1.67-11.91-6.18-17.27.98,5.84.27,11.69.54,17.53.81-.09-.6-.17-1.19-.26-1.79Z"/><path class="cls-1" d="m554.71,507.48c-.14-3.24-1.7-6.42-2.62-9.64-.78-.16-1.57-.33-2.35-.5-3.38-1.75-6.77-3.51-10.16-5.26-3.81.61-7.62,1.23-11.44,1.84-1.21.71-2.42,1.42-3.63,2.13-.88.21-1.76.43-2.64.65l-3.39-.03c-2.46-.72-4.92-1.45-7.38-2.17-.88-1.75-2.35-3.42-2.56-5.25-.99-8.68-1.8-17.39-2.36-26.11-.44-6.95-.42-13.92-.59-20.88-.18-7.56-.17-15.12-.56-22.67-.34-6.55-1.12-13.07-1.71-19.6.12-1.61.25-3.22.38-4.83-.13-.6-.26-1.21-.39-1.81-.06-1.37-.11-2.74-.17-4.1-2.18-1.19-4.36-2.37-6.55-3.55-2.8-.28-5.61-.56-8.41-.83l-.55.17-.57-.14c-.25.28-.51.56-.76.84-.55-.16-1.1-.32-1.64-.49-.47.1-.95.19-1.42.29-1.67.71-3.35,1.41-5.02,2.12-1.5.55-3.15.86-4.44,1.71-1.27.86-2.17,2.26-3.24,3.43-.18.76-.37,1.53-.56,2.3.32.86.63,1.72.94,2.58-.01-.01-.03-.02-.04-.03.05.4.15.78.32,1.15-.11.82-.22,1.64-.33,2.46.19.84.38,1.67.57,2.5.19,1.65.39,3.29.58,4.93.03,3.51-.19,7.04.12,10.52.83,9.29,1.89,18.56,2.85,27.84-.12.3-.22.6-.3.91l.49-.07c.27.59.54,1.17.81,1.76.03.65.05,1.29.08,1.93.2,1.66.4,3.32.6,4.98.06,2.04.11,4.09.16,6.13.05,7.63.09,15.26.14,22.88.23.49.46.98.69,1.46-.33,3.22-.67,6.44-1,9.66.17,2.45.34,4.9.5,7.35.29,5.28.58,10.56.87,15.84,1.31,2.98,2.63,5.95,3.94,8.93,2.15-.13,4.36,0,6.44-.45,4.06-.87,8.04-2.07,12.05-3.13.38-.21.76-.23,1.15-.04,1.95-.28,3.89-.7,5.86-.82,13.56-.85,27.13-1.63,40.7-2.44,1.82-.27,3.64-.54,5.46-.81.41-4.55,1.28-9.12,1.08-13.64Z"/><path class="cls-1" d="m562.2,682.34c-.13-.38-.26-.76-.39-1.15-.81.83-1.63,1.67-2.44,2.5.75-.06,1.51-.11,2.26-.17.19-.4.38-.79.57-1.19Z"/><path class="cls-1" d="m896.31,223.95c.32.2.64.4.96.61-.19-.51-.39-1.02-.59-1.53-.13.31-.26.61-.38.93Z"/><path class="cls-1" d="m392.71,125.14s.57-.01.57-.01c.08-.34.18-.67.3-.99-.47.27-.94.54-1.41.81l.54.19Z"/><path class="cls-1" d="m644.81,427.21c-.3-.2-.59-.41-.87-.65-.03.4.04.77.21,1.14.25-.12.47-.28.66-.49Z"/><path class="cls-1" d="m877.18,64.23c-2.41-2.33-4.82-4.67-7.24-7-.99-.59-1.99-1.18-2.98-1.77-.51-.37-1.02-.74-1.52-1.11-.2-.28-.47-.41-.82-.38-2.04-1.05-4.07-2.11-6.11-3.16-1.61-.05-3.23-.11-4.84-.16-1.58-.27-3.16-.55-4.74-.82-2.17-.3-4.34-.59-6.52-.88-2.21-.17-4.43-.34-6.64-.51-.4-.37-.8-.74-1.2-1.1l-.11-.19c-2.07-.74-4.14-1.48-6.21-2.22-2.63-.22-5.25-.44-7.87-.67-.76-.42-1.52-.83-2.27-1.25-2.43-.27-4.85-.54-7.28-.81-1.29.18-2.58.35-3.87.52-4.69-.91-9.38-1.82-14.06-2.73-.8-.08-1.6-.17-2.4-.26-3.28.14-6.56.27-9.83.41-.92.17-1.84.34-2.76.5-9.07-1.25-17.68-5.68-27.19-3.82l-6.93-3.21c-1.65.17-3.31.34-4.96.52-1.65.15-3.31.3-4.96.45-.79-.01-1.59-.02-2.38-.02-1.09.09-2.18.18-3.27.28-.94-.22-1.89-.43-2.83-.65-.23-.24-.49-.36-.79-.36-.08,0-.15,0-.23.02-1.56-.29-3.13-.58-4.7-.87-1.66-.18-3.33-.36-4.99-.55-.78-.17-1.55-.35-2.33-.52h-.56s-.54-.18-.54-.18c-2.45-.31-4.89-.62-7.34-.93-.34.11-.68.21-1.02.29-.18-.35-.35-.7-.5-1.05-1.43-.16-2.85-.31-4.27-.46-.83-.09-1.66-.18-2.49-.27-1.22.23-2.45.47-3.68.7-.85-.15-1.71-.3-2.56-.45-.77-.01-1.54-.02-2.3-.03l.23-.42c-4.51-.07-9.01-.14-13.52-.21-1.15-.46-2.3-.93-3.45-1.39-2.4-.24-4.8-.47-7.2-.71-2.16-.21-4.33-.43-6.49-.65-.65.19-1.31.38-1.96.57-1.08.01-2.17.02-3.25.03-1.36.13-2.72.26-4.09.39-2.07.31-4.15.62-6.22.93-2.02-.21-4.04-.42-6.05-.62-.67.18-1.33.37-1.99.56-8.22-.06-16.43-.12-24.64-.19-10.82-4.19-21.9-1.47-32.88-1.25-1.57-.11-3.14-.21-4.71-.32-1.77-.19-3.53-.38-5.29-.57-.65.17-1.3.35-1.95.52-5.21-.06-10.43-.12-15.64-.18-1.67.1-3.34.21-5.01.32-1.18-.02-2.36-.04-3.53-.06-.23.29-.44.58-.65.89l-.44-.11-.41.18c-.36-.15-.72-.31-1.08-.47-7.66.1-15.33.2-22.99.3-.23.29-.46.58-.68.88-.62-.19-1.23-.38-1.85-.56-.89.13-1.77.26-2.66.38-1.16-.17-2.32-.34-3.48-.51-.23.28-.46.56-.67.85-.59-.13-1.18-.27-1.76-.4-.88.14-1.76.28-2.64.42-.65.2-1.3.4-1.95.59-.57-.02-1.14-.05-1.71-.08-1.86-.14-3.72-.29-5.59-.43-1.35.12-2.71.25-4.07.37-5.55-.09-11.11-.19-16.66-.29-.51.14-1.02.28-1.52.41-2.31-.04-4.63-.08-6.94-.12-.52.11-1.05.22-1.57.33-.86.02-1.73.04-2.6.06l-.58.11-.58-.17c-.75,0-1.51-.03-2.26-.04-1.26.12-2.52.25-3.78.37-4.82.01-9.64.02-14.45.03-.22.29-.44.58-.65.88-.24-.16-.46-.33-.66-.54-.89.18-1.79.36-2.68.54-.37-.2-.75-.24-1.15-.12-.85.31-1.71.61-2.56.92-2.97-.34-5.93-.67-8.9-1.01-.64.16-1.28.33-1.91.49-5.16-.02-10.32-.03-15.48-.05-1.34.13-2.67.26-4.01.39-1.56-.07-3.12-.14-4.67-.2-.4.05-.79.1-1.18.15-4.81,1.31-9.61,2.62-14.42,3.93-3.57.16-7.13.32-10.7.48-.45.25-.91.49-1.36.73-2.79-.22-5.57-.44-8.36-.67-.66.19-1.33.39-1.99.58-1.37-.04-2.73-.08-4.09-.12-4.6-.09-9.2-.17-13.79-.26-.67.18-1.33.35-2,.52-2.33-.14-4.66-.28-6.99-.42-.99.6-1.98,1.2-2.98,1.8-.45.41-.89.82-1.34,1.23-.11.36-.24.7-.39,1.04-.68-.11-1.35-.23-2.03-.34-.86.09-1.72.17-2.58.26-.73-.16-1.46-.33-2.18-.49-.23.26-.45.54-.66.82-.19-.2-.31-.43-.38-.69-2.37.09-4.73.19-7.1.29-.57.15-1.15.31-1.73.47-.44.13-.89.27-1.33.41-1.18-.02-2.38-.19-3.53-.03-9.47,1.27-18.94,2.6-28.4,3.91-2.49.08-4.97.16-7.46.25-7.01,1.13-14.03,2.26-21.04,3.39-1.23.3-2.46.59-3.7.89-5.87-.19-11.73-.38-17.6-.56-.59.16-1.17.32-1.75.48-2.36.44-4.71.88-7.07,1.31-5.04.92-10.08,1.82-15.12,2.73-.47.19-.94.37-1.41.56-10.39,1.77-20.61,3.84-31.34,4.24-11.94.45-24.11-1.47-36.14,3.81-6.55,2.88-15.4.53-23.21.53-.44.09-.88.19-1.32.28-1.14-.01-2.28-.02-3.42-.04-5.66-.05-11.32-.11-16.97-.17-.96.17-1.91.34-2.87.5-.79.01-1.59.01-2.38.02-.39.11-.77.21-1.15.32-5.93,2.73-11.91,5.22-18.68,3.55-1.29.2-2.58.4-3.86.6-1.29.75-2.57,1.51-3.85,2.26-8.02,3.12-16.05,6.23-24.07,9.34-1.32,1.81-2.64,3.61-3.96,5.42,4.03,2.6,8.06,5.19,12.09,7.79,1.54.89,3.08,1.77,4.61,2.65,9.16,1.66,18.32,3.32,27.47,4.98.52.22,1.04.44,1.56.66,3.22,1.59,6.43,3.19,9.65,4.78,2.43-.37,4.94-1.28,7.27-.95,1.78.25,3.47,1.09,5.17,1.92.71.34,1.42.69,2.13.99,3.6.39,7.2.77,10.81,1.16.79.09,1.59.18,2.39.26.82.13,1.63.27,2.45.4.6.31,1.2.62,1.8.94,6.7.82,13.41,1.56,20.09,2.52,1.45.2,2.8,1.18,4.19,1.8,1.15.56,2.31,1.12,3.46,1.67,2.1-.63,4.19-1.26,6.29-1.9,1.09.19,2.81.01,3.18.62,3.01,5.08,7.64,4.14,12.2,3.6l-.14-.44c2.34-.13,4.71-.53,7.02-.34,3.75.32,7.47,1.03,11.2,1.58,3.61.28,7.23.56,10.84.84.39.16.77.32,1.16.48,3.46-.11,6.92-.22,10.39-.33.59-.15,1.17-.3,1.76-.45.84.03,1.68.05,2.51.08.82-.07,1.64-.14,2.45-.21,2.03-.01,4.06-.03,6.09-.04,1.6.17,3.2.35,4.8.52,8.92.02,17.85.03,26.78.05.37.18.73.35,1.1.53,2.04-.14,4.08-.28,6.12-.42,4.4.48,8.8.95,13.2,1.43,1.66-.22,3.32-.43,4.98-.65,1.22,0,2.43-.01,3.64-.02l.56.14.55-.14c.41.17.82.35,1.23.52,3.71-.16,7.43-.32,11.15-.48,1.07,1.03,2.14,2.06,3.2,3.09,2.79-.03,5.58-.05,8.36-.08.83.13,1.65.27,2.47.4,1.66-.34,3.32-.68,4.98-1.02,4.04.07,8.08.14,12.12.21,2.03-.04,4.07-.09,6.1-.14,2.44-.12,4.89-.25,7.33-.37,4.95-.46,9.9-.92,14.85-1.38,1.89.39,3.77.79,5.66,1.19.06.61.11,1.22.17,1.83,1.52.26,3.04.51,4.56.77.79.21,1.58.41,2.37.62,1.66-.41,3.32-.82,4.99-1.23,3.18.07,6.37.14,9.56.21h7.34c1.65.01,3.3.02,4.95.02,1.21.14,2.42.27,3.63.4.47-.27.94-.54,1.41-.81.75.11,1.5.22,2.26.33,1.65-.33,3.31-.66,4.97-.99,5.67-.02,11.35-.05,17.02-.07,2.02.02,4.04.05,6.07.07,1.25-.22,2.49-.44,3.74-.65.38.01.76.02,1.13.04.8.26,1.6.52,2.39.78,2.9-.56,5.8-1.12,8.69-1.68,1.21.05,2.42.1,3.63.16,4.89-.08,9.78-.15,14.66-.23,2.39.24,4.78.48,7.16.72,2.07-.42,4.14-.85,6.21-1.27l18.15-.18c.42.22.83.44,1.25.67,2.85-.14,5.7-.29,8.55-.43.49-.19.97-.39,1.46-.58.35-.13.71-.26,1.06-.39.81.02,1.63.05,2.44.07,5.27-.08,10.55-.16,15.82-.25,1.2.14,2.4.27,3.6.41,2.55-1,5.1-2,7.65-2.99,2.03-.11,4.06-.23,6.09-.34,2.05-.18,4.09-.36,6.14-.54,2.04-.17,4.09-.34,6.13-.51.8.05,1.61.09,2.41.13,2.47-.35,4.94-.7,7.4-1.06,1.66-.08,3.31-.16,4.96-.24l-.17.38c2.03.14,4.06.28,6.1.42,2.84-.1,5.69-.21,8.54-.31l.39-.13.38.17c1.8-.27,3.59-.54,5.39-.81.38.21.76.41,1.14.62,6.13-.24,12.25-.48,18.38-.72l-.18.38c3.3-.18,6.6-.37,9.9-.56.77-.25,1.53-.5,2.29-.75.43-.02.87-.04,1.3-.06,1.77-1,3.55-1.99,5.32-2.99l.56.19.57-.13c.9-.06,1.8-.12,2.69-.18.35-.12.7-.24,1.05-.36.43-.02.85-.04,1.28-.05.75,0,1.51,0,2.27.01,1.67-.02,3.35-.03,5.02-.05,1.82.1,3.64.2,5.46.3.57-.15,1.14-.29,1.71-.43,2.04.14,4.08.29,6.12.43.4-.09.81-.19,1.21-.28,2.84.05,5.69.1,8.53.16.45-.15.89-.29,1.34-.43.6-.16,1.19-.33,1.79-.49.6.15,1.19.29,1.78.44.42-.14.84-.28,1.26-.41.79.16,1.59.31,2.38.47l5.07-1.89c1.13-.03,2.26-.05,3.39-.08,1.35-.47,2.71-.95,4.07-1.42,6.09-.14,12.18-.29,18.27-.43,3.47-1.02,6.93-2.04,10.39-3.06,7.87-.62,15.73-1.23,23.6-1.85,1.82-.07,3.64-.15,5.47-.22.68-.05,1.36-.1,2.05-.15.89-3.79,3.48-4.39,6.79-3.61,3.62.16,7.24.33,10.86.5,3.47-1.41,6.93-2.81,10.39-4.21.8.04,1.59.08,2.39.12l-.04-.48c.7.13,1.41.27,2.11.4.22-.3.44-.6.67-.9,2.31.19,4.62.38,6.92.58.86-.31,1.71-.61,2.57-.92,3.77-.32,7.53-.64,11.3-.97,1.22-.63,2.45-1.27,3.68-1.9,4.09-.43,8.19-.85,12.28-1.28.54-1.14,1.07-2.29,1.6-3.43,1.18.22,2.36.44,3.53.67l-.02-.44c.8.21,1.6.43,2.4.64,1.97.09,3.95.17,5.92.25l-.02.09c.47-.41.94-.83,1.41-1.25l3.6-1.92c.22-.3.45-.59.7-.88.72.03,1.44.06,2.16.09,2.04-.16,4.07-.32,6.1-.48.86-.38,1.72-.76,2.59-1.14.38.06.76.12,1.15.17.85-.28,1.69-.57,2.54-.86.93-.56,1.86-1.12,2.8-1.68.37-.11.75-.22,1.13-.33.55-.26,1.09-.53,1.64-.79l2.22-.96c1.73-.63,3.47-1.25,5.2-1.88,1.2-.24,2.4-.49,3.61-.73,1.68-.68,3.36-1.35,5.04-2.02,1.05.07,2.11.14,3.17.21.58-.29,1.17-.58,1.75-.88.23-.35.55-.55.97-.59,1.38-.97,2.75-1.94,4.13-2.91.3-.67.6-1.34.9-2-.09-.37.01-.67.31-.89Zm-39.93,2.47c-.57.35-1.15.7-1.72,1.05-1.06-.14-2.12-.28-3.17-.43-1.68.36-3.35.72-5.03,1.08-.84.22-1.68.45-2.52.68-6.33,2.01-12.67,4.02-19,6.04-1.52.04-3.04.07-4.56.11-.07.31-.17.61-.3.9-.4-.05-.79-.02-1.17.09l-3.54-.93c-2.26,1.44-4.51,2.88-6.77,4.31-2.4.24-4.81.48-7.21.72-1.03.17-2.07.34-3.1.51-.59-.03-1.18-.05-1.76-.08-.42-.18-.84-.37-1.25-.56l-.53.15-.53-.15c-4.63.57-8.97-1.12-13.91,2.8-3.4,2.71-10.77.43-16.36.38-.57.18-1.15.35-1.72.52-10.02,4.89-20.61,5.1-31.45,4.29-2.64-.2-5.39,1.47-8.12,2.15-2.02.5-4.08.93-6.15,1.15-4.14.44-8.31.71-12.47,1.05-9.26-.09-18.5-.07-27.14,4.03-1.66-.03-3.32-.07-4.97-.1-.93.1-1.86.2-2.79.31-3.94.11-7.88.22-11.82.34-.87.18-1.74.37-2.61.55l-.51-.13-.52.15c-6.94.37-13.88.74-20.83,1.11-7,.99-14,1.98-21,2.97-.6.18-1.2.36-1.81.55-10.77.13-21.54.27-32.3.4-.87.19-1.73.38-2.6.56,0,0,.03-.06.04-.07-1.58,0-3.16,0-4.73-.01-2.04.13-4.09.26-6.13.39-1.2-.11-2.4-.22-3.6-.33-3.26.03-6.53.06-9.79.1-1.29.15-2.59.31-3.88.46-.75.01-1.49.02-2.24.03-1.01.17-2.02.35-3.03.53-.61,0-1.23.01-1.85.02-6.12-.03-12.24-.06-18.36-.09h0c-1.59,0-3.17.01-4.76.02-1.6.18-3.2.36-4.8.54-4.62,1.15-9.24,2.3-13.86,3.46-.67.21-1.34.42-2.01.63-1.38-.02-2.76-.04-4.14-.06-.67.19-1.33.38-2,.57-9.48-.06-18.97-.12-28.45-.18-.57.17-1.14.34-1.71.51-1.06-.01-2.12-.01-3.17-.02-.67.21-1.33.41-2,.61-9.08-.05-18.16-.1-27.24-.16-.84.21-1.68.42-2.52.62-1.53-.17-3.07-.34-4.6-.51-.39-.42-.78-.84-1.18-1.26-.3-.27-.61-.53-.91-.79-3.21-.16-6.42-.33-9.63-.49-.11-.01-.22-.02-.33-.02-2.84.17-5.69.33-8.53.5-4.44-.02-8.88-.05-13.32-.07-2.83,0-5.67-.01-8.5-.01-.9,0-1.8,0-2.69-.01-.39-.14-.72-.06-.98.27-4.16.21-8.33.41-12.49.61-10.05-.04-20.1-.07-30.15-.11-7.7-.49-15.41-.99-23.11-1.48l-.49-.14-.49.15c-1.3.04-2.6.08-3.91.12-3.49-.2-6.98-.4-10.48-.6-1.78-.97-3.59-2.81-5.35-2.77-14.1.31-28.19.97-42.28,1.53-8.14.08-16.29.17-24.43.26-.34.03-.68.06-1.03.09-1.42-.21-2.84-.42-4.26-.62h-.01c-6.14-.64-12.29-1.28-18.44-1.91l.03-.02c-1.75.19-3.51.37-5.26.56h-2.06c-1.61-.56-3.21-1.24-4.82-1.85-1.61-.6-3.23-1.12-4.89-1.37-3.67-.55-7.51.11-11.26-.08-2.42-.13-4.83-.74-7.21-1.3-1.92-.45-3.76-1.36-5.69-1.69-13.75-2.4-27.5-4.76-41.27-7.07-2.32-.4-4.64-.78-6.96-1.17-7.27-1.22-14.6-2.1-21.84-3.49-1.54-.29-2.78-2.12-4.16-3.24,1.53-1.24,3.36-3.8,4.56-3.53,10.93,2.44,21.22-1.24,31.67-2.86,1.91-.3,3.82-.53,5.74-.64,17.51-1.01,35.1-.65,52.63-1.42,6.67-.3,13.24-2.45,19.92-3.14,7.95-.83,15.99-.81,23.96-1.52,5.05-.44,10.04-1.6,15.07-2.33,5.75-.84,11.57-1.28,17.25-2.41,4.97-.98,9.79-2.69,14.68-4.08h.01c1.74-.01,3.48-.03,5.21-.05,2.81.29,5.61.57,8.42.85,5.39-1.02,10.79-2.04,16.19-3.06.58-.22,1.15-.43,1.73-.64,4.34-.47,8.68-.93,13.02-1.39,5.47-.02,10.95-.05,16.43-.07,1.02-.02,2.04-.04,3.06-.06,1.04-.18,2.08-.36,3.12-.54,2.71-.89,5.43-1.78,8.14-2.68.82-.04,1.63-.08,2.45-.12,2.87-.38,5.75-.76,8.63-1.14,6.06.15,12.12.3,18.18.46,1.24.04,2.49.08,3.73.13.5-.15,1-.29,1.5-.44.31.18.61.15.9-.07.8-.31,1.61-.61,2.42-.91,8.01-1.14,15.98-2.63,24.03-3.33,6.71-.59,13.5-.26,20.25-.34,1.04-.18,2.08-.36,3.12-.54,1.4.01,2.79.03,4.19.04,6.89-.02,13.78-.05,20.67-.08,2.05-.15,4.11-.3,6.16-.45,1.02-.19,2.05-.37,3.07-.56,1.01.01,2.02.01,3.03.02,8.09.06,16.19.13,24.28.19,1.25-.21,2.49-.43,3.74-.64.78.03,1.56.06,2.34.08.95-.11,1.89-.23,2.84-.34.31-.11.63-.16.96-.16.39.18.78.18,1.17.01,7.7.01,15.39.02,23.08.04,1.66-.22,3.31-.43,4.96-.65.38.02.76.04,1.14.06,2.06-.16,4.11-.32,6.17-.47,8.34-.17,16.68-.33,25.01-.49,3.45-.17,6.89-.34,10.33-.5,7.28.01,14.55.03,21.82.04,4.12-.32,8.24-.63,12.35-.95.67-.2,1.33-.41,2-.61.56.02,1.11.05,1.67.07,4.06.11,8.12.21,12.18.32,10.08-.15,20.16-.3,30.24-.46l2.37,1.29c1.59.53,3.19,1.05,4.78,1.58.63-.18,1.26-.35,1.88-.53,1.83-.17,3.65-.35,5.48-.52,6.06.12,12.12.23,18.17.35,13.2,1.17,26.4,2.33,39.6,3.49,3.01.68,6.02,1.35,9.04,2.03.23-.32.49-.63.76-.92.33.17.64.34.96.52,4.84.47,9.69.93,14.53,1.39.65.05,1.31.1,1.97.15,1.7.62,3.39,1.25,5.09,1.88,1.36-.3,2.73-.59,4.09-.89,4.24.46,8.48.92,12.72,1.37.8.52,1.6,1.05,2.4,1.57,1.2.14,2.4.29,3.6.43.78-.09,1.57-.17,2.36-.26,1.22.18,2.45.37,3.68.56,2.4.23,4.81.46,7.21.69.8.09,1.61.18,2.41.26.79.3,1.59.6,2.39.9.75.11,1.49.22,2.24.32.85-.08,1.7-.16,2.55-.25,2,.21,4,.42,6,.64,2.4.23,4.81.46,7.22.68.83.08,1.66.15,2.49.22,3.58.36,7.15.71,10.73,1.06,1.23-.07,2.46-.13,3.68-.2.8.02,1.59.04,2.38.07,4.77.91,9.53,1.83,14.3,2.75.78.22,1.57.44,2.36.66.48-.31.96-.61,1.43-.91,1.55.45,3.09.91,4.63,1.37.13.38.26.75.38,1.13-.28.77-.56,1.54-.85,2.32Z"/><path class="cls-1" d="m690.17,28.68c-.25.3-.51.59-.79.87.86.15,1.71.3,2.57.45,1.23-.23,2.45-.46,3.68-.69-1.82-.21-3.64-.42-5.46-.63Z"/><path class="cls-1" d="m479.64,45.42l.46-.33c-.33,0-.65.05-.97.16,0,0,.5.17.5.17Z"/><path class="cls-1" d="m509.88,44.68l.58-.13c-.38-.02-.76-.04-1.14-.06l.56.19Z"/><path class="cls-1" d="m289.36,107.47c7.7.49,15.41.98,23.11,1.48-7.48-3.99-15.29-2.79-23.11-1.48Z"/><path class="cls-1" d="m428.2,122.99l.57-.13c-.38-.01-.75-.03-1.13-.04l.56.17Z"/><ellipse class="cls-1" cx="456.9" cy="94.07" rx="298.66" ry="17.57" transform="translate(-3.55 19.26) rotate(-2.41)"/></svg>