<?xml version="1.0" encoding="UTF-8"?>
<svg id="Layer_1" data-name="Layer 1" xmlns="http://www.w3.org/2000/svg" viewBox="0 0 64.7 60.99">
  <defs>
    <style>
      .cls-1 {
        fill: #39a3bc;
      }
    </style>
  </defs>
  <g id="Qrp0Ka">
    <g>
      <path class="cls-1" d="M10.58,42.26h43.53v-25.75c0-1.1-1.25-2.49-2.28-2.8-.89-.27-2.28.03-2.31-1.43-.03-1.14,1.15-1.36,2.04-1.27,2.95.3,5.16,3.06,5.15,5.98l.02,25.97c.06.16.21.24.32.35,2.04,1.99,4.9,3.68,6.99,5.66.37.35.58.55.63,1.1.26,2.75-.93,5.13-3.72,5.78-19.04.2-38.15.2-57.19,0-2.12-.45-3.56-2.18-3.72-4.33-.04-.58-.08-1.62.21-2.1l7.73-6.46.02-25.87c-.02-2.57,1.58-5.04,4.05-5.82,1.05-.34,3.26-.6,3.14,1.12-.09,1.37-1.52,1.06-2.39,1.36-1.02.34-2.21,1.68-2.21,2.78v25.75ZM5.02,48.78h54.66l-4.85-3.9-44.97.02-4.84,3.89ZM62.07,51.37H2.62c.06,1.13.94,1.96,2.06,2.02h55.14c1.21,0,2.18-.78,2.25-2.02Z"/>
      <path class="cls-1" d="M49.42,19.92h-2.59c.03-1.87-.41-3.73-1.05-5.47h-5.75l.39,4.79,6.68,1.61c1.8.84,2.15,3.09.6,4.39-.44.37-1.03.6-1.47.92-.08.06-.19.08-.15.22.06.28,3.52,3.42,4.03,4.03.81.98,1.11,2.21.37,3.34-.32.49-4.12,4.24-4.56,4.45-2.14,1.04-3.25-.78-4.53-2.04-.87-.85-1.77-1.68-2.64-2.54-.59.75-.91,1.74-1.76,2.27-1.31.81-3.04.26-3.71-1.12l-1.73-6.81h-3.6c.34,1.86,1.61,5.06,3.27,6.08.4.25.74.3,1.14.49v2.45c-7.84.17-14.97-5.6-16.66-13.21C12.88,11.1,24.47.05,36.99,3.53c7.26,2.02,12.47,8.81,12.43,16.39ZM36.76,11.87c-.29-1.87-2.21-6.44-4.46-6.43-1.01,0-2.07,1.25-2.58,2.02-.88,1.33-1.36,2.86-1.87,4.36l8.91.05ZM20.51,11.87c1.58-.07,3.17.05,4.75,0l.89-3,1.18-2.47c-2.82,1-5.27,2.96-6.95,5.42-.02.29.1.05.14.05ZM44.33,11.96c.09-.12-.67-1.08-.81-1.25-1.55-1.91-3.8-3.44-6.09-4.31.83,1.76,1.66,3.53,2.02,5.46l4.89.1ZM24.68,14.45h-5.75c-1.36,3.46-1.49,7.51.05,10.93h5.71c-.3-2.3-.44-4.62-.38-6.95l.38-3.98ZM37.81,18.58c-.12-1.12-.12-2.27-.3-3.39-.03-.19-.06-.66-.24-.72l-9.92.03c-.52,2.36-.48,4.79-.47,7.2l.4,3.68h3.73s-1.25-5.4-1.25-5.4c.14-1.83,1.42-2.73,3.21-2.53l4.85,1.14ZM45.96,23.18l-13.62-3.16,3.26,13.61,2.65-4.12,6.43,6.32,3.58-3.51-.08-.18-6.33-6.18,4.12-2.78ZM25.11,27.98h-4.75c.19.49.65,1.03,1.01,1.44,1.6,1.83,3.64,3.21,5.9,4.12-.32-.85-.8-1.62-1.13-2.47-.39-1.01-.62-2.11-1.03-3.09Z"/>
    </g>
  </g>
</svg>