<?xml version="1.0" encoding="UTF-8"?>
<svg id="Layer_1" data-name="Layer 1" xmlns="http://www.w3.org/2000/svg" viewBox="0 0 55.03 60.99">
  <defs>
    <style>
      .cls-1 {
        fill: #39a3bc;
      }
    </style>
  </defs>
  <path class="cls-1" d="M20.66,60.99c-.31,0-.6-.01-.89-.03-2.72-.16-5.33-1.09-7.54-2.69-.03-.02-.05-.04-.08-.06-.04-.02-.1-.07-.14-.09l-.26-.2c-2.99-2.36-4.9-5.73-5.38-9.48-.08-.6-.12-1.22-.12-1.84,0-.73.06-1.48.18-2.23h0s0-.06.02-.09c.09-.47.46-.84.95-.91l.24-.04c.12-.02.25-.02.37,0,.03,0,.06,0,.08.02.26.06.48.22.63.42.03.04.06.09.09.13h0c.13.23.17.5.12.77h0s0,0,0,0h0s0,0,0,0h0s0,.07-.02.12c-.09.53-.13,1.14-.13,1.79,0,.56.03,1.05.09,1.5.4,3.12,1.97,5.89,4.44,7.83.12.1.18.15.23.19.01,0,.04.02.06.04.06.03.11.07.17.13,1.81,1.29,3.94,2.04,6.16,2.17.58.05,1.15.03,1.73-.02,2.86-.24,5.54-1.52,7.53-3.59.03-.03.07-.07.11-.1.12-.13.2-.21.27-.3.15-.18.26-.3.37-.45.25-.31.48-.63.69-.95.07-.1.12-.18.17-.26l.14-.23c1.04-1.77,1.59-3.85,1.59-5.96v-5.87h0c0-.64.49-1.17,1.15-1.14h.11c.32-.05.64.05.88.27.24.21.38.52.38.84v5.9c0,2.56-.68,5.07-1.96,7.26-.11.2-.24.41-.38.6-.21.33-.49.72-.8,1.11-.14.17-.27.33-.4.48-.12.14-.23.26-.35.39-.05.05-.09.1-.15.16-2.43,2.52-5.68,4.06-9.15,4.35-.41.03-.81.05-1.21.05Z"/>
  <g id="_5Qx3dt" data-name="5Qx3dt">
    <g>
      <path class="cls-1" d="M27.49,5.04c.18.18.39.51.56.72l3.54,7.88c.16.17,1.09-.09,1.4-.09.87,0,2,.36,2.75.79,3.7,2.07,4.01,7.29.58,9.74l3.42,7.85c1.22,3.93-3.63,6.45-6.18,3.22-3.32-.62-6.86-1.94-10.27-1.73-.29.02-.56.13-.86.09.58,1.18.81,2.25.26,3.5-.52,1.19-1.64,1.79-2.81,2.2l3.98,8.99c1.44,4.15-3.82,6.71-6.21,3.18l-6.06-13.49c-.18-.11-1.37.56-1.64.66-2.47.92-5.37.27-6.93-1.93-.77-1.09-2.88-5.85-2.99-7.11-.24-2.63,1.12-4.76,3.41-5.93,3.22-1.64,7-2.79,10.13-4.57,4.2-2.39,5.77-6.64,8.12-10.59-.82-3.36,3.3-5.78,5.81-3.38ZM24.79,6.43c-.46.1-.86.62-.88,1.09-.02.44.53,1.51.73,1.98,3.46,8.1,7.3,16.04,10.75,24.14.72,1.22,2.43.57,2.23-.75-.07-.48-.96-2.22-1.21-2.81-3.29-7.54-6.78-15-10.04-22.55-.25-.7-.76-1.27-1.57-1.1ZM22.92,11.25c-.15-.03-.16.04-.23.14-.89,1.17-1.67,3.02-2.49,4.32-1.45,2.29-3.38,4.25-5.81,5.48l4.76,10.75c.6-.18,1.2-.38,1.82-.52,2.01-.44,3.97-.43,5.99-.11,1.77.28,3.55.82,5.32,1.12l-9.36-21.18ZM35.4,21.92c.24-.43.58-.78.76-1.26.92-2.42-.98-4.95-3.55-4.74l2.62,5.94.17.05ZM12.33,22.26l-.48.12c-2.38,1.24-5.22,2.09-7.56,3.36-1.18.65-1.98,1.82-1.98,3.2,0,1,1.53,4.23,2.05,5.27.9,1.81,2.31,2.9,4.44,2.28,2.54-.73,5.34-2.66,7.92-3.5l.28-.19-4.67-10.55ZM18.9,37.11c1.77-.56,2.28-1.39,1.18-3.04l-2.09.82.9,2.21ZM15.68,35.98c-.14.02-1.67.72-1.82.82-.06.04-.14.06-.1.16l5.86,13.19c.8,1.28,2.61.29,2.07-1.09l-5.83-13.06c-.06-.05-.12-.03-.19-.02Z"/>
      <path class="cls-1" d="M41.18,7.94c-.33-.3-.49-1.07-.24-1.46,1.34-1.76,2.53-3.65,3.87-5.41.23-.3.52-.8.85-.95,1.09-.5,2.06.57,1.52,1.61-1.49,1.8-2.75,4.27-4.28,5.98-.44.5-1.2.71-1.73.23Z"/>
      <path class="cls-1" d="M46.11,22.2c.34-.34.85-.31,1.29-.24,2.16.37,4.69,1.67,6.89,2.14,1.23.52.84,2.27-.51,2.24l-7.29-2.24c-.74-.37-.99-1.29-.38-1.9Z"/>
      <path class="cls-1" d="M51.64,10.78c1.3-.21,1.96,1.35.87,2.1l-7,3.01c-1.25.32-1.96-1.36-.94-2.08l7.07-3.03Z"/>
      <path class="cls-1" d="M10.5,25.65c1.12,0,1.58,1.33.76,2.06l-4.84,2.15c-1.16.18-1.81-1.32-.9-2.06,1.44-.57,3.01-1.55,4.45-2.03.15-.05.37-.12.52-.12Z"/>
      <path class="cls-1" d="M12.23,29.91c.6-.08,1.28.39,1.34,1.01.06.68-.25.97-.79,1.26-.68.37-3.59,1.73-4.21,1.86-1.39.29-2.09-1-1.15-1.97l4.82-2.17Z"/>
    </g>
  </g>
</svg>