<?xml version="1.0" encoding="UTF-8"?><svg id="Camada_1" xmlns="http://www.w3.org/2000/svg" viewBox="0 0 3169.4 879.93"><defs><style>.cls-1{fill:#00586a;}.cls-2{fill:#00a5be;}.cls-3{fill:#fff;}.cls-4{fill:#fcb01f;}.cls-5{opacity:.15;}.cls-6{opacity:.25;}</style></defs><path class="cls-3" d="m808.48,125.28v282c0,73.08-19.7,141.54-54.18,200.36-3.09,5.3-6.31,10.56-9.69,15.68-7.06,10.9-14.65,21.41-22.74,31.56-3.88,4.82-7.86,9.6-11.97,14.24-2.95,3.4-5.96,6.72-9.07,9.99-1.26,1.37-2.54,2.74-3.86,4.09-64.92,67.3-153.42,111.65-252.16,119.9-11.04.91-22.21,1.39-33.5,1.39-8.14,0-16.18-.23-24.15-.75-77.42-4.64-148.9-31.44-208.03-74.24-.57-.41-1.14-.8-1.69-1.21-1.28-.91-2.56-1.85-3.82-2.81-2.67-1.94-5.28-3.95-7.86-6.03-79.77-62.86-134.89-155.61-148.37-261.37-2.13-16.64-3.22-33.57-3.22-50.77,0-20.86,1.6-41.34,4.71-61.33,13.21-85.1,53.45-161.28,111.65-219.48C202.34,54.63,301.65,10.16,411.31,10.16h282.05c63.55,0,115.12,51.53,115.12,115.12Z"/><g class="cls-6"><path class="cls-1" d="m411.31,810.64c-8.58,0-16.53-.25-24.3-.76-75.6-4.53-147.93-30.35-209.15-74.65l-.65-.46c-.37-.26-.73-.52-1.09-.79-1.24-.88-2.54-1.84-3.83-2.82-2.52-1.83-5.13-3.83-7.91-6.07C81.5,659.78,28.52,566.45,15.25,462.33c-2.15-16.82-3.24-33.99-3.24-51.04,0-20.7,1.59-41.45,4.73-61.66,13.03-83.96,51.85-160.27,112.25-220.67C204.38,53.54,304.65,12.01,411.31,12.01h280.8c65.35,0,118.52,53.17,118.52,118.52v280.76c0,70.99-18.84,140.65-54.47,201.45-3.33,5.72-6.52,10.89-9.76,15.78-6.98,10.77-14.67,21.45-22.84,31.7-4.37,5.42-8.31,10.11-12.05,14.33-2.9,3.35-5.9,6.65-9.13,10.04-1.23,1.34-2.54,2.75-3.89,4.12-67.21,69.67-157.24,112.48-253.5,120.52-11.23.93-22.56,1.4-33.68,1.4Zm0-790.82c-104.58,0-202.88,40.72-276.79,114.65-59.23,59.23-97.29,134.04-110.06,216.35-3.08,19.81-4.64,40.16-4.64,60.46,0,16.72,1.07,33.57,3.18,50.06,13.01,102.08,64.96,193.58,146.26,257.65,2.71,2.18,5.22,4.11,7.71,5.91,1.29.99,2.53,1.9,3.77,2.78.37.27.67.49.98.71l.72.52c60.01,43.43,130.92,68.74,205.06,73.18,7.62.5,15.41.74,23.81.74,10.9,0,22.02-.46,33.03-1.37,94.37-7.88,182.64-49.86,248.56-118.19,1.32-1.34,2.56-2.67,3.77-4,3.19-3.36,6.11-6.56,8.96-9.86,3.69-4.17,7.55-8.76,11.83-14.07,8-10.03,15.54-20.5,22.4-31.09,3.17-4.8,6.29-9.85,9.55-15.45,34.94-59.61,53.41-127.9,53.41-197.51V130.53c0-61.05-49.66-110.71-110.71-110.71h-280.8Z"/><path class="cls-1" d="m411.31,822.65c-8.79,0-16.99-.25-25.08-.78-77.83-4.67-152.34-31.26-215.41-76.91l-.54-.38c-.43-.3-.9-.64-1.37-.99-1.09-.77-2.51-1.81-3.9-2.88-2.43-1.76-5.2-3.88-8.15-6.26C71.57,667.24,17.01,571.11,3.34,463.85c-2.21-17.33-3.34-35.02-3.34-52.57,0-21.32,1.64-42.68,4.88-63.51,13.42-86.49,53.41-165.1,115.63-227.32C198.16,42.78,301.44,0,411.31,0h280.81c71.97,0,130.53,58.55,130.53,130.53v280.76c0,73.13-19.41,144.89-56.13,207.52-3.41,5.86-6.72,11.21-10.1,16.33-7.15,11.03-15.06,22.02-23.47,32.57-4.5,5.58-8.55,10.4-12.45,14.8-2.95,3.41-6.05,6.82-9.41,10.36-1.18,1.29-2.59,2.8-4.04,4.27-69.16,71.69-161.9,115.78-261.06,124.06-11.55.96-23.21,1.44-34.68,1.44Zm0-790.82c-101.37,0-196.66,39.47-268.3,111.13-57.41,57.42-94.3,129.93-106.69,209.71-2.99,19.21-4.5,38.93-4.5,58.62,0,16.21,1.04,32.54,3.08,48.54,12.61,98.93,62.97,187.62,141.78,249.73,2.64,2.12,4.99,3.93,7.32,5.62,1.42,1.08,2.56,1.91,3.7,2.73l1.71,1.22c58.22,42.14,126.94,66.66,198.8,70.97,7.42.48,14.95.72,23.09.72,10.55,0,21.33-.45,32.04-1.34,91.45-7.64,177.01-48.32,240.91-114.56,1.3-1.32,2.44-2.55,3.56-3.77,3.19-3.35,6-6.45,8.74-9.61,3.64-4.11,7.39-8.57,11.56-13.74,7.72-9.68,15.02-19.82,21.67-30.09,3.1-4.7,6.11-9.56,9.25-14.96,33.88-57.8,51.78-124,51.78-191.47V130.53c0-54.42-44.28-98.7-98.7-98.7h-280.81Z"/></g><g class="cls-5"><path class="cls-4" d="m701.57,552.42l1.77-1.77-.98-.96c-.25.91-.52,1.82-.8,2.73Z"/><path class="cls-2" d="m400.48,575.07c-.41,5.94-1.62,11.83-1.59,17.72.05,6.35-3.59,9.03-8.65,10.97-1.93.73-3.87,1.55-5.8,2.32-44.29,17.34-87.16,37.65-128.04,62.02-28.35,16.9-55.08,36.08-77.78,59.97-.07.96-.11,1.89-.16,2.8-1.27-.91-2.55-1.84-3.8-2.8-2.66-1.93-5.26-3.94-7.83-6.01-79.42-62.59-134.29-154.93-147.72-260.22-2.12-16.56-3.21-33.42-3.21-50.55,0-20.77,1.59-41.16,4.69-61.06l298.21-184.12,2.62,2.62c-6.37,5.37-11.76,12.13-16.54,19.68-3.91,6.21-4.21,12.85,3.16,18.11-33.31,32.58-44.5,135.68-14.22,181.34-10.31,16.9-11.85,35.29-6.8,53.99,5.19,18.95,17.06,32.9,35.4,41.02-4.8,8.67-3.94,15.95,2.57,22.61,1.21,1.25,1.77,3.14,2.53,4.75,7.21,15.77,25.59,30.44,44.73,27.14,7.94-1.39,11.9.96,14.88,7.64,4.5,10.01,14.26,17.7,13.35,30.05Z"/><polygon class="cls-2" points="694.09 269.63 684.76 233.64 592.77 202.97 475.46 206.97 376.8 316.29 310.14 333.62 287.48 430.94 306.15 469.61 340.81 476.27 375.47 502.93 410.13 509.6 408.8 572.26 410.13 673.58 484.79 736.24 610.11 690.91 612.77 606.92 680.76 549.59 703.43 462.94 703.43 425.61 707.43 401.61 710.09 370.95 694.09 269.63"/></g><path class="cls-1" d="m720.39,325.92c-11.6-8.46-13.08-18.4-13.6-30.33-.09-1.82-.11-3.71-.66-5.37-1.27-3.89-.59-6.19,3.66-7.71,8.28-2.91,12.9-9.42,12.44-17.88-.41-8.92-1.39-18.18-4.39-26.5-6.92-19.09-15.2-37.67-22.7-56.01,2.23.23,4.75-.23,7.48-.52-3.09-9.96-9.83-27.12-24.8-43.79-18.04-20.07-38.49-28.73-48.71-32.28-9.1-1.59-18.4-2.53-27.89-2.71-3.16-.09-6.39-3.12-9.44-5.03-3.41-2.09-6.35-5.82-9.92-6.48-31.65-5.6-63.54-6.8-95.14-1.09-18.22,3.3-36.15,8.9-53.69,14.95-18.25,6.23-35.04,15.72-49.94,28.16-3.21,2.68-4.75,6.26-6.46,8.87-2.64,4.05-4.75,7.87-6.46,11.26-3.59-2.18-8.69-2.8-13.13-3.48-2.75-.41-5.82,1.75-8.8,2-12.49,1.02-22.48,5.71-30.78,12.76-6.37,5.37-11.76,12.13-16.54,19.68-3.91,6.21-4.21,12.85,3.16,18.11-33.31,32.58-44.5,135.68-14.22,181.34-10.31,16.9-11.85,35.29-6.8,53.99,5.19,18.95,17.06,32.9,35.4,41.02-4.8,8.67-3.94,15.95,2.57,22.61,1.21,1.25,1.77,3.14,2.52,4.75,7.21,15.77,25.59,30.44,44.73,27.14,7.94-1.39,11.9.96,14.88,7.64,4.5,10.01,14.26,17.7,13.35,30.05-.41,5.94-1.62,11.83-1.59,17.72.05,6.35-3.59,9.03-8.65,10.97-1.93.73-3.87,1.55-5.8,2.32-44.29,17.34-87.16,37.65-128.04,62.02-28.35,16.9-55.08,36.08-77.78,59.97,1.8,1.36,3.62,2.68,5.48,4,58.88,42.61,130.04,69.3,207.12,73.92,7.94.52,15.95.75,24.05.75,11.24,0,22.36-.48,33.35-1.39,98.3-8.21,186.41-52.37,251.05-119.37,1.32-1.34,2.59-2.71,3.84-4.07-19.31-18.06-40.59-33.72-64.18-46.57-3.07-1.66-5.91-3.69-10.62-6.62,32.01-2,49.62-19.43,61.36-45.11,4.64-10.17,8.39-20.61,11.49-31.19.27-.91.55-1.82.8-2.73,0,0,.02,0,0-.02,4.21-14.81,7.19-29.94,9.67-45.25,4.05-25.16,6.87-50.39,4-75.99-.3-2.48,1.66-5.94,3.59-7.89,9.01-9.08,15.13-19.77,18.63-31.94,6.39-22.16,6.21-44-13.9-58.67Zm-28.55,159.39c-4.64-8.85-11.08-16.36-10.69-16.22-4.98-7.39-45.91-23.3-60.83-22.05-6.17.52-12.79.55-18.77-.5-.8-.14-1.66-.25-2.59-.32-13.26-1.14-39.38,3.57-44.41,5.28-3.16,1.07-6.28,2.23-9.33,3.46-1.91.84-3.75,1.71-5.57,2.62-2.07,1.05-3.57,1.98-7.58,4.66-2.68,1.8-11.13,7.19-9.65,6.96-3.98,6.83-21.27,17.81-24.02,23.68-1.77,3.8-.39,6.64,2.91,8.71-8.6,9.99-18.5,10.9-37.56,5.51-13.06-3.69-25.46-10.06-37.7-16.13-12.51-6.23-20.32-17.04-23.34-30.6-3.96-17.7-7.01-35.6-10.65-53.37-1.55-7.51,1.57-13.29,5.35-19.34,2.96-4.75,3.34-12.26,7.3-14.9,3.57-2.39,10.44.09,15.86.55,11.35.98,22.7,2.05,34.42,3.09,9.19,42.43,33.58,57.67,68.8,58.29,17.88.3,34.53-2.96,48.21-15.42,9.33-8.49,17.27-21.27,23.25-40.13,8.71,5.62,17.86,10.24,20.11,21.91.82,4.21,3.46,8.08,5.32,12.06,3.94,8.39-.32,15.86-9.62,16.33-3.28.16-6.64-.75-9.92-1.36-5.91-1.14-12.35,1.8-12.42,6.23,0,.64.02,1.25.11,1.8.5,3.5,2.75,5.37,5.98,5.98.96.18,1.98.25,3.09.23,8.92-.2,18.36,1.3,26.57-1.23,6.05-1.87,10.49-9.01,16.63-14.72,14.97,9.12,33.15,10.92,53.1,4.23.73,18.72.57,36.95-2.37,54.71Zm-29.28,51.17c-.93,10.12-10.87,12.44-21.18,9.94-10.97-2.66-18.66-7.1-23.96-16.33-4.09-7.14-10.49-10.17-17.65-7.8-4.55,1.5-9.44,5.82-11.53,10.17-8.67,17.93-34.35,23.32-54.99,14.13-7.33-3.25-8.53-11.1-8.74-18.04-.23-7.19.43-14.76,2.21-22.16,3.82.05,7.6-.07,11.03-.32,5.87-.43,11.51-2.57,17.27-3.91,6.21-1.46,12.22-3.37,18.31-4.71-1.62,1.09-3.37,2.73-3.41,4.12-.05,2.09,1.41,5.12,3.16,6.17,2.75,1.66,6.28,2.57,9.51,2.75,6.73.41,13.47.14,20.22.14v-.23c7.51,0,15.04.36,22.52-.14,5.46-.34,12.19-1.75,12.24-8.28.05-3.87-2.55-5.35-5.57-5.96.89-.27,1.77-.52,2.62-.75,6.98,1.32,15.86,7.26,25.28,11.92,1.36.68,2.73,1.32,4.12,1.93.02.73.02,1.48.02,2.21,0,8.39-.73,16.81-1.48,25.16Zm-71.53,127.04c-5.32,17.13-20.57,24.05-36.17,27.64-.16.05-.34.07-.5.11-28.32,6.42-55.12-.05-80.1-14.06-15.54-8.71-28.89-20.25-40.06-34.19-9.51-11.88-15.2-25-14.4-40.65.11-2.5-2.8-5.14-5.19-9.24.34-2.46,1-6.98,1.87-12.85,54.55,32.42,111.2,55.15,177.18,53.96-.52,6.55-.34,12.92-.8,18.93-.3,3.57-.8,7.05-1.82,10.35Zm-224.73-227.89c.82,8.96-.39,16.27-9.46,21.64-10.03,5.96-19.61,8.96-30.8,4.53-20.59-8.14-32.56-33.69-25.87-55.4,6.73-21.93,21.18-32.56,42.91-31.24,1.68.09,3.73,1.64,4.85,3.12,16.13,21.27,19.88,24.16,18.36,51.92,0,1.82-.14,3.64.02,5.44Zm79.35-144.3c6.85-8.9,15.9-13.72,23.11-16.47-.32-4.85,0-10.47,3.19-12.24,3-1.66,5.66,1.64,12.54,2.12,1.07.07,10.85.59,17.72-6.21,3.03-3,4.41-6.37,5.07-8.44,1.41-2.09,3.64-4.57,6.76-5.07,1.98-.34,2.59.59,5.87,1.09,6.83,1.02,13.17.98,18.66-4.75.75-.77,2.16-1.23,3.73-1.41.91-1.55,2.12-2.91,3.64-3.98,2.09-1.46,4.3-1.98,7.64-2.3,8.08-.77,10.15.82,16.33-.09,3.5-.5,2.75-1,7.58-2.05,7.39-1.62,12.69-2.78,16.81-.16,5.03,3.23,5.57,10.42,5.76,11.94.59,5.48-1.5,9.62-2.64,12.24-4.23.27-8.28-8.33-13.35-7.64-2.39.34-5.41,2.78-8.08,11.85-.25,3.41-.36,11.72,4.98,18.63,9.12,11.69,29.01,12.9,41.38,4.07,9.28-6.62,11.67-17.13,12.24-20.27.16-4.6-.23-12.03-3.14-20.45,5.64,6.39,10.53,8.1,14.15,8.35,6.85.5,11.9-4,19.11-1.57,4.16,1.41,6.89,4.37,8.42,6.39,3.71,4.14,8.24,10.24,11.74,18.4,6.67,15.58,5.71,29.78,4.75,36.76-5.3-.52-10.35-1.64-15.36-1.41-12.1.59-24.46.48-36.17,3.07-14.81,3.28-25.09,13.15-29.71,28.16-7.78,1.46-13.06.48-17.11-8.05-7.35-15.49-22-20.88-38.13-23.34-23.68-3.59-47.18-3.12-70,4.37-4.62,1.52-8.62,3.34-12.06,5.51-11.49,7.21-16.56,18.29-17.22,34.69-.07,1.5-.18,3.03-.34,5.37-7.01-.59-13.67-1.11-20.34-1.71,4.57-13.06-4.12-42.68,11.78-64.47.2-.32.43-.61.68-.93Zm247.23,109.16c1.07,9.28.23,11.31-8.71,14.15-18.88,6.03-39.9-2-49.44-19.47-8.01-14.65-11.17-30.53-9.28-47.18,1.07-9.51,6.69-15.67,15.65-18.34,14.2-4.19,28.67-4.37,43.09-1.46,1.68.34,4.1,2.59,4.25,4.14,1.02,9.53,1.5,19.11,2.16,28.67-.36.02.8,26.39,2.28,39.49Zm-134.11,5.57c-10.49,8.6-24.68,12.33-40.02,10.46-35.01-4.25-46.39-25.75-46.57-62.04-.07-11.69,3.75-19,11.9-23.11,3.21-1.64,7.12-2.78,11.72-3.5,10.49-1.64,21.11-2.53,33.35-3.94,9.55,1.48,20.7,2.5,31.51,5.05,11.51,2.73,17.56,11.31,18.29,23.21.89,13.85-2.23,26.89-8.42,39.15-2.98,5.87-6.98,10.81-11.76,14.72Z"/><path class="cls-1" d="m345.58,438.58c.75-.91,2.85-.9,3.3-1.82,2.26-4.61,6.17-9.52,5.84-14.06-.87-11.95-23.66-25.17-34.63-20.36-3.2,1.41-4.87,6.31-7.24,9.62,2.44,2.66,6.01,5.82,9.22,4.99,2.97-.76,3.31-4.35,6-5.4,2.37-.93,6.65.08,15,9.3-1.17,1.02-4.5,4.21-5.7,9.6-1.25,5.58.57,10.02,1.2,11.4"/><path class="cls-3" d="m1146.24,9.5v132.44h-130.92V9.5h-77.95v346.31h77.95v-146.93h130.92v146.93h77.95V9.5h-77.95Z"/><path class="cls-3" d="m1482.23,104.19c-23.14-24.34-54.57-36.51-94.37-36.51-17.06,0-33.67,3.2-49.85,9.57-16.17,6.41-30.47,15.81-42.88,28.27-12.45,12.45-22.5,27.99-30.11,46.64-7.65,18.66-11.49,40.4-11.49,65.3,0,20.58,2.92,39.8,8.81,57.57,5.85,17.74,14.93,33.11,27.18,46.08,12.25,12.97,27.7,23.18,46.36,30.67,18.66,7.45,40.6,11.17,65.82,11.17,9.97,0,19.9-.52,29.87-1.6,9.93-1.04,19.26-2.4,27.99-4,8.69-1.56,16.61-3.44,23.7-5.56,7.13-2.16,12.81-4.28,17.06-6.41l-10.65-64.5c-8.89,3.92-20.34,7.21-34.39,9.85-14.01,2.68-28.35,4-42.88,4-22.74,0-40.88-4.8-54.37-14.37-13.53-9.61-21.18-22.58-22.94-38.92h180.16c.36-4.28.72-9.17,1.08-14.65.32-5.53.52-10.57.52-15.21,0-47.24-11.57-83.04-34.63-107.38Zm-147.13,82.88c1.08-6.77,2.76-13.41,5.08-19.98,2.28-6.57,5.57-12.37,9.85-17.34,4.24-4.96,9.61-8.97,15.97-12.01,6.41-3,14.05-4.52,22.94-4.52s16.98,1.6,23.18,4.8c6.21,3.2,11.37,7.29,15.45,12.25,4.08,5,7.09,10.69,9.05,17.06,1.96,6.41,3.12,12.97,3.48,19.74h-105.02Z"/><path class="cls-3" d="m1792.99,144.94c-3.92-15.61-10.49-29.11-19.74-40.52-9.21-11.37-21.74-20.14-37.55-26.38-15.81-6.21-35.63-9.33-59.41-9.33s-45.84,1.72-67.18,5.08c-21.3,3.36-38.72,7.01-52.25,10.93v270.77h79.43v-216.4c4.96-.72,10.65-1.36,17.06-1.88,6.41-.52,12.45-.8,18.14-.8,18.46,0,31.07,5.32,37.83,16.01,6.73,10.65,10.13,28.79,10.13,54.33v148.74h79.43v-158.3c0-19.22-1.96-36.59-5.89-52.25Z"/><path class="cls-3" d="m2007.82,75.4c-6.05-1.24-12.05-2.32-18.1-3.2-6.05-.88-12.09-1.6-18.14-2.12-6.05-.56-11.17-.8-15.45-.8-23.82,0-45.4,2.2-64.74,6.65-19.38,4.44-36.19,9.17-50.41,14.13v265.44h79.43v-214.27c3.56-1.08,8.81-2.04,15.73-2.92,6.93-.88,12.85-1.36,17.86-1.36,11.01,0,21.3,1,30.91,2.96,9.61,1.96,17.94,3.8,25.06,5.57l13.29-65.54c-4.24-1.76-9.41-3.28-15.45-4.52Z"/><path class="cls-3" d="m2063.79,75.12v280.37l79.43-1.08V75.12h-79.43Z"/><path class="cls-3" d="m2436.37,78.56c-9.29-1.92-18.9-3.6-29.03-5-10.09-1.48-20.46-2.64-30.91-3.52-10.53-.84-20.58-1.28-30.15-1.28-23.14,0-43.72,3.52-61.86,10.69-18.1,7.01-33.35,17.14-45.8,30.07-12.49,12.97-21.98,28.43-28.47,46.36-6.61,18.02-9.93,37.71-9.93,59.45,0,44.8,10.45,80.19,31.47,106.3,20.98,26.1,51.37,39.24,91.12,39.24,10.97,0,21.34-1.08,30.91-3.2,9.61-2.12,18.86-5.2,27.71-9.05v95.33h79.43V84.77c-7.13-2.12-15.25-4.16-24.5-6.21Zm-54.93,203.94c-5,3.2-11.37,5.85-19.38,8.01-8.01,2.12-16.09,3.2-24.3,3.2-37.63,0-56.49-25.5-56.49-76.23,0-24.54,5.52-44.24,16.49-58.97,11.01-14.69,27.42-22.06,49.04-22.06,7.17,0,13.65.2,19.74.76,6.05.52,10.97,1.16,14.89,1.92v143.37Z"/><path class="cls-3" d="m2674.11,75.12v216.4c-4.96.72-10.65,1.36-17.06,1.88-6.37.52-12.41.8-18.1.8-18.5,0-31.11-5.69-37.87-17.06-6.73-11.37-10.09-29.87-10.09-55.45V75.12h-79.43v156.18c0,19.18,1.96,36.75,5.85,52.77,3.92,15.97,10.49,29.75,19.74,41.32,9.25,11.53,21.74,20.5,37.55,26.9,15.81,6.41,35.63,9.57,59.45,9.57s45.84-1.68,67.14-5.04c21.34-3.36,38.76-7.01,52.25-10.93V75.12h-79.43Z"/><path class="cls-3" d="m3020.06,104.19c-23.1-24.34-54.53-36.51-94.33-36.51-17.06,0-33.67,3.2-49.85,9.57-16.17,6.41-30.47,15.81-42.88,28.27-12.45,12.45-22.5,27.99-30.15,46.64-7.65,18.66-11.45,40.4-11.45,65.3,0,20.58,2.92,39.8,8.81,57.57,5.85,17.74,14.93,33.11,27.18,46.08,12.25,12.97,27.71,23.18,46.36,30.67,18.66,7.45,40.6,11.17,65.82,11.17,9.97,0,19.9-.52,29.87-1.6,9.93-1.04,19.26-2.4,27.99-4,8.69-1.56,16.58-3.44,23.7-5.56,7.09-2.16,12.81-4.28,17.06-6.41l-10.65-64.5c-8.89,3.92-20.34,7.21-34.39,9.85-14.05,2.68-28.35,4-42.92,4-22.74,0-40.84-4.8-54.37-14.37-13.49-9.61-21.14-22.58-22.9-38.92h180.16c.36-4.28.68-9.17,1.04-14.65.36-5.53.56-10.57.56-15.21,0-47.24-11.57-83.04-34.67-107.38Zm-147.09,82.88c1.08-6.77,2.76-13.41,5.04-19.98,2.32-6.57,5.6-12.37,9.89-17.34,4.24-4.96,9.57-8.97,15.97-12.01,6.41-3,14.05-4.52,22.94-4.52s16.94,1.6,23.18,4.8c6.21,3.2,11.37,7.29,15.45,12.25,4.08,5,7.09,10.69,9.05,17.06,1.96,6.41,3.12,12.97,3.48,19.74h-105.02Z"/><path class="cls-3" d="m1135.47,597.28v120.43c-4.64,1-10.05,1.68-16.21,2-6.17.32-13.57.48-22.26.48-15.97,0-29.99-2.72-41.96-8.25-12.01-5.48-21.98-13.21-29.99-23.22-8.01-10.01-13.97-21.9-17.98-35.71s-6.01-29.23-6.01-46.24c0-34.95,8.09-62.54,24.22-82.68,16.17-20.18,42.4-30.27,78.71-30.27,16.34,0,31.39,2.12,45.24,6.25,13.81,4.2,26.06,9.09,36.71,14.77l22.5-62.46c-2.68-1.68-7.09-4-13.25-7.01s-14.01-5.93-23.5-8.77c-9.49-2.8-20.82-5.32-33.99-7.49-13.13-2.16-27.87-3.24-44.2-3.24-23.98,0-46.56,4-67.7,12.01-21.18,7.97-39.56,19.74-55.21,35.23-15.69,15.49-27.99,34.39-36.99,56.69-9.01,22.34-13.49,47.96-13.49,76.95s4.08,54.17,12.25,76.47c8.17,22.3,19.74,41.16,34.71,56.45,15.01,15.33,33.07,26.98,54.21,34.99,21.18,8.01,44.76,12.01,70.74,12.01,30.31,0,55.77-2.12,76.43-6.25,20.66-4.2,35.63-8.09,44.96-11.77v-171.4h-77.95Z"/><path class="cls-3" d="m1484.07,559.08c-3.92-14.21-10.57-26.3-19.98-36.23-9.45-9.97-21.94-17.62-37.59-22.94-15.61-5.32-35.19-8.01-58.61-8.01-9.25,0-18.42.48-27.46,1.36-9.05.88-17.7,1.92-25.86,3.16-8.17,1.28-15.69,2.68-22.62,4.28-6.97,1.6-12.73,3.12-17.34,4.52l10.13,63.98c9.57-3.56,20.94-6.33,34.11-8.29,13.13-1.92,26.46-2.92,39.96-2.92,20.26,0,34.47,4.08,42.64,12.25,8.17,8.21,12.29,19.02,12.29,32.55v7.45c-5-1.44-11.49-2.6-19.46-3.48-8.01-.88-17.18-1.32-27.46-1.32-15.29,0-30.03,1.52-44.24,4.52-14.21,3.04-26.82,7.93-37.83,14.65-11.01,6.77-19.82,15.81-26.38,27.18-6.57,11.37-9.85,25.26-9.85,41.6s2.84,31.43,8.53,43.16c5.69,11.73,13.85,21.22,24.5,28.51,10.65,7.29,23.38,12.53,38.11,15.73s31.19,4.8,49.28,4.8c28.79,0,53.33-1.68,73.59-5.08,20.22-3.36,36.03-6.29,47.4-8.77v-165.23c0-17.42-1.96-33.23-5.85-47.44Zm-70.34,163.07c-4.28.72-9.97,1.28-17.06,1.6-7.13.36-14.57.56-22.42.56-14.57,0-26.02-2.4-34.35-7.21-8.37-4.8-12.53-13.41-12.53-25.86,0-6.37,1.4-11.73,4.24-15.97,2.84-4.28,6.77-7.65,11.73-10.13,4.96-2.48,10.77-4.16,17.34-5.04,6.57-.88,13.57-1.36,21.06-1.36,5.32,0,11.17.36,17.58,1.08,6.41.72,11.21,1.44,14.41,2.12v60.21Z"/><path class="cls-3" d="m1920.22,569.21c-3.16-15.65-9.05-29.15-17.58-40.52-8.53-11.37-19.98-20.18-34.39-26.38-14.37-6.21-32.75-9.33-55.13-9.33-12.45,0-26.06,2.32-40.8,6.93-14.73,4.6-27.78,11.01-39.16,19.18-8.21-7.09-18.58-13.21-31.19-18.38-12.61-5.16-29.07-7.73-49.32-7.73-10.29,0-20.78.44-31.43,1.32-10.65.88-21.06,2.12-31.19,3.72-10.13,1.6-19.74,3.4-28.79,5.36-9.05,1.92-16.98,3.8-23.7,5.57v270.77h79.39v-216.4c5-.68,10.13-1.32,15.45-1.84,5.33-.56,10.49-.8,15.45-.8,16.01,0,27.26,5.32,33.87,15.97,6.57,10.65,9.85,28.79,9.85,54.37v148.69h79.43v-152.94c0-10.33-.36-20.02-1.08-29.07-.72-9.05-2.32-17.66-4.8-25.86,5-3.2,11.29-5.85,18.94-7.97,7.65-2.16,13.57-3.2,17.86-3.2,15.97,0,27.26,5.32,33.83,15.97,6.57,10.65,9.89,28.79,9.89,54.37v148.69h79.39v-158.3c0-19.18-1.6-36.59-4.8-52.21Z"/><path class="cls-3" d="m2222.26,579.58c-5.33-17.94-13.17-33.31-23.46-46.08-10.29-12.81-23.1-22.66-38.35-29.59-15.29-6.93-32.87-10.41-52.77-10.41-11.05,0-21.34,1.08-30.95,3.2-9.57,2.12-18.82,5.16-27.7,9.05v-97.09l-79.39,2.2v359.81c7.09,2.12,15.25,4.16,24.5,6.13,9.25,1.96,18.94,3.64,29.07,5.08,10.13,1.4,20.42,2.56,30.91,3.44,10.45.88,20.5,1.36,30.11,1.36,23.1,0,43.72-3.48,61.82-10.41,18.14-6.93,33.39-16.82,45.84-29.59,12.45-12.81,21.94-28.27,28.51-46.36,6.61-18.14,9.89-38.39,9.89-60.78s-2.68-42.04-8.01-59.97Zm-89.56,117.03c-11.01,14.89-27.34,22.38-49,22.38-7.13,0-13.69-.28-19.74-.8-6.05-.56-11.01-1.16-14.93-1.88v-144.45c4.96-3.2,11.45-5.85,19.46-7.97,8.01-2.16,16.09-3.2,24.26-3.2,37.67,0,56.49,25.58,56.49,76.75,0,24.5-5.53,44.24-16.54,59.17Z"/><path class="cls-3" d="m2521.37,578.78c-6.77-18.1-16.17-33.55-28.23-46.36-12.09-12.81-26.58-22.74-43.48-29.83-16.86-7.13-35.43-10.69-55.69-10.69s-38.27,3.56-55.17,10.69c-16.86,7.09-31.43,17.02-43.68,29.83s-21.86,28.27-28.79,46.36c-6.93,18.14-10.41,38.19-10.41,60.25s3.4,42.2,10.13,60.49c6.77,18.3,16.17,33.91,28.27,46.88,12.05,12.97,26.54,23.02,43.44,30.15,16.86,7.09,35.63,10.65,56.21,10.65s39.92-3.56,56.77-10.65c16.9-7.13,31.35-17.18,43.44-30.15,12.09-12.97,21.34-28.59,27.75-46.88,6.37-18.3,9.57-38.47,9.57-60.49s-3.36-42.12-10.13-60.25Zm-85.56,118.63c-9.77,14.37-23.7,21.58-41.84,21.58s-32.15-7.21-42.08-21.58c-9.97-14.41-14.93-33.87-14.93-58.37s4.96-43.8,14.93-57.85c9.93-14.01,23.98-21.06,42.08-21.06s32.07,7.05,41.84,21.06c9.77,14.05,14.69,33.31,14.69,57.85s-4.92,43.96-14.69,58.37Z"/><path class="cls-3" d="m2745.37,499.63c-6.05-1.24-12.05-2.28-18.1-3.2-6.05-.88-12.09-1.56-18.14-2.12-6.05-.52-11.17-.8-15.45-.8-23.82,0-45.4,2.24-64.78,6.69-19.34,4.44-36.15,9.13-50.37,14.09v265.44h79.43v-214.23c3.56-1.08,8.81-2.04,15.73-2.96,6.93-.88,12.85-1.32,17.86-1.32,11.01,0,21.3.96,30.91,2.92,9.61,1.96,17.94,3.84,25.06,5.61l13.29-65.54c-4.24-1.8-9.41-3.32-15.45-4.56Z"/><path class="cls-3" d="m3007.93,502.83c-9.09-1.96-18.58-3.64-28.55-5.04-9.93-1.44-19.98-2.6-30.11-3.48-10.13-.88-19.98-1.32-29.59-1.32-22.38,0-42.44,3.28-60.21,9.85-17.78,6.61-32.79,15.93-45.04,27.99-12.25,12.09-21.58,26.58-27.99,43.44-6.41,16.9-9.57,35.63-9.57,56.25,0,41.2,10.29,73.27,30.91,96.21,20.58,22.9,50.25,34.35,89,34.35,10.65,0,20.5-.96,29.59-2.92,9.05-1.96,17.86-4.88,26.38-8.77v10.09c0,15.65-4.72,28.43-14.13,38.39-9.41,9.93-25.5,14.93-48.24,14.93-17.42,0-32.95-1.44-46.64-4.28-13.69-2.84-26.74-6.73-39.16-11.73l-13.85,66.62c14.57,5,30.35,9.01,47.44,12.01,17.06,3,34.11,4.52,51.17,4.52,48.64,0,84.64-11.09,107.9-33.31,23.3-22.22,34.95-56.21,34.95-102.05v-235.61c-7.13-2.12-15.21-4.16-24.26-6.13Zm-55.17,183.65c-5,2.84-11.01,5.32-18.14,7.45-7.09,2.12-14.73,3.2-22.9,3.2-35.91,0-53.85-22.22-53.85-66.62,0-21.34,5.16-38.92,15.45-52.77,10.33-13.85,25.94-20.82,46.92-20.82,7.09,0,13.33.28,18.66.8,5.32.56,9.93,1.16,13.85,1.88v126.88Z"/><path class="cls-3" d="m3090.01,499.39v280.33h79.39v-280.33h-79.39Z"/></svg>